<svg width="149" height="150" viewBox="0 0 149 150" fill="none" xmlns="http://www.w3.org/2000/svg">
<path d="M43.9375 18.8281H129.793V148.97L43.9375 149.053V18.8281Z" fill="white"/>
<path d="M128.668 0.431641H20.1146C9.03203 0.431641 0.0820312 9.38164 0.0820312 20.4643V129.018C0.0820312 140.066 9.03203 149.051 20.1146 149.051H73.6398L73.7447 95.9449H59.9352C58.1521 95.9449 56.6838 94.5115 56.6838 92.6936L56.6139 75.5627C56.6139 73.7447 58.0822 72.3113 59.8652 72.3113H73.6398V55.7748C73.6398 36.5813 85.3518 26.1279 102.483 26.1279H116.537C118.32 26.1279 119.788 27.5963 119.788 29.3793V43.8182C119.788 45.6012 118.32 47.0695 116.537 47.0695H107.902C98.602 47.0695 96.784 51.5096 96.784 57.9774V72.3113H117.236C119.194 72.3113 120.697 74.0244 120.453 75.9473L118.425 93.0781C118.215 94.7213 116.852 95.9449 115.208 95.9449H96.8539L96.784 149.016H128.633C139.681 149.016 148.666 140.066 148.666 128.983V20.4643C148.666 9.38164 139.716 0.431641 128.668 0.431641Z" fill="#475993"/>
</svg>
