<svg width="152" height="151" viewBox="0 0 152 151" fill="none" xmlns="http://www.w3.org/2000/svg">
<path d="M151.27 117.453C151.27 135.528 136.609 150.177 118.504 150.177H33.4961C15.3906 150.177 0.730469 135.528 0.730469 117.453V33.5469C0.730469 15.4721 15.3906 0.823486 33.4961 0.823486H118.539C136.645 0.823486 151.305 15.4721 151.305 33.5469V117.453H151.27Z" fill="url(#paint0_radial)"/>
<path fill-rule="evenodd" clip-rule="evenodd" d="M53.4294 30.0272C41.3699 30.0272 31.6088 39.7589 31.6088 51.7265V99.588C31.6088 111.581 41.3949 121.287 53.4294 121.287H98.5701C110.63 121.287 120.391 111.556 120.391 99.588V51.7265C120.391 39.734 110.605 30.0272 98.5701 30.0272H53.4294ZM19.2812 51.7265C19.2812 32.9984 34.5515 17.7681 53.4294 17.7681H98.5701C117.403 17.7681 132.718 32.9534 132.718 51.7265V99.588C132.718 118.316 117.448 133.547 98.5701 133.547H53.4294C34.5967 133.547 19.2812 118.361 19.2812 99.588V51.7265Z" fill="white"/>
<path fill-rule="evenodd" clip-rule="evenodd" d="M75.7831 58.306C66.5939 58.051 58.7135 65.8057 58.7135 75.4999C58.7135 84.9971 66.45 92.6906 76.0003 92.6906C85.3931 92.6906 93.0571 85.1221 93.2889 75.3363C93.3949 70.1317 91.8454 66.1035 89.2771 63.3738C86.7449 60.6825 82.518 58.5044 75.7831 58.306ZM43.6465 75.4999C43.6465 57.9262 57.9821 42.8174 76.2127 43.3288L76.2175 43.3289L76.2222 43.329C86.1839 43.621 94.5063 47.0012 100.279 53.1369C106.015 59.2333 108.526 67.2984 108.353 75.6543L108.352 75.6635L108.352 75.6727C107.946 93.1519 94.0264 107.674 76.0003 107.674C58.1287 107.674 43.6465 93.2722 43.6465 75.4999Z" fill="white"/>
<path d="M106.551 51.9014C110.395 51.9014 113.512 48.8022 113.512 44.9791C113.512 41.1561 110.395 38.0569 106.551 38.0569C102.706 38.0569 99.5898 41.1561 99.5898 44.9791C99.5898 48.8022 102.706 51.9014 106.551 51.9014Z" fill="white"/>
<defs>
<radialGradient id="paint0_radial" cx="0" cy="0" r="1" gradientUnits="userSpaceOnUse" gradientTransform="translate(44.4822 149.828) scale(151.763 150.92)">
<stop stop-color="#FFD776"/>
<stop offset="0.2463" stop-color="#F3A554"/>
<stop offset="0.3793" stop-color="#F15C3C"/>
<stop offset="0.5394" stop-color="#D94867"/>
<stop offset="0.6995" stop-color="#C32F87"/>
<stop offset="0.9122" stop-color="#7D63A7"/>
<stop offset="0.9852" stop-color="#5C6CB3"/>
</radialGradient>
</defs>
</svg>
