<svg width="308" height="62" viewBox="0 0 308 62" fill="none" xmlns="http://www.w3.org/2000/svg">
<path fill-rule="evenodd" clip-rule="evenodd" d="M210.149 26.4325C210.149 24.6054 210.288 23.0595 210.427 21.5838H210.218C209.731 23.1298 209.104 24.6757 208.338 26.1514L196.846 51.2379H194.061V15.6811H197.125V40.346C197.125 42.2433 196.986 43.7892 196.846 45.3352H197.055C197.543 43.719 198.239 42.173 198.936 40.6271L210.427 15.6108H213.283V51.1676H210.149V26.4325Z" fill="black"/>
<path fill-rule="evenodd" clip-rule="evenodd" d="M271.158 51.2377H267.885V16.1025H271.158V32.6863L282.789 16.1025H285.993L274.501 32.4755L286.828 51.2377H283.207L271.158 33.0377V51.2377Z" fill="black"/>
<path fill-rule="evenodd" clip-rule="evenodd" d="M228.534 51.3782C227.211 51.3782 225.957 51.0972 224.913 50.535C223.798 49.9728 222.963 49.1999 222.336 48.3566V61.6377H219.062V15.6107H221.918L222.197 21.3728C222.963 19.6863 224.007 18.2107 225.331 16.8755C226.654 15.5404 228.256 14.908 230.136 14.908C231.529 14.908 232.852 15.3296 234.036 16.1728C235.22 17.0161 236.126 18.2107 236.962 19.6863C237.728 21.162 238.354 22.989 238.772 25.0971C239.19 27.2053 239.399 29.5242 239.399 32.1242C239.399 38.589 238.424 43.4377 236.404 46.5999C234.385 49.8323 231.808 51.3782 228.534 51.3782ZM228.743 48.8485C230.972 48.8485 232.713 47.5134 234.036 44.8431C235.36 42.1728 236.056 38.0269 236.056 32.4755C236.056 27.8377 235.499 24.2539 234.315 21.6539C233.131 19.1242 231.599 17.789 229.579 17.789C228.813 17.789 228.047 17.9998 227.35 18.3512C226.654 18.7728 225.957 19.2647 225.331 19.8972C224.704 20.5296 224.147 21.3026 223.659 22.1458C223.172 22.9891 222.684 23.9026 222.336 24.8161V44.4917C223.032 45.8972 223.868 47.0215 224.913 47.7242C225.888 48.4972 227.211 48.8485 228.743 48.8485Z" fill="black"/>
<path fill-rule="evenodd" clip-rule="evenodd" d="M299.365 18.8431V51.2377H296.161V18.8431H288.082V16.1025H307.444V18.8431H299.365Z" fill="black"/>
<path fill-rule="evenodd" clip-rule="evenodd" d="M15.6966 31.9134L7.13012 51.2377H0.931641L10.3338 30.5783C5.94614 28.3296 3.02102 24.254 3.02102 16.6648C3.02102 6.05396 9.63737 0.783691 17.577 0.783691H25.5863V51.2377H20.2235V31.9134H15.6966ZM20.1539 5.35125H17.2984C12.9804 5.35125 8.73198 8.23233 8.73198 16.6648C8.73198 24.8161 12.5625 27.4161 17.2984 27.4161H20.1539V5.35125Z" fill="#FF0000"/>
<path fill-rule="evenodd" clip-rule="evenodd" d="M246.991 31.4215H259.806C260.363 21.935 257.578 17.7188 254.026 17.7188C250.265 17.7188 247.27 22.4972 246.991 31.4215ZM254.652 49.0594C259.319 49.0594 261.756 45.2648 261.756 45.2648L262.801 47.935C262.801 47.935 260.154 51.9404 254.583 51.9404C247.061 51.9404 243.648 45.1242 243.648 33.4593C243.648 21.7945 247.966 14.9783 253.956 14.9783C260.015 14.9783 263.985 21.3729 262.871 34.0215H246.922C247.061 43.7188 249.568 49.0594 254.652 49.0594Z" fill="black"/>
<path fill-rule="evenodd" clip-rule="evenodd" d="M183.055 3.66477H172.259C172.051 16.454 171.702 26.1512 171.145 33.4594C170.518 40.9783 169.404 46.0377 167.524 48.3567H183.124L183.055 3.66477ZM186.815 51.2377H165.434L164.947 59.6702H162.23V48.3567H163.693C166.131 46.3188 167.315 40.6972 168.011 33.4594C168.708 26.0107 168.916 14.8377 169.125 0.783691H186.606V48.3567H190.019V59.5999H187.303L186.815 51.2377Z" fill="black"/>
<path fill-rule="evenodd" clip-rule="evenodd" d="M130.195 33.4592C130.195 22.2863 134.443 15.189 142.731 15.189C145.865 15.189 147.676 16.0322 149.208 17.016L148.442 22.216C146.98 20.9511 144.89 19.7565 142.662 19.7565C138.761 19.7565 135.976 24.1836 135.976 33.1782C135.976 42.1025 138.065 47.1619 142.453 47.1619C145.099 47.1619 147.119 46.1079 148.373 44.9836L149.626 49.0592C147.746 50.6755 145.517 51.7295 142.313 51.7295C134.722 51.7295 130.195 45.616 130.195 33.4592ZM114.246 33.5295V51.2376H108.814V15.6809H114.246V32.1241L122.743 15.6809H128.245L119.47 32.4052L129.499 51.2376H123.579L114.246 33.5295ZM88.6164 30.2268H97.6703C97.6703 24.1836 96.6953 19.6863 93.5612 19.6863C90.1486 19.6863 88.9646 23.8322 88.6164 30.2268ZM94.6059 51.7295C87.3628 51.7295 82.8358 45.8971 82.8358 34.9349C82.8358 23.4809 85.9698 15.189 93.4916 15.189C99.3418 15.189 103.242 19.616 103.242 31.7025V34.7241H88.5467C88.5467 42.7349 90.7754 47.0214 95.0935 47.0214C98.1579 47.0214 100.595 45.616 101.988 44.6322L103.242 48.8484C101.013 50.6052 98.0882 51.7295 94.6059 51.7295ZM71.4139 20.1079H65.3547V20.7403C65.3547 28.189 65.0064 39.1511 62.0813 46.7403H71.4835V20.1079H71.4139ZM79.5624 58.1944H74.6872V51.2376H59.5741V58.1944H54.6988V46.6701H56.8578C60.0616 39.1511 60.4098 28.1187 60.4098 18.6322V15.6106H76.7766V46.6701H79.5624V58.1944ZM51.4951 15.6809V51.2376H46.1324V35.2863H38.0535V51.2376H32.6211V15.6809H38.0535V30.789H46.1324V15.6809H51.4951Z" fill="black"/>
</svg>
