<svg width="267" height="60" viewBox="0 0 267 60" fill="none" xmlns="http://www.w3.org/2000/svg">
<path d="M83.4563 9.75738C82.4815 6.12762 79.6218 3.27566 75.9173 2.23859C69.2882 0.488523 42.7716 0.488525 42.7716 0.488525C42.7716 0.488525 16.255 0.488523 9.62584 2.23859C5.9863 3.21084 3.12667 6.0628 2.08681 9.75738C0.332032 16.3687 0.332031 30.1099 0.332031 30.1099C0.332031 30.1099 0.332032 43.916 2.08681 50.4625C3.06168 54.0923 5.92131 56.9442 9.62584 57.9813C16.255 59.7314 42.7716 59.7314 42.7716 59.7314C42.7716 59.7314 69.3532 59.7314 75.9173 57.9813C79.5568 57.0091 82.4165 54.1571 83.4563 50.4625C85.2111 43.8512 85.2111 30.1099 85.2111 30.1099C85.2111 30.1099 85.2111 16.3039 83.4563 9.75738Z" fill="#FF0000"/>
<path d="M34.2578 42.8141L56.355 30.1099L34.2578 17.4058V42.8141Z" fill="white"/>
<path d="M123.558 54.4162C121.868 53.3143 120.698 51.5643 119.983 49.166C119.268 46.7678 118.943 43.5918 118.943 39.6379V34.2581C118.943 30.2394 119.333 27.0634 120.178 24.6003C120.958 22.2021 122.258 20.3872 123.948 19.2853C125.637 18.1835 127.912 17.6001 130.707 17.6001C133.436 17.6001 135.646 18.1835 137.336 19.2853C139.026 20.3872 140.196 22.2021 140.976 24.6003C141.755 26.9986 142.145 30.1746 142.145 34.1933V39.5731C142.145 43.5269 141.755 46.703 141.04 49.1012C140.326 51.4994 139.091 53.2495 137.401 54.3514C135.711 55.4533 133.436 56.0366 130.577 56.0366C127.587 56.1015 125.248 55.5181 123.558 54.4162ZM132.982 48.5827C133.436 47.3512 133.696 45.4066 133.696 42.6843V31.0821C133.696 28.4246 133.436 26.48 132.982 25.2485C132.527 24.017 131.682 23.4336 130.512 23.4336C129.407 23.4336 128.562 24.0818 128.107 25.2485C127.652 26.48 127.392 28.4246 127.392 31.0821V42.6843C127.392 45.4066 127.587 47.416 128.042 48.5827C128.497 49.8142 129.277 50.3975 130.447 50.3975C131.682 50.3975 132.527 49.8142 132.982 48.5827Z" fill="#282828"/>
<path d="M252.501 39.7027V41.5824C252.501 43.9807 252.566 45.7307 252.696 46.9623C252.826 48.129 253.151 49.0364 253.606 49.5549C254.061 50.0735 254.711 50.3976 255.686 50.3976C256.92 50.3976 257.83 49.9438 258.285 48.9716C258.74 47.9993 259 46.3789 259.065 44.1103L266.279 44.4992C266.344 44.8233 266.344 45.277 266.344 45.8604C266.344 49.2957 265.369 51.8236 263.55 53.5736C261.665 55.2589 259 56.1015 255.556 56.1015C251.396 56.1015 248.536 54.8051 246.847 52.2124C245.157 49.6198 244.377 45.6659 244.377 40.2213V33.7396C244.377 28.1653 245.222 24.0818 246.977 21.554C248.666 19.0261 251.656 17.7297 255.815 17.7297C258.675 17.7297 260.885 18.2483 262.445 19.2854C264.004 20.3224 265.044 21.9428 265.694 24.2114C266.344 26.4152 266.669 29.5265 266.669 33.4155V39.7676L252.501 39.7027ZM253.606 24.0818C253.216 24.6004 252.891 25.443 252.761 26.6745C252.631 27.8412 252.566 29.6561 252.566 32.1191V34.7766H258.675V32.0543C258.675 29.6561 258.61 27.8412 258.415 26.6097C258.285 25.3782 257.96 24.5355 257.505 24.017C257.05 23.4985 256.4 23.2392 255.556 23.2392C254.711 23.304 253.996 23.5633 253.606 24.0818Z" fill="#282828"/>
<path d="M103.149 38.9898L93.5957 4.63672H101.915L105.229 20.1928C106.074 24.017 106.724 27.3227 107.114 29.9802H107.374C107.634 28.0357 108.284 24.7948 109.259 20.2576L112.703 4.63672H121.087L111.468 38.9898V55.4533H103.214V38.9898H103.149Z" fill="#282828"/>
<path d="M169.18 18.3779V55.5181H162.616L161.901 50.9809H161.706C159.951 54.4162 157.222 56.1015 153.712 56.1015C151.242 56.1015 149.423 55.3237 148.253 53.7032C147.083 52.0828 146.498 49.555 146.498 46.1197V18.3779H154.882V45.6011C154.882 47.2864 155.077 48.4531 155.402 49.166C155.792 49.879 156.377 50.2031 157.222 50.2031C157.937 50.2031 158.651 50.0087 159.301 49.555C159.951 49.1012 160.471 48.5179 160.796 47.8697V18.3779H169.18Z" fill="#282828"/>
<path d="M212.141 18.3779V55.5181H205.577L204.862 50.9809H204.667C202.912 54.4162 200.183 56.1015 196.673 56.1015C194.203 56.1015 192.384 55.3237 191.214 53.7032C190.044 52.0828 189.459 49.555 189.459 46.1197V18.3779H197.843V45.6011C197.843 47.2864 198.038 48.4531 198.363 49.166C198.753 49.879 199.338 50.2031 200.183 50.2031C200.898 50.2031 201.612 50.0087 202.262 49.555C202.912 49.1012 203.432 48.5179 203.757 47.8697V18.3779H212.141Z" fill="#282828"/>
<path d="M191.928 11.3777H183.609V55.4533H175.421V11.3777H167.102V4.63672H191.928V11.3777Z" fill="#282828"/>
<path d="M239.891 24.2764C239.371 21.9429 238.591 20.2577 237.421 19.1558C236.317 18.1187 234.757 17.6002 232.742 17.6002C231.182 17.6002 229.752 18.0539 228.453 18.8965C227.088 19.7392 226.113 20.9059 225.333 22.3318H225.268V2.75708H217.209V55.4534H224.098L224.943 51.9533H225.138C225.788 53.1848 226.763 54.2218 228.063 54.9348C229.362 55.6478 230.792 56.0367 232.352 56.0367C235.212 56.0367 237.291 54.7404 238.591 52.1477C239.956 49.555 240.606 45.4716 240.606 39.9621V34.0637C240.671 29.9154 240.411 26.6746 239.891 24.2764ZM232.222 39.4436C232.222 42.1659 232.092 44.24 231.897 45.7956C231.702 47.3512 231.312 48.4531 230.792 49.1013C230.272 49.7495 229.557 50.0736 228.648 50.0736C227.933 50.0736 227.348 49.9439 226.698 49.6198C226.113 49.2958 225.658 48.842 225.268 48.1939V27.1283C225.528 26.0912 226.048 25.3134 226.698 24.6653C227.348 24.0171 228.128 23.693 228.972 23.693C229.817 23.693 230.467 24.0171 230.922 24.6653C231.377 25.3134 231.702 26.4801 231.897 28.0357C232.092 29.5914 232.157 31.86 232.157 34.7767L232.222 39.4436Z" fill="#282828"/>
</svg>
