<svg width="155" height="154" viewBox="0 0 155 154" fill="none" xmlns="http://www.w3.org/2000/svg">
<path d="M24.3613 0.657471H130.637C143.718 0.657471 154.313 11.1875 154.313 24.188V129.812C154.313 142.812 143.718 153.342 130.637 153.342H24.3613C11.2805 153.342 0.685547 142.812 0.685547 129.812V24.188C0.685547 11.1875 11.2805 0.657471 24.3613 0.657471Z" fill="#4C75A3"/>
<path d="M76.1952 107.537H82.4707C82.4707 107.537 84.386 107.335 85.3232 106.282C86.2197 105.31 86.179 103.528 86.179 103.528C86.179 103.528 86.0567 95.144 89.9687 93.929C93.84 92.714 98.7707 102.029 104.027 105.593C107.98 108.307 110.996 107.699 110.996 107.699L125.054 107.497C125.054 107.497 132.389 107.051 128.926 101.3C128.64 100.814 126.888 97.0475 118.494 89.312C109.692 81.1715 110.873 82.508 121.468 68.4545C127.907 59.909 130.515 54.6845 129.7 52.457C128.926 50.3105 124.199 50.8775 124.199 50.8775L108.388 50.9585C108.388 50.9585 107.206 50.7966 106.35 51.3231C105.494 51.8091 104.965 53.0241 104.965 53.0241C104.965 53.0241 102.479 59.6255 99.1375 65.255C92.0877 77.1215 89.276 77.7695 88.135 77.0405C85.4455 75.3395 86.1382 70.115 86.1382 66.4295C86.1382 54.9275 87.8905 50.1081 82.7152 48.8931C81.0037 48.4881 79.7405 48.2046 75.3395 48.1641C69.716 48.1236 64.9075 48.1641 62.218 49.5006C60.425 50.3916 59.0395 52.3355 59.8952 52.457C60.9547 52.5785 63.3182 53.105 64.5407 54.806C66.1707 56.993 66.0892 61.934 66.0892 61.934C66.0892 61.934 67.0265 75.5015 63.9295 77.162C61.8105 78.3365 58.8765 75.947 52.601 65.174C49.3817 59.666 46.9775 53.5506 46.9775 53.5506C46.9775 53.5506 46.5292 52.4166 45.6735 51.8091C44.6547 51.0801 43.2285 50.837 43.2285 50.837L28.1917 50.9181C28.1917 50.9181 25.9505 50.999 25.0947 51.971C24.3612 52.8215 25.054 54.6441 25.054 54.6441C25.054 54.6441 36.8307 81.9815 50.1152 95.792C62.3402 108.388 76.1952 107.537 76.1952 107.537Z" fill="white"/>
</svg>
