<svg width="236" height="138" viewBox="0 0 236 138" fill="none" xmlns="http://www.w3.org/2000/svg">
<g clip-path="url(#clip0)">
<path d="M98.7556 75.8687C89.1381 88.8023 80.7851 85.6289 74.0695 72.8206C71.2298 75.733 68.1518 78.3949 64.8769 80.7958C57.7882 85.274 50.1917 81.0776 49.7254 72.5805C49.5595 69.4384 49.7254 66.2442 49.5803 63.0499C49.2901 61.9225 48.8134 60.8682 48.1604 59.9079C47.093 60.4507 45.5592 60.7221 45.041 61.5989C43.8181 63.8955 42.761 66.2859 41.9008 68.739C40.6468 71.7663 39.5379 74.8874 38.2114 77.8312C36.8538 80.8584 33.5374 82.466 30.3351 81.6622C27.1534 81.349 24.7283 78.6454 24.7594 75.4198C24.5211 71.3487 24.9771 67.2254 24.7594 63.1334C24.5003 61.7868 24.0547 60.4716 23.4329 59.2502C22.3447 60.1584 20.7798 60.8265 20.2202 61.9852C18.0956 66.6304 16.1991 71.6514 14.0746 76.4115C13.432 78.0399 12.5407 79.5536 11.4215 80.8897C9.14148 83.5098 5.18258 83.7812 2.58131 81.4847C1.52423 80.5557 0.809138 79.2822 0.550048 77.8938C0.35314 77.2153 0.228776 76.5263 0.197686 75.8269C0.197686 66.2964 -0.113223 56.5884 0.0525951 46.9638C0.135504 44.4064 0.964592 41.9219 2.4155 39.8238C3.92858 37.8508 6.05312 36.4312 8.44711 35.7735C12.0847 34.7923 13.888 36.5356 14.0538 40.5336C14.1989 43.6026 14.0538 46.7029 14.0538 49.7927L15.6395 50.2416C16.8002 49.1038 17.8573 47.872 18.8107 46.5463C20.8005 43.2581 22.5209 39.782 24.5107 36.4729C25.9512 33.477 29.3505 32.0052 32.501 32.9968C35.5998 33.7171 37.6518 36.7026 37.2268 39.876V50.2103L38.5741 50.6383C39.5276 49.7719 40.4292 48.8324 41.2479 47.8303C44.0876 44.4272 46.7303 40.8259 49.6632 37.5168C50.8861 36.1076 52.4199 35.0011 54.1299 34.2808C57.5602 32.5897 61.685 34.0198 63.3639 37.475C64.0064 38.7903 64.2137 40.2726 63.9649 41.7132C63.4882 48.6236 63.0633 55.5236 62.6902 62.434C62.6799 63.6867 62.742 64.9498 62.8768 66.192C67.986 64.5322 71.7273 60.1062 72.546 54.7616C72.8984 49.062 73.5824 43.3938 74.598 37.7778C75.1369 34.3747 77.9247 31.7755 81.3343 31.5145C84.3916 30.8778 87.5421 32.0991 89.3765 34.6566C91.4492 37.6525 91.5321 41.6088 89.563 44.6778C86.7234 49.4378 86.91 54.605 87.5525 59.6991C87.8634 61.933 89.107 63.9163 90.9621 65.1794C93.5427 66.4425 95.6879 64.1564 96.7036 61.8704C98.5172 57.1938 100.103 52.4233 101.429 47.5797C102.424 44.2185 102.828 40.6693 103.792 37.3393C105.254 32.6941 108.518 30.6481 112.446 31.5772C116.602 32.6106 119.276 36.6817 118.592 40.9407C118.312 43.3207 117.389 45.4607 117.027 47.7781C115.887 54.7825 114.902 61.8077 113.783 69.2088C119.13 67.5177 123.379 66.0667 127.732 64.8976C129.774 64.4696 131.867 64.3235 133.95 64.4905C137.878 64.4905 139.723 66.4634 141.039 70.9416C145.361 85.0652 154.729 93.5206 169.218 95.9737C190.069 99.5229 209.926 80.6809 207.853 59.4694C207.708 58.0602 207.522 56.6614 207.428 55.2522C206.589 51.4003 209.014 47.5902 212.838 46.7446C216.662 45.8991 220.445 48.3418 221.284 52.1937C221.378 52.6425 221.44 53.0914 221.45 53.5507C224.311 72.8415 218.279 88.8649 202.962 100.744C181.861 116.945 151.714 112.843 135.629 91.5894C134.313 89.8461 133.111 88.0089 132.033 86.0986C128.789 80.4304 127.753 80.0964 121.866 82.9357C121.566 83.1132 121.245 83.2697 120.923 83.4159C115.037 85.6289 112.84 89.7939 112.29 96.2033C111.513 106.35 109.928 116.423 107.565 126.329C104.393 138.971 96.7139 141.215 86.2881 133.47C73.4062 124.012 71.0433 109.398 80.8991 96.9862C85.1585 92.0278 89.9672 87.5809 95.2527 83.7499C97.9679 82.1632 99.3774 78.9899 98.7556 75.8687ZM97.7814 99.5437L96.3201 98.8965C94.2992 101.621 92.4338 104.46 90.7445 107.394C89.3558 110.243 89.9983 113.678 92.3301 115.828C93.8432 117.467 95.4081 117.926 95.833 115.014C96.5999 109.784 97.0559 104.711 97.7814 99.5437Z" fill="#FF2D39"/>
<path d="M197.251 23.0487C196.65 18.0486 198.712 13.1006 202.661 10.0212C205.594 7.38018 208.216 4.33207 211.128 1.63888C212.216 0.908169 213.418 0.354917 214.672 0C215.19 1.09607 215.553 2.25477 215.76 3.45522C215.905 7.67247 215.874 11.8897 215.76 16.1278C215.76 19.082 217.056 20.3868 219.989 20.366H232.902C233.98 20.5539 235.026 20.9088 236 21.4098C235.721 22.5894 235.254 23.7064 234.601 24.7189C231.171 28.3829 227.513 31.859 224.03 35.4604C221.636 37.9761 218.175 39.1452 214.765 38.5815C209.998 37.8508 205.221 39.8342 202.35 43.7487C198.681 47.9868 194.38 51.6508 190.525 55.7741C189.437 57.0163 188.846 58.6239 188.846 60.2732C189.458 68.4885 183.333 75.639 175.187 76.2445C167.031 76.8604 159.932 70.6911 159.331 62.4862C159.289 61.9747 159.279 61.4528 159.299 60.9413C159.579 52.8617 166.316 46.5359 174.337 46.8177C174.741 46.8281 175.156 46.8595 175.56 46.9116C177.612 47.2561 179.705 46.4941 181.073 44.9074C185.022 40.7632 188.991 36.6191 193.251 32.788C196.349 30.1262 198.246 27.266 197.251 23.0487Z" fill="#FF2D39"/>
<path d="M130.697 41.2643C131.101 40.0012 131.609 38.7799 132.21 37.6003C142.449 19.844 162.648 10.4492 182.712 14.1236C187.603 15.0735 190.37 18.4139 189.666 22.5581C188.961 26.7023 185.24 29.1763 180.204 28.2472C166.41 25.7002 152.471 31.9008 145.05 43.8949C144.439 45.0327 143.724 46.1079 142.926 47.11C140.967 49.4378 137.702 50.1581 134.956 48.8533C132.137 47.6528 130.645 45.3458 130.697 41.2643Z" fill="#FF2D39"/>
</g>
<defs>
<clipPath id="clip0">
<rect width="236" height="138" fill="white"/>
</clipPath>
</defs>
</svg>
