<svg width="318" height="46" viewBox="0 0 318 46" fill="none" xmlns="http://www.w3.org/2000/svg">
<path d="M281.58 17.799C279.84 17.799 277.404 18.9963 276.708 20.8779H276.534V18.1411H273.489V34.7331H276.708V25.6674C276.708 22.5884 278.883 20.8779 281.058 20.8779C281.754 20.8779 282.276 20.9634 282.711 21.1345L283.929 18.2266C283.32 17.8845 282.624 17.799 281.58 17.799ZM310.809 17.6279C307.33 17.6279 304.111 19.595 304.111 22.5884C304.111 25.4963 307.069 26.8647 308.634 27.2068L312.027 27.9765C313.854 28.4042 314.289 29.345 314.289 30.2002C314.289 31.5686 312.897 32.5094 310.896 32.5094C308.895 32.5094 307.243 31.4831 306.286 29.4305L303.502 30.5423C304.459 32.937 306.808 35.2462 310.896 35.2462C314.811 35.2462 317.508 33.0226 317.508 30.0292C317.508 27.9765 316.203 26.0095 312.897 25.2397L309.591 24.47C308.286 24.1279 307.33 23.6147 307.33 22.5029C307.33 21.1345 308.895 20.3648 310.635 20.3648C312.288 20.3648 313.854 21.049 314.463 22.5884L317.247 21.4766C316.29 18.9963 313.767 17.6279 310.809 17.6279ZM262.354 32.4239C259.571 32.4239 256.874 30.2002 256.874 26.4371C256.874 22.674 259.571 20.4503 262.354 20.4503C265.138 20.4503 267.835 22.674 267.835 26.4371C267.835 30.2002 265.225 32.4239 262.354 32.4239ZM262.354 17.6279C257.309 17.6279 253.655 21.3911 253.655 26.4371C253.655 31.4831 257.222 35.2462 262.354 35.2462C267.4 35.2462 271.054 31.4831 271.054 26.4371C271.054 21.3911 267.4 17.6279 262.354 17.6279ZM99.6785 31.2265C96.9817 31.2265 94.5459 29.0029 94.5459 25.8384C94.5459 22.6739 96.8947 20.4503 99.6785 20.4503C102.375 20.4503 104.811 22.6739 104.811 25.8384C104.811 29.0029 102.375 31.2265 99.6785 31.2265ZM99.6785 16.9437C94.7199 16.9437 90.6312 20.7069 90.6312 25.8384C90.6312 30.9699 94.7199 34.7331 99.6785 34.7331C104.637 34.7331 108.726 30.9699 108.726 25.8384C108.726 20.7069 104.637 16.9437 99.6785 16.9437ZM119.861 31.2265C117.164 31.2265 114.728 29.0029 114.728 25.8384C114.728 22.6739 117.077 20.4503 119.861 20.4503C122.644 20.4503 124.993 22.6739 124.993 25.8384C124.993 29.0029 122.644 31.2265 119.861 31.2265ZM119.861 16.9437C114.902 16.9437 110.813 20.7069 110.813 25.8384C110.813 30.9699 114.902 34.7331 119.861 34.7331C124.819 34.7331 128.908 30.9699 128.908 25.8384C128.995 20.7069 124.906 16.9437 119.861 16.9437ZM139.521 31.2265C136.824 31.2265 134.736 28.9173 134.736 25.8384C134.736 22.6739 136.824 20.4503 139.521 20.4503C142.218 20.4503 144.306 22.7595 144.306 25.8384C144.393 29.0029 142.305 31.2265 139.521 31.2265ZM139.26 16.9437C134.736 16.9437 130.822 20.7924 130.822 25.8384C130.822 30.7989 134.736 34.7331 139.26 34.7331C141.435 34.7331 143.175 33.7923 144.045 32.6805H144.219V33.8778C144.219 37.2988 142.392 39.0949 139.434 39.0949C136.998 39.0949 135.519 37.3844 134.91 35.9305L131.431 37.2988C132.388 39.6936 135.084 42.5159 139.434 42.5159C144.045 42.5159 148.046 39.8646 148.046 33.2792V17.2858H144.306V18.8253H144.132C143.088 17.8845 141.348 16.9437 139.26 16.9437ZM161.965 25.5818C161.965 21.8187 164.662 20.2792 166.75 20.2792C168.316 20.2792 169.707 21.049 170.142 22.2463L161.965 25.5818ZM166.489 16.9437C161.878 16.9437 157.963 20.5358 157.963 25.8384C157.963 30.7989 161.791 34.7331 166.924 34.7331C171.099 34.7331 173.448 32.2528 174.492 30.7989L171.447 28.7463C170.403 30.2002 169.011 31.2265 167.011 31.2265C165.01 31.2265 163.531 30.2857 162.661 28.5752L174.753 23.7003L174.318 22.6739C173.535 20.6213 171.186 16.9437 166.489 16.9437ZM212.595 32.4239C209.811 32.4239 207.201 30.2002 207.201 26.4371C207.201 22.674 209.724 20.4503 212.595 20.4503C215.378 20.4503 217.988 22.674 217.988 26.4371C217.988 30.2002 215.378 32.4239 212.595 32.4239ZM221.033 10.5293H217.901V18.1411L218.075 20.4503H217.901C216.944 18.9108 214.856 17.6279 212.16 17.6279C207.897 17.6279 204.156 21.3911 204.156 26.4371C204.156 31.4831 207.897 35.2462 212.16 35.2462C214.856 35.2462 216.944 33.9634 217.901 32.4239H218.075V34.7331H221.12V10.5293H221.033ZM254.09 10.5293H250.784L245.826 29.6015H245.652L240.345 13.7793H237.388L232.081 29.6015H231.907L226.687 10.5293H223.382L230.254 34.7331H233.473L238.779 18.7398H238.953L244.26 34.7331H247.479L254.09 10.5293ZM293.498 32.4239C290.714 32.4239 288.104 30.2002 288.104 26.4371C288.104 22.674 290.627 20.4503 293.498 20.4503C296.281 20.4503 298.891 22.674 298.891 26.4371C298.891 30.2002 296.281 32.4239 293.498 32.4239ZM301.849 10.5293H298.717V18.1411L298.891 20.4503H298.717C297.76 18.9108 295.673 17.6279 292.976 17.6279C288.713 17.6279 284.972 21.3911 284.972 26.4371C284.972 31.4831 288.713 35.2462 292.976 35.2462C295.673 35.2462 297.76 33.9634 298.717 32.4239H298.891V34.7331H301.936V10.5293H301.849ZM188.063 25.2397L192.064 14.2924H192.238L196.24 25.2397H188.063ZM193.891 10.5293H190.325L181.016 34.7331H184.496L186.932 28.1476H197.284L199.633 34.7331H203.113L193.891 10.5293ZM154.919 7.87799H151.004V34.7331H154.919V7.87799ZM75.1466 7.53589C67.4042 7.53589 60.9668 13.6937 60.9668 21.3055C60.9668 28.9173 67.4912 35.0752 75.1466 35.0752C79.3222 35.0752 82.4539 33.7068 84.8897 31.2265C87.4125 28.7463 88.1954 25.2397 88.1954 22.4174C88.1954 21.5621 88.1085 20.7069 88.0215 20.0227H75.1466V23.7858H84.2808C84.0198 25.9239 83.3239 27.4634 82.193 28.4897C80.8881 29.7726 78.8003 31.2265 75.1466 31.2265C69.4921 31.2265 65.1424 26.7792 65.1424 21.22C65.1424 15.6608 69.5791 11.2135 75.1466 11.2135C78.1913 11.2135 80.3661 12.4109 82.019 13.8648L84.7157 11.2135C82.4539 9.16088 79.4092 7.53589 75.1466 7.53589Z" fill="#757575"/>
<path d="M46.4391 45.6805L30.9545 0.180733V0.0952148L30.3455 0.608362L22.9512 22.3319L23.2121 22.8451L29.6496 41.9173C29.9106 42.6871 30.3455 43.3713 30.9545 43.97C31.8244 44.9963 33.4773 45.6805 35.1301 45.6805H46.4391Z" fill="#139F5B"/>
<path d="M23.3 22.9306L46.44 45.766L31.3033 1.54915L31.0424 0.180733V0.0952148L30.4334 0.608362L23.0391 22.4174L23.3 22.9306Z" fill="#149350"/>
<path d="M15.5569 0.0952148L0.0722656 45.6805H11.3813C13.0342 45.6805 14.513 44.9963 15.5569 43.97C16.1659 43.3713 16.6008 42.6871 16.8618 41.9173L31.0416 0.0952148H15.5569Z" fill="#5390F5"/>
</svg>
