<svg width="93" height="121" viewBox="0 0 93 121" fill="none" xmlns="http://www.w3.org/2000/svg">
<g clip-path="url(#clip0)">
<path fill-rule="evenodd" clip-rule="evenodd" d="M2.49023 117.859V13.7731H91.56L91.5677 13.5693V117.859C91.5677 118.534 91.2992 119.182 90.8214 119.66C90.3436 120.138 89.6955 120.406 89.0197 120.406H5.03818C4.36242 120.406 3.71434 120.138 3.23651 119.66C2.75868 119.182 2.49023 118.534 2.49023 117.859ZM7.81799 18.4603C7.46892 18.4603 7.1861 18.7227 7.1861 19.0462C7.1861 19.3697 7.46892 19.6321 7.81799 19.6321H13.5853C13.9331 19.6321 14.2172 19.3697 14.2172 19.0462C14.2172 18.7227 13.9331 18.4603 13.5853 18.4603H7.81799ZM10.9036 28.9045C9.88991 28.9045 8.91779 29.3071 8.20105 30.0237C7.4843 30.7402 7.08163 31.7121 7.08163 32.7255V46.3794C7.08163 47.3929 7.4843 48.3647 8.20105 49.0813C8.91779 49.7979 9.88991 50.2005 10.9036 50.2005H83.1633C84.1769 50.2005 85.149 49.7979 85.8658 49.0813C86.5825 48.3647 86.9852 47.3929 86.9852 46.3794V32.7255C86.9852 31.7121 86.5825 30.7402 85.8658 30.0237C85.149 29.3071 84.1769 28.9045 83.1633 28.9045H10.9048H10.9036ZM9.62958 32.7255C9.62958 32.3877 9.7638 32.0638 10.0027 31.8249C10.2416 31.5861 10.5657 31.4519 10.9036 31.4519H83.1633C83.5012 31.4519 83.8252 31.5861 84.0641 31.8249C84.303 32.0638 84.4372 32.3877 84.4372 32.7255V46.3794C84.4372 47.0825 83.8652 47.6531 83.1633 47.6531H10.9048C10.5669 47.6531 10.2429 47.5189 10.004 47.2801C9.76507 47.0412 9.63085 46.7172 9.63085 46.3794V32.7255H9.62958ZM10.9036 102.727C9.88991 102.727 8.91779 103.13 8.20105 103.846C7.4843 104.563 7.08163 105.535 7.08163 106.548V110.828C7.08163 111.841 7.4843 112.813 8.20105 113.53C8.91779 114.246 9.88991 114.649 10.9036 114.649H42.0662C43.0798 114.649 44.0519 114.246 44.7687 113.53C45.4854 112.813 45.8881 111.841 45.8881 110.828V106.548C45.8881 105.535 45.4854 104.563 44.7687 103.846C44.0519 103.13 43.0798 102.727 42.0662 102.727H10.9048H10.9036ZM9.62958 106.548C9.62958 106.21 9.7638 105.887 10.0027 105.648C10.2416 105.409 10.5657 105.275 10.9036 105.275H42.0662C42.4041 105.275 42.7281 105.409 42.967 105.648C43.2059 105.887 43.3402 106.21 43.3402 106.548V110.828C43.3402 111.166 43.2059 111.49 42.967 111.728C42.7281 111.967 42.4041 112.102 42.0662 112.102H10.9048C10.5669 112.102 10.2429 111.967 10.004 111.728C9.76507 111.49 9.63085 111.166 9.63085 110.828V106.548H9.62958ZM48.1711 106.548C48.1711 105.535 48.5737 104.563 49.2905 103.846C50.0072 103.13 50.9794 102.727 51.993 102.727H83.1582C84.1718 102.727 85.1439 103.13 85.8607 103.846C86.5774 104.563 86.9801 105.535 86.9801 106.548V110.828C86.9801 111.841 86.5774 112.813 85.8607 113.53C85.1439 114.246 84.1718 114.649 83.1582 114.649H51.993C50.9794 114.649 50.0072 114.246 49.2905 113.53C48.5737 112.813 48.1711 111.841 48.1711 110.828V106.548ZM51.993 105.275C51.6551 105.275 51.3311 105.409 51.0922 105.648C50.8532 105.887 50.719 106.21 50.719 106.548V110.828C50.719 111.166 50.8532 111.49 51.0922 111.728C51.3311 111.967 51.6551 112.102 51.993 112.102H83.1582C83.4961 112.102 83.8201 111.967 84.059 111.728C84.2979 111.49 84.4322 111.166 84.4322 110.828V106.548C84.4322 106.21 84.2979 105.887 84.059 105.648C83.8201 105.409 83.4961 105.275 83.1582 105.275H51.993ZM11.8629 58.3011C11.8629 57.9904 11.9863 57.6923 12.2061 57.4725C12.4259 57.2528 12.7241 57.1293 13.0349 57.1293H81.0141C81.3249 57.1293 81.6231 57.2528 81.8429 57.4725C82.0627 57.6923 82.1861 57.9904 82.1861 58.3011C82.1861 58.6119 82.0627 58.91 81.8429 59.1297C81.6231 59.3495 81.3249 59.4729 81.0141 59.4729H13.0349C12.7241 59.4729 12.4259 59.3495 12.2061 59.1297C11.9863 58.91 11.8629 58.6119 11.8629 58.3011ZM16.5511 61.8165C16.2402 61.8165 15.9421 61.94 15.7223 62.1597C15.5025 62.3795 15.379 62.6775 15.379 62.9883C15.379 63.2991 15.5025 63.5971 15.7223 63.8169C15.9421 64.0366 16.2402 64.1601 16.5511 64.1601H77.4979C77.8088 64.1601 78.1069 64.0366 78.3267 63.8169C78.5465 63.5971 78.67 63.2991 78.67 62.9883C78.67 62.6775 78.5465 62.3795 78.3267 62.1597C78.1069 61.94 77.8088 61.8165 77.4979 61.8165H16.5511ZM7.1861 21.3898C7.1861 21.0662 7.46892 20.8039 7.81799 20.8039H13.5853C13.9331 20.8039 14.2172 21.0662 14.2172 21.3898C14.2172 21.7133 13.9331 21.9757 13.5853 21.9757H7.81799C7.46892 21.9757 7.1861 21.7133 7.1861 21.3898ZM7.81799 23.1474C7.46892 23.1474 7.1861 23.4098 7.1861 23.7333C7.1861 24.0569 7.46892 24.3192 7.81799 24.3192H13.5853C13.9331 24.3192 14.2172 24.0569 14.2172 23.7333C14.2172 23.4098 13.9331 23.1474 13.5853 23.1474H7.81799ZM73.9881 21.3898C73.9881 20.4192 74.7156 19.6321 75.6188 19.6321H85.2488C86.1495 19.6321 86.8795 20.4192 86.8795 21.3898C86.8795 22.3603 86.1495 23.1474 85.2488 23.1474H75.6188C74.7156 23.1474 73.9881 22.3603 73.9881 21.3898ZM59.4814 19.6321C58.4342 19.6321 57.5832 20.4192 57.5832 21.3898C57.5832 22.3603 58.4342 23.1474 59.4814 23.1474H65.0627C66.1112 23.1474 66.9596 22.3603 66.9596 21.3898C66.9596 20.4192 66.1112 19.6321 65.0627 19.6321H59.4827H59.4814ZM41.168 21.3898C41.168 20.4192 42.0191 19.6321 43.0663 19.6321H48.6475C49.696 19.6321 50.5445 20.4192 50.5445 21.3898C50.5445 22.3603 49.696 23.1474 48.6475 23.1474H43.0675C42.0191 23.1474 41.1693 22.3603 41.1693 21.3898H41.168ZM23.112 19.6321C22.0814 19.6321 21.2482 20.4192 21.2482 21.3898C21.2482 22.3603 22.0814 23.1474 23.112 23.1474H32.2757C33.3064 23.1474 34.1395 22.3603 34.1395 21.3898C34.1395 20.4192 33.3064 19.6321 32.2757 19.6321H23.112ZM30.6183 75.878C30.6308 76.8091 30.4582 77.7335 30.1104 78.5974C29.7627 79.4614 29.2467 80.2476 28.5925 80.9105C27.9383 81.5734 27.1589 82.0998 26.2996 82.4591C25.4402 82.8183 24.518 83.0033 23.5866 83.0033C22.6551 83.0033 21.7329 82.8183 20.8736 82.4591C20.0142 82.0998 19.2348 81.5734 18.5806 80.9105C17.9264 80.2476 17.4105 79.4614 17.0627 78.5974C16.715 77.7335 16.5424 76.8091 16.5549 75.878C16.5549 74.0133 17.2958 72.225 18.6146 70.9065C19.9334 69.588 21.7221 68.8472 23.5872 68.8472C25.4523 68.8472 27.241 69.588 28.5598 70.9065C29.8786 72.225 30.6196 74.0133 30.6196 75.878H30.6183ZM18.3346 86.4241C17.3511 86.4241 16.5549 87.2112 16.5549 88.1818C16.5549 89.1523 17.3511 89.9394 18.3346 89.9394H28.8398C29.822 89.9394 30.6183 89.1523 30.6183 88.1818C30.6183 87.2112 29.822 86.4241 28.8398 86.4241H18.3346ZM17.7269 94.0407C17.7269 93.0702 18.6124 92.283 19.7054 92.283H27.4703C28.5634 92.283 29.4462 93.0702 29.4462 94.0407C29.4462 95.0113 28.5634 95.7984 27.4716 95.7984H19.7054C18.6124 95.7984 17.7269 95.0113 17.7269 94.0407ZM70.4694 82.9087C71.404 82.9265 72.3328 82.7578 73.2014 82.4125C74.07 82.0673 74.8611 81.5523 75.5283 80.8978C76.1956 80.2433 76.7256 79.4624 77.0874 78.6007C77.4492 77.739 77.6356 76.8138 77.6356 75.8792C77.6356 74.9447 77.4492 74.0195 77.0874 73.1578C76.7256 72.2961 76.1956 71.5152 75.5283 70.8607C74.8611 70.2062 74.07 69.6912 73.2014 69.3459C72.3328 69.0007 71.404 68.832 70.4694 68.8498C68.6209 68.8747 66.8565 69.6263 65.5581 70.942C64.2597 72.2577 63.5317 74.0316 63.5317 75.8799C63.5317 77.7282 64.2597 79.5021 65.5581 80.8178C66.8565 82.1335 68.6209 82.8851 70.4694 82.91V82.9087ZM63.4371 88.1818C63.4371 87.2112 64.2346 86.4241 65.2168 86.4241H75.722C76.7055 86.4241 77.5017 87.2112 77.5017 88.1818C77.5017 89.1523 76.7055 89.9394 75.722 89.9394H65.2168C64.9846 89.9408 64.7544 89.8964 64.5394 89.8088C64.3243 89.7212 64.1286 89.5921 63.9635 89.4289C63.7983 89.2656 63.6669 89.0715 63.5768 88.8575C63.4867 88.6436 63.4397 88.4139 63.4384 88.1818H63.4371ZM66.5927 92.283C65.5009 92.283 64.6155 93.0714 64.6155 94.0407C64.6155 95.0125 65.5009 95.7984 66.5927 95.7984H74.3589C75.4519 95.7984 76.3335 95.0125 76.3335 94.0407C76.3335 93.0714 75.4519 92.283 74.3589 92.283H66.5927ZM54.0606 75.878C54.0606 77.7426 53.3197 79.5309 52.0009 80.8494C50.6821 82.168 48.8934 82.9087 47.0283 82.9087C45.1632 82.9087 43.3745 82.168 42.0557 80.8494C40.7369 79.5309 39.996 77.7426 39.996 75.878C39.996 74.0133 40.7369 72.225 42.0557 70.9065C43.3745 69.588 45.1632 68.8472 47.0283 68.8472C48.8934 68.8472 50.6821 69.588 52.0009 70.9065C53.3197 72.225 54.0606 74.0133 54.0606 75.878ZM41.7757 86.4241C40.7922 86.4241 39.996 87.2112 39.996 88.1818C39.996 89.1523 40.7922 89.9394 41.7757 89.9394H52.2809C53.2644 89.9394 54.0606 89.1523 54.0606 88.1818C54.0606 87.2112 53.2644 86.4241 52.2809 86.4241H41.7757ZM41.168 94.0407C41.168 93.0702 42.0547 92.283 43.1465 92.283H50.9127C52.0045 92.283 52.8873 93.0702 52.8873 94.0407C52.8873 95.0113 52.0045 95.7984 50.9127 95.7984H43.1465C42.0547 95.7984 41.168 95.0113 41.168 94.0407Z" fill="url(#paint0_linear)"/>
<path d="M8.94753 9.62142C9.9185 9.62142 10.7056 8.82478 10.7056 7.84208C10.7056 6.85938 9.9185 6.06274 8.94753 6.06274C7.97657 6.06274 7.18945 6.85938 7.18945 7.84208C7.18945 8.82478 7.97657 9.62142 8.94753 9.62142Z" fill="#4DB5FF"/>
<path d="M14.8089 9.62142C15.7798 9.62142 16.5669 8.82478 16.5669 7.84208C16.5669 6.85938 15.7798 6.06274 14.8089 6.06274C13.8379 6.06274 13.0508 6.85938 13.0508 7.84208C13.0508 8.82478 13.8379 9.62142 14.8089 9.62142Z" fill="#4DB5FF"/>
<path d="M20.6682 9.57811C21.6392 9.57811 22.4263 8.79117 22.4263 7.82043C22.4263 6.84969 21.6392 6.06274 20.6682 6.06274C19.6973 6.06274 18.9102 6.84969 18.9102 7.82043C18.9102 8.79117 19.6973 9.57811 20.6682 9.57811Z" fill="#4DB5FF"/>
<path d="M89.0243 2.05542H5.04404C3.63685 2.05542 2.49609 3.19592 2.49609 4.60279V117.859C2.49609 119.266 3.63685 120.406 5.04404 120.406H89.0243C90.4315 120.406 91.5723 119.266 91.5723 117.859V4.60279C91.5723 3.19592 90.4315 2.05542 89.0243 2.05542Z" stroke="#3E93CF" stroke-width="2" stroke-linecap="round"/>
</g>
<defs>
<linearGradient id="paint0_linear" x1="35" y1="45.5" x2="92" y2="120" gradientUnits="userSpaceOnUse">
<stop stop-color="#57B9FF"/>
<stop offset="1" stop-color="#9C3EFB"/>
</linearGradient>
<clipPath id="clip0">
<rect width="93" height="121" fill="white"/>
</clipPath>
</defs>
</svg>
