<svg width="93" height="121" viewBox="0 0 93 121" fill="none" xmlns="http://www.w3.org/2000/svg">
<g clip-path="url(#clip0)">
<path d="M8.94753 9.62142C9.9185 9.62142 10.7056 8.82478 10.7056 7.84208C10.7056 6.85938 9.9185 6.06274 8.94753 6.06274C7.97657 6.06274 7.18945 6.85938 7.18945 7.84208C7.18945 8.82478 7.97657 9.62142 8.94753 9.62142Z" fill="#4DB5FF"/>
<path d="M14.8089 9.62142C15.7798 9.62142 16.5669 8.82478 16.5669 7.84208C16.5669 6.85938 15.7798 6.06274 14.8089 6.06274C13.8379 6.06274 13.0508 6.85938 13.0508 7.84208C13.0508 8.82478 13.8379 9.62142 14.8089 9.62142Z" fill="#4DB5FF"/>
<path d="M20.6682 9.57811C21.6392 9.57811 22.4263 8.79117 22.4263 7.82043C22.4263 6.84969 21.6392 6.06274 20.6682 6.06274C19.6973 6.06274 18.9102 6.84969 18.9102 7.82043C18.9102 8.79117 19.6973 9.57811 20.6682 9.57811Z" fill="#4DB5FF"/>
<path fill-rule="evenodd" clip-rule="evenodd" d="M2.49023 117.859V13.7734H91.56L91.5677 13.5696V117.859C91.5677 118.534 91.2992 119.182 90.8214 119.66C90.3436 120.138 89.6955 120.406 89.0197 120.406H5.03818C4.36242 120.406 3.71434 120.138 3.23651 119.66C2.75868 119.182 2.49023 118.534 2.49023 117.859ZM10.9036 102.727C9.88991 102.727 8.91779 103.13 8.20105 103.847C7.4843 104.563 7.08163 105.535 7.08163 106.549V110.828C7.08163 111.842 7.4843 112.813 8.20105 113.53C8.91779 114.247 9.88991 114.649 10.9036 114.649H42.0662C43.0798 114.649 44.0519 114.247 44.7687 113.53C45.4854 112.813 45.8881 111.842 45.8881 110.828V106.549C45.8881 105.535 45.4854 104.563 44.7687 103.847C44.0519 103.13 43.0798 102.727 42.0662 102.727H10.9048H10.9036ZM9.62958 106.549C9.62958 106.211 9.7638 105.887 10.0027 105.648C10.2416 105.409 10.5657 105.275 10.9036 105.275H42.0662C42.4041 105.275 42.7281 105.409 42.967 105.648C43.2059 105.887 43.3402 106.211 43.3402 106.549V110.828C43.3402 111.166 43.2059 111.49 42.967 111.729C42.7281 111.968 42.4041 112.102 42.0662 112.102H10.9048C10.5669 112.102 10.2429 111.968 10.004 111.729C9.76507 111.49 9.63085 111.166 9.63085 110.828V106.549H9.62958ZM48.1711 106.549C48.1711 105.535 48.5737 104.563 49.2905 103.847C50.0072 103.13 50.9794 102.727 51.993 102.727H83.1582C84.1718 102.727 85.1439 103.13 85.8607 103.847C86.5774 104.563 86.9801 105.535 86.9801 106.549V110.828C86.9801 111.842 86.5774 112.813 85.8607 113.53C85.1439 114.247 84.1718 114.649 83.1582 114.649H51.993C50.9794 114.649 50.0072 114.247 49.2905 113.53C48.5737 112.813 48.1711 111.842 48.1711 110.828V106.549ZM51.993 105.275C51.6551 105.275 51.3311 105.409 51.0922 105.648C50.8532 105.887 50.719 106.211 50.719 106.549V110.828C50.719 111.166 50.8532 111.49 51.0922 111.729C51.3311 111.968 51.6551 112.102 51.993 112.102H83.1582C83.4961 112.102 83.8201 111.968 84.059 111.729C84.2979 111.49 84.4322 111.166 84.4322 110.828V106.549C84.4322 106.211 84.2979 105.887 84.059 105.648C83.8201 105.409 83.4961 105.275 83.1582 105.275H51.993ZM11.8629 58.3014C11.8629 57.9906 11.9863 57.6925 12.2061 57.4728C12.4259 57.253 12.7241 57.1296 13.0349 57.1296H81.0141C81.3249 57.1296 81.6231 57.253 81.8429 57.4728C82.0627 57.6925 82.1861 57.9906 82.1861 58.3014C82.1861 58.6122 82.0627 58.9102 81.8429 59.13C81.6231 59.3497 81.3249 59.4732 81.0141 59.4732H13.0349C12.7241 59.4732 12.4259 59.3497 12.2061 59.13C11.9863 58.9102 11.8629 58.6122 11.8629 58.3014ZM16.5511 61.8167C16.2402 61.8167 15.9421 61.9402 15.7223 62.16C15.5025 62.3797 15.379 62.6777 15.379 62.9885C15.379 63.2993 15.5025 63.5974 15.7223 63.8171C15.9421 64.0369 16.2402 64.1603 16.5511 64.1603H77.4979C77.8088 64.1603 78.1069 64.0369 78.3267 63.8171C78.5465 63.5974 78.67 63.2993 78.67 62.9885C78.67 62.6777 78.5465 62.3797 78.3267 62.16C78.1069 61.9402 77.8088 61.8167 77.4979 61.8167H16.5511ZM30.6183 75.8782C30.6308 76.8094 30.4582 77.7338 30.1104 78.5977C29.7627 79.4616 29.2467 80.2478 28.5925 80.9108C27.9383 81.5737 27.1589 82.1 26.2996 82.4593C25.4402 82.8186 24.518 83.0036 23.5866 83.0036C22.6551 83.0036 21.7329 82.8186 20.8736 82.4593C20.0142 82.1 19.2348 81.5737 18.5806 80.9108C17.9264 80.2478 17.4105 79.4616 17.0627 78.5977C16.715 77.7338 16.5424 76.8094 16.5549 75.8782C16.5549 74.0135 17.2958 72.2253 18.6146 70.9067C19.9334 69.5882 21.7221 68.8475 23.5872 68.8475C25.4523 68.8475 27.241 69.5882 28.5598 70.9067C29.8786 72.2253 30.6196 74.0135 30.6196 75.8782H30.6183ZM18.3346 86.4243C17.3511 86.4243 16.5549 87.2114 16.5549 88.182C16.5549 89.1525 17.3511 89.9397 18.3346 89.9397H28.8398C29.822 89.9397 30.6183 89.1525 30.6183 88.182C30.6183 87.2114 29.822 86.4243 28.8398 86.4243H18.3346ZM17.7269 94.041C17.7269 93.0704 18.6124 92.2833 19.7054 92.2833H27.4703C28.5634 92.2833 29.4462 93.0704 29.4462 94.041C29.4462 95.0115 28.5634 95.7986 27.4716 95.7986H19.7054C18.6124 95.7986 17.7269 95.0115 17.7269 94.041ZM70.4694 82.909C71.404 82.9267 72.3328 82.7581 73.2014 82.4128C74.07 82.0675 74.8611 81.5526 75.5283 80.8981C76.1956 80.2436 76.7256 79.4626 77.0874 78.6009C77.4492 77.7392 77.6356 76.814 77.6356 75.8795C77.6356 74.9449 77.4492 74.0198 77.0874 73.1581C76.7256 72.2964 76.1956 71.5154 75.5283 70.8609C74.8611 70.2064 74.07 69.6915 73.2014 69.3462C72.3328 69.0009 71.404 68.8322 70.4694 68.85C68.6209 68.8749 66.8565 69.6265 65.5581 70.9422C64.2597 72.2579 63.5317 74.0318 63.5317 75.8801C63.5317 77.7284 64.2597 79.5023 65.5581 80.818C66.8565 82.1337 68.6209 82.8853 70.4694 82.9102V82.909ZM63.4371 88.182C63.4371 87.2114 64.2346 86.4243 65.2168 86.4243H75.722C76.7055 86.4243 77.5017 87.2114 77.5017 88.182C77.5017 89.1525 76.7055 89.9397 75.722 89.9397H65.2168C64.9846 89.941 64.7544 89.8966 64.5394 89.809C64.3243 89.7214 64.1286 89.5923 63.9635 89.4291C63.7983 89.2659 63.6669 89.0718 63.5768 88.8578C63.4867 88.6438 63.4397 88.4142 63.4384 88.182H63.4371ZM66.5927 92.2833C65.5009 92.2833 64.6155 93.0717 64.6155 94.041C64.6155 95.0128 65.5009 95.7986 66.5927 95.7986H74.3589C75.4519 95.7986 76.3335 95.0128 76.3335 94.041C76.3335 93.0717 75.4519 92.2833 74.3589 92.2833H66.5927ZM54.0606 75.8782C54.0606 77.7429 53.3197 79.5312 52.0009 80.8497C50.6821 82.1682 48.8934 82.909 47.0283 82.909C45.1632 82.909 43.3745 82.1682 42.0557 80.8497C40.7369 79.5312 39.996 77.7429 39.996 75.8782C39.996 74.0135 40.7369 72.2253 42.0557 70.9067C43.3745 69.5882 45.1632 68.8475 47.0283 68.8475C48.8934 68.8475 50.6821 69.5882 52.0009 70.9067C53.3197 72.2253 54.0606 74.0135 54.0606 75.8782ZM41.7757 86.4243C40.7922 86.4243 39.996 87.2114 39.996 88.182C39.996 89.1525 40.7922 89.9397 41.7757 89.9397H52.2809C53.2644 89.9397 54.0606 89.1525 54.0606 88.182C54.0606 87.2114 53.2644 86.4243 52.2809 86.4243H41.7757ZM41.168 94.041C41.168 93.0704 42.0547 92.2833 43.1465 92.2833H50.9127C52.0045 92.2833 52.8873 93.0704 52.8873 94.041C52.8873 95.0115 52.0045 95.7986 50.9127 95.7986H43.1465C42.0547 95.7986 41.168 95.0115 41.168 94.041ZM63.2719 25.6836C63.5622 25.4001 64.0342 25.4329 64.2826 25.7539L84.0057 51.2465C84.3513 51.6932 84.0334 52.3426 83.4691 52.3426H43.1846H37.646H35.9778H12.2101C11.6523 52.3426 11.3326 51.7063 11.665 51.2577L24.997 33.2676C25.2455 32.9323 25.7343 32.8985 26.0265 33.1964L40.4852 47.9401L63.2719 25.6836ZM47 35C50.3137 35 53 32.3137 53 29C53 25.6863 50.3137 23 47 23C43.6863 23 41 25.6863 41 29C41 32.3137 43.6863 35 47 35Z" fill="url(#paint0_linear)"/>
<path d="M89.0243 2.05542H5.04404C3.63685 2.05542 2.49609 3.19592 2.49609 4.60279V117.859C2.49609 119.266 3.63685 120.406 5.04404 120.406H89.0243C90.4315 120.406 91.5723 119.266 91.5723 117.859V4.60279C91.5723 3.19592 90.4315 2.05542 89.0243 2.05542Z" stroke="#3E93CF" stroke-width="2" stroke-linecap="round"/>
</g>
<defs>
<linearGradient id="paint0_linear" x1="19" y1="35" x2="80.5" y2="120" gradientUnits="userSpaceOnUse">
<stop stop-color="#57B9FF"/>
<stop offset="1" stop-color="#9A42FB"/>
</linearGradient>
<clipPath id="clip0">
<rect width="93" height="121" fill="white"/>
</clipPath>
</defs>
</svg>
