<svg width="93" height="121" viewBox="0 0 93 121" fill="none" xmlns="http://www.w3.org/2000/svg">
<g clip-path="url(#clip0)">
<path fill-rule="evenodd" clip-rule="evenodd" d="M13.4562 1.4585C12.5426 1.4585 11.6665 1.79694 11.0206 2.39938C10.3746 3.00182 10.0117 3.81891 10.0117 4.67089V16.3212H12.308V4.67089C12.308 4.38689 12.429 4.11453 12.6443 3.91372C12.8596 3.7129 13.1517 3.60009 13.4562 3.60009H89.1421C89.4466 3.60009 89.7386 3.7129 89.954 3.91372C90.1693 4.11453 90.2902 4.38689 90.2902 4.67089V100.871C90.2902 101.155 90.1693 101.428 89.954 101.628C89.7386 101.829 89.4466 101.942 89.1421 101.942H85.0983V104.084H89.1421C90.0556 104.084 90.9317 103.745 91.5777 103.143C92.2236 102.54 92.5865 101.723 92.5865 100.871V4.67089C92.5865 3.81891 92.2236 3.00182 91.5777 2.39938C90.9317 1.79694 90.0556 1.4585 89.1421 1.4585H13.4562Z" fill="#3E93CF"/>
<path fill-rule="evenodd" clip-rule="evenodd" d="M92.4827 12.3806L92.4907 12.2092L92.493 99.886C92.493 100.454 92.2511 100.999 91.8204 101.4C91.3898 101.802 90.8057 102.028 90.1967 102.028H85.0966V20.6043C85.0966 19.4683 84.6128 18.3789 83.7515 17.5756C82.8902 16.7723 81.7221 16.3211 80.5041 16.3211H10.0996V12.3806H92.4827Z" fill="url(#paint0_linear)"/>
<path d="M16.9692 8.77403C17.8443 8.77403 18.5537 8.10429 18.5537 7.27813C18.5537 6.45197 17.8443 5.78223 16.9692 5.78223C16.0941 5.78223 15.3848 6.45197 15.3848 7.27813C15.3848 8.10429 16.0941 8.77403 16.9692 8.77403Z" fill="#4DB5FF"/>
<path d="M22.2505 8.77403C23.1255 8.77403 23.8349 8.10429 23.8349 7.27813C23.8349 6.45197 23.1255 5.78223 22.2505 5.78223C21.3754 5.78223 20.666 6.45197 20.666 7.27813C20.666 8.10429 21.3754 8.77403 22.2505 8.77403Z" fill="#4DB5FF"/>
<path d="M27.5317 8.73763C28.4068 8.73763 29.1161 8.07604 29.1161 7.25993C29.1161 6.44382 28.4068 5.78223 27.5317 5.78223C26.6566 5.78223 25.9473 6.44382 25.9473 7.25993C25.9473 8.07604 26.6566 8.73763 27.5317 8.73763Z" fill="#4DB5FF"/>
<path fill-rule="evenodd" clip-rule="evenodd" d="M1.64568 116.633V29.1279H81.9173L81.923 28.9565V116.633C81.923 117.201 81.6811 117.746 81.2505 118.148C80.8198 118.549 80.2358 118.775 79.6268 118.775H3.94083C3.33181 118.775 2.74774 118.549 2.3171 118.148C1.88646 117.746 1.64453 117.201 1.64453 116.633H1.64568ZM48.1227 39.9643C48.1227 42.863 45.8838 45.2755 42.9331 45.7788V49.73H60.6146C61.5281 49.73 62.4042 50.0684 63.0502 50.6709C63.6961 51.2733 64.059 52.0904 64.059 52.9424V57.7931C65.6134 58.0611 67.0044 58.8611 67.959 60.0361C68.9137 61.2112 69.3631 62.6765 69.2192 64.1446C69.0753 65.6128 68.3484 66.9778 67.1812 67.9719C66.0139 68.9661 64.4905 69.5176 62.9097 69.5183C61.3274 69.5197 59.8017 68.9691 58.6326 67.9746C57.4636 66.98 56.7356 65.6137 56.592 64.144C56.4484 62.6744 56.8994 61.2078 57.8565 60.0325C58.8135 58.8573 60.2073 58.0585 61.7639 57.7931V52.9424C61.7639 52.3513 61.2472 51.8716 60.6157 51.8716H42.9342V57.7931C44.4892 58.0602 45.8809 58.8597 46.8362 60.0347C47.7915 61.2097 48.2414 62.6753 48.0976 64.1437C47.9538 65.6122 47.2266 66.9775 46.0589 67.9716C44.8912 68.9657 43.3672 69.5169 41.7861 69.5169C40.205 69.5169 38.681 68.9657 37.5133 67.9716C36.3455 66.9775 35.6184 65.6122 35.4746 64.1437C35.3308 62.6753 35.7807 61.2097 36.736 60.0347C37.6913 58.8597 39.083 58.0602 40.6379 57.7931V51.8716H22.9565C22.652 51.8716 22.3599 51.9844 22.1446 52.1852C21.9293 52.386 21.8083 52.6584 21.8083 52.9424V57.7931C23.3632 58.0602 24.755 58.8597 25.7103 60.0347C26.6656 61.2097 27.1155 62.6753 26.9717 64.1437C26.8279 65.6122 26.1007 66.9775 24.933 67.9716C23.7652 68.9657 22.2412 69.5169 20.6602 69.5169C19.0791 69.5169 17.5551 68.9657 16.3873 67.9716C15.2196 66.9775 14.4925 65.6122 14.3487 64.1437C14.2048 62.6753 14.6548 61.2097 15.6101 60.0347C16.5654 58.8597 17.9571 58.0602 19.512 57.7931V52.9424C19.512 52.0904 19.8749 51.2733 20.5209 50.6709C21.1668 50.0684 22.0429 49.73 22.9565 49.73H40.6379V45.7788C39.4536 45.5753 38.3559 45.0613 37.4734 44.297C36.5909 43.5327 35.9602 42.5498 35.6551 41.4632C35.35 40.3767 35.3831 39.2316 35.7506 38.162C36.1181 37.0924 36.8048 36.1426 37.7302 35.4238C38.6556 34.705 39.7815 34.247 40.9759 34.1035C42.1703 33.9599 43.3839 34.1367 44.4745 34.6131C45.5651 35.0895 46.4875 35.8459 47.1338 36.7936C47.7802 37.7413 48.1236 38.8412 48.1239 39.9643H48.1227ZM9.22346 87.165C8.30993 87.165 7.43383 87.5035 6.78787 88.1059C6.14191 88.7084 5.77901 89.5254 5.77901 90.3774V95.9456C5.77901 96.7975 6.14191 97.6146 6.78787 98.2171C7.43383 98.8195 8.30993 99.158 9.22346 99.158H74.3464C75.2599 99.158 76.1361 98.8195 76.782 98.2171C77.428 97.6146 77.7909 96.7975 77.7909 95.9456V90.3774C77.7909 89.5254 77.428 88.7084 76.782 88.1059C76.1361 87.5035 75.2599 87.165 74.3464 87.165H9.22346ZM8.07531 90.3774C8.07531 90.0934 8.19627 89.8211 8.41159 89.6203C8.62691 89.4194 8.91895 89.3066 9.22346 89.3066H74.3464C74.6509 89.3066 74.943 89.4194 75.1583 89.6203C75.3736 89.8211 75.4946 90.0934 75.4946 90.3774V95.9456C75.4946 96.2296 75.3736 96.5019 75.1583 96.7027C74.943 96.9035 74.6509 97.0164 74.3464 97.0164H9.22346C8.91895 97.0164 8.62691 96.9035 8.41159 96.7027C8.19627 96.5019 8.07531 96.2296 8.07531 95.9456V90.3774ZM9.22346 101.942C8.30993 101.942 7.43383 102.28 6.78787 102.883C6.14191 103.485 5.77901 104.302 5.77901 105.154V110.723C5.77901 111.575 6.14191 112.392 6.78787 112.994C7.43383 113.596 8.30993 113.935 9.22346 113.935H37.3095C38.223 113.935 39.0991 113.596 39.7451 112.994C40.391 112.392 40.7539 111.575 40.7539 110.723V105.154C40.7539 104.302 40.391 103.485 39.7451 102.883C39.0991 102.28 38.223 101.942 37.3095 101.942H9.22231H9.22346ZM8.07531 105.154C8.07531 104.87 8.19627 104.598 8.41159 104.397C8.62691 104.196 8.91895 104.084 9.22346 104.084H37.3095C37.614 104.084 37.906 104.196 38.1213 104.397C38.3366 104.598 38.4576 104.87 38.4576 105.154V110.723C38.4576 111.007 38.3366 111.279 38.1213 111.48C37.906 111.681 37.614 111.793 37.3095 111.793H9.22231C8.9178 111.793 8.62577 111.681 8.41045 111.48C8.19513 111.279 8.07416 111.007 8.07416 110.723V105.154H8.07531ZM42.8148 105.154C42.8148 104.302 43.1777 103.485 43.8237 102.883C44.4696 102.28 45.3458 101.942 46.2593 101.942H74.3464C75.2599 101.942 76.1361 102.28 76.782 102.883C77.428 103.485 77.7909 104.302 77.7909 105.154V110.723C77.7909 111.575 77.428 112.392 76.782 112.994C76.1361 113.596 75.2599 113.935 74.3464 113.935H46.2581C45.3446 113.935 44.4685 113.596 43.8225 112.994C43.1766 112.392 42.8137 111.575 42.8137 110.723V105.154H42.8148ZM46.2593 104.084C45.9548 104.084 45.6627 104.196 45.4474 104.397C45.2321 104.598 45.1111 104.87 45.1111 105.154V110.723C45.1111 111.007 45.2321 111.279 45.4474 111.48C45.6627 111.681 45.9548 111.793 46.2593 111.793H74.3464C74.6509 111.793 74.943 111.681 75.1583 111.48C75.3736 111.279 75.4946 111.007 75.4946 110.723V105.154C75.4946 104.87 75.3736 104.598 75.1583 104.397C74.943 104.196 74.6509 104.084 74.3464 104.084H46.2581H46.2593ZM14.3224 73.9514C14.3224 73.1355 15.04 72.4737 15.9252 72.4737H25.3928C26.2792 72.4737 26.9968 73.1355 26.9968 73.9514C26.9968 74.7673 26.2792 75.4291 25.3928 75.4291H15.9252C15.7159 75.4302 15.5085 75.3929 15.3146 75.3193C15.1208 75.2456 14.9445 75.1371 14.7956 74.9998C14.6468 74.8626 14.5284 74.6994 14.4472 74.5195C14.366 74.3396 14.3236 74.1466 14.3224 73.9514ZM17.1606 77.3994C16.1766 77.3994 15.3775 78.0611 15.3775 78.8771C15.3775 79.693 16.1766 80.3548 17.1606 80.3548H24.1597C25.1437 80.3548 25.9393 79.693 25.9393 78.8771C25.9393 78.0611 25.1437 77.3994 24.1597 77.3994H17.1606ZM58.1759 72.4737C57.2895 72.4737 56.5719 73.1355 56.5719 73.9514C56.5719 74.7673 57.2895 75.4291 58.1759 75.4291H67.6435C68.5288 75.4291 69.2464 74.7673 69.2464 73.9514C69.2464 73.1355 68.5288 72.4737 67.6435 72.4737H58.1759ZM57.6282 78.8771C57.6282 78.0611 58.4273 77.3994 59.4113 77.3994H66.4104C67.3944 77.3994 68.19 78.0611 68.19 78.8771C68.19 79.693 67.3944 80.3548 66.4104 80.3548H59.4113C58.4273 80.3548 57.6282 79.693 57.6282 78.8771ZM35.4483 73.9514C35.4483 73.1355 36.1659 72.4737 37.0511 72.4737H46.5199C47.4051 72.4737 48.1227 73.1355 48.1227 73.9514C48.1227 74.7673 47.4051 75.4291 46.5199 75.4291H37.05C36.8407 75.4302 36.6332 75.3929 36.4394 75.3193C36.2456 75.2456 36.0692 75.1371 35.9204 74.9998C35.7716 74.8626 35.6532 74.6994 35.572 74.5195C35.4908 74.3396 35.4484 74.1466 35.4472 73.9514H35.4483ZM38.2877 77.3994C37.3026 77.3994 36.5046 78.0611 36.5046 78.8771C36.5046 79.693 37.3026 80.3548 38.2877 80.3548H45.2856C46.2708 80.3548 47.0664 79.693 47.0664 78.8771C47.0664 78.0611 46.2708 77.3994 45.2868 77.3994H38.2877Z" fill="url(#paint1_linear)"/>
<path d="M7.45944 26.2088C8.33451 26.2088 9.04389 25.5391 9.04389 24.7129C9.04389 23.8868 8.33451 23.217 7.45944 23.217C6.58438 23.217 5.875 23.8868 5.875 24.7129C5.875 25.5391 6.58438 26.2088 7.45944 26.2088Z" fill="#4DB5FF"/>
<path d="M12.7407 26.2088C13.6158 26.2088 14.3251 25.5391 14.3251 24.7129C14.3251 23.8868 13.6158 23.217 12.7407 23.217C11.8656 23.217 11.1562 23.8868 11.1562 24.7129C11.1562 25.5391 11.8656 26.2088 12.7407 26.2088Z" fill="#4DB5FF"/>
<path d="M18.0219 26.1724C18.897 26.1724 19.6064 25.5108 19.6064 24.6947C19.6064 23.8786 18.897 23.217 18.0219 23.217C17.1469 23.217 16.4375 23.8786 16.4375 24.6947C16.4375 25.5108 17.1469 26.1724 18.0219 26.1724Z" fill="#4DB5FF"/>
<path d="M79.6326 19.2766H3.94669C2.67848 19.2766 1.65039 20.2354 1.65039 21.4182V117.619C1.65039 118.801 2.67848 119.76 3.94669 119.76H79.6326C80.9008 119.76 81.9289 118.801 81.9289 117.619V21.4182C81.9289 20.2354 80.9008 19.2766 79.6326 19.2766Z" stroke="#3E93CF" stroke-width="2" stroke-linecap="round"/>
</g>
<defs>
<linearGradient id="paint0_linear" x1="31" y1="26.5" x2="88" y2="102" gradientUnits="userSpaceOnUse">
<stop stop-color="#57B9FF"/>
<stop offset="1" stop-color="#9C4EFC"/>
</linearGradient>
<linearGradient id="paint1_linear" x1="13" y1="46" x2="82" y2="119" gradientUnits="userSpaceOnUse">
<stop stop-color="#57B9FF"/>
<stop offset="1" stop-color="#9E4BFC"/>
</linearGradient>
<clipPath id="clip0">
<rect width="93" height="121" fill="white"/>
</clipPath>
</defs>
</svg>
