<svg width="93" height="121" viewBox="0 0 93 121" fill="none" xmlns="http://www.w3.org/2000/svg">
<g clip-path="url(#clip0)">
<path fill-rule="evenodd" clip-rule="evenodd" d="M91.5728 13.5693L91.5652 13.7731H2.49414L2.49669 117.859C2.49669 118.534 2.76513 119.182 3.24296 119.66C3.7208 120.138 4.36888 120.406 5.04463 120.406H89.0249C89.7007 120.406 90.3487 120.138 90.8266 119.66C91.3044 119.182 91.5728 118.534 91.5728 117.859V13.5693ZM83.3685 94.6266C83.3685 106.923 73.3984 116.891 61.0994 116.891C48.8005 116.891 38.8304 106.923 38.8304 94.6266C38.8304 82.3305 48.8005 72.3626 61.0994 72.3626C73.3984 72.3626 83.3685 82.3317 83.3685 94.6266ZM7.18491 21.3898C7.18491 20.4192 7.97095 19.6321 8.94299 19.6321H24.1797C24.6344 19.6494 25.0647 19.8421 25.3803 20.1699C25.6958 20.4976 25.8721 20.9348 25.8721 21.3898C25.8721 21.8447 25.6958 22.2819 25.3803 22.6096C25.0647 22.9374 24.6344 23.1301 24.1797 23.1474H8.94299C8.47672 23.1474 8.02954 22.9623 7.69984 22.6326C7.37013 22.303 7.18491 21.8559 7.18491 21.3898ZM10.9024 30.0763C9.88872 30.0763 8.9166 30.4789 8.19986 31.1954C7.48311 31.912 7.08044 32.8839 7.08044 33.8973V49.8948C7.08044 50.9082 7.48311 51.8801 8.19986 52.5967C8.9166 53.3133 9.88872 53.7159 10.9024 53.7159H26.9035C27.9171 53.7159 28.8892 53.3133 29.606 52.5967C30.3227 51.8801 30.7254 50.9082 30.7254 49.8948V33.8973C30.7254 32.8839 30.3227 31.912 29.606 31.1954C28.8892 30.4789 27.9171 30.0763 26.9035 30.0763H10.9024ZM9.62839 33.8973C9.62839 33.5595 9.76261 33.2356 10.0015 32.9967C10.2404 32.7578 10.5645 32.6237 10.9024 32.6237H26.9035C27.6041 32.6237 28.1774 33.1943 28.1774 33.8973V49.8948C28.1774 50.5979 27.6041 51.1685 26.9035 51.1685H10.9024C10.5645 51.1685 10.2404 51.0343 10.0015 50.7954C9.76261 50.5566 9.62839 50.2326 9.62839 49.8948V33.8973ZM10.6985 55.9576C10.3877 55.9576 10.0896 56.081 9.86976 56.3008C9.64995 56.5205 9.52647 56.8186 9.52647 57.1293C9.52647 57.4401 9.64995 57.7382 9.86976 57.9579C10.0896 58.1777 10.3877 58.3011 10.6985 58.3011H27.1073C27.4181 58.3011 27.7163 58.1777 27.9361 57.9579C28.1559 57.7382 28.2793 57.4401 28.2793 57.1293C28.2793 56.8186 28.1559 56.5205 27.9361 56.3008C27.7163 56.081 27.4181 55.9576 27.1073 55.9576H10.6985ZM7.18236 64.1601C7.18236 63.5385 7.42933 62.9424 7.86893 62.5029C8.30854 62.0634 8.90477 61.8165 9.52647 61.8165H28.2793C28.901 61.8165 29.4973 62.0634 29.9369 62.5029C30.3765 62.9424 30.6235 63.5385 30.6235 64.1601C30.6235 64.7816 30.3765 65.3777 29.9369 65.8172C29.4973 66.2567 28.901 66.5037 28.2793 66.5037H9.52647C8.90477 66.5037 8.30854 66.2567 7.86893 65.8172C7.42933 65.3777 7.18236 64.7816 7.18236 64.1601ZM10.9024 75.7761C9.88872 75.7761 8.9166 76.1786 8.19986 76.8952C7.48311 77.6118 7.08044 78.5837 7.08044 79.5971V95.5946C7.08044 96.608 7.48311 97.5799 8.19986 98.2965C8.9166 99.0131 9.88872 99.4156 10.9024 99.4156H26.9035C27.9171 99.4156 28.8892 99.0131 29.606 98.2965C30.3227 97.5799 30.7254 96.608 30.7254 95.5946V79.5971C30.7254 78.5837 30.3227 77.6118 29.606 76.8952C28.8892 76.1786 27.9171 75.7761 26.9035 75.7761H10.9024ZM9.62839 79.5971C9.62839 79.2593 9.76261 78.9354 10.0015 78.6965C10.2404 78.4576 10.5645 78.3234 10.9024 78.3234H26.9035C27.6041 78.3234 28.1774 78.8941 28.1774 79.5971V95.5946C28.1774 96.2977 27.6041 96.8683 26.9035 96.8683H10.9024C10.5645 96.8683 10.2404 96.7341 10.0015 96.4952C9.76261 96.2564 9.62839 95.9324 9.62839 95.5946V79.5971ZM9.52647 102.829C9.52647 102.675 9.55678 102.523 9.61569 102.381C9.67459 102.239 9.76092 102.109 9.86976 102.001C9.97859 101.892 10.1078 101.805 10.25 101.747C10.3922 101.688 10.5446 101.657 10.6985 101.657H27.1073C27.4181 101.657 27.7163 101.781 27.9361 102.001C28.1559 102.22 28.2793 102.518 28.2793 102.829C28.2793 103.14 28.1559 103.438 27.9361 103.658C27.7163 103.877 27.4181 104.001 27.1073 104.001H10.6985C10.3877 104.001 10.0896 103.877 9.86976 103.658C9.64995 103.438 9.52647 103.14 9.52647 102.829ZM9.52647 107.516C8.90477 107.516 8.30854 107.763 7.86893 108.203C7.42933 108.642 7.18236 109.238 7.18236 109.86C7.18236 110.481 7.42933 111.078 7.86893 111.517C8.30854 111.957 8.90477 112.203 9.52647 112.203H28.2793C28.901 112.203 29.4973 111.957 29.9369 111.517C30.3765 111.078 30.6235 110.481 30.6235 109.86C30.6235 109.238 30.3765 108.642 29.9369 108.203C29.4973 107.763 28.901 107.516 28.2793 107.516H9.52647ZM35.2098 33.8973C35.2098 32.8839 35.6124 31.912 36.3292 31.1954C37.0459 30.4789 38.018 30.0763 39.0317 30.0763H55.0328C56.0464 30.0763 57.0185 30.4789 57.7353 31.1954C58.452 31.912 58.8547 32.8839 58.8547 33.8973V49.8948C58.8547 50.9082 58.452 51.8801 57.7353 52.5967C57.0185 53.3133 56.0464 53.7159 55.0328 53.7159H39.0317C38.018 53.7159 37.0459 53.3133 36.3292 52.5967C35.6124 51.8801 35.2098 50.9082 35.2098 49.8948V33.8973ZM39.0317 32.6237C38.6938 32.6237 38.3698 32.7578 38.1308 32.9967C37.8919 33.2356 37.7577 33.5595 37.7577 33.8973V49.8948C37.7577 50.2326 37.8919 50.5566 38.1308 50.7954C38.3698 51.0343 38.6938 51.1685 39.0317 51.1685H55.0328C55.7347 51.1685 56.3067 50.5979 56.3067 49.8948V33.8973C56.3067 33.1943 55.7347 32.6237 55.0328 32.6237H39.0317ZM38.8278 55.9576C38.517 55.9576 38.2189 56.081 37.9991 56.3008C37.7793 56.5205 37.6558 56.8186 37.6558 57.1293C37.6558 57.4401 37.7793 57.7382 37.9991 57.9579C38.2189 58.1777 38.517 58.3011 38.8278 58.3011H55.2366C55.5474 58.3011 55.8456 58.1777 56.0654 57.9579C56.2852 57.7382 56.4087 57.4401 56.4087 57.1293C56.4087 56.8186 56.2852 56.5205 56.0654 56.3008C55.8456 56.081 55.5474 55.9576 55.2366 55.9576H38.8278ZM35.3117 64.1601C35.3117 63.8523 35.3723 63.5476 35.4901 63.2632C35.6079 62.9789 35.7806 62.7205 35.9982 62.5029C36.2159 62.2853 36.4743 62.1127 36.7587 61.9949C37.0431 61.8771 37.3479 61.8165 37.6558 61.8165H56.4087C57.0304 61.8165 57.6266 62.0634 58.0662 62.5029C58.5058 62.9424 58.7528 63.5385 58.7528 64.1601C58.7528 64.7816 58.5058 65.3777 58.0662 65.8172C57.6266 66.2567 57.0304 66.5037 56.4087 66.5037H37.6558C37.0341 66.5037 36.4379 66.2567 35.9982 65.8172C35.5586 65.3777 35.3117 64.7816 35.3117 64.1601ZM67.161 30.0763C66.1473 30.0763 65.1752 30.4789 64.4585 31.1954C63.7417 31.912 63.3391 32.8839 63.3391 33.8973V49.8948C63.3391 50.9082 63.7417 51.8801 64.4585 52.5967C65.1752 53.3133 66.1473 53.7159 67.161 53.7159H83.1621C84.1757 53.7159 85.1478 53.3133 85.8646 52.5967C86.5813 51.8801 86.984 50.9082 86.984 49.8948V33.8973C86.984 32.8839 86.5813 31.912 85.8646 31.1954C85.1478 30.4789 84.1757 30.0763 83.1621 30.0763H67.161ZM65.887 33.8973C65.887 33.5595 66.0212 33.2356 66.2601 32.9967C66.4991 32.7578 66.8231 32.6237 67.161 32.6237H83.1621C83.864 32.6237 84.4361 33.1943 84.4361 33.8973V49.8948C84.4361 50.5979 83.864 51.1685 83.1621 51.1685H67.161C66.8231 51.1685 66.4991 51.0343 66.2601 50.7954C66.0212 50.5566 65.887 50.2326 65.887 49.8948V33.8973ZM65.7851 57.1293C65.7851 56.8186 65.9086 56.5205 66.1284 56.3008C66.3482 56.081 66.6463 55.9576 66.9571 55.9576H83.3659C83.6768 55.9576 83.9749 56.081 84.1947 56.3008C84.4145 56.5205 84.538 56.8186 84.538 57.1293C84.538 57.4401 84.4145 57.7382 84.1947 57.9579C83.9749 58.1777 83.6768 58.3011 83.3659 58.3011H66.9571C66.6463 58.3011 66.3482 58.1777 66.1284 57.9579C65.9086 57.7382 65.7851 57.4401 65.7851 57.1293ZM65.7851 61.8165C65.1634 61.8165 64.5672 62.0634 64.1276 62.5029C63.688 62.9424 63.441 63.5385 63.441 64.1601C63.441 64.7816 63.688 65.3777 64.1276 65.8172C64.5672 66.2567 65.1634 66.5037 65.7851 66.5037H84.538C85.1597 66.5037 85.7559 66.2567 86.1955 65.8172C86.6351 65.3777 86.8821 64.7816 86.8821 64.1601C86.8821 63.5385 86.6351 62.9424 86.1955 62.5029C85.7559 62.0634 85.1597 61.8165 84.538 61.8165H65.7851ZM32.3815 19.6321C32.1507 19.6321 31.922 19.6775 31.7087 19.7659C31.4954 19.8542 31.3016 19.9837 31.1384 20.1469C30.9751 20.3101 30.8456 20.5039 30.7573 20.7171C30.6689 20.9304 30.6235 21.1589 30.6235 21.3898C30.6235 21.6206 30.6689 21.8491 30.7573 22.0624C30.8456 22.2756 30.9751 22.4694 31.1384 22.6326C31.3016 22.7958 31.4954 22.9253 31.7087 23.0136C31.922 23.102 32.1507 23.1474 32.3815 23.1474H39.4139C39.8801 23.1474 40.3273 22.9623 40.657 22.6326C40.9867 22.303 41.1719 21.8559 41.1719 21.3898C41.1719 20.9236 40.9867 20.4765 40.657 20.1469C40.3273 19.8173 39.8801 19.6321 39.4139 19.6321H32.3815ZM45.8614 21.3898C45.8614 20.4192 46.6475 19.6321 47.6195 19.6321H54.6518C55.1181 19.6321 55.5653 19.8173 55.895 20.1469C56.2247 20.4765 56.4099 20.9236 56.4099 21.3898C56.4099 21.8559 56.2247 22.303 55.895 22.6326C55.5653 22.9623 55.1181 23.1474 54.6518 23.1474H47.6195C47.1532 23.1474 46.7061 22.9623 46.3764 22.6326C46.0467 22.303 45.8614 21.8559 45.8614 21.3898ZM62.8588 19.6321C62.6279 19.6321 62.3993 19.6775 62.186 19.7659C61.9727 19.8542 61.7789 19.9837 61.6156 20.1469C61.4524 20.3101 61.3229 20.5039 61.2345 20.7171C61.1462 20.9304 61.1007 21.1589 61.1007 21.3898C61.1007 21.6206 61.1462 21.8491 61.2345 22.0624C61.3229 22.2756 61.4524 22.4694 61.6156 22.6326C61.7789 22.7958 61.9727 22.9253 62.186 23.0136C62.3993 23.102 62.6279 23.1474 62.8588 23.1474H69.8911C70.3574 23.1474 70.8046 22.9623 71.1343 22.6326C71.464 22.303 71.6492 21.8559 71.6492 21.3898C71.6492 20.9236 71.464 20.4765 71.1343 20.1469C70.8046 19.8173 70.3574 19.6321 69.8911 19.6321H62.8588ZM76.3349 21.3898C76.3349 20.4192 77.1209 19.6321 78.0929 19.6321H85.1253C85.5915 19.6321 86.0387 19.8173 86.3684 20.1469C86.6981 20.4765 86.8833 20.9236 86.8833 21.3898C86.8833 21.8559 86.6981 22.303 86.3684 22.6326C86.0387 22.9623 85.5915 23.1474 85.1253 23.1474H78.0929C77.6267 23.1474 77.1795 22.9623 76.8498 22.6326C76.5201 22.303 76.3349 21.8559 76.3349 21.3898Z" fill="url(#paint0_linear)"/>
<path d="M89.0243 2.05542H5.04404C3.63685 2.05542 2.49609 3.19592 2.49609 4.60279V117.859C2.49609 119.266 3.63685 120.406 5.04404 120.406H89.0243C90.4315 120.406 91.5723 119.266 91.5723 117.859V4.60279C91.5723 3.19592 90.4315 2.05542 89.0243 2.05542Z" stroke="#3E93CF" stroke-width="2" stroke-linecap="round"/>
<path d="M8.94167 9.62142C9.91264 9.62142 10.6998 8.82478 10.6998 7.84208C10.6998 6.85938 9.91264 6.06274 8.94167 6.06274C7.97071 6.06274 7.18359 6.85938 7.18359 7.84208C7.18359 8.82478 7.97071 9.62142 8.94167 9.62142Z" fill="#4DB5FF"/>
<path d="M14.8011 9.62142C15.772 9.62142 16.5591 8.82478 16.5591 7.84208C16.5591 6.85938 15.772 6.06274 14.8011 6.06274C13.8301 6.06274 13.043 6.85938 13.043 7.84208C13.043 8.82478 13.8301 9.62142 14.8011 9.62142Z" fill="#4DB5FF"/>
<path d="M20.6624 9.57811C21.6333 9.57811 22.4205 8.79117 22.4205 7.82043C22.4205 6.84969 21.6333 6.06274 20.6624 6.06274C19.6914 6.06274 18.9043 6.84969 18.9043 7.82043C18.9043 8.79117 19.6914 9.57811 20.6624 9.57811Z" fill="#4DB5FF"/>
<path d="M70.2429 91.5675H58.6409M48.207 84.0808L51.6633 84.6501L54.3081 96.9667H56.2904L48.207 84.0808ZM56.2904 86.9963H72.8202L69.5142 96.9667H56.2904V86.9963ZM69.5142 100.486H54.3081L56.2904 96.9667L69.5142 100.486Z" stroke="#3E93CF" stroke-width="2" stroke-linecap="round" stroke-linejoin="round"/>
<path d="M66.9594 106.345C68.254 106.345 69.3035 105.295 69.3035 104.001C69.3035 102.707 68.254 101.657 66.9594 101.657C65.6647 101.657 64.6152 102.707 64.6152 104.001C64.6152 105.295 65.6647 106.345 66.9594 106.345Z" fill="#4DB5FF"/>
<path d="M56.4105 106.345C57.7051 106.345 58.7546 105.295 58.7546 104.001C58.7546 102.707 57.7051 101.657 56.4105 101.657C55.1159 101.657 54.0664 102.707 54.0664 104.001C54.0664 105.295 55.1159 106.345 56.4105 106.345Z" fill="#4DB5FF"/>
</g>
<defs>
<linearGradient id="paint0_linear" x1="22" y1="33" x2="92" y2="120" gradientUnits="userSpaceOnUse">
<stop stop-color="#57B9FF"/>
<stop offset="1" stop-color="#9846FB"/>
</linearGradient>
<clipPath id="clip0">
<rect width="93" height="121" fill="white"/>
</clipPath>
</defs>
</svg>
