<svg width="93" height="121" viewBox="0 0 93 121" fill="none" xmlns="http://www.w3.org/2000/svg">
<g clip-path="url(#clip0)">
<path d="M8.94167 9.62142C9.91264 9.62142 10.6998 8.82478 10.6998 7.84208C10.6998 6.85938 9.91264 6.06274 8.94167 6.06274C7.97071 6.06274 7.18359 6.85938 7.18359 7.84208C7.18359 8.82478 7.97071 9.62142 8.94167 9.62142Z" fill="#4DB5FF"/>
<path d="M14.8011 9.62142C15.772 9.62142 16.5591 8.82478 16.5591 7.84208C16.5591 6.85938 15.772 6.06274 14.8011 6.06274C13.8301 6.06274 13.043 6.85938 13.043 7.84208C13.043 8.82478 13.8301 9.62142 14.8011 9.62142Z" fill="#4DB5FF"/>
<path d="M20.6624 9.57811C21.6333 9.57811 22.4205 8.79117 22.4205 7.82043C22.4205 6.84969 21.6333 6.06274 20.6624 6.06274C19.6914 6.06274 18.9043 6.84969 18.9043 7.82043C18.9043 8.79117 19.6914 9.57811 20.6624 9.57811Z" fill="#4DB5FF"/>
<path fill-rule="evenodd" clip-rule="evenodd" d="M91.5728 13.5696L91.5652 13.7734H2.49414L2.49669 117.859C2.49669 118.534 2.76513 119.182 3.24296 119.66C3.7208 120.138 4.36888 120.406 5.04463 120.406H89.0249C89.7007 120.406 90.3487 120.138 90.8266 119.66C91.3044 119.182 91.5728 118.534 91.5728 117.859V13.5696ZM7.18491 21.39C7.18491 20.4195 7.97095 19.6323 8.94299 19.6323H24.1797C24.6344 19.6496 25.0647 19.8424 25.3803 20.1701C25.6958 20.4979 25.8721 20.9351 25.8721 21.39C25.8721 21.8449 25.6958 22.2821 25.3803 22.6099C25.0647 22.9376 24.6344 23.1304 24.1797 23.1477H8.94299C8.47672 23.1477 8.02954 22.9625 7.69984 22.6329C7.37013 22.3032 7.18491 21.8562 7.18491 21.39ZM10.9024 30.0765C9.88872 30.0765 8.9166 30.4791 8.19986 31.1957C7.48311 31.9123 7.08044 32.8842 7.08044 33.8976V49.8951C7.08044 50.9085 7.48311 51.8804 8.19986 52.597C8.9166 53.3135 9.88872 53.7161 10.9024 53.7161H26.9035C27.9171 53.7161 28.8892 53.3135 29.606 52.597C30.3227 51.8804 30.7254 50.9085 30.7254 49.8951V33.8976C30.7254 32.8842 30.3227 31.9123 29.606 31.1957C28.8892 30.4791 27.9171 30.0765 26.9035 30.0765H10.9024ZM9.62839 33.8976C9.62839 33.5598 9.76261 33.2358 10.0015 32.997C10.2404 32.7581 10.5645 32.6239 10.9024 32.6239H26.9035C27.6041 32.6239 28.1774 33.1945 28.1774 33.8976V49.8951C28.1774 50.5981 27.6041 51.1687 26.9035 51.1687H10.9024C10.5645 51.1687 10.2404 51.0345 10.0015 50.7957C9.76261 50.5568 9.62839 50.2329 9.62839 49.8951V33.8976ZM10.6985 55.9578C10.3877 55.9578 10.0896 56.0812 9.86976 56.301C9.64995 56.5208 9.52647 56.8188 9.52647 57.1296C9.52647 57.4404 9.64995 57.7384 9.86976 57.9582C10.0896 58.1779 10.3877 58.3014 10.6985 58.3014H27.1073C27.4181 58.3014 27.7163 58.1779 27.9361 57.9582C28.1559 57.7384 28.2793 57.4404 28.2793 57.1296C28.2793 56.8188 28.1559 56.5208 27.9361 56.301C27.7163 56.0812 27.4181 55.9578 27.1073 55.9578H10.6985ZM7.18236 64.1603C7.18236 63.5388 7.42933 62.9427 7.86893 62.5032C8.30854 62.0637 8.90477 61.8167 9.52647 61.8167H28.2793C28.901 61.8167 29.4973 62.0637 29.9369 62.5032C30.3765 62.9427 30.6235 63.5388 30.6235 64.1603C30.6235 64.7819 30.3765 65.378 29.9369 65.8175C29.4973 66.257 28.901 66.5039 28.2793 66.5039H9.52647C8.90477 66.5039 8.30854 66.257 7.86893 65.8175C7.42933 65.378 7.18236 64.7819 7.18236 64.1603ZM10.9024 75.7763C9.88872 75.7763 8.9166 76.1789 8.19986 76.8955C7.48311 77.6121 7.08044 78.584 7.08044 79.5974V95.5948C7.08044 96.6082 7.48311 97.5801 8.19986 98.2967C8.9166 99.0133 9.88872 99.4159 10.9024 99.4159H26.9035C27.9171 99.4159 28.8892 99.0133 29.606 98.2967C30.3227 97.5801 30.7254 96.6082 30.7254 95.5948V79.5974C30.7254 78.584 30.3227 77.6121 29.606 76.8955C28.8892 76.1789 27.9171 75.7763 26.9035 75.7763H10.9024ZM9.62839 79.5974C9.62839 79.2596 9.76261 78.9356 10.0015 78.6967C10.2404 78.4579 10.5645 78.3237 10.9024 78.3237H26.9035C27.6041 78.3237 28.1774 78.8943 28.1774 79.5974V95.5948C28.1774 96.2979 27.6041 96.8685 26.9035 96.8685H10.9024C10.5645 96.8685 10.2404 96.7343 10.0015 96.4955C9.76261 96.2566 9.62839 95.9326 9.62839 95.5948V79.5974ZM9.52647 102.829C9.52647 102.675 9.55679 102.523 9.61569 102.381C9.67459 102.239 9.76092 102.11 9.86976 102.001C9.97859 101.892 10.1078 101.806 10.25 101.747C10.3922 101.688 10.5446 101.658 10.6985 101.658H27.1073C27.4181 101.658 27.7163 101.781 27.9361 102.001C28.1559 102.221 28.2793 102.519 28.2793 102.829C28.2793 103.14 28.1559 103.438 27.9361 103.658C27.7163 103.878 27.4181 104.001 27.1073 104.001H10.6985C10.3877 104.001 10.0896 103.878 9.86976 103.658C9.64995 103.438 9.52647 103.14 9.52647 102.829ZM9.52647 107.517C8.90477 107.517 8.30854 107.763 7.86893 108.203C7.42933 108.642 7.18236 109.239 7.18236 109.86C7.18236 110.482 7.42933 111.078 7.86893 111.517C8.30854 111.957 8.90477 112.204 9.52647 112.204H28.2793C28.901 112.204 29.4973 111.957 29.9369 111.517C30.3765 111.078 30.6235 110.482 30.6235 109.86C30.6235 109.239 30.3765 108.642 29.9369 108.203C29.4973 107.763 28.901 107.517 28.2793 107.517H9.52647ZM35.2098 33.8976C35.2098 32.8842 35.6124 31.9123 36.3292 31.1957C37.0459 30.4791 38.018 30.0765 39.0317 30.0765H55.0328C56.0464 30.0765 57.0185 30.4791 57.7353 31.1957C58.452 31.9123 58.8547 32.8842 58.8547 33.8976V49.8951C58.8547 50.9085 58.452 51.8804 57.7353 52.597C57.0185 53.3135 56.0464 53.7161 55.0328 53.7161H39.0317C38.018 53.7161 37.0459 53.3135 36.3292 52.597C35.6124 51.8804 35.2098 50.9085 35.2098 49.8951V33.8976ZM39.0317 32.6239C38.6938 32.6239 38.3698 32.7581 38.1308 32.997C37.8919 33.2358 37.7577 33.5598 37.7577 33.8976V49.8951C37.7577 50.2329 37.8919 50.5568 38.1308 50.7957C38.3698 51.0345 38.6938 51.1687 39.0317 51.1687H55.0328C55.7347 51.1687 56.3067 50.5981 56.3067 49.8951V33.8976C56.3067 33.1945 55.7347 32.6239 55.0328 32.6239H39.0317ZM38.8278 55.9578C38.517 55.9578 38.2189 56.0812 37.9991 56.301C37.7793 56.5208 37.6558 56.8188 37.6558 57.1296C37.6558 57.4404 37.7793 57.7384 37.9991 57.9582C38.2189 58.1779 38.517 58.3014 38.8278 58.3014H55.2366C55.5475 58.3014 55.8456 58.1779 56.0654 57.9582C56.2852 57.7384 56.4087 57.4404 56.4087 57.1296C56.4087 56.8188 56.2852 56.5208 56.0654 56.301C55.8456 56.0812 55.5475 55.9578 55.2366 55.9578H38.8278ZM35.3117 64.1603C35.3117 63.8526 35.3723 63.5478 35.4901 63.2635C35.6079 62.9791 35.7806 62.7208 35.9982 62.5032C36.2159 62.2855 36.4743 62.1129 36.7587 61.9951C37.0431 61.8774 37.3479 61.8167 37.6558 61.8167H56.4087C57.0304 61.8167 57.6266 62.0637 58.0662 62.5032C58.5058 62.9427 58.7528 63.5388 58.7528 64.1603C58.7528 64.7819 58.5058 65.378 58.0662 65.8175C57.6266 66.257 57.0304 66.5039 56.4087 66.5039H37.6558C37.0341 66.5039 36.4379 66.257 35.9982 65.8175C35.5586 65.378 35.3117 64.7819 35.3117 64.1603ZM67.161 30.0765C66.1474 30.0765 65.1752 30.4791 64.4585 31.1957C63.7417 31.9123 63.3391 32.8842 63.3391 33.8976V49.8951C63.3391 50.9085 63.7417 51.8804 64.4585 52.597C65.1752 53.3135 66.1474 53.7161 67.161 53.7161H83.1621C84.1757 53.7161 85.1478 53.3135 85.8646 52.597C86.5813 51.8804 86.984 50.9085 86.984 49.8951V33.8976C86.984 32.8842 86.5813 31.9123 85.8646 31.1957C85.1478 30.4791 84.1757 30.0765 83.1621 30.0765H67.161ZM65.887 33.8976C65.887 33.5598 66.0212 33.2358 66.2601 32.997C66.4991 32.7581 66.8231 32.6239 67.161 32.6239H83.1621C83.864 32.6239 84.4361 33.1945 84.4361 33.8976V49.8951C84.4361 50.5981 83.864 51.1687 83.1621 51.1687H67.161C66.8231 51.1687 66.4991 51.0345 66.2601 50.7957C66.0212 50.5568 65.887 50.2329 65.887 49.8951V33.8976ZM65.7851 57.1296C65.7851 56.8188 65.9086 56.5208 66.1284 56.301C66.3482 56.0812 66.6463 55.9578 66.9571 55.9578H83.3659C83.6768 55.9578 83.9749 56.0812 84.1947 56.301C84.4145 56.5208 84.538 56.8188 84.538 57.1296C84.538 57.4404 84.4145 57.7384 84.1947 57.9582C83.9749 58.1779 83.6768 58.3014 83.3659 58.3014H66.9571C66.6463 58.3014 66.3482 58.1779 66.1284 57.9582C65.9086 57.7384 65.7851 57.4404 65.7851 57.1296ZM65.7851 61.8167C65.1634 61.8167 64.5672 62.0637 64.1276 62.5032C63.688 62.9427 63.441 63.5388 63.441 64.1603C63.441 64.7819 63.688 65.378 64.1276 65.8175C64.5672 66.257 65.1634 66.5039 65.7851 66.5039H84.538C85.1597 66.5039 85.7559 66.257 86.1955 65.8175C86.6351 65.378 86.8821 64.7819 86.8821 64.1603C86.8821 63.5388 86.6351 62.9427 86.1955 62.5032C85.7559 62.0637 85.1597 61.8167 84.538 61.8167H65.7851ZM32.3815 19.6323C32.1507 19.6323 31.922 19.6778 31.7087 19.7661C31.4954 19.8544 31.3016 19.9839 31.1384 20.1471C30.9751 20.3103 30.8456 20.5041 30.7573 20.7174C30.6689 20.9306 30.6235 21.1592 30.6235 21.39C30.6235 21.6208 30.6689 21.8494 30.7573 22.0626C30.8456 22.2759 30.9751 22.4697 31.1384 22.6329C31.3016 22.7961 31.4954 22.9256 31.7087 23.0139C31.922 23.1022 32.1507 23.1477 32.3815 23.1477H39.4139C39.8801 23.1477 40.3273 22.9625 40.657 22.6329C40.9867 22.3032 41.1719 21.8562 41.1719 21.39C41.1719 20.9238 40.9867 20.4768 40.657 20.1471C40.3273 19.8175 39.8801 19.6323 39.4139 19.6323H32.3815ZM45.8614 21.39C45.8614 20.4195 46.6475 19.6323 47.6195 19.6323H54.6518C55.1181 19.6323 55.5653 19.8175 55.895 20.1471C56.2247 20.4768 56.4099 20.9238 56.4099 21.39C56.4099 21.8562 56.2247 22.3032 55.895 22.6329C55.5653 22.9625 55.1181 23.1477 54.6518 23.1477H47.6195C47.1532 23.1477 46.7061 22.9625 46.3764 22.6329C46.0467 22.3032 45.8614 21.8562 45.8614 21.39ZM62.8588 19.6323C62.6279 19.6323 62.3993 19.6778 62.186 19.7661C61.9727 19.8544 61.7789 19.9839 61.6156 20.1471C61.4524 20.3103 61.3229 20.5041 61.2345 20.7174C61.1462 20.9306 61.1007 21.1592 61.1007 21.39C61.1007 21.6208 61.1462 21.8494 61.2345 22.0626C61.3229 22.2759 61.4524 22.4697 61.6156 22.6329C61.7789 22.7961 61.9727 22.9256 62.186 23.0139C62.3993 23.1022 62.6279 23.1477 62.8588 23.1477H69.8911C70.3574 23.1477 70.8046 22.9625 71.1343 22.6329C71.464 22.3032 71.6492 21.8562 71.6492 21.39C71.6492 20.9238 71.464 20.4768 71.1343 20.1471C70.8046 19.8175 70.3574 19.6323 69.8911 19.6323H62.8588ZM76.3349 21.39C76.3349 20.4195 77.1209 19.6323 78.0929 19.6323H85.1253C85.5915 19.6323 86.0387 19.8175 86.3684 20.1471C86.6981 20.4768 86.8833 20.9238 86.8833 21.39C86.8833 21.8562 86.6981 22.3032 86.3684 22.6329C86.0387 22.9625 85.5915 23.1477 85.1253 23.1477H78.0929C77.6267 23.1477 77.1795 22.9625 76.8498 22.6329C76.5201 22.3032 76.3349 21.8562 76.3349 21.39ZM39.9995 75.5H53.9995C56.4848 75.5 58.4995 77.5148 58.4995 80V94C58.4995 96.4853 56.4848 98.5 53.9995 98.5H39.9995C37.5143 98.5 35.4995 96.4853 35.4995 94V80C35.4995 77.5148 37.5143 75.5 39.9995 75.5ZM39.9995 78C38.895 78 37.9995 78.8955 37.9995 80V94C37.9995 95.1046 38.895 96 39.9995 96H53.9995C55.1041 96 55.9995 95.1046 55.9995 94V80C55.9995 78.8955 55.1041 78 53.9995 78H39.9995ZM38.1228 102.646C38.1228 101.956 38.6825 101.396 39.3728 101.396H55.6648C56.3552 101.396 56.9148 101.956 56.9148 102.646C56.9148 103.336 56.3552 103.896 55.6648 103.896H39.3728C38.6825 103.896 38.1228 103.336 38.1228 102.646ZM35.5152 109.784C35.5152 108.403 36.6345 107.284 38.0152 107.284H57.0225C58.4032 107.284 59.5225 108.403 59.5225 109.784C59.5225 111.164 58.4032 112.284 57.0225 112.284H38.0152C36.6345 112.284 35.5152 111.164 35.5152 109.784ZM67.8473 75.6741H81.8473C84.3326 75.6741 86.3473 77.6888 86.3473 80.1741V94.1741C86.3473 96.6594 84.3326 98.6741 81.8473 98.6741H67.8473C65.362 98.6741 63.3473 96.6594 63.3473 94.1741V80.1741C63.3473 77.6888 65.362 75.6741 67.8473 75.6741ZM67.8473 78.1741C66.7427 78.1741 65.8473 79.0695 65.8473 80.1741V94.1741C65.8473 95.2787 66.7427 96.1741 67.8473 96.1741H81.8473C82.9519 96.1741 83.8473 95.2787 83.8473 94.1741V80.1741C83.8473 79.0695 82.9519 78.1741 81.8473 78.1741H67.8473ZM65.955 102.646C65.955 101.956 66.5146 101.396 67.205 101.396H83.4969C84.1873 101.396 84.7469 101.956 84.7469 102.646C84.7469 103.336 84.1873 103.896 83.4969 103.896H67.205C66.5146 103.896 65.955 103.336 65.955 102.646ZM63.3473 109.784C63.3473 108.403 64.4666 107.284 65.8473 107.284H84.8546C86.2353 107.284 87.3546 108.403 87.3546 109.784C87.3546 111.164 86.2353 112.284 84.8546 112.284H65.8473C64.4666 112.284 63.3473 111.164 63.3473 109.784Z" fill="url(#paint0_linear)"/>
<path d="M89.0243 2.05542H5.04404C3.63685 2.05542 2.49609 3.19592 2.49609 4.60279V117.859C2.49609 119.266 3.63685 120.406 5.04404 120.406H89.0243C90.4315 120.406 91.5723 119.266 91.5723 117.859V4.60279C91.5723 3.19592 90.4315 2.05542 89.0243 2.05542Z" stroke="#3E93CF" stroke-width="2" stroke-linecap="round"/>
</g>
<defs>
<linearGradient id="paint0_linear" x1="24" y1="35" x2="92" y2="120" gradientUnits="userSpaceOnUse">
<stop stop-color="#57B9FF"/>
<stop offset="1" stop-color="#9A42FB"/>
</linearGradient>
<clipPath id="clip0">
<rect width="93" height="121" fill="white"/>
</clipPath>
</defs>
</svg>
