<svg width="93" height="121" viewBox="0 0 93 121" fill="none" xmlns="http://www.w3.org/2000/svg">
<g clip-path="url(#clip0)">
<path d="M8.94753 9.62142C9.9185 9.62142 10.7056 8.82478 10.7056 7.84208C10.7056 6.85938 9.9185 6.06274 8.94753 6.06274C7.97657 6.06274 7.18945 6.85938 7.18945 7.84208C7.18945 8.82478 7.97657 9.62142 8.94753 9.62142Z" fill="#4DB5FF"/>
<path d="M14.8089 9.62142C15.7798 9.62142 16.5669 8.82478 16.5669 7.84208C16.5669 6.85938 15.7798 6.06274 14.8089 6.06274C13.8379 6.06274 13.0508 6.85938 13.0508 7.84208C13.0508 8.82478 13.8379 9.62142 14.8089 9.62142Z" fill="#4DB5FF"/>
<path d="M20.6682 9.57811C21.6392 9.57811 22.4263 8.79117 22.4263 7.82043C22.4263 6.84969 21.6392 6.06274 20.6682 6.06274C19.6973 6.06274 18.9102 6.84969 18.9102 7.82043C18.9102 8.79117 19.6973 9.57811 20.6682 9.57811Z" fill="#4DB5FF"/>
<path fill-rule="evenodd" clip-rule="evenodd" d="M2.49023 117.859V13.7734H91.56L91.5677 13.5696V117.859C91.5677 118.534 91.2992 119.182 90.8214 119.66C90.3436 120.138 89.6955 120.406 89.0197 120.406H5.03818C4.36242 120.406 3.71434 120.138 3.23651 119.66C2.75868 119.182 2.49023 118.534 2.49023 117.859ZM10.9036 102.727C9.88991 102.727 8.91779 103.13 8.20105 103.847C7.4843 104.563 7.08163 105.535 7.08163 106.549V110.828C7.08163 111.842 7.4843 112.813 8.20105 113.53C8.91779 114.247 9.88991 114.649 10.9036 114.649H42.0662C43.0798 114.649 44.0519 114.247 44.7687 113.53C45.4854 112.813 45.8881 111.842 45.8881 110.828V106.549C45.8881 105.535 45.4854 104.563 44.7687 103.847C44.0519 103.13 43.0798 102.727 42.0662 102.727H10.9048H10.9036ZM9.62958 106.549C9.62958 106.211 9.7638 105.887 10.0027 105.648C10.2416 105.409 10.5657 105.275 10.9036 105.275H42.0662C42.4041 105.275 42.7281 105.409 42.967 105.648C43.2059 105.887 43.3402 106.211 43.3402 106.549V110.828C43.3402 111.166 43.2059 111.49 42.967 111.729C42.7281 111.968 42.4041 112.102 42.0662 112.102H10.9048C10.5669 112.102 10.2429 111.968 10.004 111.729C9.76507 111.49 9.63085 111.166 9.63085 110.828V106.549H9.62958ZM48.1711 106.549C48.1711 105.535 48.5737 104.563 49.2905 103.847C50.0072 103.13 50.9794 102.727 51.993 102.727H83.1582C84.1718 102.727 85.1439 103.13 85.8607 103.847C86.5774 104.563 86.9801 105.535 86.9801 106.549V110.828C86.9801 111.842 86.5774 112.813 85.8607 113.53C85.1439 114.247 84.1718 114.649 83.1582 114.649H51.993C50.9794 114.649 50.0072 114.247 49.2905 113.53C48.5737 112.813 48.1711 111.842 48.1711 110.828V106.549ZM51.993 105.275C51.6551 105.275 51.3311 105.409 51.0922 105.648C50.8532 105.887 50.719 106.211 50.719 106.549V110.828C50.719 111.166 50.8532 111.49 51.0922 111.729C51.3311 111.968 51.6551 112.102 51.993 112.102H83.1582C83.4961 112.102 83.8201 111.968 84.059 111.729C84.2979 111.49 84.4322 111.166 84.4322 110.828V106.549C84.4322 106.211 84.2979 105.887 84.059 105.648C83.8201 105.409 83.4961 105.275 83.1582 105.275H51.993ZM30.6183 75.8782C30.6308 76.8094 30.4582 77.7338 30.1104 78.5977C29.7627 79.4616 29.2467 80.2478 28.5925 80.9108C27.9383 81.5737 27.1589 82.1 26.2996 82.4593C25.4402 82.8186 24.518 83.0036 23.5866 83.0036C22.6551 83.0036 21.7329 82.8186 20.8736 82.4593C20.0142 82.1 19.2348 81.5737 18.5806 80.9108C17.9264 80.2478 17.4105 79.4616 17.0627 78.5977C16.715 77.7338 16.5424 76.8094 16.5549 75.8782C16.5549 74.0135 17.2958 72.2253 18.6146 70.9067C19.9334 69.5882 21.7221 68.8475 23.5872 68.8475C25.4523 68.8475 27.241 69.5882 28.5598 70.9067C29.8786 72.2253 30.6196 74.0135 30.6196 75.8782H30.6183ZM18.3346 86.4243C17.3511 86.4243 16.5549 87.2115 16.5549 88.182C16.5549 89.1525 17.3511 89.9397 18.3346 89.9397H28.8398C29.822 89.9397 30.6183 89.1525 30.6183 88.182C30.6183 87.2115 29.822 86.4243 28.8398 86.4243H18.3346ZM17.7269 94.041C17.7269 93.0704 18.6124 92.2833 19.7054 92.2833H27.4703C28.5634 92.2833 29.4462 93.0704 29.4462 94.041C29.4462 95.0115 28.5634 95.7986 27.4716 95.7986H19.7054C18.6124 95.7986 17.7269 95.0115 17.7269 94.041ZM70.4694 82.909C71.404 82.9267 72.3328 82.7581 73.2014 82.4128C74.07 82.0675 74.8611 81.5526 75.5283 80.8981C76.1956 80.2436 76.7256 79.4626 77.0874 78.6009C77.4492 77.7392 77.6356 76.814 77.6356 75.8795C77.6356 74.9449 77.4492 74.0198 77.0874 73.1581C76.7256 72.2964 76.1956 71.5154 75.5283 70.8609C74.8611 70.2064 74.07 69.6915 73.2014 69.3462C72.3328 69.0009 71.404 68.8322 70.4694 68.85C68.6209 68.8749 66.8565 69.6265 65.5581 70.9422C64.2597 72.2579 63.5317 74.0318 63.5317 75.8801C63.5317 77.7284 64.2597 79.5023 65.5581 80.818C66.8565 82.1337 68.6209 82.8853 70.4694 82.9102V82.909ZM63.4371 88.182C63.4371 87.2115 64.2346 86.4243 65.2168 86.4243H75.722C76.7055 86.4243 77.5017 87.2115 77.5017 88.182C77.5017 89.1525 76.7055 89.9397 75.722 89.9397H65.2168C64.9846 89.941 64.7544 89.8966 64.5394 89.809C64.3243 89.7214 64.1286 89.5923 63.9635 89.4291C63.7983 89.2659 63.6669 89.0718 63.5768 88.8578C63.4867 88.6438 63.4397 88.4142 63.4384 88.182H63.4371ZM66.5927 92.2833C65.5009 92.2833 64.6155 93.0717 64.6155 94.041C64.6155 95.0128 65.5009 95.7986 66.5927 95.7986H74.3589C75.4519 95.7986 76.3335 95.0128 76.3335 94.041C76.3335 93.0717 75.4519 92.2833 74.3589 92.2833H66.5927ZM54.0606 75.8782C54.0606 77.7429 53.3197 79.5312 52.0009 80.8497C50.6821 82.1682 48.8934 82.909 47.0283 82.909C45.1632 82.909 43.3745 82.1682 42.0557 80.8497C40.7369 79.5312 39.996 77.7429 39.996 75.8782C39.996 74.0135 40.7369 72.2253 42.0557 70.9067C43.3745 69.5882 45.1632 68.8475 47.0283 68.8475C48.8934 68.8475 50.6821 69.5882 52.0009 70.9067C53.3197 72.2253 54.0606 74.0135 54.0606 75.8782ZM41.7757 86.4243C40.7922 86.4243 39.996 87.2115 39.996 88.182C39.996 89.1525 40.7922 89.9397 41.7757 89.9397H52.2809C53.2644 89.9397 54.0606 89.1525 54.0606 88.182C54.0606 87.2115 53.2644 86.4243 52.2809 86.4243H41.7757ZM41.168 94.041C41.168 93.0704 42.0547 92.2833 43.1465 92.2833H50.9127C52.0045 92.2833 52.8873 93.0704 52.8873 94.041C52.8873 95.0115 52.0045 95.7986 50.9127 95.7986H43.1465C42.0547 95.7986 41.168 95.0115 41.168 94.041ZM67.7791 37.9801L64.0341 36.7403C63.8798 35.9421 63.6703 35.1563 63.4081 34.3933L66.0377 31.4404L65.7808 30.911C65.3362 29.9943 64.8207 29.1031 64.2498 28.2619L63.9202 27.7763L60.07 28.5789C59.5352 27.9634 58.9573 27.3856 58.3444 26.85L59.145 22.9945L58.6601 22.6644C57.8148 22.0893 56.9249 21.5738 56.013 21.1313L55.4851 20.8758L52.5381 23.5091C51.7744 23.2465 50.9896 23.0367 50.1943 22.8821L48.9563 19.132L48.3714 19.089C47.3561 19.0152 46.3214 19.0152 45.306 19.089L44.7212 19.1311L43.4831 22.8821C42.6887 23.0367 41.9031 23.2465 41.1394 23.5091L38.1906 20.8758L37.6619 21.1331C36.7465 21.5782 35.8565 22.0945 35.0165 22.6661L34.5325 22.9963L35.3339 26.8518C34.7193 27.3874 34.1423 27.966 33.6075 28.5798L29.7582 27.7772L29.4285 28.2628C28.8542 29.1092 28.3395 30.0004 27.8976 30.9136L27.6424 31.4422L30.2703 34.3933C30.0081 35.1581 29.7985 35.9439 29.6442 36.7403L25.8993 37.9801L25.8563 38.5657C25.8195 39.0741 25.7949 39.5834 25.7949 40.1006C25.7949 40.6177 25.8195 41.127 25.8563 41.6354L25.8984 42.221L29.6433 43.4608C29.7976 44.259 30.0072 45.0448 30.2694 45.8078L27.6398 48.7607L27.8967 49.2902C28.3412 50.2068 28.8568 51.098 29.4276 51.9392L29.7573 52.4248L33.6075 51.6222C34.1423 52.2378 34.7201 52.8155 35.333 53.3511L34.5325 57.2066L35.0174 57.5367C35.8626 58.1119 36.7526 58.6273 37.6645 59.0698L38.1924 59.3253L41.1403 56.6938C41.904 56.9564 42.6887 57.1662 43.484 57.3207L44.7221 61.0709L45.3069 61.113C45.8137 61.149 46.3223 61.1736 46.8387 61.1736C47.3552 61.1736 47.8637 61.149 48.3714 61.1121L48.9563 61.07L50.1943 57.3199C50.9914 57.1653 51.7761 56.9555 52.5381 56.6929L55.4869 59.3262L56.0156 59.0689C56.931 58.6238 57.821 58.1075 58.661 57.5359L59.1458 57.2057L58.3444 53.3502C58.9591 52.8146 59.536 52.236 60.0709 51.6222L63.921 52.4239L64.2507 51.9383C64.825 51.0919 65.3397 50.2007 65.7817 49.2875L66.0368 48.7589L63.4072 45.8078C63.6694 45.0431 63.8789 44.2563 64.0333 43.4608L67.7782 42.221L67.8203 41.6354C67.858 41.127 67.8825 40.6177 67.8825 40.1006C67.8825 39.5834 67.858 39.0741 67.8212 38.5657L67.7791 37.9801ZM66.1078 40.9242L62.4822 42.1244L62.3962 42.6504C62.2288 43.6891 61.9552 44.712 61.5852 45.6911L61.3975 46.188L63.9386 49.0434C63.6869 49.5264 63.4116 50.0014 63.1179 50.4632L59.394 49.687L59.0573 50.0997C58.3909 50.9145 57.6395 51.667 56.8223 52.337L56.4102 52.6741L57.1861 56.4032C56.7258 56.6965 56.2523 56.9713 55.7683 57.2259L52.9169 54.6796L52.4197 54.8692C51.4464 55.2389 50.4249 55.5111 49.3842 55.6806L48.8589 55.7666L47.6603 59.3973C47.1158 59.4245 46.559 59.4245 46.0145 59.3973L44.8159 55.7666L44.2907 55.6806C43.2525 55.5128 42.231 55.2389 41.2551 54.8684L40.758 54.6796L37.9065 57.225C37.4243 56.973 36.9499 56.6973 36.4887 56.4032L37.2638 52.6741L36.8517 52.337C36.038 51.6697 35.2866 50.9172 34.6176 50.0988L34.2809 49.6862L30.557 50.4632C30.2641 50.0023 29.9897 49.5281 29.7354 49.0434L32.2782 46.188L32.0888 45.6902C31.7197 44.7156 31.4478 43.6926 31.2786 42.6504L31.1927 42.1244L27.567 40.9242C27.5565 40.652 27.5486 40.3771 27.5486 40.1006C27.5486 39.824 27.5565 39.5491 27.5696 39.277L31.1953 38.0767L31.2812 37.5507C31.4487 36.5111 31.7223 35.4882 32.0923 34.5109L32.2808 34.0131L29.7389 31.1577C29.9906 30.6748 30.2659 30.1997 30.5596 29.7379L34.2835 30.5141L34.6202 30.1014C35.2866 29.2866 36.038 28.5341 36.8552 27.8642L37.2673 27.527L36.4913 23.7979C36.9517 23.5047 37.4251 23.2298 37.9092 22.9752L40.7606 25.5207L41.2569 25.3328C42.2345 24.9622 43.256 24.6891 44.2933 24.5206L44.8185 24.4345L46.0172 20.8038C46.5617 20.7766 47.1184 20.7766 47.663 20.8038L48.8616 24.4345L49.3868 24.5206C50.4249 24.6883 51.4464 24.9622 52.4224 25.3328L52.9195 25.5215L55.771 22.9761C56.2532 23.2281 56.7276 23.5038 57.1888 23.7979L56.4137 27.527L56.8258 27.8642C57.6395 28.5315 58.3909 29.2839 59.0599 30.1023L59.3966 30.515L63.1205 29.7379C63.4134 30.1989 63.6878 30.673 63.9421 31.1577L61.3993 34.0131L61.5887 34.5109C61.9578 35.4856 62.2296 36.5085 62.3989 37.5507L62.4848 38.0767L66.1105 39.277C66.121 39.5491 66.1289 39.824 66.1289 40.1006C66.1289 40.3771 66.121 40.652 66.1078 40.9242ZM38.0759 36.3083C38.2171 31.7521 42.0339 27.9406 46.5837 27.8115C48.9687 27.7685 51.2362 28.6237 52.9495 30.2911C54.6637 31.9594 55.6071 34.1949 55.6071 36.5884C55.6071 39.1101 54.5208 41.5107 52.6251 43.1772C51.1765 44.4495 50.3462 46.1872 50.3462 47.9433V48.8213V52.3932H47.7157V54.1493H45.9621V52.3932H43.3316V48.881V48.003C43.3316 46.1687 42.5179 44.4469 41.0992 43.2176C39.0948 41.48 37.9917 38.9609 38.0759 36.3083ZM45.0852 48.881V50.6371H48.5925V48.881H45.0852ZM48.6425 47.1249C48.8705 45.1283 49.8727 43.2598 51.4685 41.8567C52.9846 40.5247 53.8535 38.6044 53.8535 36.5884C53.8535 34.6734 53.0985 32.8848 51.7272 31.5502C50.3558 30.2156 48.5513 29.5017 46.6328 29.5676C42.9931 29.6703 39.9409 32.7189 39.8278 36.3627C39.7612 38.485 40.6424 40.4992 42.2461 41.89C43.8349 43.2659 44.8266 45.1397 45.0414 47.1249H45.9621V38.708L43.5885 36.3311L44.8283 35.0896L46.8389 37.1029L48.8494 35.0896L50.0893 36.3311L47.7157 38.708V47.1249H48.6425Z" fill="url(#paint0_linear)"/>
<path d="M89.0243 2.05542H5.04404C3.63685 2.05542 2.49609 3.19592 2.49609 4.60279V117.859C2.49609 119.266 3.63685 120.406 5.04404 120.406H89.0243C90.4315 120.406 91.5723 119.266 91.5723 117.859V4.60279C91.5723 3.19592 90.4315 2.05542 89.0243 2.05542Z" stroke="#3E93CF" stroke-width="2" stroke-linecap="round"/>
</g>
<defs>
<linearGradient id="paint0_linear" x1="18" y1="34.5" x2="92" y2="120" gradientUnits="userSpaceOnUse">
<stop stop-color="#57B9FF"/>
<stop offset="1" stop-color="#8D4FF6"/>
</linearGradient>
<clipPath id="clip0">
<rect width="93" height="121" fill="white"/>
</clipPath>
</defs>
</svg>
