<svg width="80" height="80" viewBox="0 0 80 80" fill="none" xmlns="http://www.w3.org/2000/svg">
<g clip-path="url(#clip0)">
<path d="M58.0639 15.5437C56.5268 6.72543 48.8174 0 39.566 0C37.1668 0 34.8282 0.447414 32.6151 1.32972C31.8223 1.64593 31.4359 2.54477 31.752 3.33776C32.0683 4.13058 32.9672 4.51711 33.76 4.2009C35.6072 3.46433 37.5606 3.09094 39.566 3.09094C48.2041 3.09094 55.2337 10.1092 55.2526 18.7429C55.1215 19.0308 54.0706 19.9593 50.7937 20.7801C47.7343 21.5464 43.7468 21.9683 39.566 21.9683C35.3852 21.9683 31.3976 21.5464 28.3383 20.7801C25.0616 19.9593 24.0105 19.0309 23.8795 18.743C23.8838 16.7497 24.2569 14.8082 24.989 12.9721C25.305 12.1791 24.9185 11.2802 24.1257 10.9642C23.3326 10.6477 22.4337 11.0347 22.1178 11.8275C21.6375 13.0323 21.2871 14.2748 21.0667 15.5437C14.2982 16.5678 0.00195313 19.5273 0.00195313 26.2356C0.00195313 29.838 4.2452 32.9084 12.2732 35.1148C15.8812 36.1066 20.0705 36.8779 24.6246 37.4052L13.9664 77.183C13.7454 78.0074 14.2347 78.8548 15.0592 79.0758C15.1932 79.1116 15.3276 79.1289 15.4601 79.1289C16.1424 79.1289 16.7669 78.6735 16.9519 77.983L27.7396 37.7227C31.5147 38.0568 35.4933 38.2308 39.566 38.2308C43.639 38.2308 47.6173 38.0568 51.3924 37.7227L62.1801 77.983C62.3651 78.6735 62.9895 79.1289 63.672 79.1289C63.8043 79.1289 63.939 79.1118 64.0729 79.0758C64.8974 78.8548 65.3867 78.0074 65.1657 77.183L54.5073 37.4054C59.0615 36.8781 63.2507 36.1067 66.8588 35.115C74.8867 32.9085 79.13 29.838 79.13 26.2358C79.1301 19.5264 64.8302 16.5672 58.0639 15.5437ZM66.0396 32.1345C58.9886 34.0726 49.5867 35.1399 39.566 35.1399C29.5453 35.1399 20.1435 34.0726 13.0924 32.1345C5.7117 30.1059 3.0929 27.689 3.0929 26.2358C3.0929 24.301 7.83564 20.7656 20.7893 18.7138C20.7893 18.7351 20.7885 18.7565 20.7885 18.7778C20.7885 23.7364 32.5918 25.0595 39.566 25.0595C46.5403 25.0595 58.3435 23.7364 58.3435 18.7778C58.3435 18.7565 58.3427 18.7353 58.3427 18.714C71.2966 20.7657 76.0392 24.3012 76.0392 26.2359C76.0392 27.689 73.4204 30.1059 66.0396 32.1345Z" fill="#C4C4C4"/>
<path d="M39.5656 28.5537H39.5644C38.711 28.5537 38.0195 29.2458 38.0195 30.0992C38.0195 30.9526 38.7121 31.6447 39.5656 31.6447C40.4192 31.6447 41.1111 30.9526 41.1111 30.0992C41.1111 29.2458 40.4192 28.5537 39.5656 28.5537Z" fill="#C4C4C4"/>
<path d="M28.3859 27.7891H28.3849C27.5315 27.7891 26.8398 28.4811 26.8398 29.3345C26.8398 30.188 27.5324 30.88 28.3859 30.88C29.2395 30.88 29.9314 30.188 29.9314 29.3345C29.9314 28.4811 29.2395 27.7891 28.3859 27.7891Z" fill="#C4C4C4"/>
<path d="M17.5305 24.9297H17.5294C16.676 24.9297 15.9844 25.6218 15.9844 26.4752C15.9844 27.3286 16.6769 28.0207 17.5305 28.0207C18.3841 28.0207 19.076 27.3286 19.076 26.4752C19.076 25.6218 18.3841 24.9297 17.5305 24.9297Z" fill="#C4C4C4"/>
<path d="M50.7428 27.7891C49.8893 27.7891 49.1973 28.4811 49.1973 29.3345C49.1973 30.188 49.8893 30.88 50.7428 30.88H50.744C51.5974 30.88 52.2889 30.188 52.2889 29.3345C52.2889 28.4811 51.5962 27.7891 50.7428 27.7891Z" fill="#C4C4C4"/>
<path d="M61.5982 24.9297C60.7448 24.9297 60.0527 25.6218 60.0527 26.4752C60.0527 27.3286 60.7448 28.0207 61.5982 28.0207H61.5995C62.4529 28.0207 63.1443 27.3286 63.1443 26.4752C63.1443 25.6218 62.4516 24.9297 61.5982 24.9297Z" fill="#C4C4C4"/>
<path d="M46.8264 59.388L44.2307 59.473L42.3555 58.96L42.6119 58.5067C42.7841 58.5319 42.9601 58.5457 43.1391 58.5457C45.1768 58.5457 46.8345 56.8533 46.8345 54.7729C46.8345 52.6924 45.1768 51 43.1391 51C41.1014 51 39.4438 52.6924 39.4438 54.7729C39.4438 55.8334 39.8752 56.7924 40.5675 57.4785L40.2749 57.9959L38.8684 56.9588L38.0247 54.8308C37.7891 54.2365 37.1261 53.95 36.5442 54.1902C35.9622 54.4307 35.6812 55.1075 35.9168 55.7018L36.8833 58.1396C36.9635 58.3421 37.0982 58.5173 37.2714 58.6451L39.132 60.017L38.4423 61.2366L34.8156 62.2288C34.4232 62.3362 34.1167 62.6491 34.0116 63.0497L33.0391 66.7553C32.8765 67.3747 33.2364 68.0112 33.8431 68.1771C33.9416 68.204 34.0406 68.217 34.138 68.217C34.64 68.2169 35.0995 67.8749 35.2356 67.3562L36.0382 64.298L37.5833 63.8752L37.2971 64.9657C37.192 65.3662 37.3042 65.7938 37.5914 66.087L40.1115 68.66C40.3336 68.8866 40.6246 69 40.9155 69C41.2065 69 41.4975 68.8866 41.7195 68.66C42.1636 68.2067 42.1636 67.4716 41.7195 67.0182L39.6635 64.9192L40.2508 62.6815L41.1783 61.0414L43.8048 61.7598C43.9008 61.7862 43.9998 61.7994 44.099 61.7994C44.1111 61.7994 44.1234 61.7992 44.1354 61.7988L46.8993 61.7084C47.5271 61.6879 48.0195 61.1516 47.9994 60.511C47.9793 59.8703 47.4526 59.3682 46.8264 59.388ZM43.139 53.3219C43.9228 53.3219 44.5603 53.9728 44.5603 54.773C44.5603 55.5732 43.9228 56.2241 43.139 56.2241C42.3553 56.2241 41.7177 55.5732 41.7177 54.773C41.7177 53.9728 42.3554 53.3219 43.139 53.3219Z" fill="white"/>
<path d="M27.3799 8.13785C28.2334 8.13785 28.9254 7.44578 28.9254 6.59236C28.9254 5.73894 28.2334 5.04688 27.3799 5.04688H27.3789C26.5254 5.04688 25.834 5.73894 25.834 6.59236C25.834 7.44578 26.5264 8.13785 27.3799 8.13785Z" fill="#C4C4C4"/>
</g>
<defs>
<clipPath id="clip0">
<rect width="79.1289" height="79.1289" fill="white"/>
</clipPath>
</defs>
</svg>
