<svg width="70" height="70" viewBox="0 0 70 70" fill="none" xmlns="http://www.w3.org/2000/svg">
<path d="M67.9298 48.7747L56.1799 37.0247L58.7108 34.4939C59.732 33.4725 59.732 31.8106 58.7108 30.7894L49.2383 21.3167L50.8569 21.035C53.3287 20.5587 54.9538 18.1663 54.4789 15.6997C54.4783 15.6967 54.4777 15.6936 54.4769 15.6903C54.4768 15.6892 54.4765 15.6881 54.4763 15.6871L52.4297 5.15447C52.1989 3.95632 51.5187 2.92001 50.5142 2.23629C49.5079 1.5512 48.2941 1.30091 47.097 1.53171C44.6171 2.00945 42.9869 4.40925 43.4631 6.88258L44.6383 12.9299L41.42 13.4984L33.9547 6.03306C33.0841 5.16269 31.7497 5.03694 30.7417 5.65002C30.5889 5.48499 30.4333 5.32133 30.273 5.16102C26.9447 1.833 22.5196 0 17.8127 0C13.1058 0 8.68075 1.833 5.35242 5.16117C2.02425 8.48934 0.191406 12.9146 0.191406 17.6215C0.191406 22.3283 2.02441 26.7534 5.35258 30.0817C5.52004 30.2492 5.69101 30.4119 5.86396 30.5716C5.31573 31.5746 5.47833 32.851 6.30759 33.6803L13.5475 40.9202L12.8822 44.6862L6.83374 43.5109C5.63651 43.2804 4.41948 43.5327 3.40768 44.2214C2.39786 44.9089 1.71474 45.9471 1.4841 47.1448C1.25345 48.342 1.50374 49.5557 2.18867 50.5621C2.8724 51.5666 3.90871 52.2469 5.10564 52.4774L15.6393 54.5243C15.6413 54.5247 15.6434 54.525 15.6454 54.5255C15.6486 54.5261 15.6515 54.5267 15.6544 54.5273C15.943 54.5829 16.2303 54.6097 16.5141 54.6097C18.6523 54.6095 20.5666 53.0872 20.9871 50.9048C20.9883 50.8986 20.9894 50.8924 20.9905 50.886L21.3427 48.7154L31.0637 58.4363C31.5584 58.9311 32.2162 59.2036 32.9159 59.2036C33.6156 59.2036 34.2735 58.9311 34.7681 58.4364L36.8323 56.3722L48.5823 68.1221C49.8343 69.3741 51.4788 70 53.1235 70C54.7682 69.9998 56.4132 69.3738 57.6652 68.1218C60.1691 65.6179 60.1691 61.5434 57.6652 59.0392L47.8393 49.2134L49.021 48.0316L58.8468 57.8573C61.3508 60.3614 65.4255 60.3614 67.9295 57.8571C70.4339 55.3532 70.4339 51.2787 67.9298 48.7747ZM57.7957 31.7045C58.3125 32.2212 58.3125 33.062 57.7957 33.5789L55.2648 36.1096L41.7714 22.6162L47.6793 21.5881L57.7957 31.7045ZM32.1025 6.56013C32.4564 6.56013 32.7894 6.69791 33.0397 6.94834L39.8647 13.7734L35.1671 14.6031C34.6774 11.7633 33.49 9.02204 31.6066 6.65619C31.7621 6.59347 31.9297 6.56013 32.1025 6.56013ZM29.3579 29.1666C26.274 32.2504 22.1738 33.9488 17.8127 33.9488C17.208 33.9488 16.6086 33.915 16.0159 33.8505L18.9218 28.3072C19.257 28.3676 19.6028 28.3982 19.9557 28.3982C21.8657 28.3982 23.9765 27.5193 25.6535 25.8424C27.6328 23.8631 28.5001 21.28 28.1232 19.1352L34.0459 15.946C34.5288 20.6661 32.9666 25.5577 29.3579 29.1666ZM7.33112 12.6361C7.6184 12.5393 7.79074 12.2602 7.76729 11.9711L7.76912 11.969C7.67854 10.8891 7.88087 10.2094 8.46746 9.62263C8.66507 9.42487 9.11433 9.08628 9.37436 8.93876C9.38045 8.93541 9.3867 8.93176 9.39263 8.9281C9.42704 8.90709 12.8791 6.82198 17.2011 6.0868C22.6703 5.15691 26.9912 6.71191 30.0539 10.7095C29.2049 11.501 27.3448 13.3474 26.1324 15.3791C25.937 14.5213 25.6148 13.6848 25.1639 12.8971C25.81 12.4464 26.4289 11.9519 27.0065 11.4039C27.2657 11.1578 27.2764 10.7483 27.0305 10.4892C26.7847 10.2299 26.375 10.2194 26.1159 10.4651C19.704 16.5491 7.53086 15.918 7.40815 15.9112C7.05343 15.8906 6.74544 16.1627 6.72474 16.5195C6.70403 16.8762 6.97609 17.1822 7.33279 17.2031C7.40161 17.207 7.67671 17.2218 8.11699 17.2294C8.06188 19.7155 9.0134 22.1108 10.7858 23.8832C12.0022 25.0996 13.502 25.9283 15.1357 26.3121C13.3416 27.3951 11.7425 28.985 11.0394 29.731C4.71087 25.5184 5.50604 15.2953 5.51502 15.1906C5.51654 15.1737 5.5173 15.1566 5.51745 15.1397C5.52294 14.4361 5.80154 13.7729 6.30211 13.2725C6.59107 12.9831 6.93742 12.769 7.33112 12.6361ZM17.24 25.2628C15.1474 25.2628 13.1801 24.4478 11.7005 22.9682C10.172 21.4397 9.35427 19.3713 9.41029 17.2262C12.6457 17.1597 19.013 16.6107 24.0753 13.6004C25.7715 16.6256 25.2657 20.4819 22.7795 22.9682C21.2998 24.4478 19.3325 25.2628 17.24 25.2628ZM18.051 26.5197C20.183 26.3331 22.1632 25.4147 23.6946 23.8833C25.2172 22.3608 26.1023 20.397 26.3129 18.3644C26.3164 18.349 26.3218 18.3344 26.3241 18.3184C26.3365 18.2377 26.3529 18.156 26.3707 18.0741C27.511 19.8918 26.8695 22.7965 24.7385 24.9273C22.6013 27.0646 19.6862 27.7039 17.8692 26.5497C17.9302 26.5383 17.991 26.5276 18.051 26.5197ZM1.48547 17.6215C1.48547 13.2603 3.18373 9.16012 6.26771 6.0763C9.35138 2.99232 13.4516 1.29406 17.8127 1.29406C22.1738 1.29406 26.274 2.99232 29.3579 6.0763C31.7715 8.4898 33.269 11.4773 33.8525 14.6035C33.8033 14.6163 33.7548 14.6332 33.708 14.6584L27.7298 17.8774C27.5218 17.4307 27.245 17.0198 26.8978 16.6568C28.2351 14.0065 31.3081 11.3179 31.3455 11.2853C31.597 11.067 31.6419 10.6934 31.4492 10.4219C28.0977 5.70041 23.083 3.76298 16.9464 4.81771C12.4573 5.58958 8.97321 7.66876 8.72657 7.81871C8.40291 8.00399 7.85788 8.40226 7.55233 8.70781C6.61543 9.64471 6.43746 10.6997 6.45466 11.5998C6.05837 11.7907 5.7003 12.0439 5.38668 12.3575C4.65028 13.0938 4.2377 14.0686 4.22324 15.1047C4.19858 15.4152 4.0098 18.1286 4.65835 21.3718C5.5648 25.9045 7.69665 29.2764 10.8233 31.1228C10.9259 31.1834 11.0393 31.2126 11.1519 31.2126C11.3337 31.2126 11.5129 31.1362 11.6396 30.9912C12.4175 30.1008 14.4745 28.0607 16.4437 27.064C16.8071 27.417 17.22 27.6984 17.669 27.91L14.6619 33.6462C11.5013 33.0316 8.59488 31.4939 6.26755 29.1666C3.18373 26.0828 1.48547 21.9826 1.48547 17.6215ZM7.22272 32.7652C6.87165 32.4141 6.75579 31.9045 6.88962 31.4504C9.14813 33.2415 11.7839 34.4353 14.6018 34.9514L13.8221 39.3646L7.22272 32.7652ZM33.8531 57.5215C33.6028 57.7717 33.27 57.9095 32.9161 57.9095C32.5619 57.9095 32.2291 57.7717 31.9789 57.5213L21.5984 47.1408L22.4366 41.976L35.9174 55.4569L33.8531 57.5215ZM56.7502 67.2067C54.7507 69.2064 51.4969 69.2065 49.4974 67.207L49.0024 66.712L52.7939 62.4998C53.0392 62.2401 53.0274 61.8305 52.7676 61.5851C52.5077 61.3398 52.0983 61.3516 51.8529 61.6114L48.0864 65.796L47.2197 64.9293C47.2463 64.9098 47.273 64.8901 47.297 64.8661L54.4795 57.6836L56.7502 59.9543C58.7498 61.9538 58.7498 65.2074 56.7502 67.2067ZM45.5115 14.0899C45.6825 14.0597 45.834 13.9622 45.9323 13.8192C46.0305 13.6762 46.0672 13.4996 46.0342 13.3294L44.7337 6.63701C44.3926 4.86552 45.5625 3.14533 47.3418 2.80263C48.1983 2.63775 49.0665 2.81648 49.7862 3.30625C50.5058 3.79616 50.9935 4.53956 51.1593 5.40034L51.3981 6.63001L46.4122 7.18402C46.057 7.22345 45.8011 7.54346 45.8405 7.89849C45.8774 8.22946 46.1575 8.47412 46.4828 8.47412C46.5067 8.47412 46.5308 8.47275 46.5552 8.47016L51.646 7.90458L53.2004 15.904C53.2021 15.9162 53.2042 15.9282 53.2068 15.9404C53.2083 15.9477 53.2101 15.9562 53.2123 15.9647C53.5403 17.7219 52.3775 19.424 50.6237 19.7621L40.3219 21.5548C39.9698 21.616 39.7341 21.9511 39.7954 22.3031C39.8192 22.4396 39.8857 22.557 39.9769 22.648L39.9752 22.6497L52.4541 35.1286L46.3822 41.2005C46.1295 41.4532 46.1295 41.8629 46.3822 42.1156C46.5086 42.2419 46.6742 42.3051 46.8397 42.3051C47.0053 42.3051 47.1708 42.2419 47.2972 42.1156L53.3691 36.0437L57.3348 40.0096L53.9296 43.6165C53.6844 43.8764 53.6961 44.286 53.956 44.5312C54.081 44.6492 54.2407 44.7078 54.4001 44.7078C54.5719 44.7078 54.7434 44.6398 54.8706 44.5049L58.2503 40.925L64.1687 46.8435C64.1503 46.8582 64.1309 46.8712 64.1139 46.8881L56.911 54.091L49.4788 46.659C49.3575 46.5376 49.1929 46.4694 49.0213 46.4694C48.8498 46.4694 48.6852 46.5376 48.5638 46.659L46.4672 48.7558C46.2144 49.0085 46.2144 49.4182 46.4672 49.6709L53.5647 56.7685L46.3822 63.951C46.3582 63.975 46.3385 64.0016 46.319 64.0283L34.2907 51.9999L39.3794 46.9112C39.6321 46.6585 39.6321 46.2488 39.3794 45.9961C39.1266 45.7434 38.717 45.7434 38.4642 45.9961L33.3755 51.0846L22.4581 40.1672L22.457 40.1682C22.3643 40.0754 22.2437 40.0087 22.1043 39.986C21.7523 39.9291 21.4192 40.1682 21.3619 40.5211L19.715 50.6687C19.3715 52.4259 17.6769 53.5832 15.9174 53.2599C15.9123 53.2587 15.9074 53.2574 15.903 53.2565C15.8871 53.253 15.8713 53.2501 15.8553 53.2479L7.42033 51.6088L7.8489 47.3223C7.88437 46.9668 7.62495 46.6497 7.26946 46.614C6.9123 46.5787 6.59685 46.838 6.56123 47.1935L6.14454 51.361L5.35151 51.2069C4.49165 51.0414 3.7484 50.5538 3.25848 49.8341C2.76872 49.1145 2.58983 48.2464 2.75486 47.3897C2.92035 46.5302 3.41088 45.7848 4.13585 45.2912C4.86099 44.7976 5.73212 44.6166 6.58802 44.7813L13.2815 46.082C13.452 46.115 13.6283 46.0785 13.7713 45.9801C13.9142 45.8818 14.0118 45.7303 14.042 45.5593L15.8827 35.1376C16.5194 35.2065 17.1632 35.2427 17.8127 35.2427C22.5194 35.2427 26.9447 33.4098 30.273 30.0816C34.1491 26.2053 35.8381 20.9578 35.3405 15.8863L45.5115 14.0899ZM67.0147 56.9423C65.0152 58.9419 61.7616 58.942 59.762 56.9423L57.826 55.0063L65.0289 47.8034C65.0459 47.7863 65.0589 47.767 65.0736 47.7486L67.0147 49.6896C69.0143 51.6894 69.0143 54.9428 67.0147 56.9423Z" fill="#979797"/>
<path d="M39.5915 29.278C39.1117 28.7985 38.474 28.5342 37.7956 28.5342C37.1172 28.5342 36.4795 28.7983 35.9999 29.278L29.0857 36.1923C28.6059 36.672 28.3418 37.3097 28.3418 37.9881C28.3418 38.6665 28.6059 39.3043 29.0857 39.7838L32.0967 42.7949C32.5764 43.2744 33.2142 43.5387 33.8924 43.5387C34.5706 43.5387 35.2085 43.2746 35.6883 42.7949L42.6025 35.8805C43.0822 35.4009 43.3464 34.763 43.3464 34.0848C43.3464 33.4064 43.0822 32.7687 42.6025 32.2891L39.5915 29.278ZM41.6874 34.9657L34.7731 41.8801C34.5379 42.1154 34.2251 42.245 33.8923 42.245C33.5596 42.245 33.2467 42.1154 33.0115 41.8801L30.0005 38.869C29.7653 38.6338 29.6357 38.3209 29.6357 37.9883C29.6357 37.6555 29.7653 37.3428 30.0005 37.1076L36.9147 30.1933C37.1499 29.9581 37.4628 29.8284 37.7954 29.8284C38.1282 29.8284 38.441 29.958 38.6762 30.1933L39.2118 30.7289L35.812 34.3299C35.5668 34.5896 35.5785 34.9992 35.8384 35.2446C35.9634 35.3626 36.1231 35.4212 36.2825 35.4212C36.4543 35.4212 36.6258 35.3531 36.753 35.2182L40.1272 31.6443L41.6874 33.2045C41.9226 33.4397 42.0521 33.7526 42.0521 34.0852C42.0521 34.4176 41.9226 34.7304 41.6874 34.9657Z" fill="#979797"/>
</svg>
