<svg width="76" height="76" viewBox="0 0 76 76" fill="none" xmlns="http://www.w3.org/2000/svg">
<path d="M70.0628 10.6875C71.0022 10.6875 71.9206 10.4089 72.7017 9.88698C73.4829 9.36505 74.0917 8.6232 74.4512 7.75525C74.8107 6.8873 74.9048 5.93223 74.7215 5.01082C74.5382 4.08941 74.0858 3.24304 73.4215 2.57875C72.7572 1.91445 71.9109 1.46205 70.9895 1.27877C70.0681 1.09549 69.113 1.18956 68.245 1.54907C67.3771 1.90859 66.6352 2.51741 66.1133 3.29854C65.5914 4.07968 65.3128 4.99804 65.3128 5.9375C65.3169 6.78278 65.5496 7.61121 65.9861 8.33506L61.7503 12.5709L50.7148 1.53544C50.4922 1.31282 50.1902 1.18776 49.8753 1.18776C49.5604 1.18776 49.2584 1.31282 49.0357 1.53544L48.0168 2.55313C45.3078 5.25676 43.5346 8.75597 42.9562 12.5393C42.3778 16.3227 43.0247 20.1919 44.8023 23.5814L40.3753 28.0084L37.6523 25.2854C37.4297 25.0628 37.1277 24.9378 36.8128 24.9378C36.4979 24.9378 36.1959 25.0628 35.9732 25.2854L31.469 29.7896L28.9919 27.3125L30.5273 25.7771C30.75 25.5544 30.875 25.2524 30.875 24.9375C30.875 24.6226 30.75 24.3206 30.5273 24.0979L13.9023 7.47294C13.6797 7.25032 13.3777 7.12526 13.0628 7.12526C12.7479 7.12526 12.4459 7.25032 12.2232 7.47294L1.53572 18.1604C1.3131 18.3831 1.18804 18.6851 1.18804 19C1.18804 19.3149 1.3131 19.6169 1.53572 19.8396L18.1607 36.4646C18.3834 36.6872 18.6854 36.8122 19.0003 36.8122C19.3152 36.8122 19.6172 36.6872 19.8398 36.4646L21.3753 34.9291L23.8524 37.4063L9.50029 51.7584C8.82466 52.432 8.40939 53.323 8.32809 54.2736C8.2468 55.2241 8.50473 56.1728 9.05616 56.9513L5.93779 60.0709C5.26234 60.7446 4.84729 61.6357 4.76621 62.5863C4.68513 63.5369 4.94327 64.4854 5.49485 65.2638L2.27316 68.4855C1.75478 69.0038 1.40176 69.6642 1.25873 70.3832C1.1157 71.1022 1.1891 71.8474 1.46963 72.5247C1.75017 73.2019 2.22525 73.7807 2.83478 74.188C3.44431 74.5952 4.16092 74.8126 4.89397 74.8125C5.38089 74.8139 5.86325 74.7187 6.31312 74.5324C6.76299 74.3461 7.17143 74.0724 7.51479 73.7271L10.7353 70.5066C11.5139 71.0584 12.4628 71.3165 13.4136 71.2352C14.3645 71.1539 15.2558 70.7384 15.9294 70.0625L19.0478 66.9441C19.8264 67.4959 20.7753 67.754 21.7261 67.6727C22.677 67.5914 23.5683 67.1759 24.2419 66.5L38.594 52.1479L41.0712 54.625L39.5357 56.1604C39.3131 56.3831 39.188 56.6851 39.188 57C39.188 57.3149 39.3131 57.6169 39.5357 57.8396L56.1607 74.4646C56.3834 74.6872 56.6854 74.8122 57.0003 74.8122C57.3152 74.8122 57.6172 74.6872 57.8398 74.4646L68.5274 63.7771C68.75 63.5544 68.875 63.2524 68.875 62.9375C68.875 62.6226 68.75 62.3206 68.5274 62.0979L51.9023 45.4729C51.6797 45.2503 51.3777 45.1253 51.0628 45.1253C50.7479 45.1253 50.4459 45.2503 50.2232 45.4729L48.6878 47.0084L46.2107 44.5312L50.7148 40.0271C50.9375 39.8044 51.0625 39.5024 51.0625 39.1875C51.0625 38.8726 50.9375 38.5706 50.7148 38.3479L47.9919 35.625L52.4189 31.198C55.8081 32.9763 59.6774 33.6234 63.4608 33.0448C67.2442 32.4662 70.7432 30.6922 73.446 27.9823L74.4649 26.9646C74.6875 26.7419 74.8125 26.4399 74.8125 26.125C74.8125 25.8101 74.6875 25.5081 74.4649 25.2854L63.4294 14.25L67.6652 10.0142C68.3891 10.4507 69.2175 10.6834 70.0628 10.6875ZM24.344 28.6021L21.2732 25.5313L24.9378 21.8666L28.0087 24.9375L24.344 28.6021ZM14.1482 18.4063L17.8128 14.7416L23.2587 20.1875L19.594 23.8521L14.1482 18.4063ZM17.9149 25.5313L14.2503 29.1959L8.80441 23.75L12.469 20.0854L17.9149 25.5313ZM13.0628 9.99163L16.1337 13.0625L12.469 16.7271L9.39816 13.6563L13.0628 9.99163ZM7.71904 15.3354L10.7899 18.4063L7.12529 22.0709L4.05441 19L7.71904 15.3354ZM19.0003 33.9459L15.9294 30.875L19.594 27.2104L22.6649 30.2813L19.0003 33.9459ZM23.0544 33.25L27.3128 28.9916L29.7899 31.4688L25.5315 35.7271L23.0544 33.25ZM5.83566 72.048C5.64949 72.2343 5.41222 72.3612 5.15389 72.4127C4.89556 72.4641 4.62778 72.4377 4.38444 72.3369C4.1411 72.2361 3.93314 72.0654 3.78688 71.8463C3.64062 71.6272 3.56263 71.3697 3.56279 71.1063C3.56412 70.7535 3.704 70.4153 3.95229 70.1646L7.12529 66.9916L9.00866 68.875L5.83566 72.048ZM14.2503 68.3834C13.9305 68.6891 13.5052 68.8597 13.0628 68.8597C12.6204 68.8597 12.195 68.6891 11.8753 68.3834L7.6181 64.125C7.46212 63.9691 7.33839 63.7839 7.25398 63.5802C7.16956 63.3764 7.12611 63.158 7.12611 62.9375C7.12611 62.717 7.16956 62.4986 7.25398 62.2948C7.33839 62.0911 7.46212 61.9059 7.6181 61.75L10.6878 58.6791L17.3212 65.3125L14.2503 68.3834ZM45.719 53.3354L48.7899 56.4062L45.1253 60.0709L42.0544 57L45.719 53.3354ZM55.9149 63.5312L52.2503 67.1959L46.8044 61.75L50.469 58.0854L55.9149 63.5312ZM52.1482 56.4062L55.8128 52.7416L61.2587 58.1875L57.594 61.8521L52.1482 56.4062ZM57.0003 71.9459L53.9294 68.875L57.594 65.2104L60.6649 68.2812L57.0003 71.9459ZM62.344 66.6021L59.2732 63.5312L62.9378 59.8666L66.0087 62.9375L62.344 66.6021ZM51.0628 47.9916L54.1337 51.0625L50.469 54.7271L47.3982 51.6562L51.0628 47.9916ZM47.0087 48.6875L42.7503 52.9459L40.2732 50.4688L44.5315 46.2104L47.0087 48.6875ZM22.5628 64.8209C22.243 65.1266 21.8177 65.2972 21.3753 65.2972C20.9329 65.2972 20.5075 65.1266 20.1878 64.8209L11.1806 55.8125C11.0246 55.6566 10.9009 55.4714 10.8165 55.2677C10.7321 55.0639 10.6886 54.8455 10.6886 54.625C10.6886 54.4045 10.7321 54.1861 10.8165 53.9823C10.9009 53.7786 11.0246 53.5934 11.1806 53.4375L36.8128 27.8041L48.1962 39.1875L22.5628 64.8209ZM46.3128 33.9459L42.0544 29.6875L46.0824 25.6595C47.2544 27.3065 48.6938 28.7459 50.3408 29.9179L46.3128 33.9459ZM45.1253 15.2677C45.1233 12.7918 45.7132 10.3514 46.846 8.14981L67.8505 29.1543C65.4716 30.3749 62.819 30.9636 60.1471 30.8641C57.4753 30.7646 54.8738 29.9802 52.5923 28.586C50.3108 27.1919 48.4259 25.2348 47.1183 22.9027C45.8108 20.5705 45.1245 17.9414 45.1253 15.2677ZM71.7668 26.3031C71.1917 26.87 70.5739 27.392 69.9191 27.8647L48.1344 6.08C48.6074 5.42541 49.1294 4.80771 49.696 4.23225L49.8753 4.05413L71.945 26.125L71.7668 26.3031ZM70.0628 3.5625C70.5325 3.5625 70.9917 3.70179 71.3823 3.96276C71.7728 4.22373 72.0772 4.59465 72.257 5.02863C72.4368 5.4626 72.4838 5.94014 72.3922 6.40084C72.3005 6.86155 72.0743 7.28473 71.7422 7.61688C71.41 7.94903 70.9868 8.17523 70.5261 8.26687C70.0654 8.35851 69.5879 8.31147 69.1539 8.13172C68.7199 7.95196 68.349 7.64755 68.088 7.25698C67.8271 6.86641 67.6878 6.40723 67.6878 5.9375C67.6878 5.30761 67.938 4.70352 68.3834 4.25812C68.8288 3.81272 69.4329 3.5625 70.0628 3.5625Z" fill="#C4C4C4"/>
<path d="M34.7852 32.4102L20.5352 46.6602C20.3126 46.8829 20.1875 47.1849 20.1875 47.4997C20.1875 47.8146 20.3126 48.1166 20.5352 48.3393L27.6602 55.4643C27.8829 55.6869 28.1849 55.812 28.4997 55.812C28.8146 55.812 29.1166 55.6869 29.3393 55.4643L43.5893 41.2143C43.8119 40.9916 43.937 40.6896 43.937 40.3747C43.937 40.0599 43.8119 39.7579 43.5893 39.5352L36.4643 32.4102C36.2416 32.1876 35.9396 32.0625 35.6247 32.0625C35.3099 32.0625 35.0079 32.1876 34.7852 32.4102ZM28.4997 52.9456L23.0539 47.4997L35.6247 34.9289L41.0706 40.3747L28.4997 52.9456Z" fill="#C4C4C4"/>
</svg>
