<svg width="119" height="119" viewBox="0 0 119 119" fill="none" xmlns="http://www.w3.org/2000/svg">
<g clip-path="url(#clip0)">
<path d="M99.5285 75.9762C100.661 73.8336 99.9949 70.9803 97.5488 67.4956C95.4862 64.5567 92.1394 61.1874 87.8495 57.7225C88.8959 53.3739 88.7417 48.8227 87.4034 44.5549C85.4245 38.2247 81.0574 33.0061 75.1072 29.861C69.157 26.7159 62.3853 26.0467 56.0402 27.9771C51.7599 29.2748 47.9123 31.7105 44.9083 35.0243C39.6266 33.4311 34.9562 32.5634 31.3648 32.5153C27.1109 32.458 24.3796 33.5148 23.2476 35.6564C21.4705 39.0186 24.2525 43.8519 29.3777 48.9591L9.15802 63.4678C8.67371 63.8143 8.33276 64.3258 8.19937 64.9062C8.06599 65.4865 8.14938 66.0956 8.43383 66.6187C8.71829 67.1419 9.18418 67.543 9.74379 67.7465C10.3034 67.95 10.9181 67.942 11.4722 67.7238L38.9313 56.9561C42.1122 59.2725 45.5412 61.5166 49.0113 63.5747L39.1642 91.278C38.9259 91.9584 38.9387 92.7016 39.2005 93.3734C39.4622 94.0451 39.9555 94.6011 40.5914 94.9409C41.2258 95.2803 41.9614 95.3792 42.663 95.2197C43.3646 95.0601 43.985 94.6527 44.4102 94.0723L61.9322 70.4055C65.5915 72.1161 69.3842 73.6889 73.0963 75.0143L79.6642 103.768C79.796 104.349 80.1356 104.861 80.619 105.209C81.1024 105.557 81.6962 105.716 82.2887 105.656C82.8812 105.597 83.4314 105.322 83.8358 104.885C84.2402 104.448 84.4709 103.878 84.4843 103.283L85.0831 78.4025C92.1904 79.7608 97.7518 79.3375 99.5285 75.9762ZM56.6337 29.947C62.4551 28.1764 68.6744 28.7939 74.1401 31.683C79.4579 34.4448 83.4795 39.183 85.3403 44.8789C87.2012 50.5748 86.7526 56.7734 84.091 62.142C77.6523 60.9685 71.3915 58.9711 65.4628 56.199L67.217 52.8802L71.828 51.3338C73.3699 50.8127 74.7576 49.9155 75.8655 48.7233C76.9735 47.5311 77.7669 46.0816 78.1738 44.5057C79 41.4042 78.2609 38.1752 76.2025 35.8702C74.4714 33.9341 72.1038 32.6827 69.529 32.3428C66.4645 31.9415 63.3827 33.1509 61.286 35.5793C60.2123 36.802 59.4603 38.2731 59.0981 39.8596C58.736 41.446 58.775 43.0977 59.2117 44.6652L60.531 49.3462L58.7768 52.665C53.1465 49.3272 47.9692 45.2786 43.3727 40.6188C46.2532 35.486 51.0036 31.663 56.6337 29.947ZM63.708 51.8536C63.6726 51.8654 63.6353 51.87 63.5982 51.867C63.561 51.864 63.5249 51.8534 63.4919 51.836C63.459 51.8186 63.4299 51.7947 63.4065 51.7657C63.3831 51.7367 63.3658 51.7033 63.3557 51.6674L61.2081 44.108C60.8632 42.8691 60.8324 41.5638 61.1185 40.31C61.4047 39.0563 61.9987 37.8936 62.847 36.927C64.5134 34.9969 66.8509 34.0713 69.2603 34.3874C71.344 34.6625 73.2601 35.6753 74.661 37.2421C76.2794 39.0548 76.8312 41.5075 76.1749 43.9717C75.8541 45.2171 75.2279 46.3628 74.3531 47.3055C73.4783 48.2481 72.3824 48.9579 71.1644 49.3706L63.708 51.8536ZM64.3857 53.8231L63.6041 55.3017C63.1425 55.0717 62.5738 54.7802 62.075 54.5166C61.5763 54.253 61.0151 53.9473 60.5651 53.6954L61.3466 52.2169L61.3595 52.2248C61.4439 52.5323 61.5889 52.8198 61.7859 53.0706C61.9829 53.3213 62.2279 53.5303 62.5065 53.6852C63.0679 53.9819 63.777 53.9665 64.3254 53.8676L64.3393 53.8749L64.3857 53.8231ZM10.7192 65.8036C10.6331 65.8383 10.5373 65.8402 10.4499 65.8089C10.3625 65.7776 10.2898 65.7152 10.2454 65.6336C10.2011 65.5521 10.1882 65.4571 10.2094 65.3667C10.2306 65.2763 10.2843 65.1969 10.3602 65.1436L30.8913 50.4116C32.7174 52.1059 34.7746 53.8173 36.9841 55.5036L10.7192 65.8036ZM42.7518 92.8442C42.6184 93.0262 42.4239 93.154 42.2039 93.204C41.9839 93.2541 41.7532 93.223 41.5543 93.1166C41.3549 93.0101 41.2003 92.8358 41.1182 92.6251C41.0362 92.4145 41.0322 92.1815 41.107 91.9682L51.7623 61.9932C53.7723 61.5632 55.8695 61.8537 57.687 62.8138C59.5045 63.7739 60.9265 65.3425 61.7043 67.2451L42.7518 92.8442ZM82.4227 103.233C82.4213 103.326 82.3859 103.415 82.3232 103.483C82.2605 103.552 82.1748 103.594 82.0825 103.604C81.9902 103.613 81.8977 103.588 81.8225 103.534C81.7474 103.479 81.695 103.399 81.6752 103.308L75.3917 75.8047C78.0292 76.6801 80.6019 77.4162 83.0304 77.9705L82.4227 103.233ZM86.1264 76.5029C79.715 75.3802 71.6055 72.6234 63.1838 68.7128L63.6946 68.023C63.7937 67.8891 63.8589 67.7332 63.8846 67.5687C63.9103 67.4041 63.8958 67.2358 63.8422 67.078C62.9529 64.4611 61.0961 62.2835 58.6524 60.9919C56.2088 59.7002 53.3636 59.3925 50.7004 60.1316C50.5409 60.1759 50.3945 60.2579 50.2734 60.3708C50.1523 60.4836 50.0602 60.6238 50.0047 60.7797L49.7156 61.5935C41.7487 56.8416 34.9085 51.6986 30.3699 47.036C24.0501 40.5436 24.5589 37.5893 25.0711 36.6202C26.5418 33.8378 33.6898 33.9122 43.4751 36.7503C42.6215 37.8758 41.8609 39.0688 41.2008 40.3176C41.0993 40.5099 41.0612 40.7293 41.0919 40.9446C41.1226 41.1598 41.2206 41.3598 41.3718 41.5161C47.1273 47.469 53.7897 52.4723 61.1112 56.3401C68.4306 60.2112 76.3171 62.8982 84.4774 64.3012C84.6917 64.3381 84.9121 64.3063 85.1072 64.2105C85.3023 64.1146 85.4622 63.9595 85.5639 63.7673C86.2239 62.5185 86.7813 61.2181 87.2304 59.8788C95.0887 66.3658 99.1757 72.2301 97.7051 75.0123C96.6234 77.0589 92.4032 77.602 86.1264 76.5029Z" fill="#C4C4C4"/>
<path d="M36.0939 41.3458C35.4405 41.0014 34.6772 40.9302 33.9714 41.1479C33.2656 41.3655 32.675 41.8542 32.3291 42.5068C32.2013 42.7486 32.1747 43.0313 32.2553 43.2927C32.3359 43.554 32.5171 43.7726 32.7589 43.9004C33.0007 44.0283 33.2834 44.0548 33.5447 43.9742C33.8061 43.8936 34.0247 43.7124 34.1525 43.4706C34.2438 43.3041 34.397 43.1802 34.5789 43.1256C34.7608 43.071 34.9569 43.0902 35.1249 43.1789C35.2928 43.2677 35.4191 43.4189 35.4764 43.6C35.5338 43.781 35.5177 43.9774 35.4315 44.1467C35.3037 44.3885 35.2772 44.6712 35.3578 44.9325C35.4384 45.1939 35.6195 45.4125 35.8613 45.5403C36.1031 45.6681 36.3858 45.6946 36.6472 45.614C36.9085 45.5334 37.1271 45.3523 37.255 45.1105C37.5993 44.4571 37.6705 43.6938 37.4528 42.9881C37.2351 42.2823 36.7464 41.6917 36.0939 41.3458Z" fill="#C4C4C4"/>
<path d="M41.9883 44.4612C41.3349 44.1169 40.5716 44.0457 39.8659 44.2634C39.1601 44.481 38.5695 44.9697 38.2236 45.6223C38.0958 45.8641 38.0693 46.1468 38.1499 46.4081C38.2305 46.6695 38.4116 46.8881 38.6534 47.0159C38.8952 47.1437 39.1779 47.1703 39.4392 47.0897C39.7006 47.009 39.9192 46.8279 40.047 46.5861C40.1384 46.4196 40.2915 46.2957 40.4735 46.2411C40.6554 46.1865 40.8515 46.2057 41.0194 46.2944C41.1873 46.3832 41.3136 46.5344 41.371 46.7155C41.4283 46.8965 41.4122 47.0929 41.326 47.2622C41.1982 47.504 41.1717 47.7866 41.2523 48.048C41.3329 48.3093 41.514 48.528 41.7559 48.6558C41.9977 48.7836 42.2803 48.8101 42.5417 48.7295C42.803 48.6489 43.0217 48.4678 43.1495 48.226C43.4939 47.5726 43.565 46.8093 43.3473 46.1035C43.1296 45.3977 42.6409 44.8071 41.9883 44.4612Z" fill="#C4C4C4"/>
<path d="M89.2181 39.3257C89.6876 39.8443 90.0303 40.4647 90.2195 41.1381C90.4087 41.8115 90.4391 42.5197 90.3083 43.2068C90.2672 43.4192 90.294 43.6391 90.3848 43.8354C90.4755 44.0317 90.6257 44.1945 90.8141 44.3008C90.8225 44.3052 90.8309 44.3097 90.8392 44.314C91.0261 44.4129 91.2389 44.4518 91.4488 44.4256C91.6586 44.3994 91.8553 44.3093 92.0123 44.1676C92.5337 43.6994 93.1564 43.3582 93.8317 43.1706C94.5069 42.983 95.2164 42.9542 95.9046 43.0864C96.1172 43.1277 96.3374 43.1009 96.534 43.01C96.7305 42.919 96.8934 42.7685 96.9997 42.5798C97.1059 42.3911 97.15 42.1737 97.1257 41.9585C97.1014 41.7433 97.01 41.5412 96.8645 41.3808C96.395 40.8622 96.0523 40.2418 95.8631 39.5684C95.674 38.895 95.6436 38.1868 95.7743 37.4997C95.8153 37.2872 95.7885 37.0672 95.6976 36.8708C95.6067 36.6745 95.4564 36.5117 95.2679 36.4055C95.0793 36.2993 94.8621 36.2551 94.6471 36.2791C94.4321 36.3032 94.23 36.3943 94.0696 36.5395C93.5482 37.0076 92.9256 37.3488 92.2504 37.5363C91.5753 37.7239 90.8659 37.7527 90.1777 37.6205C89.9651 37.5793 89.7449 37.606 89.5484 37.697C89.3518 37.7879 89.1889 37.9384 89.0827 38.1272C88.9765 38.3159 88.9324 38.5333 88.9566 38.7485C88.9809 38.9637 89.0723 39.1658 89.2179 39.3261L89.2181 39.3257ZM93.6887 39.207C93.771 39.8251 93.9401 40.4285 94.1908 40.9993C93.5712 41.0808 92.9661 41.2493 92.3935 41.4998C92.3111 40.8818 92.142 40.2784 91.8912 39.7075C92.5109 39.6259 93.116 39.4575 93.6887 39.207Z" fill="#C4C4C4"/>
<path d="M64.0345 95.5446C63.4841 95.1128 63.0414 94.5592 62.7412 93.9274C62.441 93.2956 62.2914 92.6027 62.3043 91.9033C62.3089 91.687 62.2455 91.4747 62.1228 91.2965C62.0002 91.1183 61.8246 90.9831 61.6209 90.9102C61.4173 90.8372 61.1958 90.8302 60.9879 90.8901C60.78 90.9499 60.5962 91.0737 60.4625 91.2438C60.0277 91.7935 59.4716 92.2351 58.8377 92.5341C58.2038 92.8331 57.5093 92.9814 56.8086 92.9673C56.5921 92.9626 56.3796 93.0261 56.2012 93.149C56.0228 93.2718 55.8877 93.4477 55.8149 93.6517C55.7421 93.8557 55.7354 94.0774 55.7957 94.2854C55.856 94.4934 55.9802 94.6771 56.1508 94.8106C56.7011 95.2424 57.1438 95.796 57.444 96.4279C57.7442 97.0597 57.8938 97.7526 57.8809 98.452C57.8763 98.6683 57.9398 98.8805 58.0625 99.0587C58.1851 99.2368 58.3607 99.3719 58.5643 99.4448C58.768 99.5178 58.9894 99.5248 59.1973 99.4649C59.4051 99.4051 59.5889 99.2814 59.7226 99.1113C60.1574 98.5616 60.7136 98.12 61.3475 97.821C61.9814 97.522 62.6759 97.3738 63.3767 97.3879C63.5932 97.3926 63.8058 97.3291 63.9842 97.2063C64.1626 97.0834 64.2978 96.9075 64.3706 96.7035C64.4434 96.4995 64.4502 96.2777 64.3898 96.0697C64.3295 95.8616 64.2052 95.6779 64.0345 95.5444L64.0345 95.5446ZM59.6482 96.4168C59.4627 95.8214 59.1941 95.2552 58.8504 94.7349C59.4475 94.5499 60.0154 94.2816 60.5376 93.9381C60.7232 94.5334 60.9918 95.0996 61.3353 95.6199C60.7383 95.8049 60.1703 96.0732 59.6482 96.4168Z" fill="#C4C4C4"/>
<path d="M40.4609 18.2883C40.2483 18.2471 40.0281 18.2738 39.8316 18.3647C39.635 18.4557 39.4721 18.6062 39.3659 18.7949C39.2597 18.9837 39.2156 19.201 39.2398 19.4162C39.2641 19.6315 39.3555 19.8336 39.5011 19.9939C39.9705 20.5125 40.3133 21.1329 40.5025 21.8063C40.6917 22.4798 40.7221 23.1879 40.5914 23.8751C40.5505 24.0875 40.5774 24.3073 40.6682 24.5036C40.7591 24.6998 40.9094 24.8625 41.0978 24.9687L41.1227 24.9818C41.3097 25.0806 41.5225 25.1196 41.7323 25.0934C41.9422 25.0672 42.1389 24.9771 42.2958 24.8353C42.8172 24.3671 43.4398 24.0259 44.115 23.8383C44.7902 23.6508 45.4996 23.622 46.1878 23.7542C46.4004 23.7954 46.6206 23.7687 46.8171 23.6777C47.0137 23.5868 47.1766 23.4363 47.2828 23.2476C47.389 23.0588 47.4331 22.8414 47.4089 22.6262C47.3846 22.411 47.2932 22.2089 47.1476 22.0486C46.6783 21.5299 46.3356 20.9095 46.1464 20.2361C45.9573 19.5627 45.9268 18.8546 46.0575 18.1674C46.0985 17.9551 46.0717 17.7352 45.9809 17.5388C45.8902 17.3425 45.7399 17.1797 45.5515 17.0734C45.3631 16.9672 45.1461 16.9229 44.9311 16.9468C44.7161 16.9706 44.5141 17.0615 44.3536 17.2065C43.8322 17.6749 43.2094 18.0163 42.5341 18.204C41.8588 18.3917 41.1492 18.4205 40.4609 18.2883ZM43.9718 19.8752C44.0543 20.4933 44.2234 21.0966 44.4741 21.6676C43.8544 21.749 43.2493 21.9175 42.6767 22.168C42.5943 21.5499 42.4251 20.9466 42.1743 20.3758C42.794 20.2942 43.3991 20.1257 43.9718 19.8752Z" fill="#C4C4C4"/>
<path d="M44.0931 11.1919C44.4267 11.3682 44.8051 11.4417 45.1804 11.403C45.5557 11.3642 45.9112 11.2151 46.2017 10.9744C46.4923 10.7336 46.705 10.4122 46.8128 10.0506C46.9207 9.68898 46.9189 9.30353 46.8077 8.94296C46.6965 8.58239 46.4809 8.26289 46.1881 8.02487C45.8953 7.78685 45.5385 7.641 45.1628 7.60575C44.7871 7.57051 44.4094 7.64746 44.0775 7.82687C43.7455 8.00628 43.4742 8.2801 43.2979 8.61369C43.0623 9.06118 43.0136 9.58384 43.1627 10.0671C43.3117 10.5504 43.6463 10.9549 44.0931 11.1919ZM45.0569 9.36846C45.0839 9.38276 45.1061 9.40476 45.1207 9.43167C45.1352 9.45859 45.1415 9.48921 45.1386 9.51967C45.1358 9.55013 45.1239 9.57906 45.1046 9.6028C45.0853 9.62654 45.0594 9.64402 45.0302 9.65304C45.001 9.66206 44.9697 9.6622 44.9404 9.65346C44.9111 9.64471 44.885 9.62747 44.8655 9.60391C44.846 9.58035 44.8339 9.55153 44.8307 9.5211C44.8276 9.49067 44.8336 9.45998 44.8479 9.43294C44.867 9.39667 44.8998 9.3695 44.939 9.35741C44.9782 9.34531 45.0206 9.34929 45.0569 9.36846Z" fill="#C4C4C4"/>
<path d="M40.8121 14.0219C41.0231 14.1334 41.2624 14.1799 41.4998 14.1554C41.7373 14.1309 41.9621 14.0365 42.1459 13.8843C42.3296 13.732 42.4642 13.5287 42.5324 13.2999C42.6006 13.0712 42.5995 12.8274 42.5291 12.5994C42.4588 12.3713 42.3224 12.1692 42.1372 12.0186C41.952 11.8681 41.7263 11.7758 41.4887 11.7535C41.2511 11.7313 41.0122 11.7799 40.8022 11.8934C40.5923 12.0069 40.4207 12.1801 40.3091 12.3911C40.1599 12.6741 40.129 13.0048 40.2233 13.3105C40.3176 13.6162 40.5294 13.8721 40.8121 14.0219Z" fill="#C4C4C4"/>
<path d="M29.1997 72.0278C28.9498 71.5847 28.5353 71.258 28.046 71.1186C27.5568 70.9791 27.0323 71.0382 26.5864 71.2829C26.1443 71.5284 25.8176 71.9393 25.6782 72.4254C25.5387 72.9114 25.5979 73.433 25.8426 73.8755C26.0316 74.2027 26.3093 74.4697 26.6436 74.6459C27.1966 74.9382 27.7783 74.8987 28.4971 74.6421C28.9255 74.3781 29.2368 73.9604 29.3674 73.4744C29.498 72.9885 29.438 72.471 29.1997 72.0278ZM27.5757 73.0745C27.5406 73.0893 27.5013 73.0906 27.4653 73.0782C27.4293 73.0657 27.3991 73.0405 27.3806 73.0072C27.3621 72.9739 27.3565 72.935 27.3649 72.8979C27.3732 72.8607 27.395 72.828 27.426 72.8059L27.5757 73.0744L27.5757 73.0745Z" fill="#C4C4C4"/>
<path d="M34.0115 68.8447C33.8953 68.6364 33.7199 68.4672 33.5076 68.3584C33.2952 68.2497 33.0554 68.2064 32.8185 68.234C32.5815 68.2616 32.358 68.3588 32.1763 68.5133C31.9946 68.6679 31.8628 68.8729 31.7975 69.1023C31.7323 69.3318 31.7365 69.5754 31.8097 69.8025C31.8829 70.0295 32.0218 70.2298 32.2088 70.3779C32.3957 70.5261 32.6225 70.6154 32.8602 70.6348C33.098 70.6541 33.3362 70.6024 33.5446 70.4864C33.824 70.3305 34.0301 70.0701 34.1175 69.7623C34.2048 69.4546 34.1664 69.1247 34.0106 68.8452L34.0115 68.8447Z" fill="#C4C4C4"/>
<path d="M67.6745 90.4822C67.5563 90.2709 67.3905 90.0901 67.1903 89.9541C66.99 89.8181 66.7608 89.7306 66.5208 89.6987C66.2809 89.6667 66.0368 89.6911 65.8079 89.7699C65.579 89.8488 65.3716 89.9799 65.2023 90.1529C65.0329 90.3259 64.9062 90.5359 64.8322 90.7664C64.7582 90.9969 64.7389 91.2415 64.776 91.4807C64.813 91.7199 64.9053 91.9473 65.0455 92.1446C65.1857 92.342 65.3699 92.5039 65.5836 92.6176C65.681 92.6691 65.7835 92.7103 65.8895 92.7404C66.1859 92.8244 66.5005 92.8186 66.7936 92.7238C67.0867 92.6289 67.3451 92.4493 67.5362 92.2077C67.7272 91.966 67.8423 91.6731 67.8669 91.366C67.8915 91.0589 67.8245 90.7515 67.6743 90.4825L67.6745 90.4822Z" fill="#C4C4C4"/>
<path d="M70.5369 88.3491C70.4205 88.1407 70.245 87.9715 70.0326 87.8629C69.8201 87.7542 69.5801 87.7111 69.3431 87.7388C69.1061 87.7665 68.8826 87.8639 68.701 88.0187C68.5193 88.1734 68.3876 88.3786 68.3225 88.6082C68.2574 88.8378 68.2619 89.0815 68.3354 89.3086C68.4088 89.5356 68.548 89.7358 68.7352 89.8838C68.9224 90.0318 69.1493 90.1209 69.3872 90.1399C69.6251 90.1589 69.8633 90.107 70.0716 89.9906C70.2107 89.9142 70.3332 89.8108 70.432 89.6866C70.5309 89.5624 70.604 89.4198 70.6473 89.2671C70.6906 89.1144 70.7031 88.9546 70.6842 88.797C70.6652 88.6394 70.6151 88.4872 70.5369 88.3491Z" fill="#C4C4C4"/>
<path d="M110.803 45.268C110.956 45.4667 111.146 45.6334 111.364 45.7586C111.581 45.8838 111.82 45.965 112.069 45.9976C112.317 46.0302 112.57 46.0135 112.812 45.9485C113.054 45.8835 113.281 45.7715 113.48 45.6188C113.678 45.4661 113.845 45.2758 113.97 45.0586C114.095 44.8415 114.177 44.6019 114.209 44.3534C114.242 44.1049 114.225 43.8524 114.16 43.6103C114.095 43.3683 113.983 43.1414 113.83 42.9426C113.522 42.5412 113.067 42.2788 112.565 42.213C112.063 42.1472 111.556 42.2834 111.154 42.5918C110.753 42.9002 110.49 43.3553 110.425 43.8572C110.359 44.3591 110.495 44.8665 110.803 45.268ZM112.439 44.0117C112.454 44.0275 112.465 44.0461 112.473 44.0665C112.48 44.0869 112.482 44.1085 112.481 44.13C112.479 44.1515 112.473 44.1724 112.462 44.1913C112.452 44.2103 112.438 44.2268 112.421 44.24C112.404 44.2531 112.384 44.2625 112.363 44.2676C112.342 44.2727 112.32 44.2734 112.299 44.2695C112.278 44.2657 112.258 44.2575 112.24 44.2454C112.222 44.2333 112.207 44.2176 112.195 44.1993L112.439 44.0117Z" fill="#C4C4C4"/>
<path d="M106.136 50.808C106.306 51.0292 106.548 51.1847 106.82 51.2478C107.092 51.311 107.377 51.2779 107.627 51.1542C107.877 51.0305 108.077 50.8239 108.192 50.5695C108.307 50.3152 108.33 50.0288 108.258 49.7593C108.185 49.4898 108.021 49.2537 107.794 49.0914C107.567 48.929 107.291 48.8504 107.012 48.869C106.734 48.8875 106.471 49.0021 106.267 49.1931C106.063 49.3841 105.933 49.6398 105.896 49.9166C105.876 50.0736 105.886 50.2332 105.927 50.3862C105.969 50.5392 106.04 50.6825 106.136 50.808Z" fill="#C4C4C4"/>
<path d="M94.8942 60.9498C95.6559 61.6489 96.3769 62.3449 97.0369 63.0186C97.8955 63.8953 98.6744 64.7565 99.3501 65.5775C99.4362 65.6821 99.542 65.7687 99.6615 65.8323C99.7811 65.896 99.912 65.9355 100.047 65.9486C100.182 65.9617 100.318 65.9482 100.447 65.9087C100.577 65.8692 100.697 65.8046 100.802 65.7185C100.906 65.6324 100.993 65.5266 101.057 65.4071C101.12 65.2876 101.16 65.1567 101.173 65.0219C101.186 64.8871 101.172 64.751 101.133 64.6215C101.094 64.4919 101.029 64.3714 100.943 64.2668C100.229 63.3999 99.4107 62.4943 98.5102 61.5753C97.8246 60.8756 97.0773 60.154 96.2894 59.4294C96.0879 59.2444 95.8211 59.1471 95.5478 59.1588C95.2746 59.1705 95.0171 59.2903 94.8322 59.4918C94.6472 59.6933 94.5499 59.96 94.5616 60.2333C94.5733 60.5066 94.693 60.764 94.8946 60.949L94.8942 60.9498Z" fill="#C4C4C4"/>
<path d="M91.5008 58.0271C91.7093 58.1966 91.9156 58.366 92.1199 58.5351C92.3308 58.7064 92.6008 58.7876 92.8713 58.7609C93.1417 58.7343 93.3906 58.602 93.564 58.3928C93.7375 58.1836 93.8213 57.9144 93.7973 57.6437C93.7734 57.3731 93.6435 57.1228 93.4361 56.9473C93.2273 56.7742 93.0159 56.6007 92.8019 56.4268C92.5895 56.2563 92.3183 56.1768 92.0474 56.2056C91.7765 56.2343 91.5281 56.3691 91.3562 56.5805C91.1844 56.7918 91.1032 57.0625 91.1302 57.3336C91.1573 57.6046 91.2905 57.8539 91.5008 58.0271Z" fill="#C4C4C4"/>
<path d="M57.618 33.6652C57.5219 33.4092 57.328 33.2018 57.079 33.0887C56.83 32.9756 56.5462 32.966 56.2902 33.0621C54.4752 33.7436 52.7699 34.6875 51.2288 35.8637C51.1206 35.9456 51.0297 36.0481 50.9613 36.1653C50.8928 36.2825 50.8482 36.412 50.8299 36.5464C50.8116 36.6809 50.82 36.8176 50.8546 36.9488C50.8893 37.08 50.9495 37.2031 51.0318 37.311C51.1141 37.4189 51.2168 37.5095 51.3342 37.5776C51.4516 37.6457 51.5812 37.6899 51.7158 37.7078C51.8503 37.7257 51.987 37.7168 52.1181 37.6818C52.2492 37.6467 52.3721 37.5862 52.4797 37.5035C53.8605 36.4495 55.3884 35.6036 57.0146 34.9927C57.2706 34.8967 57.478 34.7029 57.5912 34.4539C57.7043 34.205 57.714 33.9213 57.618 33.6652Z" fill="#C4C4C4"/>
<path d="M60.2138 32.034C59.8994 32.0827 59.5823 32.1396 59.2716 32.2032C59.1379 32.2293 59.0107 32.2817 58.8973 32.3572C58.784 32.4328 58.6867 32.53 58.6111 32.6434C58.5356 32.7568 58.4832 32.884 58.4571 33.0177C58.431 33.1514 58.4316 33.289 58.459 33.4224C58.4863 33.5559 58.5398 33.6826 58.6164 33.7953C58.693 33.9079 58.7912 34.0043 58.9053 34.0788C59.0193 34.1533 59.147 34.2044 59.281 34.2293C59.4149 34.2542 59.5525 34.2523 59.6857 34.2237C59.9638 34.1668 60.2481 34.116 60.5292 34.0721C60.6642 34.0527 60.794 34.0068 60.9111 33.9369C61.0282 33.867 61.1303 33.7746 61.2114 33.665C61.2926 33.5554 61.3512 33.4308 61.3839 33.2983C61.4165 33.1659 61.4226 33.0284 61.4017 32.8936C61.3809 32.7588 61.3335 32.6295 61.2623 32.5132C61.1912 32.3969 61.0976 32.2958 60.9872 32.2159C60.8767 32.1359 60.7514 32.0787 60.6187 32.0475C60.4859 32.0163 60.3483 32.0117 60.2138 32.034Z" fill="#C4C4C4"/>
<path d="M75.4156 44.1594C75.4956 43.9493 75.5048 43.7187 75.4418 43.5029C75.3787 43.2871 75.2468 43.0978 75.0662 42.9638C74.973 42.8951 72.7708 41.2892 70.5869 42.0997C68.5237 42.8656 67.5055 45.3993 67.3959 45.6857C67.3158 45.8958 67.3066 46.1263 67.3697 46.3422C67.4328 46.558 67.5647 46.7473 67.7453 46.8813C67.958 47.033 68.1811 47.1695 68.4129 47.2899C69.2462 47.7304 70.739 48.2958 72.2247 47.7452C74.2878 46.9793 75.3062 44.4457 75.4156 44.1594ZM71.507 45.8115C70.9268 46.0266 70.2427 45.8583 69.7139 45.6322C70.0756 45.0149 70.6379 44.2806 71.3049 44.033C71.8851 43.8181 72.5685 43.9861 73.0979 44.2126C72.7361 44.8299 72.1733 45.5636 71.507 45.8115Z" fill="#C4C4C4"/>
<path d="M66.2209 45.0636C66.396 44.8118 67.9158 42.5433 67.3866 40.4072C66.8267 38.1464 64.2593 37.2308 64.1499 37.1928C63.9375 37.119 63.7068 37.1167 63.4929 37.1862C63.2791 37.2556 63.0938 37.3931 62.9653 37.5776C62.7903 37.8292 61.2703 40.0976 61.7995 42.2337C62.1804 43.7712 63.4895 44.6866 64.3225 45.1269C64.5526 45.2506 64.7911 45.358 65.0362 45.4483C65.2486 45.5221 65.4794 45.5245 65.6932 45.455C65.9071 45.3856 66.0924 45.2481 66.2209 45.0636ZM63.8012 41.7383C63.6298 41.0466 63.9166 40.1746 64.2247 39.5254C64.691 39.8203 65.2309 40.2828 65.3847 40.9033C65.5561 41.5948 65.2695 42.4669 64.9615 43.1159C64.4945 42.8209 63.9549 42.3586 63.8012 41.7383Z" fill="#C4C4C4"/>
<path d="M65.7826 48.6109L64.8688 48.1279C64.627 48.0001 64.3443 47.9736 64.0829 48.0542C63.8216 48.1348 63.6029 48.3159 63.4751 48.5577C63.3473 48.7995 63.3208 49.0822 63.4014 49.3436C63.482 49.6049 63.6631 49.8235 63.9049 49.9514L64.8188 50.4344C65.0606 50.5622 65.3433 50.5887 65.6046 50.5081C65.866 50.4275 66.0846 50.2464 66.2124 50.0046C66.3402 49.7628 66.3667 49.4801 66.2861 49.2187C66.2055 48.9574 66.0244 48.7387 65.7826 48.6109Z" fill="#C4C4C4"/>
</g>
<defs>
<clipPath id="clip0">
<rect width="88" height="88" fill="white" transform="translate(41.123) rotate(27.8596)"/>
</clipPath>
</defs>
</svg>
