<svg width="95" height="104" viewBox="0 0 95 104" fill="none" xmlns="http://www.w3.org/2000/svg">
<path d="M28.23 66.5913C21.9871 66.5913 16.5585 64.1649 12.487 59.8513C8.41558 55.5377 6.24414 50.1457 6.24414 44.2145C6.24414 32.0825 16.2871 22.377 28.23 22.377H28.5014C31.4871 22.377 34.4729 22.9162 37.1872 24.2641L35.83 27.2297C33.3872 26.1513 30.9443 25.6121 28.5014 25.6121H28.23C17.9156 25.6121 9.5013 33.9697 9.22987 44.2145C9.22987 49.3369 11.1299 53.9201 14.6585 57.4249C18.1871 60.9297 22.8014 63.0865 27.9586 63.0865H28.23C38.5443 63.0865 46.9587 54.7289 47.2301 44.4841C47.2301 42.0577 46.9587 39.9009 46.1444 37.7441L49.1301 36.6657C49.9444 39.0921 50.4873 41.7881 50.4873 44.4841C50.2158 56.8857 40.4443 66.5913 28.23 66.5913Z" fill="#A866FD"/>
<path d="M53.2003 103.796V97.056C53.2003 90.316 50.7574 84.1152 46.1431 79.532C41.5288 74.9488 35.2859 72.2528 28.5002 71.9832C14.6572 71.7136 3.52859 82.7672 3.25716 96.5168V103.796H0V96.5168C0.27143 81.1496 12.7572 68.748 28.2287 68.748H28.5002C43.9717 69.0176 56.4575 81.6888 56.4575 97.056V103.526H53.2003V103.796Z" fill="#A866FD"/>
<path d="M19.543 93.8208H10.043V97.056H19.543V93.8208Z" fill="#A866FD"/>
<path d="M29.8568 80.3408H26.5996V103.796H29.8568V80.3408Z" fill="#A866FD"/>
<path d="M34.7422 48.7975V0H94.9997V38.5527H46.1423L34.7422 48.7975ZM37.9994 3.23519V41.5183L45.0565 35.3175H92.014V3.23519H37.9994Z" fill="#A866FD"/>
<path d="M51.8428 23.4554C49.4 23.4554 47.2285 21.5682 47.2285 18.8723C47.2285 16.1763 49.1285 14.2891 51.8428 14.2891C54.2857 14.2891 56.4571 16.1763 56.4571 18.8723C56.4571 21.5682 54.5571 23.4554 51.8428 23.4554ZM51.8428 17.7939C51.0285 17.7939 50.4857 18.3331 50.4857 19.1419C50.4857 19.9507 51.0285 20.4899 51.8428 20.4899C52.6571 20.4899 53.2 19.9507 53.2 19.1419C53.2 18.3331 52.6571 17.7939 51.8428 17.7939Z" fill="#A866FD"/>
<path d="M65.4131 23.4554C62.9703 23.4554 60.7988 21.5682 60.7988 18.8723C60.7988 16.1763 62.6988 14.2891 65.4131 14.2891C68.1274 14.2891 70.0274 16.1763 70.0274 18.8723C70.0274 21.5682 67.856 23.4554 65.4131 23.4554ZM65.4131 17.7939C64.5988 17.7939 64.056 18.3331 64.056 19.1419C64.056 19.9507 64.5988 20.4899 65.4131 20.4899C66.2274 20.4899 66.7703 19.9507 66.7703 19.1419C66.7703 18.3331 66.2274 17.7939 65.4131 17.7939Z" fill="#A866FD"/>
<path d="M78.7139 23.4554C76.2711 23.4554 74.0996 21.5682 74.0996 18.8723C74.0996 16.1763 75.9996 14.2891 78.7139 14.2891C81.4282 14.2891 83.3282 16.1763 83.3282 18.8723C83.3282 21.5682 81.4282 23.4554 78.7139 23.4554ZM78.7139 17.7939C77.8996 17.7939 77.3568 18.3331 77.3568 19.1419C77.3568 19.9507 77.8996 20.4899 78.7139 20.4899C79.5282 20.4899 80.0711 19.9507 80.0711 19.1419C80.0711 18.3331 79.5282 17.7939 78.7139 17.7939Z" fill="#A866FD"/>
</svg>
