<svg width="95" height="95" viewBox="0 0 95 95" fill="none" xmlns="http://www.w3.org/2000/svg">
<path fill-rule="evenodd" clip-rule="evenodd" d="M47.4379 4.41537L47.4394 4.4151C48.9103 4.15829 50.9579 4.81743 52.0568 5.94637C52.0569 5.94649 52.057 5.94662 52.0571 5.94675C54.7374 8.70679 53.6918 13.4171 50.1819 14.7922C49.2908 15.1244 47.594 15.1805 46.7059 14.9041L46.6925 14.8999L46.6791 14.8959C42.8942 13.7468 41.5922 9.06912 44.2341 6.13225C45.0638 5.21375 46.0322 4.65969 47.4364 4.41563L47.4379 4.41537ZM41.2633 3.45377C36.6572 8.56939 38.9308 16.7238 45.5171 18.7234C47.2812 19.2725 49.908 19.174 51.6132 18.5275C57.827 16.1159 59.5911 7.96236 54.9261 3.15945C52.9257 1.10198 49.5539 -0.0145892 46.7514 0.474714C44.4971 0.866527 42.7137 1.84697 41.2633 3.45377Z" fill="#A866FD"/>
<path fill-rule="evenodd" clip-rule="evenodd" d="M11.1169 12.0008C11.9796 10.119 13.1551 8.98219 15.0764 8.17833C16.6253 7.53175 19.0166 7.60992 20.6225 8.35584C22.0527 9.02173 23.3072 10.2763 24.0329 11.7663C24.5231 12.7651 24.582 13.1578 24.6013 14.6864C24.6013 16.2942 24.5424 16.5682 23.9547 17.7639C22.7204 20.2932 20.4661 21.7041 17.6434 21.7041C14.8216 21.7041 12.5673 20.2923 11.3321 17.7639C10.7444 16.5682 10.6855 16.2942 10.6855 14.6864C10.7049 13.3142 10.784 12.7265 11.1169 12.0008ZM20.6013 14.7117C20.6011 15.091 20.597 15.3099 20.5888 15.4603C20.5872 15.4901 20.5856 15.5138 20.5841 15.5322C20.5565 15.5969 20.4938 15.7372 20.3649 15.9994L20.3624 16.0045L20.3599 16.0097C19.7962 17.1648 18.9371 17.7041 17.6434 17.7041C16.3519 17.7041 15.4913 17.1649 14.9262 16.0081L14.924 16.0037L14.9219 15.9994C14.793 15.7372 14.7304 15.5969 14.7027 15.5322C14.7013 15.5138 14.6997 15.4901 14.698 15.4603C14.6899 15.3104 14.6858 15.0923 14.6856 14.7149C14.6951 14.0772 14.7183 13.8299 14.7358 13.7175C14.737 13.7102 14.738 13.7044 14.7388 13.7C14.7417 13.6931 14.7461 13.6828 14.7525 13.6688L14.753 13.6678C15.1954 12.7028 15.6219 12.2864 16.6184 11.8692C16.7304 11.8228 17.1134 11.724 17.6993 11.7428C18.2744 11.7614 18.7213 11.8836 18.936 11.983C19.4892 12.2412 20.0915 12.8089 20.4367 13.5177L20.4394 13.5232L20.4421 13.5286C20.5161 13.6795 20.5511 13.7597 20.567 13.7985C20.5703 13.8271 20.5753 13.879 20.5803 13.9631C20.5901 14.1283 20.5966 14.3548 20.6013 14.7117ZM14.7341 13.7116C14.7341 13.7116 14.7343 13.711 14.7347 13.71C14.7343 13.7111 14.7341 13.7116 14.7341 13.7116ZM14.7408 13.6895C14.7409 13.6889 14.741 13.6886 14.741 13.6886C14.741 13.6886 14.7409 13.6889 14.7408 13.6895ZM14.7077 15.5835C14.7077 15.5835 14.7077 15.5831 14.7076 15.5823C14.7077 15.5831 14.7077 15.5835 14.7077 15.5835ZM20.5791 15.5835C20.5791 15.5835 20.5792 15.583 20.5793 15.5821C20.5791 15.583 20.5791 15.5835 20.5791 15.5835Z" fill="#A866FD"/>
<path fill-rule="evenodd" clip-rule="evenodd" d="M80.8582 8.02116C83.0537 8.66866 84.9152 10.6084 85.582 12.9022C86.5027 16.1949 84.7975 19.7231 81.583 21.2131C79.9753 21.9387 77.6235 21.9387 76.0158 21.2131C71.9192 19.3313 70.5276 14.4309 73.0367 10.7261C73.8213 9.58932 75.3692 8.4332 76.6633 8.02116C77.8001 7.6689 79.6819 7.6689 80.8582 8.02116ZM77.8553 11.8397C77.866 11.837 77.8866 11.8319 77.9181 11.8255C77.9695 11.815 78.0388 11.8033 78.1257 11.7925C78.3024 11.7706 78.5156 11.757 78.7459 11.757C79.2546 11.757 79.6071 11.822 79.7108 11.853L79.7187 11.8554L79.7267 11.8578C80.5197 12.0917 81.4167 12.9312 81.7351 13.9987C82.0827 15.2803 81.4431 16.8571 79.9223 17.5739C79.3588 17.8192 78.2312 17.8184 77.6713 17.5717C75.8057 16.7054 75.2518 14.6092 76.3371 12.9862C76.6319 12.5697 77.4232 11.9882 77.8553 11.8397Z" fill="#A866FD"/>
<path fill-rule="evenodd" clip-rule="evenodd" d="M45.4066 26.6781L45.4146 26.6766C47.5128 26.2917 50.1204 26.3962 52.59 26.9528C55.1192 27.5228 57.0063 28.4525 57.9528 29.302C58.038 29.3788 58.111 29.4447 58.1732 29.5007C58.176 29.5243 58.1788 29.5493 58.1817 29.5756C58.3366 30.9961 58.336 33.7659 58.3347 40.1145C58.3345 40.7315 58.3344 41.3823 58.3344 42.0689V51.4598C58.1736 51.4735 58.0264 51.4882 57.898 51.5036L57.866 51.5075L54.1211 52.0185L51.0735 68.0184L51.0732 68.0198C50.3875 71.6342 49.7412 75.0222 49.2519 77.5718C49.0919 78.4055 48.9488 79.1487 48.8267 79.7803H48.357C47.8359 77.2646 46.8725 72.5966 45.8483 67.5743L45.8482 67.5742L42.6649 51.9664L38.7936 51.5015L38.7683 51.4988C38.5822 51.4789 38.3567 51.4599 38.1074 51.4427V42.0882C38.1074 35.5289 38.1079 32.2941 38.1573 30.5751C38.1693 30.1566 38.1834 29.8644 38.198 29.6574C38.1985 29.6513 38.1989 29.6454 38.1993 29.6396C38.376 29.4574 38.8729 28.9969 39.9876 28.4236C41.3838 27.7056 43.2753 27.0602 45.3987 26.6795L45.4066 26.6781ZM45.1241 83.7803H52.1022L52.2981 82.8587C52.4159 82.3289 53.6309 75.9983 55.0031 68.7654L57.5122 55.5928L58.3749 55.4751C58.8651 55.4163 59.9431 55.3574 60.7856 55.3574H62.3344V42.0689C62.3344 30.0669 62.3965 28.2273 61.5185 27.1635C61.291 26.8878 61.0004 26.6642 60.6292 26.3293C57.3356 23.3687 50.1423 21.7425 44.6928 22.7423C39.7731 23.6243 35.5781 25.7802 34.5195 27.9757C34.1074 28.8191 34.1074 29.0536 34.1074 42.0882V55.3583H35.7345C36.6165 55.3583 37.7928 55.4172 38.3419 55.476L39.3224 55.5938L41.9289 68.3736C43.3601 75.3913 44.6735 81.7219 44.8298 82.4669L45.1241 83.7803Z" fill="#A866FD"/>
<path fill-rule="evenodd" clip-rule="evenodd" d="M15.7837 27.4362C17.4092 27.1267 19.6815 27.3173 21.7397 27.9547C22.7417 28.2649 23.5475 28.6375 24.1002 28.9901C24.3097 29.1237 24.448 29.2319 24.535 29.3072C24.544 29.4386 24.5542 29.6211 24.5634 29.8696C24.6138 31.22 24.6194 33.7321 24.6194 38.8545V45.2826H21.4145L20.5981 49.5294C20.4391 50.3259 19.592 55.2399 18.6983 60.4677L18.6982 60.4684C18.3094 62.7448 17.9414 64.8882 17.6418 66.6278C17.3202 64.7747 16.9181 62.4529 16.4895 59.9763C15.5297 54.3145 14.6624 49.4263 14.5964 49.0745L14.5842 49.0093L13.756 45.2826H10.666V38.8931C10.666 34.7407 10.6809 32.1587 10.7211 30.558C10.7344 30.027 10.7499 29.6344 10.766 29.3467C10.9197 29.2204 11.1827 29.0311 11.6098 28.8016C12.5823 28.2789 14.0081 27.771 15.7769 27.4374L15.7837 27.4362ZM10.8072 28.8252C10.8129 28.7945 10.8151 28.7772 10.8147 28.7763C10.8144 28.7753 10.8116 28.7907 10.8072 28.8252ZM10.5473 49.2826L10.6651 49.8123C10.7239 50.126 11.5867 54.9868 12.5469 60.6515C13.5273 66.3162 14.3698 71.178 14.4287 71.4714L14.5464 72.0205H20.74L20.8577 71.4917C20.9165 71.178 21.7204 66.5324 22.6411 61.1418C23.5627 55.7511 24.4051 50.87 24.5229 50.3016L24.7188 49.2826H28.6194V38.8545C28.6194 28.7014 28.6001 28.4071 28.2074 27.5839C26.836 24.741 19.8772 22.5851 15.0357 23.5067C10.8803 24.2903 7.70441 25.9965 6.9401 27.858C6.72488 28.3676 6.66602 30.6025 6.66602 38.8931V49.2826H10.5473Z" fill="#A866FD"/>
<path fill-rule="evenodd" clip-rule="evenodd" d="M71.7229 49.2825H67.8223V38.8931C67.8223 30.6218 67.8811 28.3675 68.077 27.8579C68.8607 25.9955 72.7034 24.075 76.9369 23.4082C80.5239 22.8591 86.3652 24.408 88.4816 26.4655C88.7299 26.7065 88.9305 26.8891 89.0927 27.1011C89.8009 28.0272 89.7747 29.5149 89.7747 38.8931V49.2825H85.8741L85.6782 50.3016C85.5605 50.87 84.718 55.7502 83.7964 61.1408C82.8757 66.5314 82.0719 71.177 82.013 71.4907L81.8953 72.0195H75.7017L75.584 71.4704C75.5251 71.177 74.7222 66.5314 73.8006 61.1408C72.879 55.7511 72.0365 50.87 71.9188 50.3016L71.7229 49.2825ZM75.8435 49.5291C76.0024 50.3249 76.8496 55.2394 77.7434 60.4666L77.7434 60.4667C78.1321 62.7401 78.4995 64.8805 78.7988 66.6168C79.0982 64.8791 79.4654 62.7395 79.8535 60.4674L79.8536 60.4667C80.7475 55.2383 81.5946 50.3249 81.7534 49.5291L82.5698 45.2825H85.7747L85.7747 38.4561C85.7748 32.9005 85.7748 30.5134 85.6535 29.2968C85.2863 28.9748 84.1185 28.3246 82.2364 27.826C80.3777 27.3336 78.6126 27.2002 77.5497 27.361C75.8045 27.6369 74.1895 28.167 73.0063 28.7603C72.5171 29.0056 72.1571 29.2341 71.9133 29.4187C71.8995 29.7036 71.8865 30.0759 71.8751 30.5592C71.8371 32.1662 71.8223 34.752 71.8223 38.8931V45.2825H75.0272L75.8435 49.5291ZM71.965 28.7348C71.9648 28.7342 71.9628 28.7458 71.9596 28.7717C71.9636 28.7484 71.9652 28.7354 71.965 28.7348ZM71.6123 29.6831C71.6124 29.6831 71.6142 29.681 71.6176 29.6766C71.6139 29.6809 71.6122 29.6831 71.6123 29.6831Z" fill="#A866FD"/>
<mask id="path-7-inside-1" fill="white">
<path d="M86.9536 61.4545C86.8947 61.6118 86.7383 62.5324 86.5811 63.5129L86.2867 65.2963L87.384 66.4524C88.6192 67.7658 89.8342 69.5685 90.1874 70.5885C90.3051 70.961 90.364 71.7446 90.3244 72.313C89.9326 76.9384 82.6602 81.9961 72.1539 84.8777C57.8059 88.8372 40.2038 88.8372 25.8558 84.8777C19.0745 83.0161 13.3307 80.1152 10.2928 77.0377C8.54804 75.293 7.82328 73.9603 7.68624 72.3139C7.56851 70.8442 8.03942 69.6871 9.46962 67.786L10.3912 66.5904L10.0969 64.8456C9.58735 61.8666 9.76394 62.0431 8.43123 63.1993C6.94124 64.4933 5.62785 66.2372 4.7265 68.0997C4.11854 69.3735 4.02105 69.7856 3.96219 71.373C3.84446 73.7055 4.33468 75.3325 5.68671 77.3707C7.66692 80.3304 10.8814 82.8202 15.7027 85.1333C33.6773 93.7578 64.2947 93.7771 82.25 85.172C88.5226 82.1534 92.404 78.5664 93.6778 74.6069C94.0696 73.3919 94.1285 72.9017 94.0503 71.3335C93.9721 69.746 93.8544 69.2953 93.2658 68.0601C92.0894 65.6292 90.4826 63.7677 87.7776 61.7488C87.2286 61.3368 87.0124 61.2586 86.9536 61.4545Z"/>
</mask>
<path d="M86.9536 61.4545L90.7844 62.6055L90.7462 62.7325L90.6998 62.8566L86.9536 61.4545ZM86.5811 63.5129L90.5306 64.1464L90.5291 64.1553L90.5277 64.1642L86.5811 63.5129ZM86.2867 65.2963L83.3854 68.0499L82.0163 66.6073L82.3401 64.645L86.2867 65.2963ZM87.384 66.4524L90.2853 63.6988L90.2916 63.7054L90.2978 63.712L87.384 66.4524ZM90.1874 70.5885L93.9672 69.2797L93.985 69.3312L94.0014 69.3831L90.1874 70.5885ZM90.3244 72.313L94.3148 72.5907L94.3127 72.6207L94.3102 72.6506L90.3244 72.313ZM72.1539 84.8777L71.0899 81.0218L71.0929 81.0209L71.0959 81.0201L72.1539 84.8777ZM25.8558 84.8777L26.9147 81.0204L26.9173 81.0211L26.9199 81.0218L25.8558 84.8777ZM10.2928 77.0377L13.1212 74.2093L13.1304 74.2185L13.1395 74.2277L10.2928 77.0377ZM7.68624 72.3139L3.70002 72.6458L3.6995 72.6395L3.69901 72.6333L7.68624 72.3139ZM9.46962 67.786L6.27315 65.3813L6.28721 65.3626L6.30148 65.3441L9.46962 67.786ZM10.3912 66.5904L14.3355 65.925L14.6262 67.6482L13.5593 69.0323L10.3912 66.5904ZM10.0969 64.8456L14.0396 64.1712L14.0404 64.1757L14.0412 64.1803L10.0969 64.8456ZM8.43123 63.1993L5.80831 60.1793L5.8092 60.1785L5.81008 60.1777L8.43123 63.1993ZM4.7265 68.0997L1.11655 66.3768L1.12123 66.367L1.12597 66.3572L4.7265 68.0997ZM3.96219 71.373L7.95944 71.5213L7.95845 71.548L7.9571 71.5747L3.96219 71.373ZM5.68671 77.3707L2.36217 79.595L2.35778 79.5884L2.35343 79.5819L5.68671 77.3707ZM15.7027 85.1333L17.433 81.5269L17.4331 81.527L15.7027 85.1333ZM82.25 85.172L83.9845 88.7763L83.9816 88.7777L83.9787 88.7791L82.25 85.172ZM93.6778 74.6069L89.87 73.3818L89.8704 73.3805L89.8709 73.3792L93.6778 74.6069ZM94.0503 71.3335L90.0553 71.5327L90.0552 71.5314L90.0552 71.5302L94.0503 71.3335ZM93.2658 68.0601L96.8663 66.3177L96.8716 66.3285L96.8767 66.3393L93.2658 68.0601ZM87.7776 61.7488L85.3852 64.9544L85.381 64.9513L85.3768 64.9482L87.7776 61.7488ZM90.6998 62.8566C90.7503 62.7216 90.7802 62.6175 90.7905 62.5811C90.8037 62.5342 90.8118 62.5014 90.8145 62.4903C90.8197 62.4689 90.8187 62.471 90.811 62.5087C90.796 62.5816 90.7732 62.7021 90.7426 62.8742C90.6824 63.2133 90.6082 63.6625 90.5306 64.1464L82.6316 62.8793C82.7112 62.3828 82.7938 61.8815 82.8658 61.4758C82.9014 61.2755 82.9385 61.0751 82.9743 60.9005C82.9834 60.856 83.0619 60.441 83.2073 60.0524L90.6998 62.8566ZM90.5277 64.1642L90.2334 65.9476L82.3401 64.645L82.6344 62.8616L90.5277 64.1642ZM89.1881 62.5427L90.2853 63.6988L84.4827 69.206L83.3854 68.0499L89.1881 62.5427ZM90.2978 63.712C91.077 64.5405 91.8209 65.4896 92.4293 66.3889C92.9957 67.2259 93.619 68.274 93.9672 69.2797L86.4076 71.8973C86.4199 71.9329 86.3909 71.8458 86.268 71.6222C86.1551 71.4166 85.9989 71.1607 85.8036 70.8721C85.4074 70.2866 84.9262 69.6777 84.4702 69.1928L90.2978 63.712ZM94.0014 69.3831C94.199 70.0083 94.2709 70.6583 94.3027 71.0658C94.3395 71.536 94.3507 72.0745 94.3148 72.5907L86.3341 72.0354C86.3352 72.0194 86.3373 71.9734 86.3365 71.9013C86.3357 71.8314 86.3324 71.7573 86.327 71.6888C86.3215 71.6178 86.3155 71.5751 86.3138 71.5643C86.3131 71.56 86.3153 71.5747 86.3221 71.6056C86.3282 71.6335 86.3437 71.7002 86.3733 71.7939L94.0014 69.3831ZM94.3102 72.6506C93.9573 76.8157 90.7459 80.1575 87.3096 82.5376C83.6638 85.0627 78.7748 87.2095 73.2119 88.7352L71.0959 81.0201C76.0393 79.6643 80.0397 77.8414 82.7546 75.961C85.679 73.9354 86.2997 72.4358 86.3387 71.9754L94.3102 72.6506ZM73.218 88.7335C58.1736 92.8852 39.8361 92.8852 24.7917 88.7335L26.9199 81.0218C40.5715 84.7891 57.4382 84.7891 71.0899 81.0218L73.218 88.7335ZM24.7969 88.735C17.7125 86.7902 11.1931 83.6436 7.44613 79.8478L13.1395 74.2277C15.4683 76.5869 20.4365 79.242 26.9147 81.0204L24.7969 88.735ZM7.46437 79.8662C5.35186 77.7537 3.94485 75.5869 3.70002 72.6458L11.6724 71.9821C11.6957 72.262 11.7537 72.4607 11.8914 72.7112C12.0595 73.0166 12.3963 73.4844 13.1212 74.2093L7.46437 79.8662ZM3.69901 72.6333C3.46547 69.7177 4.62148 67.5768 6.27315 65.3813L12.6661 70.1907C12.0303 71.0358 11.8029 71.4665 11.7158 71.6862C11.6807 71.7747 11.6746 71.8146 11.6728 71.827C11.6708 71.8406 11.6648 71.8866 11.6735 71.9946L3.69901 72.6333ZM6.30148 65.3441L7.22307 64.1485L13.5593 69.0323L12.6378 70.2279L6.30148 65.3441ZM6.44693 67.2557L6.15261 65.511L14.0412 64.1803L14.3355 65.925L6.44693 67.2557ZM6.15414 65.52C6.00842 64.668 5.9481 64.264 5.88492 63.9442C5.85542 63.7949 5.85764 63.8397 5.8996 63.9665C5.90732 63.9899 6.10728 64.6715 6.76285 65.3186C7.15326 65.7039 7.71487 66.0871 8.44851 66.2865C9.17216 66.4832 9.82005 66.435 10.2936 66.3277C10.7403 66.2265 11.0636 66.0667 11.2301 65.9753C11.4044 65.8796 11.5218 65.7946 11.5645 65.763C11.6332 65.712 11.6492 65.6928 11.5178 65.8093C11.4301 65.887 11.2394 66.0586 11.0524 66.2208L5.81008 60.1777C5.89701 60.1023 6.46317 59.5862 6.79967 59.3367C6.96923 59.211 7.60463 58.7342 8.52549 58.5255C9.06276 58.4038 9.76898 58.3552 10.5467 58.5666C11.3343 58.7807 11.9457 59.1936 12.3826 59.6249C13.1313 60.3638 13.4114 61.2019 13.4951 61.4549C13.613 61.8113 13.6868 62.1588 13.7332 62.3938C13.8219 62.8426 13.9306 63.5337 14.0396 64.1712L6.15414 65.52ZM11.0541 66.2193C9.99879 67.1359 9.00761 68.4358 8.32702 69.8421L1.12597 66.3572C2.24808 64.0386 3.8837 61.8508 5.80831 60.1793L11.0541 66.2193ZM8.33644 69.8225C8.05396 70.4144 8.03751 70.5118 8.03336 70.5295C8.02151 70.5802 7.98841 70.7399 7.95944 71.5213L-0.0350662 71.2248C-0.00517662 70.4187 0.0399015 69.5786 0.243506 68.7079C0.454804 67.8044 0.791081 67.0587 1.11655 66.3768L8.33644 69.8225ZM7.9571 71.5747C7.88666 72.9703 8.09304 73.7622 9.01999 75.1595L2.35343 79.5819C0.576327 76.9029 -0.197739 74.4407 -0.0327278 71.1714L7.9571 71.5747ZM9.01125 75.1464C10.4413 77.2839 12.9557 79.3788 17.433 81.5269L13.9725 88.7397C8.80718 86.2616 4.89252 83.377 2.36217 79.595L9.01125 75.1464ZM17.4331 81.527C25.7176 85.502 37.2261 87.6067 48.986 87.6138C60.7463 87.6208 72.2484 85.5296 80.5212 81.5648L83.9787 88.7791C74.2963 93.4195 61.512 95.6212 48.9812 95.6138C36.45 95.6063 23.6624 93.3891 13.9724 88.7397L17.4331 81.527ZM80.5155 81.5676C86.4341 78.7194 89.0993 75.7775 89.87 73.3818L97.4856 75.8319C95.7087 81.3552 90.6112 85.5874 83.9845 88.7763L80.5155 81.5676ZM89.8709 73.3792C90.0389 72.8581 90.0573 72.7261 90.0663 72.6471C90.0804 72.5239 90.0929 72.2871 90.0553 71.5327L98.0454 71.1343C98.0859 71.9481 98.108 72.7404 98.0143 73.5581C97.9155 74.42 97.7085 75.1407 97.4848 75.8345L89.8709 73.3792ZM90.0552 71.5302C90.0178 70.7714 89.9801 70.5817 89.9619 70.5066C89.9507 70.4603 89.9239 70.3455 89.6548 69.7809L96.8767 66.3393C97.1963 67.01 97.5226 67.7381 97.737 68.6228C97.9444 69.4787 98.0047 70.3081 98.0455 71.1367L90.0552 71.5302ZM89.6652 69.8025C88.8245 68.0653 87.6903 66.6749 85.3852 64.9544L90.1701 58.5432C93.275 60.8605 95.3543 63.1932 96.8663 66.3177L89.6652 69.8025ZM85.3768 64.9482C85.2816 64.8768 85.2598 64.8646 85.2879 64.8824C85.3047 64.893 85.355 64.9243 85.4325 64.965C85.5061 65.0035 85.6441 65.0718 85.8332 65.1395C86.0807 65.2281 87.1362 65.5872 88.4222 65.1098C89.9705 64.5349 90.5863 63.2647 90.7844 62.6055L83.1227 60.3035C83.3502 59.5464 84.0151 58.2124 85.6377 57.61C86.9979 57.105 88.1528 57.4727 88.5303 57.6079C89.3103 57.8872 89.9551 58.3818 90.1785 58.5495L85.3768 64.9482Z" fill="#A866FD" mask="url(#path-7-inside-1)"/>
</svg>
