<svg width="95" height="114" viewBox="0 0 95 114" fill="none" xmlns="http://www.w3.org/2000/svg">
<path d="M85.9137 0.887695H12.6381C11.4467 0.887695 10.4805 1.85367 10.4805 3.04538V105.272C10.4805 106.464 11.4467 107.43 12.6381 107.43H68.1437C68.7159 107.43 69.2645 107.202 69.6694 106.798L86.5518 89.9152C86.9563 89.5107 87.1837 88.9619 87.1837 88.3895V3.04538C87.1837 1.85367 87.1054 0.887695 85.9137 0.887695ZM70.2973 100.955L70.288 90.5338L80.7087 90.5433L70.2973 100.955ZM83.7562 87.1186L69.018 87.1044H69.0161C68.4438 87.1044 67.895 87.3318 67.4903 87.7363C67.0854 88.1415 66.858 88.6911 66.8584 89.264L66.8723 104.002H13.908V4.31521H83.7562V87.1186Z" fill="#A866FD"/>
<path d="M31.6996 77.8481C26.2737 77.8481 21.8594 82.2623 21.8594 87.6883C21.8594 93.1146 26.274 97.5288 31.6996 97.5288C37.1256 97.5288 41.54 93.1146 41.54 87.6883C41.5404 82.2625 37.1258 77.8481 31.6996 77.8481ZM31.6996 93.2136C28.6531 93.2136 26.1747 90.735 26.1747 87.6886C26.1747 84.6421 28.6531 82.1637 31.6996 82.1637C34.746 82.1637 37.2246 84.6421 37.2246 87.6886C37.2246 90.735 34.7464 93.2136 31.6996 93.2136Z" fill="#A866FD"/>
<path d="M59.8358 86.1216H47.9682C46.7767 86.1216 45.8105 87.0329 45.8105 88.1572C45.8105 89.2815 46.7767 90.1929 47.9682 90.1929H59.8358C61.0273 90.1929 61.9935 89.2815 61.9935 88.1572C61.9935 87.0329 61.0273 86.1216 59.8358 86.1216Z" fill="#A866FD"/>
<path d="M30.6752 14.2056H24.3696C23.1689 14.2056 22.1953 15.0005 22.1953 15.9813C22.1953 16.962 23.1689 17.757 24.3696 17.757H30.6752C31.8759 17.757 32.8495 16.962 32.8495 15.9813C32.8495 15.0005 31.8759 14.2056 30.6752 14.2056Z" fill="#A866FD"/>
<path d="M74.1982 14.2056H55.4288C54.2375 14.2056 53.2715 15.0005 53.2715 15.9813C53.2715 16.962 54.2375 17.757 55.4288 17.757H74.1982C75.3896 17.757 76.3556 16.962 76.3556 15.9813C76.3556 15.0005 75.3896 14.2056 74.1982 14.2056Z" fill="#A866FD"/>
<path d="M74.1883 22.1963H42.1199C40.9234 22.1963 39.9531 22.9913 39.9531 23.972C39.9531 24.9527 40.9234 25.7477 42.1199 25.7477H74.1883C75.3848 25.7477 76.355 24.9527 76.355 23.972C76.355 22.9913 75.3848 22.1963 74.1883 22.1963Z" fill="#A866FD"/>
<path d="M74.1798 38.1777H23.4843C22.2829 38.1777 21.3086 38.9727 21.3086 39.9534C21.3086 40.9342 22.2829 41.7291 23.4843 41.7291H74.1796C75.3811 41.7291 76.3553 40.9342 76.3553 39.9534C76.3553 38.9727 75.3813 38.1777 74.1798 38.1777Z" fill="#A866FD"/>
<path d="M74.1798 45.2803H23.4843C22.2829 45.2803 21.3086 46.0752 21.3086 47.056C21.3086 48.0367 22.2829 48.8317 23.4843 48.8317H74.1796C75.3811 48.8317 76.3553 48.0367 76.3553 47.056C76.3555 46.0752 75.3813 45.2803 74.1798 45.2803Z" fill="#A866FD"/>
<path d="M74.1798 52.3833H23.4843C22.2829 52.3833 21.3086 53.1783 21.3086 54.159C21.3086 55.1397 22.2829 55.9347 23.4843 55.9347H74.1796C75.3811 55.9347 76.3553 55.1397 76.3553 54.159C76.3555 53.1783 75.3813 52.3833 74.1798 52.3833Z" fill="#A866FD"/>
<path d="M74.2654 59.4858H73.1164C71.9628 59.4858 71.0273 60.2808 71.0273 61.2615C71.0273 62.2423 71.9628 63.0372 73.1164 63.0372H74.2654C75.419 63.0372 76.3544 62.2423 76.3544 61.2615C76.3544 60.2808 75.419 59.4858 74.2654 59.4858Z" fill="#A866FD"/>
<path d="M65.3042 59.4858H23.4812C22.2815 59.4858 21.3086 60.2808 21.3086 61.2615C21.3086 62.2423 22.2815 63.0372 23.4812 63.0372H65.3042C66.504 63.0372 67.4768 62.2423 67.4768 61.2615C67.4768 60.2808 66.504 59.4858 65.3042 59.4858Z" fill="#A866FD"/>
</svg>
