<svg width="99" height="92" viewBox="0 0 99 92" fill="none" xmlns="http://www.w3.org/2000/svg">
<path d="M9.27539 48.26C9.27539 47.3745 9.27539 46.4734 9.27539 45.5723C9.31891 34.9035 13.2694 24.6183 20.3836 16.6515C27.4978 8.68461 37.2855 3.5852 47.9054 2.31251C58.5253 1.03982 69.2455 3.68157 78.0493 9.74082C86.8531 15.8001 93.1337 24.8592 95.7097 35.214C98.2856 45.5688 96.9794 56.5056 92.0367 65.967C87.094 75.4285 78.8555 82.7624 68.871 86.5892C58.8864 90.416 47.8441 90.4719 37.8211 86.7464C27.7982 83.0208 19.4855 75.7707 14.4467 66.3598" stroke="#57B9FF" stroke-width="4" stroke-linecap="round" stroke-linejoin="round"/>
<path d="M16.3925 48.8359H2L9.19624 57.5052L16.3925 48.8359Z" stroke="#57B9FF" stroke-width="3" stroke-linecap="round" stroke-linejoin="round"/>
<path d="M54.3982 75.5418C53.8063 75.5418 53.1989 75.5418 52.5914 75.5418C45.4184 75.5265 38.4981 72.8983 33.1315 68.1512C27.7649 63.4041 24.3216 56.8652 23.449 49.7638C22.5765 42.6624 24.3348 35.4876 28.3933 29.5884C32.4518 23.6892 38.531 19.472 45.488 17.7295C52.445 15.987 59.8005 16.8393 66.1717 20.1262C72.5429 23.4131 77.4909 28.9082 80.0855 35.5783C82.68 42.2484 82.7424 49.6341 80.2609 56.3469C77.7793 63.0597 72.9248 68.6371 66.61 72.0306" stroke="#57B9FF" stroke-width="4" stroke-linecap="round" stroke-linejoin="round"/>
<path d="M54.9922 70.8184V80.4509L60.8177 75.6346L54.9922 70.8184Z" stroke="#57B9FF" stroke-width="3" stroke-linecap="round" stroke-linejoin="round"/>
<path d="M53.0748 48.9437C54.6921 48.9437 56.0032 47.636 56.0032 46.0229C56.0032 44.4097 54.6921 43.1021 53.0748 43.1021C51.4575 43.1021 50.1465 44.4097 50.1465 46.0229C50.1465 47.636 51.4575 48.9437 53.0748 48.9437Z" stroke="#57B9FF" stroke-width="5" stroke-linecap="round" stroke-linejoin="round"/>
<path d="M53.0742 43.102V11.4546" stroke="#57B9FF" stroke-width="4" stroke-linecap="round" stroke-linejoin="round"/>
<path d="M56.0195 46.0225H76.1441" stroke="#57B9FF" stroke-width="4" stroke-linecap="round" stroke-linejoin="round"/>
</svg>
