<svg width="95" height="95" viewBox="0 0 95 95" fill="none" xmlns="http://www.w3.org/2000/svg">
<g clip-path="url(#clip0)">
<path d="M9.5013 16.8477H19.0013C19.8758 16.8477 20.5846 16.2662 20.5846 15.5488C20.5846 14.8315 19.8758 14.25 19.0013 14.25H9.5013C8.62685 14.25 7.91797 14.8315 7.91797 15.5488C7.91797 16.2662 8.62685 16.8477 9.5013 16.8477Z" fill="#57B9FF"/>
<path d="M26.9173 16.8477H41.1673C42.0418 16.8477 42.7507 16.2662 42.7507 15.5488C42.7507 14.8315 42.0418 14.25 41.1673 14.25H26.9173C26.0429 14.25 25.334 14.8315 25.334 15.5488C25.334 16.2662 26.0429 16.8477 26.9173 16.8477Z" fill="#57B9FF"/>
<path d="M9.5013 34.2646H60.168C61.0424 34.2646 61.7513 33.6831 61.7513 32.9658C61.7513 32.2485 61.0424 31.667 60.168 31.667H9.5013C8.62685 31.667 7.91797 32.2485 7.91797 32.9658C7.91797 33.6831 8.62685 34.2646 9.5013 34.2646Z" fill="#57B9FF"/>
<path d="M9.5013 41.1667H31.668C32.5424 41.1667 33.2513 40.4578 33.2513 39.5833C33.2513 38.7089 32.5424 38 31.668 38H9.5013C8.62685 38 7.91797 38.7089 7.91797 39.5833C7.91797 40.4578 8.62685 41.1667 9.5013 41.1667Z" fill="#57B9FF"/>
<path d="M9.5013 53.8332H31.668C32.5424 53.8332 33.2513 53.1243 33.2513 52.2498C33.2513 51.3754 32.5424 50.6665 31.668 50.6665H9.5013C8.62685 50.6665 7.91797 51.3754 7.91797 52.2498C7.91797 53.1243 8.62685 53.8332 9.5013 53.8332Z" fill="#57B9FF"/>
<path d="M9.5013 66.4997H31.668C32.5424 66.4997 33.2513 65.7908 33.2513 64.9163C33.2513 64.0419 32.5424 63.333 31.668 63.333H9.5013C8.62685 63.333 7.91797 64.0419 7.91797 64.9163C7.91797 65.7908 8.62685 66.4997 9.5013 66.4997Z" fill="#57B9FF"/>
<path d="M9.5013 79.1667H31.668C32.5424 79.1667 33.2513 78.4578 33.2513 77.5833C33.2513 76.7089 32.5424 76 31.668 76H9.5013C8.62685 76 7.91797 76.7089 7.91797 77.5833C7.91797 78.4578 8.62685 79.1667 9.5013 79.1667Z" fill="#57B9FF"/>
<path d="M93.3078 46.1225L76 38.3278V4.75C76 2.12665 73.8734 0 71.25 0H11.0833C8.45998 0 6.33333 2.12665 6.33333 4.75V6.33333H4.75C2.12665 6.33333 0 8.45998 0 11.0833V90.25C0 92.8734 2.12665 95 4.75 95H64.9167C66.1976 94.9971 67.4228 94.4756 68.3129 93.5544L69.6113 94.4775C70.5927 95.1742 71.9073 95.1742 72.8888 94.4775L88.2075 83.5731C92.454 80.5591 94.2416 75.68 94.2578 70.4726V47.576C94.2588 46.9456 93.8856 46.3747 93.3078 46.1225ZM8.75781 4.75C8.75781 3.87555 10.2089 2.42448 11.0833 2.42448H71.25C72.1245 2.42448 73.5755 3.87555 73.5755 4.75V20.4102V36.9598L71.8833 36.5465C71.4832 36.3739 71.0295 36.3739 70.6293 36.5465L69.6793 36.9598V26.9167C69.6793 26.8818 69.6619 26.8486 69.6588 26.8138C69.6509 26.6811 69.6253 26.5501 69.5827 26.4242C69.5717 26.3878 69.5732 26.3498 69.559 26.315C69.5448 26.2802 69.5337 26.2802 69.5257 26.2612C69.4487 26.0889 69.3414 25.9318 69.2091 25.7973L50.2091 6.79725C50.0746 6.66489 49.9174 6.55765 49.7452 6.48058C49.7246 6.47108 49.7103 6.45525 49.6913 6.44733C49.6723 6.43942 49.6185 6.43467 49.5837 6.42358C49.4561 6.38108 49.3236 6.35501 49.1894 6.346C49.1498 6.35075 49.1182 6.33333 49.0833 6.33333H8.75781V4.75ZM50.6667 10.9966L65.0034 25.3333H52.25C51.3755 25.3333 50.6667 24.6245 50.6667 23.75V10.9966ZM64.9167 92.5755H4.75C3.87555 92.5755 2.42448 91.1245 2.42448 90.25V11.0833C2.42448 10.2089 3.87555 8.75781 4.75 8.75781H48.2422V23.75C48.2422 26.3734 49.6266 27.7578 52.25 27.7578H66.5V38.3278L61.4033 40.5333C61.622 40.2645 61.7441 39.9299 61.75 39.5833C61.75 38.7089 61.0411 38 60.1667 38H38C37.1256 38 36.4167 38.7089 36.4167 39.5833C36.4167 40.4578 37.1256 41.1667 38 41.1667H59.9276L52.5968 44.3333H9.5C8.62555 44.3333 7.91667 45.0422 7.91667 45.9167C7.91667 46.7911 8.62555 47.5 9.5 47.5H47.5111C47.5111 47.5253 47.5 47.5491 47.5 47.576V50.6667H38C37.1256 50.6667 36.4167 51.3755 36.4167 52.25C36.4167 53.1245 37.1256 53.8333 38 53.8333H47.5V57H9.5C8.62555 57 7.91667 57.7089 7.91667 58.5833C7.91667 59.4578 8.62555 60.1667 9.5 60.1667H47.5V63.3333H38C37.1256 63.3333 36.4167 64.0422 36.4167 64.9167C36.4167 65.7911 37.1256 66.5 38 66.5H47.5V69.6667H9.5C8.62555 69.6667 7.91667 70.3756 7.91667 71.25C7.91667 72.1245 8.62555 72.8333 9.5 72.8333H47.6979C47.8554 73.9136 48.1238 74.9748 48.4991 76H38C37.1256 76 36.4167 76.7089 36.4167 77.5833C36.4167 78.4578 37.1256 79.1667 38 79.1667H50.0983C50.8465 80.3316 51.741 81.3958 52.7598 82.3333H9.5C8.62555 82.3333 7.91667 83.0422 7.91667 83.9167C7.91667 84.7911 8.62555 85.5 9.5 85.5H57L66.3682 92.3824C66.1507 92.5029 65.1652 92.5691 64.9167 92.5755ZM91.8333 70.4726C91.8179 74.6551 89.7842 79.315 86.3724 81.7344L71.25 92.4995L56.1276 81.7329C52.7163 79.3138 49.9404 74.6545 49.9245 70.4726V48.6226L53.5325 47.3844L53.5626 47.3718L71.25 38.9821L91.8333 48.6163V70.4726Z" fill="#57B9FF"/>
<path d="M70.6173 44.1874L55.5262 50.2852C54.9484 50.5373 54.5752 51.1082 54.5762 51.7387V70.4727C54.5906 73.6303 56.1284 76.5868 58.7055 78.4115L70.3323 86.4742C70.882 86.8656 71.6193 86.8656 72.169 86.4742L83.7958 78.4115C86.3725 76.5865 87.9102 73.6302 87.9251 70.4727V51.7387C87.9261 51.1082 87.5529 50.5373 86.9751 50.2852L71.884 44.1874C71.4802 44.0111 71.0211 44.0111 70.6173 44.1874ZM85.5007 52.7868V70.4727C85.4891 72.6097 84.4458 74.6096 82.6997 75.8418L71.2507 83.9833L59.8016 75.8323C58.0576 74.6025 57.0145 72.6066 57.0007 70.4727V52.7789L71.2507 46.6245L85.5007 52.7868Z" fill="#57B9FF"/>
<path d="M62.7013 66.8165C62.2488 66.4771 61.6496 66.4049 61.1294 66.6271C60.6092 66.8493 60.247 67.3322 60.1794 67.8938C60.1117 68.4554 60.3488 69.0105 60.8013 69.3499L67.1347 74.0999C67.8187 74.6132 68.7868 74.4906 69.3212 73.8228L81.9879 57.9895C82.5344 57.3065 82.4239 56.3098 81.7409 55.7633C81.058 55.2168 80.0613 55.3273 79.5148 56.0103L67.8076 70.6466L62.7013 66.8165Z" fill="#57B9FF"/>
</g>
<defs>
<clipPath id="clip0">
<rect width="95" height="95" fill="white"/>
</clipPath>
</defs>
</svg>
