<svg width="95" height="95" viewBox="0 0 95 95" fill="none" xmlns="http://www.w3.org/2000/svg">
<path d="M94.7665 42.7127L86.3134 39.9177C85.9651 38.1184 85.4921 36.3468 84.9003 34.6266L90.8358 27.9697L90.2559 26.7761C89.2525 24.7095 88.0887 22.7004 86.8003 20.8041L86.0561 19.7094L77.3656 21.5187C76.1583 20.1311 74.8541 18.8286 73.4706 17.6211L75.2776 8.92932L74.1831 8.18505C72.2752 6.8885 70.2664 5.72656 68.208 4.72892L67.0166 4.1529L60.3646 10.0893C58.6407 9.49743 56.8694 9.02434 55.0743 8.67595L52.2797 0.221699L50.9596 0.124706C48.6677 -0.0415686 46.3323 -0.0415686 44.0404 0.124706L42.7203 0.219719L39.9257 8.67595C38.1326 9.02434 36.3593 9.49743 34.6354 10.0893L27.9795 4.1529L26.786 4.73288C24.7198 5.73646 22.7109 6.90038 20.8149 8.18901L19.7224 8.93328L21.5314 17.6251C20.144 18.8325 18.8417 20.137 17.6344 21.5206L8.94583 19.7114L8.20167 20.8061C6.90531 22.7142 5.74354 24.7234 4.74604 26.782L4.1701 27.9737L10.1017 34.6266C9.5099 36.3507 9.03687 38.1223 8.68854 39.9177L0.235521 42.7127L0.138542 44.033C0.0554168 45.1791 0 46.3272 0 47.4931C0 48.659 0.0554168 49.8071 0.138542 50.9532L0.233542 52.2735L8.68656 55.0684C9.0349 56.8678 9.50792 58.6394 10.0997 60.3595L4.16417 67.0164L4.74406 68.2101C5.7475 70.2766 6.91125 72.2858 8.19969 74.1821L8.94385 75.2767L17.6344 73.4675C18.8417 74.8551 20.1459 76.1576 21.5294 77.365L19.7224 86.0568L20.8169 86.8011C22.7248 88.0976 24.7336 89.2596 26.792 90.2572L27.9834 90.8333L34.6374 84.9008C36.3612 85.4927 38.1326 85.9658 39.9277 86.3141L42.7223 94.7684L44.0424 94.8634C45.1864 94.9446 46.3343 95 47.5 95C48.6657 95 49.8136 94.9446 50.9596 94.8614L52.2797 94.7664L55.0743 86.3122C56.8733 85.9638 58.6447 85.4907 60.3646 84.8988L67.0205 90.8352L68.214 90.2552C70.2802 89.2517 72.2891 88.0877 74.1851 86.7991L75.2796 86.0548L73.4706 77.3631C74.858 76.1556 76.1603 74.8511 77.3676 73.4675L86.0581 75.2747L86.8023 74.1801C88.0986 72.2719 89.2604 70.2627 90.2579 68.2041L90.8339 67.0125L84.8983 60.3595C85.4901 58.6354 85.9631 56.8618 86.3115 55.0684L94.7645 52.2735L94.8595 50.9532C94.9446 49.8071 95 48.659 95 47.4931C95 46.3272 94.9446 45.1791 94.8615 44.033L94.7665 42.7127ZM90.9942 49.3498L82.8103 52.0557L82.6164 53.2414C82.2383 55.5831 81.6208 57.8892 80.7856 60.0963L80.3621 61.2166L86.0977 67.6538C85.5297 68.7425 84.9082 69.8134 84.2452 70.8546L75.8397 69.1048L75.0797 70.0351C73.5755 71.872 71.8794 73.5684 70.0348 75.0788L69.1046 75.8389L70.8561 84.2456C69.8171 84.9068 68.7483 85.5263 67.6558 86.1004L61.2196 80.3599L60.0974 80.7875C57.9005 81.6209 55.5948 82.2345 53.2455 82.6165L52.06 82.8105L49.3545 90.9956C48.1254 91.0569 46.8686 91.0569 45.6396 90.9956L42.9341 82.8105L41.7485 82.6165C39.4052 82.2384 37.0995 81.6209 34.8967 80.7855L33.7745 80.3599L27.3382 86.0984C26.2497 85.5303 25.179 84.9087 24.1379 84.2456L25.8875 75.8389L24.9573 75.0788C23.1206 73.5744 21.4245 71.878 19.9144 70.0331L19.1544 69.1028L10.7489 70.8546C10.0878 69.8154 9.46833 68.7465 8.89437 67.6538L14.634 61.2166L14.2065 60.0943C13.3732 57.8971 12.7597 55.591 12.3777 53.2414L12.1838 52.0557L3.9999 49.3498C3.97615 48.7362 3.95833 48.1166 3.95833 47.4931C3.95833 46.8695 3.97615 46.25 4.00583 45.6363L12.1897 42.9304L12.3836 41.7447C12.7617 39.4011 13.3792 37.095 14.2144 34.8919L14.6399 33.7695L8.90229 27.3323C9.47031 26.2436 10.0918 25.1727 10.7548 24.1315L19.1603 25.8814L19.9203 24.951C21.4245 23.1141 23.1206 21.4177 24.9652 19.9074L25.8954 19.1473L24.1439 10.7405C25.1829 10.0794 26.2517 9.45982 27.3442 8.88577L33.7804 14.6242L34.9006 14.2006C37.1074 13.3653 39.4131 12.7497 41.7545 12.3696L42.94 12.1756L45.6455 3.99058C46.8746 3.92922 48.1314 3.92922 49.3604 3.99058L52.0659 12.1756L53.2515 12.3696C55.5948 12.7477 57.9005 13.3653 60.1033 14.2006L61.2255 14.6262L67.6618 8.88776C68.7503 9.45586 69.821 10.0774 70.8621 10.7405L69.1125 19.1473L70.0427 19.9074C71.8794 21.4118 73.5755 23.1082 75.0856 24.953L75.8456 25.8834L84.2511 24.1315C84.9122 25.1708 85.5317 26.2397 86.1056 27.3323L80.366 33.7695L80.7935 34.8919C81.6268 37.0891 82.2403 39.3951 82.6223 41.7447L82.8163 42.9304L91.0001 45.6363C91.0238 46.25 91.0417 46.8695 91.0417 47.4931C91.0417 48.1166 91.0239 48.7362 90.9942 49.3498Z" fill="#57B9FF"/>
<path d="M48.9858 17.9951V23.0188C53.7289 23.1069 57.4525 24.2968 60.1565 26.5883C62.9049 28.8798 64.2791 31.9645 64.2791 35.8424V36.7678H55.4356V36.3051C55.4356 32.3831 53.2856 30.1798 48.9858 29.695V42.4525L49.3847 42.5186C51.6455 42.8712 53.6624 43.3559 55.4356 43.9728C57.2087 44.5457 58.9153 45.361 60.5555 46.4186C62.1957 47.4762 63.459 48.8864 64.3456 50.6491C65.2765 52.3677 65.7419 54.3727 65.7419 56.6643C65.7419 60.9829 64.1904 64.4862 61.0874 67.1743C58.0288 69.8184 53.9949 71.1845 48.9858 71.2726V76.8251H45.3952V71.2726C40.3861 71.1845 36.2857 69.8184 33.094 67.1743C29.9467 64.4862 28.373 60.6964 28.373 55.8049L28.4395 55.4083H37.8815V56.0032C37.8815 61.0269 40.3861 63.7371 45.3952 64.1337V50.0541C43.2231 49.7016 41.2948 49.2389 39.6103 48.666C37.9702 48.0931 36.3522 47.322 34.7563 46.3525C33.1605 45.383 31.9415 44.083 31.0992 42.4525C30.257 40.822 29.8359 38.9051 29.8359 36.7017C29.8359 32.3391 31.2766 29.056 34.1579 26.8527C37.0836 24.6052 40.8293 23.3273 45.3952 23.0188V17.9951H48.9858ZM45.3952 41.6593V29.7611C43.2674 29.8492 41.6051 30.4221 40.4082 31.4797C39.2114 32.5374 38.6129 33.9255 38.6129 35.6441C38.6129 36.4373 38.7459 37.1644 39.0119 37.8254C39.3222 38.4424 39.6325 38.9492 39.9428 39.3458C40.2974 39.6983 40.8515 40.0508 41.6051 40.4034C42.3587 40.7119 42.9349 40.9322 43.3339 41.0644C43.7329 41.1966 44.4199 41.3949 45.3952 41.6593ZM48.9858 50.8474V64.1998C51.2022 64.1557 52.9753 63.5167 54.3052 62.2829C55.6794 61.0049 56.3665 59.3744 56.3665 57.3914C56.3665 53.9982 53.9062 51.8168 48.9858 50.8474Z" fill="#57B9FF"/>
</svg>
