<svg width="256" height="258" viewBox="0 0 256 258" fill="none" xmlns="http://www.w3.org/2000/svg">
<g clip-path="url(#clip0)">
<path opacity="0.3" d="M135.305 22.6288C90.3362 19.7935 46.7449 45.9078 29.4115 90.1087C7.92452 144.901 34.9241 206.738 89.7167 228.225C144.509 249.712 206.346 222.713 227.833 167.92C236.598 145.57 237.295 122.048 231.329 100.571" stroke="#FF2466" stroke-width="4"/>
<circle opacity="0.3" cx="146.51" cy="21.7375" r="2.83611" fill="#FF2466"/>
<path d="M135.737 4.83348C82.7126 1.49028 31.3128 32.2825 10.8745 84.4011C-14.4615 149.009 17.3745 221.922 81.9821 247.258C146.59 272.594 219.503 240.758 244.839 176.151C255.174 149.797 255.996 122.062 248.962 96.7371" stroke="#A866FD" stroke-width="4"/>
<circle cx="146.51" cy="3.77507" r="2.83611" fill="#A866FD"/>
<path opacity="0.3" d="M133.86 42.8409C97.0152 40.5178 61.2989 61.9145 47.0969 98.1302C29.4916 143.024 51.6135 193.69 96.5076 211.295C141.402 228.9 192.067 206.778 209.673 161.884C216.854 143.572 217.425 124.3 212.537 106.702" stroke="#FF00E5" stroke-width="4"/>
<circle opacity="0.3" cx="146.51" cy="41.6447" r="2.83611" fill="#FF00E5"/>
<path opacity="0.3" d="M133.738 62.9835C105.133 61.1799 77.4037 77.7917 66.3776 105.908C52.7094 140.763 69.8842 180.098 104.739 193.766C139.593 207.435 178.928 190.26 192.597 155.405C198.172 141.188 198.615 126.226 194.82 112.563" stroke="#1129FF" stroke-width="4"/>
<circle opacity="0.3" cx="146.51" cy="62.4426" r="2.83611" fill="#1129FF"/>
<path opacity="0.3" d="M131.425 84.0382C111.74 82.797 92.6585 94.2285 85.0709 113.577C75.6651 137.562 87.484 164.631 111.469 174.037C135.454 183.443 162.523 171.624 171.929 147.639C175.765 137.855 176.071 127.558 173.459 118.157" stroke="#6A00D5" stroke-width="4"/>
<circle opacity="0.3" cx="146.51" cy="83.2409" r="2.83611" fill="#6A00D4"/>
</g>
<defs>
<clipPath id="clip0">
<rect width="256" height="258" fill="white"/>
</clipPath>
</defs>
</svg>
