<svg width="1011" height="968" viewBox="0 0 1011 968" fill="none" xmlns="http://www.w3.org/2000/svg">
<path d="M68 968L68 846M68 5.80628e-05L68 780M134.467 968L134.467 5.51574e-05M201.433 968L201.433 5.22302e-05M267.9 968L267.9 4.93249e-05M334.367 968L334.367 4.64195e-05M400.833 968L400.833 4.35142e-05M467.8 968L467.8 4.0587e-05M534.267 968L534.267 3.76816e-05M600.733 968L600.733 3.47763e-05M667.2 968L667.2 3.18709e-05M734.167 968L734.167 2.89437e-05M800.633 968L800.633 2.60384e-05M867.1 968L867.1 2.3133e-05M933.567 968L933.567 2.02277e-05M1000.53 968L1000.53 1.73005e-05M1067 968L1067 1.43951e-05M68 846L1128 846L-5.33279e-06 846M68 846L68 780M68 780L-8.21774e-06 780L1128 780M-1.10808e-05 714.5L1128 714.5L68 714.5L68 648.5L-1.39658e-05 648.5L1128 648.5M-1.68945e-05 581.5L1128 581.5L68 581.5L68 515.5L-1.97794e-05 515.5L1128 515.5M-2.26425e-05 450L1128 450L68 450L68 384L-2.55275e-05 384L1128 384M-2.83687e-05 319L1128 319L68 319L68 253L-3.12536e-05 253L1128 253M-3.41167e-05 187.5L1128 187.5L68 187.5L68 121.5L-3.70017e-05 121.5L1128 121.5M68 54.5L1128 54.5L-3.99304e-05 54.5" stroke="url(#paint0_radial)" stroke-opacity="0.15"/>
<defs>
<radialGradient id="paint0_radial" cx="0" cy="0" r="1" gradientUnits="userSpaceOnUse" gradientTransform="translate(564 484) scale(564 484)">
<stop stop-color="#4DB5FF"/>
<stop offset="1" stop-color="#4DB5FF" stop-opacity="0"/>
</radialGradient>
</defs>
</svg>
