<svg width="709" height="585" viewBox="0 0 709 585" fill="none" xmlns="http://www.w3.org/2000/svg" class="stages__img img-fluid">
<path opacity="0.4" d="M3.008 51.3342C3.008 51.3342 544.975 51.3344 602.095 51.3342C659.215 51.334 706.927 90.0049 706.927 167.346C706.927 244.687 660.559 283.358 602.095 283.358C543.631 283.358 170.365 283.358 113.917 283.358C57.4686 283.358 2 322.029 2 399.37C2 476.711 58.1406 515.382 113.917 515.382C169.693 515.382 636.703 515.382 685.087 515.382" stroke="url(#paint0_linear)" stroke-width="4"/>
<g filter="url(#filter0_f)">
<circle cx="125.3" cy="53.3" r="9.3" fill="#4DB5FF"/>
</g>
<circle cx="125.3" cy="53.3" r="9.3" fill="#4DB5FF"/>
<circle cx="572.5" cy="51.5" r="7.5" fill="#4DB5FF"/>
<circle cx="347.5" cy="51.5" r="7.5" fill="#4DB5FF"/>
<circle cx="122.5" cy="285.5" r="7.5" fill="#4DB5FF"/>
<circle cx="572.5" cy="285.5" r="7.5" fill="#4DB5FF"/>
<circle cx="347.5" cy="285.5" r="7.5" fill="#4DB5FF"/>
<circle cx="122.5" cy="516.5" r="7.5" fill="#4DB5FF"/>
<circle cx="572.299" cy="517.299" r="9.29866" fill="#4DB5FF"/>
<circle cx="347.5" cy="516.5" r="7.5" fill="#4DB5FF"/>
<path d="M117.952 2.4C112.977 2.4 111.502 7.25 111.502 11.375C111.502 16.975 113.927 20.3 117.977 20.3C121.952 20.3 124.352 16.925 124.352 11.375C124.352 7.25 122.977 2.4 117.952 2.4ZM117.927 5.325C119.952 5.325 120.852 7.2 120.852 11.375C120.852 15.45 119.902 17.425 117.952 17.425C115.952 17.425 115.002 15.525 115.002 11.55C115.002 9.475 115.002 5.325 117.927 5.325ZM134.269 2.5H131.344C130.843 5.05 129.144 6 126.693 6H126.243V8.625H130.493V20H134.269V2.5Z" fill="white"/>
<path d="M340.937 2.4C335.962 2.4 334.487 7.25 334.487 11.375C334.487 16.975 336.912 20.3 340.962 20.3C344.937 20.3 347.337 16.925 347.337 11.375C347.337 7.25 345.962 2.4 340.937 2.4ZM340.912 5.325C342.937 5.325 343.837 7.2 343.837 11.375C343.837 15.45 342.887 17.425 340.937 17.425C338.937 17.425 337.987 15.525 337.987 11.55C337.987 9.475 337.987 5.325 340.912 5.325ZM360.554 16.925H352.279C353.279 15.425 355.329 14.25 356.829 13.225C358.904 11.8 360.454 10.55 360.454 7.725C360.454 4.55 358.029 2.375 354.504 2.375C350.604 2.375 348.129 4.9 348.129 8.875V9.25H351.529C351.629 6.675 352.529 5.45 354.379 5.45C355.879 5.45 356.879 6.45 356.879 7.975C356.879 10.125 354.654 11.25 353.104 12.3C349.954 14.425 347.804 15.95 347.729 20H360.554V16.925Z" fill="white"/>
<path d="M565.937 0.399999C560.962 0.399999 559.487 5.25 559.487 9.375C559.487 14.975 561.912 18.3 565.962 18.3C569.937 18.3 572.337 14.925 572.337 9.375C572.337 5.25 570.962 0.399999 565.937 0.399999ZM565.912 3.325C567.937 3.325 568.837 5.2 568.837 9.375C568.837 13.45 567.887 15.425 565.937 15.425C563.937 15.425 562.987 13.525 562.987 9.55C562.987 7.475 562.987 3.325 565.912 3.325ZM573.154 6.225H576.529C576.579 4.275 577.529 3.225 579.179 3.225C580.629 3.225 581.604 4.1 581.604 5.425C581.604 6.9 580.604 7.625 578.554 7.625C578.329 7.625 578.229 7.625 577.954 7.6V10.1C578.304 10.075 578.454 10.075 578.829 10.075C580.504 10.075 582.004 10.725 582.004 12.675C582.004 14.25 580.854 15.325 579.104 15.325C577.204 15.325 576.154 14.125 576.129 11.975H572.704V12.225C572.704 15.975 575.204 18.325 579.179 18.325C583.004 18.325 585.679 15.975 585.679 12.65C585.679 10.6 584.529 9.1 582.579 8.625C584.079 8.225 585.029 6.875 585.029 5.175C585.029 2.325 582.654 0.374999 579.204 0.374999C575.504 0.374999 573.279 2.625 573.154 6.225Z" fill="white"/>
<path d="M565.38 237.4C560.405 237.4 558.93 242.25 558.93 246.375C558.93 251.975 561.355 255.3 565.405 255.3C569.38 255.3 571.78 251.925 571.78 246.375C571.78 242.25 570.405 237.4 565.38 237.4ZM565.355 240.325C567.38 240.325 568.28 242.2 568.28 246.375C568.28 250.45 567.33 252.425 565.38 252.425C563.38 252.425 562.43 250.525 562.43 246.55C562.43 244.475 562.43 240.325 565.355 240.325ZM585.271 248.025H582.921V237.45H579.721L572.121 247.7V250.975H579.621V255H582.921V250.975H585.271V248.025ZM579.621 248.025H574.971L579.621 241.525V248.025Z" fill="white"/>
<path d="M340.937 237.4C335.962 237.4 334.487 242.25 334.487 246.375C334.487 251.975 336.912 255.3 340.962 255.3C344.937 255.3 347.337 251.925 347.337 246.375C347.337 242.25 345.962 237.4 340.937 237.4ZM340.912 240.325C342.937 240.325 343.837 242.2 343.837 246.375C343.837 250.45 342.887 252.425 340.937 252.425C338.937 252.425 337.987 250.525 337.987 246.55C337.987 244.475 337.987 240.325 340.912 240.325ZM359.654 237.65H349.879L348.179 247.275H351.354C352.029 246.25 352.804 245.825 353.979 245.825C355.829 245.825 357.029 247.075 357.029 249.05C357.029 251.025 355.779 252.4 354.004 252.4C352.429 252.4 351.279 251.35 351.129 249.825H347.629C347.829 253.4 350.454 255.275 354.004 255.275C357.854 255.275 360.604 252.65 360.604 248.975C360.604 245.525 358.379 243.25 355.029 243.25C353.629 243.25 352.654 243.625 351.804 244.475L352.479 240.675H359.654V237.65Z" fill="white"/>
<path d="M115.937 237.4C110.962 237.4 109.487 242.25 109.487 246.375C109.487 251.975 111.912 255.3 115.962 255.3C119.937 255.3 122.337 251.925 122.337 246.375C122.337 242.25 120.962 237.4 115.937 237.4ZM115.912 240.325C117.937 240.325 118.837 242.2 118.837 246.375C118.837 250.45 117.887 252.425 115.937 252.425C113.937 252.425 112.987 250.525 112.987 246.55C112.987 244.475 112.987 240.325 115.912 240.325ZM135.454 242.05C135.029 239.075 132.929 237.375 129.779 237.375C125.529 237.375 122.954 240.875 122.954 246.625C122.954 252.075 125.404 255.3 129.554 255.3C133.179 255.3 135.804 252.7 135.779 249.075C135.779 245.7 133.504 243.3 130.304 243.3C128.679 243.3 127.354 243.975 126.404 245.275C126.679 241.75 127.779 240.075 129.729 240.075C130.979 240.075 131.754 240.75 132.079 242.05H135.454ZM129.479 245.95C131.129 245.95 132.329 247.3 132.329 249.175C132.329 251.05 131.129 252.425 129.504 252.425C127.879 252.425 126.729 251.1 126.729 249.2C126.729 247.325 127.879 245.95 129.479 245.95Z" fill="white"/>
<path d="M115.38 467.4C110.405 467.4 108.93 472.25 108.93 476.375C108.93 481.975 111.355 485.3 115.405 485.3C119.38 485.3 121.78 481.925 121.78 476.375C121.78 472.25 120.405 467.4 115.38 467.4ZM115.355 470.325C117.38 470.325 118.28 472.2 118.28 476.375C118.28 480.45 117.33 482.425 115.38 482.425C113.38 482.425 112.43 480.525 112.43 476.55C112.43 474.475 112.43 470.325 115.355 470.325ZM134.671 467.65H122.721V470.85H131.071C127.996 473.975 125.221 480.85 125.221 485H128.896C129.221 479.125 130.696 474.925 134.671 470.575V467.65Z" fill="white"/>
<path d="M340.937 469.4C335.962 469.4 334.487 474.25 334.487 478.375C334.487 483.975 336.912 487.3 340.962 487.3C344.937 487.3 347.337 483.925 347.337 478.375C347.337 474.25 345.962 469.4 340.937 469.4ZM340.912 472.325C342.937 472.325 343.837 474.2 343.837 478.375C343.837 482.45 342.887 484.425 340.937 484.425C338.937 484.425 337.987 482.525 337.987 478.55C337.987 476.475 337.987 472.325 340.912 472.325ZM351.004 477.7C348.954 478.2 347.729 479.8 347.729 481.975C347.729 485.175 350.329 487.3 354.304 487.3C358.279 487.3 360.904 485.175 360.904 481.975C360.904 479.8 359.679 478.2 357.629 477.7C359.279 477.15 360.179 475.85 360.179 474.075C360.179 471.35 357.704 469.35 354.304 469.35C350.929 469.35 348.429 471.35 348.429 474.075C348.429 475.85 349.354 477.15 351.004 477.7ZM354.304 472.025C355.954 472.025 356.979 472.875 356.979 474.3C356.979 475.725 355.954 476.65 354.329 476.65C352.729 476.65 351.679 475.725 351.679 474.3C351.679 472.925 352.729 472.025 354.304 472.025ZM354.229 478.975C356.104 478.975 357.354 480.1 357.354 481.775C357.354 483.475 356.129 484.6 354.304 484.6C352.504 484.6 351.279 483.45 351.279 481.75C351.279 480.125 352.504 478.975 354.229 478.975Z" fill="white"/>
<path d="M565.937 467.4C560.962 467.4 559.487 472.25 559.487 476.375C559.487 481.975 561.912 485.3 565.962 485.3C569.937 485.3 572.337 481.925 572.337 476.375C572.337 472.25 570.962 467.4 565.937 467.4ZM565.912 470.325C567.937 470.325 568.837 472.2 568.837 476.375C568.837 480.45 567.887 482.425 565.937 482.425C563.937 482.425 562.987 480.525 562.987 476.55C562.987 474.475 562.987 470.325 565.912 470.325ZM573.079 480.6C573.429 483.475 575.654 485.3 578.854 485.3C583.979 485.3 585.604 480.1 585.604 475.875C585.604 471.725 583.954 467.35 579.079 467.35C575.479 467.35 572.779 470.025 572.779 473.6C572.779 476.95 575.104 479.375 578.329 479.375C580.054 479.375 581.129 478.7 582.079 477.35C581.904 479.4 581.454 482.6 578.854 482.6C577.554 482.6 576.729 481.925 576.454 480.6H573.079ZM579.004 470.275C580.604 470.275 581.804 471.65 581.804 473.5C581.804 475.325 580.629 476.675 579.029 476.675C577.404 476.675 576.254 475.325 576.254 473.475C576.254 471.65 577.429 470.275 579.004 470.275Z" fill="white"/>
<path d="M56.3709 81V69.608H57.8749V79.256H57.9069L63.4909 69.608H65.3949V81H63.8909V71.32H63.8589L58.2589 81H56.3709ZM68.7177 81H67.3577V72.744H68.7177V76.024H72.8457V72.744H74.2057V81H72.8457V77.224H68.7177V81ZM82.2484 73.944H79.2884V81H77.9284V73.944H74.9684V72.744H82.2484V73.944ZM89.7894 78.392C89.3734 80.312 88.1734 81.272 86.1894 81.272C84.9734 81.272 84.0187 80.8933 83.3254 80.136C82.6427 79.3787 82.3014 78.328 82.3014 76.984C82.3014 75.6507 82.6534 74.5733 83.3574 73.752C84.072 72.92 85 72.504 86.1414 72.504C87.4107 72.504 88.3494 72.936 88.9574 73.8C89.576 74.6533 89.8854 75.736 89.8854 77.048V77.24H83.6774L83.6614 77.336C83.6614 78.2107 83.8907 78.8987 84.3494 79.4C84.808 79.9013 85.4374 80.152 86.2374 80.152C86.8347 80.152 87.304 80.0133 87.6454 79.736C87.9974 79.4587 88.2694 79.0107 88.4614 78.392H89.7894ZM88.4774 76.136C88.4134 75.3467 88.1734 74.7333 87.7574 74.296C87.3414 73.848 86.792 73.624 86.1094 73.624C85.448 73.624 84.8987 73.848 84.4614 74.296C84.024 74.744 83.7627 75.3573 83.6774 76.136H88.4774ZM92.2871 72.744V73.912C92.8845 72.9627 93.8125 72.488 95.0711 72.488C96.2231 72.488 97.1351 72.8773 97.8071 73.656C98.4898 74.4347 98.8311 75.4907 98.8311 76.824C98.8311 78.1573 98.4951 79.224 97.8231 80.024C97.1618 80.8133 96.2658 81.208 95.1351 81.208C93.9511 81.208 93.0285 80.7547 92.3671 79.848V84.184H91.0071V72.744H92.2871ZM94.8631 73.624C94.0738 73.624 93.4498 73.912 92.9911 74.488C92.5431 75.0533 92.3191 75.8373 92.3191 76.84C92.3191 77.8427 92.5485 78.632 93.0071 79.208C93.4765 79.7733 94.1111 80.056 94.9111 80.056C95.6898 80.056 96.3031 79.768 96.7511 79.192C97.1991 78.616 97.4231 77.832 97.4231 76.84C97.4231 75.8373 97.1938 75.0533 96.7351 74.488C96.2871 73.912 95.6631 73.624 94.8631 73.624ZM100.139 81V72.744H103.963C104.507 72.744 104.971 72.792 105.355 72.888C105.739 72.9733 106.075 73.1707 106.363 73.48C106.651 73.7893 106.795 74.2107 106.795 74.744C106.795 75.5547 106.39 76.1467 105.579 76.52V76.536C106.07 76.632 106.454 76.8613 106.731 77.224C107.009 77.576 107.147 78.024 107.147 78.568C107.147 79.272 106.913 79.8533 106.443 80.312C105.974 80.7707 105.371 81 104.635 81H100.139ZM103.819 76.072C104.385 76.072 104.785 75.9813 105.019 75.8C105.265 75.608 105.387 75.3307 105.387 74.968C105.387 74.6053 105.27 74.3387 105.035 74.168C104.801 73.9973 104.395 73.912 103.819 73.912H101.467V76.072H103.819ZM101.467 77.224V79.832H104.379C104.806 79.832 105.137 79.704 105.371 79.448C105.617 79.192 105.739 78.8613 105.739 78.456C105.739 77.6347 105.206 77.224 104.139 77.224H101.467ZM114.653 76.584C115.144 77.032 115.389 77.6453 115.389 78.424C115.389 79.2027 115.149 79.8267 114.669 80.296C114.2 80.7653 113.565 81 112.765 81H108.397V72.744H109.757V75.896H112.701C113.512 75.896 114.163 76.1253 114.653 76.584ZM112.269 77.064H109.757V79.8H112.269C112.824 79.8 113.245 79.6827 113.533 79.448C113.832 79.2027 113.981 78.8613 113.981 78.424C113.981 77.5173 113.411 77.064 112.269 77.064ZM123.27 72.504C124.475 72.504 125.409 72.8827 126.07 73.64C126.731 74.3973 127.062 75.4587 127.062 76.824C127.062 78.2213 126.726 79.3093 126.054 80.088C125.393 80.8667 124.459 81.256 123.254 81.256C122.091 81.256 121.169 80.904 120.486 80.2C119.803 79.4853 119.435 78.4933 119.382 77.224H117.782V81H116.422V72.744H117.782V76.024H119.446C119.595 74.9253 120.006 74.0667 120.678 73.448C121.35 72.8187 122.214 72.504 123.27 72.504ZM125.014 74.52C124.577 73.9333 123.985 73.64 123.238 73.64C122.491 73.64 121.894 73.9333 121.446 74.52C121.009 75.1067 120.79 75.8907 120.79 76.872C120.79 77.8853 121.009 78.68 121.446 79.256C121.883 79.8213 122.491 80.104 123.27 80.104C124.017 80.104 124.603 79.816 125.03 79.24C125.457 78.664 125.67 77.8693 125.67 76.856C125.67 75.8747 125.451 75.096 125.014 74.52ZM130.096 81H128.352V72.744H129.712V79.48H129.744L133.456 72.744H135.2V81H133.84V74.264H133.808L130.096 81ZM138.203 72.744V73.912C138.8 72.9627 139.728 72.488 140.987 72.488C142.139 72.488 143.051 72.8773 143.723 73.656C144.405 74.4347 144.747 75.4907 144.747 76.824C144.747 78.1573 144.411 79.224 143.739 80.024C143.077 80.8133 142.181 81.208 141.051 81.208C139.867 81.208 138.944 80.7547 138.283 79.848V84.184H136.923V72.744H138.203ZM140.779 73.624C139.989 73.624 139.365 73.912 138.907 74.488C138.459 75.0533 138.235 75.8373 138.235 76.84C138.235 77.8427 138.464 78.632 138.923 79.208C139.392 79.7733 140.027 80.056 140.827 80.056C141.605 80.056 142.219 79.768 142.667 79.192C143.115 78.616 143.339 77.832 143.339 76.84C143.339 75.8373 143.109 75.0533 142.651 74.488C142.203 73.912 141.579 73.624 140.779 73.624ZM146.743 73.688C147.468 72.8987 148.455 72.504 149.703 72.504C150.951 72.504 151.922 72.8827 152.615 73.64C153.308 74.3973 153.655 75.4587 153.655 76.824C153.655 78.2213 153.308 79.3093 152.615 80.088C151.922 80.8667 150.946 81.256 149.687 81.256C148.428 81.256 147.442 80.872 146.727 80.104C146.012 79.336 145.655 78.2693 145.655 76.904C145.655 75.5493 146.018 74.4773 146.743 73.688ZM151.559 74.52C151.1 73.9333 150.471 73.64 149.671 73.64C148.871 73.64 148.236 73.9333 147.767 74.52C147.298 75.1067 147.063 75.8907 147.063 76.872C147.063 77.8853 147.292 78.68 147.751 79.256C148.22 79.8213 148.871 80.104 149.703 80.104C150.503 80.104 151.127 79.816 151.575 79.24C152.034 78.664 152.263 77.8693 152.263 76.856C152.263 75.8747 152.028 75.096 151.559 74.52ZM154.923 81V72.744H158.747C159.291 72.744 159.755 72.792 160.139 72.888C160.523 72.9733 160.859 73.1707 161.147 73.48C161.435 73.7893 161.579 74.2107 161.579 74.744C161.579 75.5547 161.173 76.1467 160.363 76.52V76.536C160.853 76.632 161.237 76.8613 161.515 77.224C161.792 77.576 161.931 78.024 161.931 78.568C161.931 79.272 161.696 79.8533 161.227 80.312C160.757 80.7707 160.155 81 159.419 81H154.923ZM158.603 76.072C159.168 76.072 159.568 75.9813 159.803 75.8C160.048 75.608 160.171 75.3307 160.171 74.968C160.171 74.6053 160.053 74.3387 159.819 74.168C159.584 73.9973 159.179 73.912 158.603 73.912H156.251V76.072H158.603ZM156.251 77.224V79.832H159.163C159.589 79.832 159.92 79.704 160.155 79.448C160.4 79.192 160.523 78.8613 160.523 78.456C160.523 77.6347 159.989 77.224 158.923 77.224H156.251ZM170.54 79.912V80.968C170.263 81.0747 169.954 81.128 169.612 81.128C168.834 81.128 168.434 80.7227 168.412 79.912C167.634 80.7867 166.636 81.224 165.42 81.224C164.61 81.224 163.964 81.016 163.484 80.6C163.015 80.184 162.78 79.6133 162.78 78.888C162.78 77.416 163.756 76.5573 165.708 76.312C166.86 76.1733 167.527 76.072 167.708 76.008C168.092 75.88 168.3 75.6133 168.332 75.208C168.343 75.144 168.348 75.0747 168.348 75C168.348 74.0933 167.724 73.64 166.476 73.64C165.836 73.64 165.351 73.7733 165.02 74.04C164.69 74.296 164.492 74.7227 164.428 75.32H163.1C163.122 74.4347 163.436 73.7467 164.044 73.256C164.652 72.7653 165.49 72.52 166.556 72.52C167.719 72.52 168.583 72.7867 169.148 73.32C169.33 73.4907 169.463 73.7147 169.548 73.992C169.634 74.2693 169.682 74.4987 169.692 74.68C169.703 74.8507 169.708 75.112 169.708 75.464C169.708 75.88 169.698 76.4987 169.676 77.32C169.655 78.1307 169.644 78.7387 169.644 79.144C169.644 79.4427 169.682 79.656 169.756 79.784C169.842 79.9013 169.991 79.96 170.204 79.96C170.29 79.96 170.402 79.944 170.54 79.912ZM168.348 76.712C168.252 76.7867 168.151 76.8507 168.044 76.904C167.938 76.9573 167.799 77 167.628 77.032C167.468 77.064 167.356 77.0907 167.292 77.112C167.239 77.1227 167.1 77.144 166.876 77.176C166.652 77.1973 166.535 77.208 166.524 77.208C166.194 77.2507 165.975 77.2827 165.868 77.304C165.772 77.3147 165.58 77.3573 165.292 77.432C165.015 77.5067 164.818 77.592 164.7 77.688C164.583 77.784 164.466 77.928 164.348 78.12C164.242 78.3013 164.188 78.52 164.188 78.776C164.188 79.2027 164.332 79.5387 164.62 79.784C164.919 80.0293 165.324 80.152 165.836 80.152C166.487 80.152 167.068 79.96 167.58 79.576C168.092 79.192 168.348 78.7387 168.348 78.216V76.712ZM172.862 81H171.502V72.744H172.862V76.024H176.99V72.744H178.35V81H176.99V77.224H172.862V81ZM181.817 81H180.073V72.744H181.433V79.48H181.465L185.177 72.744H186.921V81H185.561V74.264H185.529L181.817 81ZM195.699 78.392C195.283 80.312 194.083 81.272 192.099 81.272C190.883 81.272 189.929 80.8933 189.235 80.136C188.553 79.3787 188.211 78.328 188.211 76.984C188.211 75.6507 188.563 74.5733 189.267 73.752C189.982 72.92 190.91 72.504 192.051 72.504C193.321 72.504 194.259 72.936 194.867 73.8C195.486 74.6533 195.795 75.736 195.795 77.048V77.24H189.587L189.571 77.336C189.571 78.2107 189.801 78.8987 190.259 79.4C190.718 79.9013 191.347 80.152 192.147 80.152C192.745 80.152 193.214 80.0133 193.555 79.736C193.907 79.4587 194.179 79.0107 194.371 78.392H195.699ZM194.387 76.136C194.323 75.3467 194.083 74.7333 193.667 74.296C193.251 73.848 192.702 73.624 192.019 73.624C191.358 73.624 190.809 73.848 190.371 74.296C189.934 74.744 189.673 75.3573 189.587 76.136H194.387Z" fill="white"/>
<path d="M271.553 69.608L276.001 81H274.321L273.057 77.512H268.273L266.977 81H265.377L269.857 69.608H271.553ZM272.609 76.312L270.673 71.048L268.705 76.312H272.609ZM277.944 81H276.584V72.744H277.944V76.024H282.072V72.744H283.432V81H282.072V77.224H277.944V81ZM292.466 79.912V80.968C292.189 81.0747 291.88 81.128 291.538 81.128C290.76 81.128 290.36 80.7227 290.338 79.912C289.56 80.7867 288.562 81.224 287.346 81.224C286.536 81.224 285.89 81.016 285.41 80.6C284.941 80.184 284.706 79.6133 284.706 78.888C284.706 77.416 285.682 76.5573 287.634 76.312C288.786 76.1733 289.453 76.072 289.634 76.008C290.018 75.88 290.226 75.6133 290.258 75.208C290.269 75.144 290.274 75.0747 290.274 75C290.274 74.0933 289.65 73.64 288.402 73.64C287.762 73.64 287.277 73.7733 286.946 74.04C286.616 74.296 286.418 74.7227 286.354 75.32H285.026C285.048 74.4347 285.362 73.7467 285.97 73.256C286.578 72.7653 287.416 72.52 288.482 72.52C289.645 72.52 290.509 72.7867 291.074 73.32C291.256 73.4907 291.389 73.7147 291.474 73.992C291.56 74.2693 291.608 74.4987 291.618 74.68C291.629 74.8507 291.634 75.112 291.634 75.464C291.634 75.88 291.624 76.4987 291.602 77.32C291.581 78.1307 291.57 78.7387 291.57 79.144C291.57 79.4427 291.608 79.656 291.682 79.784C291.768 79.9013 291.917 79.96 292.13 79.96C292.216 79.96 292.328 79.944 292.466 79.912ZM290.274 76.712C290.178 76.7867 290.077 76.8507 289.97 76.904C289.864 76.9573 289.725 77 289.554 77.032C289.394 77.064 289.282 77.0907 289.218 77.112C289.165 77.1227 289.026 77.144 288.802 77.176C288.578 77.1973 288.461 77.208 288.45 77.208C288.12 77.2507 287.901 77.2827 287.794 77.304C287.698 77.3147 287.506 77.3573 287.218 77.432C286.941 77.5067 286.744 77.592 286.626 77.688C286.509 77.784 286.392 77.928 286.274 78.12C286.168 78.3013 286.114 78.52 286.114 78.776C286.114 79.2027 286.258 79.5387 286.546 79.784C286.845 80.0293 287.25 80.152 287.762 80.152C288.413 80.152 288.994 79.96 289.506 79.576C290.018 79.192 290.274 78.7387 290.274 78.216V76.712ZM300.308 72.744V81H298.948V73.944H296.004L295.892 77.592C295.86 78.8507 295.631 79.7627 295.204 80.328C294.777 80.8933 294.244 81.176 293.604 81.176C293.209 81.176 292.884 81.1173 292.628 81V79.896C292.767 79.9707 293.007 80.008 293.348 80.008C293.668 80.008 293.94 79.8373 294.164 79.496C294.399 79.144 294.527 78.5573 294.548 77.736L294.692 72.744H300.308ZM303.743 81H301.999V72.744H303.359V79.48H303.391L307.103 72.744H308.847V81H307.487V74.264H307.455L303.743 81ZM316.889 73.944H313.929V81H312.569V73.944H309.609V72.744H316.889V73.944ZM319.4 81H317.656V72.744H319.016V79.48H319.048L322.76 72.744H324.504V81H323.144V74.264H323.112L319.4 81ZM332.61 81H331.25V77.352C331.026 77.416 330.632 77.496 330.066 77.592C329.512 77.6773 329.053 77.72 328.69 77.72C327.848 77.72 327.186 77.5227 326.706 77.128C326.237 76.7227 326.002 76.1307 326.002 75.352V72.744H327.362V75.128C327.362 76.088 327.89 76.568 328.946 76.568C329.704 76.568 330.472 76.4453 331.25 76.2V72.744H332.61V81ZM341.4 78.392C340.984 80.312 339.784 81.272 337.8 81.272C336.584 81.272 335.629 80.8933 334.936 80.136C334.253 79.3787 333.912 78.328 333.912 76.984C333.912 75.6507 334.264 74.5733 334.968 73.752C335.682 72.92 336.61 72.504 337.752 72.504C339.021 72.504 339.96 72.936 340.568 73.8C341.186 74.6533 341.496 75.736 341.496 77.048V77.24H335.288L335.272 77.336C335.272 78.2107 335.501 78.8987 335.96 79.4C336.418 79.9013 337.048 80.152 337.848 80.152C338.445 80.152 338.914 80.0133 339.256 79.736C339.608 79.4587 339.88 79.0107 340.072 78.392H341.4ZM340.088 76.136C340.024 75.3467 339.784 74.7333 339.368 74.296C338.952 73.848 338.402 73.624 337.72 73.624C337.058 73.624 336.509 73.848 336.072 74.296C335.634 74.744 335.373 75.3573 335.288 76.136H340.088ZM349.721 77.992C349.604 78.984 349.225 79.7733 348.585 80.36C347.956 80.9467 347.135 81.24 346.121 81.24C344.873 81.24 343.908 80.856 343.225 80.088C342.543 79.3093 342.201 78.2747 342.201 76.984C342.201 75.608 342.559 74.52 343.273 73.72C343.988 72.9093 344.953 72.504 346.169 72.504C347.183 72.504 347.993 72.76 348.601 73.272C349.209 73.7733 349.567 74.4933 349.673 75.432H348.265C348.02 74.2373 347.327 73.64 346.185 73.64C345.396 73.64 344.772 73.9333 344.313 74.52C343.855 75.096 343.625 75.88 343.625 76.872C343.625 77.8747 343.844 78.664 344.281 79.24C344.719 79.816 345.321 80.104 346.089 80.104C346.708 80.104 347.209 79.9227 347.593 79.56C347.988 79.1973 348.239 78.6747 348.345 77.992H349.721ZM358.283 81H356.555L353.547 76.936L352.251 78.2V81H350.891V72.744H352.251V76.68L356.027 72.744H357.851L354.523 75.992L358.283 81ZM366.18 79.912V80.968C365.903 81.0747 365.593 81.128 365.252 81.128C364.473 81.128 364.073 80.7227 364.052 79.912C363.273 80.7867 362.276 81.224 361.06 81.224C360.249 81.224 359.604 81.016 359.124 80.6C358.655 80.184 358.42 79.6133 358.42 78.888C358.42 77.416 359.396 76.5573 361.348 76.312C362.5 76.1733 363.167 76.072 363.348 76.008C363.732 75.88 363.94 75.6133 363.972 75.208C363.983 75.144 363.988 75.0747 363.988 75C363.988 74.0933 363.364 73.64 362.116 73.64C361.476 73.64 360.991 73.7733 360.66 74.04C360.329 74.296 360.132 74.7227 360.068 75.32H358.74C358.761 74.4347 359.076 73.7467 359.684 73.256C360.292 72.7653 361.129 72.52 362.196 72.52C363.359 72.52 364.223 72.7867 364.788 73.32C364.969 73.4907 365.103 73.7147 365.188 73.992C365.273 74.2693 365.321 74.4987 365.332 74.68C365.343 74.8507 365.348 75.112 365.348 75.464C365.348 75.88 365.337 76.4987 365.316 77.32C365.295 78.1307 365.284 78.7387 365.284 79.144C365.284 79.4427 365.321 79.656 365.396 79.784C365.481 79.9013 365.631 79.96 365.844 79.96C365.929 79.96 366.041 79.944 366.18 79.912ZM363.988 76.712C363.892 76.7867 363.791 76.8507 363.684 76.904C363.577 76.9573 363.439 77 363.268 77.032C363.108 77.064 362.996 77.0907 362.932 77.112C362.879 77.1227 362.74 77.144 362.516 77.176C362.292 77.1973 362.175 77.208 362.164 77.208C361.833 77.2507 361.615 77.2827 361.508 77.304C361.412 77.3147 361.22 77.3573 360.932 77.432C360.655 77.5067 360.457 77.592 360.34 77.688C360.223 77.784 360.105 77.928 359.988 78.12C359.881 78.3013 359.828 78.52 359.828 78.776C359.828 79.2027 359.972 79.5387 360.26 79.784C360.559 80.0293 360.964 80.152 361.476 80.152C362.127 80.152 362.708 79.96 363.22 79.576C363.732 79.192 363.988 78.7387 363.988 78.216V76.712ZM373.67 81H372.31V77.624H370.502L367.894 81H366.086L368.934 77.576C368.326 77.48 367.83 77.224 367.446 76.808C367.072 76.3813 366.886 75.8373 366.886 75.176C366.886 74.408 367.115 73.8107 367.574 73.384C368.032 72.9573 368.667 72.744 369.478 72.744H373.67V81ZM372.31 73.944H369.91C368.822 73.944 368.278 74.3547 368.278 75.176C368.278 76.008 368.822 76.424 369.91 76.424H372.31V73.944ZM380.829 72.744V73.912C381.426 72.9627 382.354 72.488 383.613 72.488C384.765 72.488 385.677 72.8773 386.349 73.656C387.031 74.4347 387.373 75.4907 387.373 76.824C387.373 78.1573 387.037 79.224 386.365 80.024C385.703 80.8133 384.807 81.208 383.677 81.208C382.493 81.208 381.57 80.7547 380.909 79.848V84.184H379.549V72.744H380.829ZM383.405 73.624C382.615 73.624 381.991 73.912 381.533 74.488C381.085 75.0533 380.861 75.8373 380.861 76.84C380.861 77.8427 381.09 78.632 381.549 79.208C382.018 79.7733 382.653 80.056 383.453 80.056C384.231 80.056 384.845 79.768 385.293 79.192C385.741 78.616 385.965 77.832 385.965 76.84C385.965 75.8373 385.735 75.0533 385.277 74.488C384.829 73.912 384.205 73.624 383.405 73.624ZM396.025 79.912V80.968C395.748 81.0747 395.438 81.128 395.097 81.128C394.318 81.128 393.918 80.7227 393.897 79.912C393.118 80.7867 392.121 81.224 390.905 81.224C390.094 81.224 389.449 81.016 388.969 80.6C388.5 80.184 388.265 79.6133 388.265 78.888C388.265 77.416 389.241 76.5573 391.193 76.312C392.345 76.1733 393.012 76.072 393.193 76.008C393.577 75.88 393.785 75.6133 393.817 75.208C393.828 75.144 393.833 75.0747 393.833 75C393.833 74.0933 393.209 73.64 391.961 73.64C391.321 73.64 390.836 73.7733 390.505 74.04C390.174 74.296 389.977 74.7227 389.913 75.32H388.585C388.606 74.4347 388.921 73.7467 389.529 73.256C390.137 72.7653 390.974 72.52 392.041 72.52C393.204 72.52 394.068 72.7867 394.633 73.32C394.814 73.4907 394.948 73.7147 395.033 73.992C395.118 74.2693 395.166 74.4987 395.177 74.68C395.188 74.8507 395.193 75.112 395.193 75.464C395.193 75.88 395.182 76.4987 395.161 77.32C395.14 78.1307 395.129 78.7387 395.129 79.144C395.129 79.4427 395.166 79.656 395.241 79.784C395.326 79.9013 395.476 79.96 395.689 79.96C395.774 79.96 395.886 79.944 396.025 79.912ZM393.833 76.712C393.737 76.7867 393.636 76.8507 393.529 76.904C393.422 76.9573 393.284 77 393.113 77.032C392.953 77.064 392.841 77.0907 392.777 77.112C392.724 77.1227 392.585 77.144 392.361 77.176C392.137 77.1973 392.02 77.208 392.009 77.208C391.678 77.2507 391.46 77.2827 391.353 77.304C391.257 77.3147 391.065 77.3573 390.777 77.432C390.5 77.5067 390.302 77.592 390.185 77.688C390.068 77.784 389.95 77.928 389.833 78.12C389.726 78.3013 389.673 78.52 389.673 78.776C389.673 79.2027 389.817 79.5387 390.105 79.784C390.404 80.0293 390.809 80.152 391.321 80.152C391.972 80.152 392.553 79.96 393.065 79.576C393.577 79.192 393.833 78.7387 393.833 78.216V76.712ZM397.755 71.592C398.117 71.0267 398.555 70.6107 399.067 70.344C399.579 70.0667 400.229 69.9013 401.019 69.848C401.904 69.784 402.443 69.6987 402.635 69.592C402.763 69.528 402.859 69.4427 402.923 69.336H404.283C404.251 69.5067 404.203 69.6613 404.139 69.8C404.085 69.9387 404.021 70.0613 403.947 70.168C403.883 70.264 403.787 70.3547 403.659 70.44C403.541 70.5253 403.44 70.6 403.355 70.664C403.269 70.7173 403.141 70.7707 402.971 70.824C402.811 70.8667 402.683 70.904 402.587 70.936C402.491 70.9573 402.341 70.9787 402.139 71C401.947 71.0213 401.808 71.0373 401.723 71.048C401.637 71.0587 401.483 71.0693 401.259 71.08C401.035 71.0907 400.891 71.1013 400.827 71.112C399.952 71.176 399.269 71.5173 398.779 72.136C398.288 72.744 397.979 73.56 397.851 74.584H397.899C398.133 74.0187 398.507 73.5653 399.019 73.224C399.531 72.8827 400.123 72.712 400.795 72.712C401.968 72.712 402.885 73.0853 403.547 73.832C404.219 74.568 404.555 75.6027 404.555 76.936C404.555 78.312 404.213 79.3787 403.531 80.136C402.859 80.8933 401.909 81.272 400.683 81.272C399.68 81.272 398.832 80.9787 398.139 80.392C397.445 79.7947 397.019 78.9413 396.859 77.832C396.795 77.384 396.763 76.8827 396.763 76.328C396.763 74.184 397.093 72.6053 397.755 71.592ZM398.155 76.984C398.155 77.9227 398.379 78.68 398.827 79.256C399.285 79.832 399.909 80.12 400.699 80.12C401.467 80.12 402.069 79.8427 402.507 79.288C402.944 78.7333 403.163 77.96 403.163 76.968C403.163 75.9973 402.939 75.2347 402.491 74.68C402.043 74.1253 401.435 73.848 400.667 73.848C399.899 73.848 399.285 74.1307 398.827 74.696C398.379 75.2507 398.155 76.0133 398.155 76.984ZM406.51 73.688C407.236 72.8987 408.222 72.504 409.47 72.504C410.718 72.504 411.689 72.8827 412.382 73.64C413.076 74.3973 413.422 75.4587 413.422 76.824C413.422 78.2213 413.076 79.3093 412.382 80.088C411.689 80.8667 410.713 81.256 409.454 81.256C408.196 81.256 407.209 80.872 406.494 80.104C405.78 79.336 405.422 78.2693 405.422 76.904C405.422 75.5493 405.785 74.4773 406.51 73.688ZM411.326 74.52C410.868 73.9333 410.238 73.64 409.438 73.64C408.638 73.64 408.004 73.9333 407.534 74.52C407.065 75.1067 406.83 75.8907 406.83 76.872C406.83 77.8853 407.06 78.68 407.518 79.256C407.988 79.8213 408.638 80.104 409.47 80.104C410.27 80.104 410.894 79.816 411.342 79.24C411.801 78.664 412.03 77.8693 412.03 76.856C412.03 75.8747 411.796 75.096 411.326 74.52ZM420.761 73.944H417.801V81H416.441V73.944H413.481V72.744H420.761V73.944ZM428.558 79.912V80.968C428.28 81.0747 427.971 81.128 427.63 81.128C426.851 81.128 426.451 80.7227 426.43 79.912C425.651 80.7867 424.654 81.224 423.438 81.224C422.627 81.224 421.982 81.016 421.502 80.6C421.032 80.184 420.798 79.6133 420.798 78.888C420.798 77.416 421.774 76.5573 423.726 76.312C424.878 76.1733 425.544 76.072 425.726 76.008C426.11 75.88 426.318 75.6133 426.35 75.208C426.36 75.144 426.366 75.0747 426.366 75C426.366 74.0933 425.742 73.64 424.494 73.64C423.854 73.64 423.368 73.7733 423.038 74.04C422.707 74.296 422.51 74.7227 422.446 75.32H421.118C421.139 74.4347 421.454 73.7467 422.062 73.256C422.67 72.7653 423.507 72.52 424.574 72.52C425.736 72.52 426.6 72.7867 427.166 73.32C427.347 73.4907 427.48 73.7147 427.566 73.992C427.651 74.2693 427.699 74.4987 427.71 74.68C427.72 74.8507 427.726 75.112 427.726 75.464C427.726 75.88 427.715 76.4987 427.694 77.32C427.672 78.1307 427.662 78.7387 427.662 79.144C427.662 79.4427 427.699 79.656 427.774 79.784C427.859 79.9013 428.008 79.96 428.222 79.96C428.307 79.96 428.419 79.944 428.558 79.912ZM426.366 76.712C426.27 76.7867 426.168 76.8507 426.062 76.904C425.955 76.9573 425.816 77 425.646 77.032C425.486 77.064 425.374 77.0907 425.31 77.112C425.256 77.1227 425.118 77.144 424.894 77.176C424.67 77.1973 424.552 77.208 424.542 77.208C424.211 77.2507 423.992 77.2827 423.886 77.304C423.79 77.3147 423.598 77.3573 423.31 77.432C423.032 77.5067 422.835 77.592 422.718 77.688C422.6 77.784 422.483 77.928 422.366 78.12C422.259 78.3013 422.206 78.52 422.206 78.776C422.206 79.2027 422.35 79.5387 422.638 79.784C422.936 80.0293 423.342 80.152 423.854 80.152C424.504 80.152 425.086 79.96 425.598 79.576C426.11 79.192 426.366 78.7387 426.366 78.216V76.712Z" fill="white"/>
<path d="M547.845 69.608V81H546.341V70.92H540.325V81H538.821V69.608H547.845ZM550.464 73.688C551.189 72.8987 552.176 72.504 553.424 72.504C554.672 72.504 555.643 72.8827 556.336 73.64C557.029 74.3973 557.376 75.4587 557.376 76.824C557.376 78.2213 557.029 79.3093 556.336 80.088C555.643 80.8667 554.667 81.256 553.408 81.256C552.149 81.256 551.163 80.872 550.448 80.104C549.733 79.336 549.376 78.2693 549.376 76.904C549.376 75.5493 549.739 74.4773 550.464 73.688ZM555.28 74.52C554.821 73.9333 554.192 73.64 553.392 73.64C552.592 73.64 551.957 73.9333 551.488 74.52C551.019 75.1067 550.784 75.8907 550.784 76.872C550.784 77.8853 551.013 78.68 551.472 79.256C551.941 79.8213 552.592 80.104 553.424 80.104C554.224 80.104 554.848 79.816 555.296 79.24C555.755 78.664 555.984 77.8693 555.984 76.856C555.984 75.8747 555.749 75.096 555.28 74.52ZM566.394 83.624H565.098V81H558.794V83.624H557.498V79.8H558.394C558.65 79.3093 558.885 78.552 559.098 77.528C559.322 76.4933 559.434 75.4853 559.434 74.504V72.744H565.322V79.8H566.394V83.624ZM563.962 79.8V73.944H560.762V74.632C560.762 75.6027 560.661 76.5893 560.458 77.592C560.266 78.584 560.048 79.32 559.802 79.8H563.962ZM572.958 73.944H568.654V81H567.294V72.744H572.958V73.944ZM573.926 73.688C574.651 72.8987 575.638 72.504 576.886 72.504C578.134 72.504 579.105 72.8827 579.798 73.64C580.491 74.3973 580.838 75.4587 580.838 76.824C580.838 78.2213 580.491 79.3093 579.798 80.088C579.105 80.8667 578.129 81.256 576.87 81.256C575.611 81.256 574.625 80.872 573.91 80.104C573.195 79.336 572.838 78.2693 572.838 76.904C572.838 75.5493 573.201 74.4773 573.926 73.688ZM578.742 74.52C578.283 73.9333 577.654 73.64 576.854 73.64C576.054 73.64 575.419 73.9333 574.95 74.52C574.481 75.1067 574.246 75.8907 574.246 76.872C574.246 77.8853 574.475 78.68 574.934 79.256C575.403 79.8213 576.054 80.104 576.886 80.104C577.686 80.104 578.31 79.816 578.758 79.24C579.217 78.664 579.446 77.8693 579.446 76.856C579.446 75.8747 579.211 75.096 578.742 74.52ZM588.176 73.944H585.216V81H583.856V73.944H580.896V72.744H588.176V73.944ZM588.91 81V72.744H592.734C593.278 72.744 593.742 72.792 594.126 72.888C594.51 72.9733 594.846 73.1707 595.134 73.48C595.422 73.7893 595.566 74.2107 595.566 74.744C595.566 75.5547 595.161 76.1467 594.35 76.52V76.536C594.841 76.632 595.225 76.8613 595.502 77.224C595.78 77.576 595.918 78.024 595.918 78.568C595.918 79.272 595.684 79.8533 595.214 80.312C594.745 80.7707 594.142 81 593.406 81H588.91ZM592.59 76.072C593.156 76.072 593.556 75.9813 593.79 75.8C594.036 75.608 594.158 75.3307 594.158 74.968C594.158 74.6053 594.041 74.3387 593.806 74.168C593.572 73.9973 593.166 73.912 592.59 73.912H590.238V76.072H592.59ZM590.238 77.224V79.832H593.15C593.577 79.832 593.908 79.704 594.142 79.448C594.388 79.192 594.51 78.8613 594.51 78.456C594.51 77.6347 593.977 77.224 592.91 77.224H590.238ZM604.608 81H602.88L599.872 76.936L598.576 78.2V81H597.216V72.744H598.576V76.68L602.352 72.744H604.176L600.848 75.992L604.608 81ZM612.505 79.912V80.968C612.228 81.0747 611.918 81.128 611.577 81.128C610.798 81.128 610.398 80.7227 610.377 79.912C609.598 80.7867 608.601 81.224 607.385 81.224C606.574 81.224 605.929 81.016 605.449 80.6C604.98 80.184 604.745 79.6133 604.745 78.888C604.745 77.416 605.721 76.5573 607.673 76.312C608.825 76.1733 609.492 76.072 609.673 76.008C610.057 75.88 610.265 75.6133 610.297 75.208C610.308 75.144 610.313 75.0747 610.313 75C610.313 74.0933 609.689 73.64 608.441 73.64C607.801 73.64 607.316 73.7733 606.985 74.04C606.654 74.296 606.457 74.7227 606.393 75.32H605.065C605.086 74.4347 605.401 73.7467 606.009 73.256C606.617 72.7653 607.454 72.52 608.521 72.52C609.684 72.52 610.548 72.7867 611.113 73.32C611.294 73.4907 611.428 73.7147 611.513 73.992C611.598 74.2693 611.646 74.4987 611.657 74.68C611.668 74.8507 611.673 75.112 611.673 75.464C611.673 75.88 611.662 76.4987 611.641 77.32C611.62 78.1307 611.609 78.7387 611.609 79.144C611.609 79.4427 611.646 79.656 611.721 79.784C611.806 79.9013 611.956 79.96 612.169 79.96C612.254 79.96 612.366 79.944 612.505 79.912ZM610.313 76.712C610.217 76.7867 610.116 76.8507 610.009 76.904C609.902 76.9573 609.764 77 609.593 77.032C609.433 77.064 609.321 77.0907 609.257 77.112C609.204 77.1227 609.065 77.144 608.841 77.176C608.617 77.1973 608.5 77.208 608.489 77.208C608.158 77.2507 607.94 77.2827 607.833 77.304C607.737 77.3147 607.545 77.3573 607.257 77.432C606.98 77.5067 606.782 77.592 606.665 77.688C606.548 77.784 606.43 77.928 606.313 78.12C606.206 78.3013 606.153 78.52 606.153 78.776C606.153 79.2027 606.297 79.5387 606.585 79.784C606.884 80.0293 607.289 80.152 607.801 80.152C608.452 80.152 609.033 79.96 609.545 79.576C610.057 79.192 610.313 78.7387 610.313 78.216V76.712ZM540.277 101H538.917V92.744H545.765V101H544.405V93.944H540.277V101ZM548.768 92.744V93.912C549.365 92.9627 550.293 92.488 551.552 92.488C552.704 92.488 553.616 92.8773 554.288 93.656C554.97 94.4347 555.312 95.4907 555.312 96.824C555.312 98.1573 554.976 99.224 554.304 100.024C553.642 100.813 552.746 101.208 551.616 101.208C550.432 101.208 549.509 100.755 548.848 99.848V104.184H547.488V92.744H548.768ZM551.344 93.624C550.554 93.624 549.93 93.912 549.472 94.488C549.024 95.0533 548.8 95.8373 548.8 96.84C548.8 97.8427 549.029 98.632 549.488 99.208C549.957 99.7733 550.592 100.056 551.392 100.056C552.17 100.056 552.784 99.768 553.232 99.192C553.68 98.616 553.904 97.832 553.904 96.84C553.904 95.8373 553.674 95.0533 553.216 94.488C552.768 93.912 552.144 93.624 551.344 93.624ZM557.308 93.688C558.033 92.8987 559.02 92.504 560.268 92.504C561.516 92.504 562.487 92.8827 563.18 93.64C563.873 94.3973 564.22 95.4587 564.22 96.824C564.22 98.2213 563.873 99.3093 563.18 100.088C562.487 100.867 561.511 101.256 560.252 101.256C558.993 101.256 558.007 100.872 557.292 100.104C556.577 99.336 556.22 98.2693 556.22 96.904C556.22 95.5493 556.583 94.4773 557.308 93.688ZM562.124 94.52C561.665 93.9333 561.036 93.64 560.236 93.64C559.436 93.64 558.801 93.9333 558.332 94.52C557.863 95.1067 557.628 95.8907 557.628 96.872C557.628 97.8853 557.857 98.68 558.316 99.256C558.785 99.8213 559.436 100.104 560.268 100.104C561.068 100.104 561.692 99.816 562.14 99.24C562.599 98.664 562.828 97.8693 562.828 96.856C562.828 95.8747 562.593 95.096 562.124 94.52ZM571.558 93.944H568.598V101H567.238V93.944H564.278V92.744H571.558V93.944ZM572.699 93.688C573.425 92.8987 574.411 92.504 575.659 92.504C576.907 92.504 577.878 92.8827 578.571 93.64C579.265 94.3973 579.611 95.4587 579.611 96.824C579.611 98.2213 579.265 99.3093 578.571 100.088C577.878 100.867 576.902 101.256 575.643 101.256C574.385 101.256 573.398 100.872 572.683 100.104C571.969 99.336 571.611 98.2693 571.611 96.904C571.611 95.5493 571.974 94.4773 572.699 93.688ZM577.515 94.52C577.057 93.9333 576.427 93.64 575.627 93.64C574.827 93.64 574.193 93.9333 573.723 94.52C573.254 95.1067 573.019 95.8907 573.019 96.872C573.019 97.8853 573.249 98.68 573.707 99.256C574.177 99.8213 574.827 100.104 575.659 100.104C576.459 100.104 577.083 99.816 577.531 99.24C577.99 98.664 578.219 97.8693 578.219 96.856C578.219 95.8747 577.985 95.096 577.515 94.52ZM586.95 93.944H583.99V101H582.63V93.944H579.67V92.744H586.95V93.944ZM589.46 101H587.716V92.744H589.076V99.48H589.108L592.82 92.744H594.564V101H593.204V94.264H593.172L589.46 101ZM597.646 101H596.286V92.744H603.134V101H601.774V93.944H597.646V101ZM612.169 99.912V100.968C611.892 101.075 611.582 101.128 611.241 101.128C610.462 101.128 610.062 100.723 610.041 99.912C609.262 100.787 608.265 101.224 607.049 101.224C606.238 101.224 605.593 101.016 605.113 100.6C604.644 100.184 604.409 99.6133 604.409 98.888C604.409 97.416 605.385 96.5573 607.337 96.312C608.489 96.1733 609.156 96.072 609.337 96.008C609.721 95.88 609.929 95.6133 609.961 95.208C609.972 95.144 609.977 95.0747 609.977 95C609.977 94.0933 609.353 93.64 608.105 93.64C607.465 93.64 606.98 93.7733 606.649 94.04C606.318 94.296 606.121 94.7227 606.057 95.32H604.729C604.75 94.4347 605.065 93.7467 605.673 93.256C606.281 92.7653 607.118 92.52 608.185 92.52C609.348 92.52 610.212 92.7867 610.777 93.32C610.958 93.4907 611.092 93.7147 611.177 93.992C611.262 94.2693 611.31 94.4987 611.321 94.68C611.332 94.8507 611.337 95.112 611.337 95.464C611.337 95.88 611.326 96.4987 611.305 97.32C611.284 98.1307 611.273 98.7387 611.273 99.144C611.273 99.4427 611.31 99.656 611.385 99.784C611.47 99.9013 611.62 99.96 611.833 99.96C611.918 99.96 612.03 99.944 612.169 99.912ZM609.977 96.712C609.881 96.7867 609.78 96.8507 609.673 96.904C609.566 96.9573 609.428 97 609.257 97.032C609.097 97.064 608.985 97.0907 608.921 97.112C608.868 97.1227 608.729 97.144 608.505 97.176C608.281 97.1973 608.164 97.208 608.153 97.208C607.822 97.2507 607.604 97.2827 607.497 97.304C607.401 97.3147 607.209 97.3573 606.921 97.432C606.644 97.5067 606.446 97.592 606.329 97.688C606.212 97.784 606.094 97.928 605.977 98.12C605.87 98.3013 605.817 98.52 605.817 98.776C605.817 99.2027 605.961 99.5387 606.249 99.784C606.548 100.029 606.953 100.152 607.465 100.152C608.116 100.152 608.697 99.96 609.209 99.576C609.721 99.192 609.977 98.7387 609.977 98.216V96.712Z" fill="white"/>
<path d="M540.316 303.608L535.516 308.184L540.508 315H538.588L534.46 309.208L532.572 311V315H531.068V303.608H532.572V309.256L538.348 303.608H540.316ZM541.836 307.688C542.562 306.899 543.548 306.504 544.796 306.504C546.044 306.504 547.015 306.883 547.708 307.64C548.402 308.397 548.748 309.459 548.748 310.824C548.748 312.221 548.402 313.309 547.708 314.088C547.015 314.867 546.039 315.256 544.78 315.256C543.522 315.256 542.535 314.872 541.82 314.104C541.106 313.336 540.748 312.269 540.748 310.904C540.748 309.549 541.111 308.477 541.836 307.688ZM546.652 308.52C546.194 307.933 545.564 307.64 544.764 307.64C543.964 307.64 543.33 307.933 542.86 308.52C542.391 309.107 542.156 309.891 542.156 310.872C542.156 311.885 542.386 312.68 542.844 313.256C543.314 313.821 543.964 314.104 544.796 314.104C545.596 314.104 546.22 313.816 546.668 313.24C547.127 312.664 547.356 311.869 547.356 310.856C547.356 309.875 547.122 309.096 546.652 308.52ZM551.408 315H550.048V306.744H556.896V315H555.536V307.944H551.408V315ZM560.362 315H558.618V306.744H559.978V313.48H560.01L563.722 306.744H565.466V315H564.106V308.264H564.074L560.362 315ZM568.469 306.744V307.912C569.066 306.963 569.994 306.488 571.253 306.488C572.405 306.488 573.317 306.877 573.989 307.656C574.672 308.435 575.013 309.491 575.013 310.824C575.013 312.157 574.677 313.224 574.005 314.024C573.344 314.813 572.448 315.208 571.317 315.208C570.133 315.208 569.21 314.755 568.549 313.848V318.184H567.189V306.744H568.469ZM571.045 307.624C570.256 307.624 569.632 307.912 569.173 308.488C568.725 309.053 568.501 309.837 568.501 310.84C568.501 311.843 568.73 312.632 569.189 313.208C569.658 313.773 570.293 314.056 571.093 314.056C571.872 314.056 572.485 313.768 572.933 313.192C573.381 312.616 573.605 311.832 573.605 310.84C573.605 309.837 573.376 309.053 572.917 308.488C572.469 307.912 571.845 307.624 571.045 307.624ZM583.665 313.912V314.968C583.388 315.075 583.079 315.128 582.737 315.128C581.959 315.128 581.559 314.723 581.537 313.912C580.759 314.787 579.761 315.224 578.545 315.224C577.735 315.224 577.089 315.016 576.609 314.6C576.14 314.184 575.905 313.613 575.905 312.888C575.905 311.416 576.881 310.557 578.833 310.312C579.985 310.173 580.652 310.072 580.833 310.008C581.217 309.88 581.425 309.613 581.457 309.208C581.468 309.144 581.473 309.075 581.473 309C581.473 308.093 580.849 307.64 579.601 307.64C578.961 307.64 578.476 307.773 578.145 308.04C577.815 308.296 577.617 308.723 577.553 309.32H576.225C576.247 308.435 576.561 307.747 577.169 307.256C577.777 306.765 578.615 306.52 579.681 306.52C580.844 306.52 581.708 306.787 582.273 307.32C582.455 307.491 582.588 307.715 582.673 307.992C582.759 308.269 582.807 308.499 582.817 308.68C582.828 308.851 582.833 309.112 582.833 309.464C582.833 309.88 582.823 310.499 582.801 311.32C582.78 312.131 582.769 312.739 582.769 313.144C582.769 313.443 582.807 313.656 582.881 313.784C582.967 313.901 583.116 313.96 583.329 313.96C583.415 313.96 583.527 313.944 583.665 313.912ZM581.473 310.712C581.377 310.787 581.276 310.851 581.169 310.904C581.063 310.957 580.924 311 580.753 311.032C580.593 311.064 580.481 311.091 580.417 311.112C580.364 311.123 580.225 311.144 580.001 311.176C579.777 311.197 579.66 311.208 579.649 311.208C579.319 311.251 579.1 311.283 578.993 311.304C578.897 311.315 578.705 311.357 578.417 311.432C578.14 311.507 577.943 311.592 577.825 311.688C577.708 311.784 577.591 311.928 577.473 312.12C577.367 312.301 577.313 312.52 577.313 312.776C577.313 313.203 577.457 313.539 577.745 313.784C578.044 314.029 578.449 314.152 578.961 314.152C579.612 314.152 580.193 313.96 580.705 313.576C581.217 313.192 581.473 312.739 581.473 312.216V310.712ZM590.467 303.608C590.361 304.28 590.099 304.819 589.683 305.224C589.278 305.619 588.739 305.816 588.067 305.816C587.417 305.816 586.867 305.613 586.419 305.208C585.982 304.792 585.721 304.259 585.635 303.608H586.451C586.697 304.44 587.23 304.856 588.051 304.856C588.841 304.856 589.374 304.44 589.651 303.608H590.467ZM586.371 315H584.627V306.744H585.987V313.48H586.019L589.731 306.744H591.475V315H590.115V308.264H590.083L586.371 315ZM599.518 307.944H596.558V315H595.198V307.944H592.238V306.744H599.518V307.944ZM602.028 315H600.284V306.744H601.644V313.48H601.676L605.388 306.744H607.132V315H605.772V308.264H605.74L602.028 315ZM610.215 315H608.855V306.744H610.215V310.024H614.343V306.744H615.703V315H614.343V311.224H610.215V315ZM623.121 307.944H618.817V315H617.457V306.744H623.121V307.944Z" fill="white"/>
<path d="M334.443 317.832H332.987V315H324.747V317.832H323.291V313.688H324.411C324.848 312.909 325.206 311.795 325.483 310.344C325.76 308.883 325.899 307.373 325.899 305.816V303.608H333.179V313.688H334.443V317.832ZM331.675 313.688V304.92H327.371V306.472C327.371 307.848 327.243 309.213 326.987 310.568C326.742 311.912 326.438 312.952 326.075 313.688H331.675ZM337.142 315H335.398V306.744H336.758V313.48H336.79L340.502 306.744H342.246V315H340.886V308.264H340.854L337.142 315ZM343.504 309.128C343.568 308.189 343.926 307.517 344.576 307.112C345.227 306.707 346.032 306.504 346.992 306.504C347.899 306.504 348.64 306.691 349.216 307.064C349.803 307.437 350.096 307.992 350.096 308.728C350.096 309.176 349.963 309.56 349.696 309.88C349.44 310.2 349.131 310.397 348.768 310.472V310.504C349.206 310.589 349.579 310.808 349.888 311.16C350.208 311.501 350.368 311.965 350.368 312.552C350.368 313.405 350.032 314.072 349.36 314.552C348.688 315.021 347.883 315.256 346.944 315.256C345.867 315.256 345.008 315.011 344.368 314.52C343.739 314.019 343.403 313.32 343.36 312.424H344.736C344.779 313 344.998 313.432 345.392 313.72C345.787 314.008 346.299 314.152 346.928 314.152C347.558 314.152 348.054 314.003 348.416 313.704C348.779 313.395 348.96 313.021 348.96 312.584C348.96 311.688 348.374 311.24 347.2 311.24H346.064V310.136H346.976C347.499 310.136 347.92 310.029 348.24 309.816C348.56 309.592 348.72 309.251 348.72 308.792C348.72 308.472 348.56 308.195 348.24 307.96C347.931 307.725 347.51 307.608 346.976 307.608C346.432 307.608 345.958 307.731 345.552 307.976C345.158 308.221 344.934 308.605 344.88 309.128H343.504ZM358.96 313.912V314.968C358.683 315.075 358.374 315.128 358.032 315.128C357.254 315.128 356.854 314.723 356.832 313.912C356.054 314.787 355.056 315.224 353.84 315.224C353.03 315.224 352.384 315.016 351.904 314.6C351.435 314.184 351.2 313.613 351.2 312.888C351.2 311.416 352.176 310.557 354.128 310.312C355.28 310.173 355.947 310.072 356.128 310.008C356.512 309.88 356.72 309.613 356.752 309.208C356.763 309.144 356.768 309.075 356.768 309C356.768 308.093 356.144 307.64 354.896 307.64C354.256 307.64 353.771 307.773 353.44 308.04C353.11 308.296 352.912 308.723 352.848 309.32H351.52C351.542 308.435 351.856 307.747 352.464 307.256C353.072 306.765 353.91 306.52 354.976 306.52C356.139 306.52 357.003 306.787 357.568 307.32C357.75 307.491 357.883 307.715 357.968 307.992C358.054 308.269 358.102 308.499 358.112 308.68C358.123 308.851 358.128 309.112 358.128 309.464C358.128 309.88 358.118 310.499 358.096 311.32C358.075 312.131 358.064 312.739 358.064 313.144C358.064 313.443 358.102 313.656 358.176 313.784C358.262 313.901 358.411 313.96 358.624 313.96C358.71 313.96 358.822 313.944 358.96 313.912ZM356.768 310.712C356.672 310.787 356.571 310.851 356.464 310.904C356.358 310.957 356.219 311 356.048 311.032C355.888 311.064 355.776 311.091 355.712 311.112C355.659 311.123 355.52 311.144 355.296 311.176C355.072 311.197 354.955 311.208 354.944 311.208C354.614 311.251 354.395 311.283 354.288 311.304C354.192 311.315 354 311.357 353.712 311.432C353.435 311.507 353.238 311.592 353.12 311.688C353.003 311.784 352.886 311.928 352.768 312.12C352.662 312.301 352.608 312.52 352.608 312.776C352.608 313.203 352.752 313.539 353.04 313.784C353.339 314.029 353.744 314.152 354.256 314.152C354.907 314.152 355.488 313.96 356 313.576C356.512 313.192 356.768 312.739 356.768 312.216V310.712ZM365.762 303.608C365.655 304.28 365.394 304.819 364.978 305.224C364.573 305.619 364.034 305.816 363.362 305.816C362.711 305.816 362.162 305.613 361.714 305.208C361.277 304.792 361.015 304.259 360.93 303.608H361.746C361.991 304.44 362.525 304.856 363.346 304.856C364.135 304.856 364.669 304.44 364.946 303.608H365.762ZM361.666 315H359.922V306.744H361.282V313.48H361.314L365.026 306.744H366.77V315H365.41V308.264H365.378L361.666 315ZM369.853 315H368.493V306.744H369.853V310.024H373.981V306.744H375.341V315H373.981V311.224H369.853V315Z" fill="white"/>
<path d="M96.0766 303.608H100.941C101.986 303.608 102.85 303.837 103.533 304.296C104.226 304.755 104.573 305.475 104.573 306.456C104.573 307.021 104.418 307.528 104.109 307.976C103.81 308.413 103.405 308.723 102.893 308.904C103.597 309.064 104.135 309.395 104.509 309.896C104.893 310.397 105.085 311.027 105.085 311.784C105.085 313.928 103.645 315 100.765 315H96.0766V303.608ZM97.5486 304.888V308.488H100.253C100.562 308.488 100.823 308.483 101.037 308.472C101.261 308.451 101.511 308.408 101.789 308.344C102.066 308.28 102.285 308.189 102.445 308.072C102.615 307.944 102.759 307.763 102.877 307.528C103.005 307.293 103.069 307.011 103.069 306.68C103.069 306.349 103.015 306.072 102.909 305.848C102.802 305.613 102.674 305.437 102.525 305.32C102.375 305.192 102.167 305.096 101.901 305.032C101.645 304.968 101.41 304.931 101.197 304.92C100.994 304.899 100.727 304.888 100.397 304.888H97.5486ZM97.5486 309.672V313.736H100.557C100.93 313.736 101.234 313.731 101.469 313.72C101.703 313.699 101.965 313.651 102.253 313.576C102.551 313.501 102.786 313.395 102.957 313.256C103.127 313.107 103.271 312.899 103.389 312.632C103.506 312.355 103.565 312.024 103.565 311.64C103.565 311.32 103.522 311.043 103.437 310.808C103.362 310.573 103.229 310.387 103.037 310.248C102.855 310.109 102.679 309.997 102.509 309.912C102.349 309.827 102.114 309.768 101.805 309.736C101.495 309.704 101.255 309.688 101.085 309.688C100.914 309.677 100.653 309.672 100.301 309.672H97.5486ZM113.526 312.392C113.11 314.312 111.91 315.272 109.926 315.272C108.71 315.272 107.755 314.893 107.062 314.136C106.379 313.379 106.038 312.328 106.038 310.984C106.038 309.651 106.39 308.573 107.094 307.752C107.808 306.92 108.736 306.504 109.878 306.504C111.147 306.504 112.086 306.936 112.694 307.8C113.312 308.653 113.622 309.736 113.622 311.048V311.24H107.414L107.398 311.336C107.398 312.211 107.627 312.899 108.086 313.4C108.544 313.901 109.174 314.152 109.974 314.152C110.571 314.152 111.04 314.013 111.382 313.736C111.734 313.459 112.006 313.011 112.198 312.392H113.526ZM112.214 310.136C112.15 309.347 111.91 308.733 111.494 308.296C111.078 307.848 110.528 307.624 109.846 307.624C109.184 307.624 108.635 307.848 108.198 308.296C107.76 308.744 107.499 309.357 107.414 310.136H112.214ZM116.023 306.744V307.912C116.621 306.963 117.549 306.488 118.807 306.488C119.959 306.488 120.871 306.877 121.543 307.656C122.226 308.435 122.567 309.491 122.567 310.824C122.567 312.157 122.231 313.224 121.559 314.024C120.898 314.813 120.002 315.208 118.871 315.208C117.687 315.208 116.765 314.755 116.103 313.848V318.184H114.743V306.744H116.023ZM118.599 307.624C117.81 307.624 117.186 307.912 116.727 308.488C116.279 309.053 116.055 309.837 116.055 310.84C116.055 311.843 116.285 312.632 116.743 313.208C117.213 313.773 117.847 314.056 118.647 314.056C119.426 314.056 120.039 313.768 120.487 313.192C120.935 312.616 121.159 311.832 121.159 310.84C121.159 309.837 120.93 309.053 120.471 308.488C120.023 307.912 119.399 307.624 118.599 307.624ZM131.012 311.992C130.895 312.984 130.516 313.773 129.876 314.36C129.247 314.947 128.425 315.24 127.412 315.24C126.164 315.24 125.199 314.856 124.516 314.088C123.833 313.309 123.492 312.275 123.492 310.984C123.492 309.608 123.849 308.52 124.564 307.72C125.279 306.909 126.244 306.504 127.46 306.504C128.473 306.504 129.284 306.76 129.892 307.272C130.5 307.773 130.857 308.493 130.964 309.432H129.556C129.311 308.237 128.617 307.64 127.476 307.64C126.687 307.64 126.063 307.933 125.604 308.52C125.145 309.096 124.916 309.88 124.916 310.872C124.916 311.875 125.135 312.664 125.572 313.24C126.009 313.816 126.612 314.104 127.38 314.104C127.999 314.104 128.5 313.923 128.884 313.56C129.279 313.197 129.529 312.675 129.636 311.992H131.012ZM138.502 307.944H135.542V315H134.182V307.944H131.222V306.744H138.502V307.944ZM146.66 315H144.932L141.924 310.936L140.628 312.2V315H139.268V306.744H140.628V310.68L144.404 306.744H146.228L142.9 309.992L146.66 315ZM154.557 313.912V314.968C154.279 315.075 153.97 315.128 153.629 315.128C152.85 315.128 152.45 314.723 152.429 313.912C151.65 314.787 150.653 315.224 149.437 315.224C148.626 315.224 147.981 315.016 147.501 314.6C147.031 314.184 146.797 313.613 146.797 312.888C146.797 311.416 147.773 310.557 149.725 310.312C150.877 310.173 151.543 310.072 151.725 310.008C152.109 309.88 152.317 309.613 152.349 309.208C152.359 309.144 152.365 309.075 152.365 309C152.365 308.093 151.741 307.64 150.493 307.64C149.853 307.64 149.367 307.773 149.037 308.04C148.706 308.296 148.509 308.723 148.445 309.32H147.117C147.138 308.435 147.453 307.747 148.061 307.256C148.669 306.765 149.506 306.52 150.573 306.52C151.735 306.52 152.599 306.787 153.165 307.32C153.346 307.491 153.479 307.715 153.565 307.992C153.65 308.269 153.698 308.499 153.709 308.68C153.719 308.851 153.725 309.112 153.725 309.464C153.725 309.88 153.714 310.499 153.693 311.32C153.671 312.131 153.661 312.739 153.661 313.144C153.661 313.443 153.698 313.656 153.773 313.784C153.858 313.901 154.007 313.96 154.221 313.96C154.306 313.96 154.418 313.944 154.557 313.912ZM152.365 310.712C152.269 310.787 152.167 310.851 152.061 310.904C151.954 310.957 151.815 311 151.645 311.032C151.485 311.064 151.373 311.091 151.309 311.112C151.255 311.123 151.117 311.144 150.893 311.176C150.669 311.197 150.551 311.208 150.541 311.208C150.21 311.251 149.991 311.283 149.885 311.304C149.789 311.315 149.597 311.357 149.309 311.432C149.031 311.507 148.834 311.592 148.717 311.688C148.599 311.784 148.482 311.928 148.365 312.12C148.258 312.301 148.205 312.52 148.205 312.776C148.205 313.203 148.349 313.539 148.637 313.784C148.935 314.029 149.341 314.152 149.853 314.152C150.503 314.152 151.085 313.96 151.597 313.576C152.109 313.192 152.365 312.739 152.365 312.216V310.712Z" fill="white"/>
<path d="M63.8246 534.608V546H62.3206V535.92H56.3046V546H54.8006V534.608H63.8246ZM67.0674 537.744V538.912C67.6648 537.963 68.5928 537.488 69.8514 537.488C71.0034 537.488 71.9154 537.877 72.5874 538.656C73.2701 539.435 73.6114 540.491 73.6114 541.824C73.6114 543.157 73.2754 544.224 72.6034 545.024C71.9421 545.813 71.0461 546.208 69.9154 546.208C68.7314 546.208 67.8088 545.755 67.1474 544.848V549.184H65.7874V537.744H67.0674ZM69.6434 538.624C68.8541 538.624 68.2301 538.912 67.7714 539.488C67.3234 540.053 67.0994 540.837 67.0994 541.84C67.0994 542.843 67.3288 543.632 67.7874 544.208C68.2568 544.773 68.8914 545.056 69.6914 545.056C70.4701 545.056 71.0834 544.768 71.5314 544.192C71.9794 543.616 72.2034 542.832 72.2034 541.84C72.2034 540.837 71.9741 540.053 71.5154 539.488C71.0674 538.912 70.4434 538.624 69.6434 538.624ZM75.6078 538.688C76.3331 537.899 77.3198 537.504 78.5678 537.504C79.8158 537.504 80.7865 537.883 81.4798 538.64C82.1731 539.397 82.5198 540.459 82.5198 541.824C82.5198 543.221 82.1731 544.309 81.4798 545.088C80.7865 545.867 79.8105 546.256 78.5518 546.256C77.2931 546.256 76.3065 545.872 75.5918 545.104C74.8771 544.336 74.5198 543.269 74.5198 541.904C74.5198 540.549 74.8825 539.477 75.6078 538.688ZM80.4238 539.52C79.9651 538.933 79.3358 538.64 78.5358 538.64C77.7358 538.64 77.1011 538.933 76.6318 539.52C76.1625 540.107 75.9278 540.891 75.9278 541.872C75.9278 542.885 76.1571 543.68 76.6158 544.256C77.0851 544.821 77.7358 545.104 78.5678 545.104C79.3678 545.104 79.9918 544.816 80.4398 544.24C80.8985 543.664 81.1278 542.869 81.1278 541.856C81.1278 540.875 80.8931 540.096 80.4238 539.52ZM89.5153 538.944H85.2113V546H83.8513V537.744H89.5153V538.944ZM91.4981 537.744V538.912C92.0954 537.963 93.0234 537.488 94.2821 537.488C95.4341 537.488 96.3461 537.877 97.0181 538.656C97.7007 539.435 98.0421 540.491 98.0421 541.824C98.0421 543.157 97.7061 544.224 97.0341 545.024C96.3727 545.813 95.4767 546.208 94.3461 546.208C93.1621 546.208 92.2394 545.755 91.5781 544.848V549.184H90.2181V537.744H91.4981ZM94.0741 538.624C93.2847 538.624 92.6607 538.912 92.2021 539.488C91.7541 540.053 91.5301 540.837 91.5301 541.84C91.5301 542.843 91.7594 543.632 92.2181 544.208C92.6874 544.773 93.3221 545.056 94.1221 545.056C94.9007 545.056 95.5141 544.768 95.9621 544.192C96.4101 543.616 96.6341 542.832 96.6341 541.84C96.6341 540.837 96.4047 540.053 95.9461 539.488C95.4981 538.912 94.8741 538.624 94.0741 538.624ZM106.694 544.912V545.968C106.417 546.075 106.108 546.128 105.766 546.128C104.988 546.128 104.588 545.723 104.566 544.912C103.788 545.787 102.79 546.224 101.574 546.224C100.764 546.224 100.118 546.016 99.6384 545.6C99.1691 545.184 98.9344 544.613 98.9344 543.888C98.9344 542.416 99.9104 541.557 101.862 541.312C103.014 541.173 103.681 541.072 103.862 541.008C104.246 540.88 104.454 540.613 104.486 540.208C104.497 540.144 104.502 540.075 104.502 540C104.502 539.093 103.878 538.64 102.63 538.64C101.99 538.64 101.505 538.773 101.174 539.04C100.844 539.296 100.646 539.723 100.582 540.32H99.2544C99.2758 539.435 99.5904 538.747 100.198 538.256C100.806 537.765 101.644 537.52 102.71 537.52C103.873 537.52 104.737 537.787 105.302 538.32C105.484 538.491 105.617 538.715 105.702 538.992C105.788 539.269 105.836 539.499 105.846 539.68C105.857 539.851 105.862 540.112 105.862 540.464C105.862 540.88 105.852 541.499 105.83 542.32C105.809 543.131 105.798 543.739 105.798 544.144C105.798 544.443 105.836 544.656 105.91 544.784C105.996 544.901 106.145 544.96 106.358 544.96C106.444 544.96 106.556 544.944 106.694 544.912ZM104.502 541.712C104.406 541.787 104.305 541.851 104.198 541.904C104.092 541.957 103.953 542 103.782 542.032C103.622 542.064 103.51 542.091 103.446 542.112C103.393 542.123 103.254 542.144 103.03 542.176C102.806 542.197 102.689 542.208 102.678 542.208C102.348 542.251 102.129 542.283 102.022 542.304C101.926 542.315 101.734 542.357 101.446 542.432C101.169 542.507 100.972 542.592 100.854 542.688C100.737 542.784 100.62 542.928 100.502 543.12C100.396 543.301 100.342 543.52 100.342 543.776C100.342 544.203 100.486 544.539 100.774 544.784C101.073 545.029 101.478 545.152 101.99 545.152C102.641 545.152 103.222 544.96 103.734 544.576C104.246 544.192 104.502 543.739 104.502 543.216V541.712ZM116.6 546H115.24V539.488H115.192L112.744 546H111.496L109.048 539.488H109V546H107.64V537.744H109.592L112.104 544.432H112.136L114.648 537.744H116.6V546ZM127.233 546H125.873V539.488H125.825L123.377 546H122.129L119.681 539.488H119.633V546H118.273V537.744H120.225L122.737 544.432H122.769L125.281 537.744H127.233V546ZM130.666 546H128.922V537.744H130.282V544.48H130.314L134.026 537.744H135.77V546H134.41V539.264H134.378L130.666 546ZM138.773 537.744V538.912C139.37 537.963 140.298 537.488 141.557 537.488C142.709 537.488 143.621 537.877 144.293 538.656C144.976 539.435 145.317 540.491 145.317 541.824C145.317 543.157 144.981 544.224 144.309 545.024C143.648 545.813 142.752 546.208 141.621 546.208C140.437 546.208 139.514 545.755 138.853 544.848V549.184H137.493V537.744H138.773ZM141.349 538.624C140.56 538.624 139.936 538.912 139.477 539.488C139.029 540.053 138.805 540.837 138.805 541.84C138.805 542.843 139.034 543.632 139.493 544.208C139.962 544.773 140.597 545.056 141.397 545.056C142.176 545.056 142.789 544.768 143.237 544.192C143.685 543.616 143.909 542.832 143.909 541.84C143.909 540.837 143.68 540.053 143.221 539.488C142.773 538.912 142.149 538.624 141.349 538.624ZM147.313 538.688C148.039 537.899 149.025 537.504 150.273 537.504C151.521 537.504 152.492 537.883 153.185 538.64C153.879 539.397 154.225 540.459 154.225 541.824C154.225 543.221 153.879 544.309 153.185 545.088C152.492 545.867 151.516 546.256 150.257 546.256C148.999 546.256 148.012 545.872 147.297 545.104C146.583 544.336 146.225 543.269 146.225 541.904C146.225 540.549 146.588 539.477 147.313 538.688ZM152.129 539.52C151.671 538.933 151.041 538.64 150.241 538.64C149.441 538.64 148.807 538.933 148.337 539.52C147.868 540.107 147.633 540.891 147.633 541.872C147.633 542.885 147.863 543.68 148.321 544.256C148.791 544.821 149.441 545.104 150.273 545.104C151.073 545.104 151.697 544.816 152.145 544.24C152.604 543.664 152.833 542.869 152.833 541.856C152.833 540.875 152.599 540.096 152.129 539.52ZM155.493 546V537.744H159.317C159.861 537.744 160.325 537.792 160.709 537.888C161.093 537.973 161.429 538.171 161.717 538.48C162.005 538.789 162.149 539.211 162.149 539.744C162.149 540.555 161.744 541.147 160.933 541.52V541.536C161.424 541.632 161.808 541.861 162.085 542.224C162.362 542.576 162.501 543.024 162.501 543.568C162.501 544.272 162.266 544.853 161.797 545.312C161.328 545.771 160.725 546 159.989 546H155.493ZM159.173 541.072C159.738 541.072 160.138 540.981 160.373 540.8C160.618 540.608 160.741 540.331 160.741 539.968C160.741 539.605 160.624 539.339 160.389 539.168C160.154 538.997 159.749 538.912 159.173 538.912H156.821V541.072H159.173ZM156.821 542.224V544.832H159.733C160.16 544.832 160.49 544.704 160.725 544.448C160.97 544.192 161.093 543.861 161.093 543.456C161.093 542.635 160.56 542.224 159.493 542.224H156.821ZM171.111 544.912V545.968C170.833 546.075 170.524 546.128 170.183 546.128C169.404 546.128 169.004 545.723 168.983 544.912C168.204 545.787 167.207 546.224 165.991 546.224C165.18 546.224 164.535 546.016 164.055 545.6C163.585 545.184 163.351 544.613 163.351 543.888C163.351 542.416 164.327 541.557 166.279 541.312C167.431 541.173 168.097 541.072 168.279 541.008C168.663 540.88 168.871 540.613 168.903 540.208C168.913 540.144 168.919 540.075 168.919 540C168.919 539.093 168.295 538.64 167.047 538.64C166.407 538.64 165.921 538.773 165.591 539.04C165.26 539.296 165.063 539.723 164.999 540.32H163.671C163.692 539.435 164.007 538.747 164.615 538.256C165.223 537.765 166.06 537.52 167.127 537.52C168.289 537.52 169.153 537.787 169.719 538.32C169.9 538.491 170.033 538.715 170.119 538.992C170.204 539.269 170.252 539.499 170.263 539.68C170.273 539.851 170.279 540.112 170.279 540.464C170.279 540.88 170.268 541.499 170.247 542.32C170.225 543.131 170.215 543.739 170.215 544.144C170.215 544.443 170.252 544.656 170.327 544.784C170.412 544.901 170.561 544.96 170.775 544.96C170.86 544.96 170.972 544.944 171.111 544.912ZM168.919 541.712C168.823 541.787 168.721 541.851 168.615 541.904C168.508 541.957 168.369 542 168.199 542.032C168.039 542.064 167.927 542.091 167.863 542.112C167.809 542.123 167.671 542.144 167.447 542.176C167.223 542.197 167.105 542.208 167.095 542.208C166.764 542.251 166.545 542.283 166.439 542.304C166.343 542.315 166.151 542.357 165.863 542.432C165.585 542.507 165.388 542.592 165.271 542.688C165.153 542.784 165.036 542.928 164.919 543.12C164.812 543.301 164.759 543.52 164.759 543.776C164.759 544.203 164.903 544.539 165.191 544.784C165.489 545.029 165.895 545.152 166.407 545.152C167.057 545.152 167.639 544.96 168.151 544.576C168.663 544.192 168.919 543.739 168.919 543.216V541.712ZM173.432 546H172.072V537.744H173.432V541.024H177.56V537.744H178.92V546H177.56V542.224H173.432V546ZM182.387 546H180.643V537.744H182.003V544.48H182.035L185.747 537.744H187.491V546H186.131V539.264H186.099L182.387 546ZM196.27 543.392C195.854 545.312 194.654 546.272 192.67 546.272C191.454 546.272 190.499 545.893 189.806 545.136C189.123 544.379 188.782 543.328 188.782 541.984C188.782 540.651 189.134 539.573 189.838 538.752C190.552 537.92 191.48 537.504 192.622 537.504C193.891 537.504 194.83 537.936 195.438 538.8C196.056 539.653 196.366 540.736 196.366 542.048V542.24H190.158L190.142 542.336C190.142 543.211 190.371 543.899 190.83 544.4C191.288 544.901 191.918 545.152 192.718 545.152C193.315 545.152 193.784 545.013 194.126 544.736C194.478 544.459 194.75 544.011 194.942 543.392H196.27ZM194.958 541.136C194.894 540.347 194.654 539.733 194.238 539.296C193.822 538.848 193.272 538.624 192.59 538.624C191.928 538.624 191.379 538.848 190.942 539.296C190.504 539.744 190.243 540.357 190.158 541.136H194.958Z" fill="white"/>
<path d="M307.025 534.608V535.92H303.201V546H301.697V535.92H297.873V534.608H307.025ZM313.024 543.392C312.608 545.312 311.408 546.272 309.424 546.272C308.208 546.272 307.253 545.893 306.56 545.136C305.877 544.379 305.536 543.328 305.536 541.984C305.536 540.651 305.888 539.573 306.592 538.752C307.306 537.92 308.234 537.504 309.376 537.504C310.645 537.504 311.584 537.936 312.192 538.8C312.81 539.653 313.12 540.736 313.12 542.048V542.24H306.912L306.896 542.336C306.896 543.211 307.125 543.899 307.584 544.4C308.042 544.901 308.672 545.152 309.472 545.152C310.069 545.152 310.538 545.013 310.88 544.736C311.232 544.459 311.504 544.011 311.696 543.392H313.024ZM311.712 541.136C311.648 540.347 311.408 539.733 310.992 539.296C310.576 538.848 310.026 538.624 309.344 538.624C308.682 538.624 308.133 538.848 307.696 539.296C307.258 539.744 306.997 540.357 306.912 541.136H311.712ZM321.345 542.992C321.228 543.984 320.849 544.773 320.209 545.36C319.58 545.947 318.759 546.24 317.745 546.24C316.497 546.24 315.532 545.856 314.849 545.088C314.167 544.309 313.825 543.275 313.825 541.984C313.825 540.608 314.183 539.52 314.897 538.72C315.612 537.909 316.577 537.504 317.793 537.504C318.807 537.504 319.617 537.76 320.225 538.272C320.833 538.773 321.191 539.493 321.297 540.432H319.889C319.644 539.237 318.951 538.64 317.809 538.64C317.02 538.64 316.396 538.933 315.937 539.52C315.479 540.096 315.249 540.88 315.249 541.872C315.249 542.875 315.468 543.664 315.905 544.24C316.343 544.816 316.945 545.104 317.713 545.104C318.332 545.104 318.833 544.923 319.217 544.56C319.612 544.197 319.863 543.675 319.969 542.992H321.345ZM328.835 538.944H325.875V546H324.515V538.944H321.555V537.744H328.835V538.944ZM331.345 546H329.601V537.744H330.961V544.48H330.993L334.705 537.744H336.449V546H335.089V539.264H335.057L331.345 546ZM339.452 537.744V538.912C340.049 537.963 340.977 537.488 342.236 537.488C343.388 537.488 344.3 537.877 344.972 538.656C345.655 539.435 345.996 540.491 345.996 541.824C345.996 543.157 345.66 544.224 344.988 545.024C344.327 545.813 343.431 546.208 342.3 546.208C341.116 546.208 340.193 545.755 339.532 544.848V549.184H338.172V537.744H339.452ZM342.028 538.624C341.239 538.624 340.615 538.912 340.156 539.488C339.708 540.053 339.484 540.837 339.484 541.84C339.484 542.843 339.713 543.632 340.172 544.208C340.641 544.773 341.276 545.056 342.076 545.056C342.855 545.056 343.468 544.768 343.916 544.192C344.364 543.616 344.588 542.832 344.588 541.84C344.588 540.837 344.359 540.053 343.9 539.488C343.452 538.912 342.828 538.624 342.028 538.624ZM347.993 538.688C348.718 537.899 349.705 537.504 350.953 537.504C352.201 537.504 353.171 537.883 353.865 538.64C354.558 539.397 354.905 540.459 354.905 541.824C354.905 543.221 354.558 544.309 353.865 545.088C353.171 545.867 352.195 546.256 350.937 546.256C349.678 546.256 348.691 545.872 347.977 545.104C347.262 544.336 346.905 543.269 346.905 541.904C346.905 540.549 347.267 539.477 347.993 538.688ZM352.809 539.52C352.35 538.933 351.721 538.64 350.921 538.64C350.121 538.64 349.486 538.933 349.017 539.52C348.547 540.107 348.312 540.891 348.312 541.872C348.312 542.885 348.542 543.68 349.001 544.256C349.47 544.821 350.121 545.104 350.953 545.104C351.753 545.104 352.377 544.816 352.825 544.24C353.283 543.664 353.513 542.869 353.513 541.856C353.513 540.875 353.278 540.096 352.809 539.52ZM356.172 546V537.744H359.996C360.54 537.744 361.004 537.792 361.388 537.888C361.772 537.973 362.108 538.171 362.396 538.48C362.684 538.789 362.828 539.211 362.828 539.744C362.828 540.555 362.423 541.147 361.612 541.52V541.536C362.103 541.632 362.487 541.861 362.764 542.224C363.041 542.576 363.18 543.024 363.18 543.568C363.18 544.272 362.945 544.853 362.476 545.312C362.007 545.771 361.404 546 360.668 546H356.172ZM359.852 541.072C360.417 541.072 360.817 540.981 361.052 540.8C361.297 540.608 361.42 540.331 361.42 539.968C361.42 539.605 361.303 539.339 361.068 539.168C360.833 538.997 360.428 538.912 359.852 538.912H357.5V541.072H359.852ZM357.5 542.224V544.832H360.412C360.839 544.832 361.169 544.704 361.404 544.448C361.649 544.192 361.772 543.861 361.772 543.456C361.772 542.635 361.239 542.224 360.172 542.224H357.5ZM371.79 544.912V545.968C371.512 546.075 371.203 546.128 370.862 546.128C370.083 546.128 369.683 545.723 369.662 544.912C368.883 545.787 367.886 546.224 366.67 546.224C365.859 546.224 365.214 546.016 364.734 545.6C364.264 545.184 364.03 544.613 364.03 543.888C364.03 542.416 365.006 541.557 366.958 541.312C368.11 541.173 368.776 541.072 368.958 541.008C369.342 540.88 369.55 540.613 369.582 540.208C369.592 540.144 369.598 540.075 369.598 540C369.598 539.093 368.974 538.64 367.726 538.64C367.086 538.64 366.6 538.773 366.27 539.04C365.939 539.296 365.742 539.723 365.678 540.32H364.35C364.371 539.435 364.686 538.747 365.294 538.256C365.902 537.765 366.739 537.52 367.806 537.52C368.968 537.52 369.832 537.787 370.398 538.32C370.579 538.491 370.712 538.715 370.798 538.992C370.883 539.269 370.931 539.499 370.942 539.68C370.952 539.851 370.958 540.112 370.958 540.464C370.958 540.88 370.947 541.499 370.926 542.32C370.904 543.131 370.894 543.739 370.894 544.144C370.894 544.443 370.931 544.656 371.006 544.784C371.091 544.901 371.24 544.96 371.454 544.96C371.539 544.96 371.651 544.944 371.79 544.912ZM369.598 541.712C369.502 541.787 369.4 541.851 369.294 541.904C369.187 541.957 369.048 542 368.878 542.032C368.718 542.064 368.606 542.091 368.542 542.112C368.488 542.123 368.35 542.144 368.126 542.176C367.902 542.197 367.784 542.208 367.774 542.208C367.443 542.251 367.224 542.283 367.118 542.304C367.022 542.315 366.83 542.357 366.542 542.432C366.264 542.507 366.067 542.592 365.95 542.688C365.832 542.784 365.715 542.928 365.598 543.12C365.491 543.301 365.438 543.52 365.438 543.776C365.438 544.203 365.582 544.539 365.87 544.784C366.168 545.029 366.574 545.152 367.086 545.152C367.736 545.152 368.318 544.96 368.83 544.576C369.342 544.192 369.598 543.739 369.598 543.216V541.712ZM374.112 546H372.752V537.744H374.112V541.024H378.24V537.744H379.6V546H378.24V542.224H374.112V546ZM383.066 546H381.322V537.744H382.682V544.48H382.714L386.426 537.744H388.17V546H386.81V539.264H386.778L383.066 546ZM396.949 543.392C396.533 545.312 395.333 546.272 393.349 546.272C392.133 546.272 391.178 545.893 390.485 545.136C389.802 544.379 389.461 543.328 389.461 541.984C389.461 540.651 389.813 539.573 390.517 538.752C391.231 537.92 392.159 537.504 393.301 537.504C394.57 537.504 395.509 537.936 396.117 538.8C396.735 539.653 397.045 540.736 397.045 542.048V542.24H390.837L390.821 542.336C390.821 543.211 391.05 543.899 391.509 544.4C391.967 544.901 392.597 545.152 393.397 545.152C393.994 545.152 394.463 545.013 394.805 544.736C395.157 544.459 395.429 544.011 395.621 543.392H396.949ZM395.637 541.136C395.573 540.347 395.333 539.733 394.917 539.296C394.501 538.848 393.951 538.624 393.269 538.624C392.607 538.624 392.058 538.848 391.621 539.296C391.183 539.744 390.922 540.357 390.837 541.136H395.637Z" fill="white"/>
<path d="M556.543 542.193C556.543 542.567 556.458 542.956 556.287 543.361C556.116 543.756 555.866 544.14 555.535 544.513C555.204 544.887 554.74 545.191 554.143 545.425C553.546 545.66 552.868 545.777 552.111 545.777C550.682 545.777 549.535 545.441 548.671 544.769C547.818 544.087 547.391 543.084 547.391 541.761H548.847C548.879 542.732 549.204 543.441 549.823 543.889C550.442 544.327 551.247 544.545 552.239 544.545C553.039 544.545 553.706 544.327 554.239 543.889C554.772 543.452 555.039 542.876 555.039 542.161C555.039 541.767 554.964 541.431 554.815 541.153C554.666 540.876 554.447 540.668 554.159 540.529C553.871 540.391 553.567 540.295 553.247 540.241C552.938 540.188 552.575 540.161 552.159 540.161C551.796 540.161 551.455 540.172 551.135 540.193V538.945C551.306 538.967 551.647 538.977 552.159 538.977C553.812 538.977 554.639 538.295 554.639 536.929C554.639 535.713 553.823 535.105 552.191 535.105C550.463 535.105 549.519 535.879 549.359 537.425H547.903C547.946 536.252 548.362 535.367 549.151 534.769C549.94 534.161 550.97 533.857 552.239 533.857C553.402 533.857 554.34 534.113 555.055 534.625C555.78 535.137 556.143 535.905 556.143 536.929C556.143 537.505 555.956 538.028 555.583 538.497C555.21 538.956 554.767 539.26 554.255 539.409V539.457C554.98 539.596 555.54 539.921 555.935 540.433C556.34 540.945 556.543 541.532 556.543 542.193ZM565.19 544.433V545.489C564.913 545.596 564.603 545.649 564.262 545.649C563.483 545.649 563.083 545.244 563.062 544.433C562.283 545.308 561.286 545.745 560.07 545.745C559.259 545.745 558.614 545.537 558.134 545.121C557.665 544.705 557.43 544.135 557.43 543.409C557.43 541.937 558.406 541.079 560.358 540.833C561.51 540.695 562.177 540.593 562.358 540.529C562.742 540.401 562.95 540.135 562.982 539.729C562.993 539.665 562.998 539.596 562.998 539.521C562.998 538.615 562.374 538.161 561.126 538.161C560.486 538.161 560.001 538.295 559.67 538.561C559.339 538.817 559.142 539.244 559.078 539.841H557.75C557.771 538.956 558.086 538.268 558.694 537.777C559.302 537.287 560.139 537.041 561.206 537.041C562.369 537.041 563.233 537.308 563.798 537.841C563.979 538.012 564.113 538.236 564.198 538.513C564.283 538.791 564.331 539.02 564.342 539.201C564.353 539.372 564.358 539.633 564.358 539.985C564.358 540.401 564.347 541.02 564.326 541.841C564.305 542.652 564.294 543.26 564.294 543.665C564.294 543.964 564.331 544.177 564.406 544.305C564.491 544.423 564.641 544.481 564.854 544.481C564.939 544.481 565.051 544.465 565.19 544.433ZM562.998 541.233C562.902 541.308 562.801 541.372 562.694 541.425C562.587 541.479 562.449 541.521 562.278 541.553C562.118 541.585 562.006 541.612 561.942 541.633C561.889 541.644 561.75 541.665 561.526 541.697C561.302 541.719 561.185 541.729 561.174 541.729C560.843 541.772 560.625 541.804 560.518 541.825C560.422 541.836 560.23 541.879 559.942 541.953C559.665 542.028 559.467 542.113 559.35 542.209C559.233 542.305 559.115 542.449 558.998 542.641C558.891 542.823 558.838 543.041 558.838 543.297C558.838 543.724 558.982 544.06 559.27 544.305C559.569 544.551 559.974 544.673 560.486 544.673C561.137 544.673 561.718 544.481 562.23 544.097C562.742 543.713 562.998 543.26 562.998 542.737V541.233ZM567.512 545.521H566.152V537.265H573V545.521H571.64V538.465H567.512V545.521ZM581.554 537.265L578.018 546.577C577.88 546.951 577.757 547.239 577.65 547.441C577.554 547.655 577.41 547.884 577.218 548.129C577.037 548.385 576.813 548.567 576.546 548.673C576.29 548.791 575.986 548.849 575.634 548.849C575.368 548.849 575.032 548.801 574.626 548.705V547.489C575.021 547.607 575.314 547.665 575.506 547.665C575.954 547.665 576.274 547.436 576.466 546.977L577.106 545.473L573.826 537.265H575.362L577.81 543.841L580.13 537.265H581.554ZM589.319 542.513C589.202 543.505 588.823 544.295 588.183 544.881C587.554 545.468 586.732 545.761 585.719 545.761C584.471 545.761 583.506 545.377 582.823 544.609C582.14 543.831 581.799 542.796 581.799 541.505C581.799 540.129 582.156 539.041 582.871 538.241C583.586 537.431 584.551 537.025 585.767 537.025C586.78 537.025 587.591 537.281 588.199 537.793C588.807 538.295 589.164 539.015 589.271 539.953H587.863C587.618 538.759 586.924 538.161 585.783 538.161C584.994 538.161 584.37 538.455 583.911 539.041C583.452 539.617 583.223 540.401 583.223 541.393C583.223 542.396 583.442 543.185 583.879 543.761C584.316 544.337 584.919 544.625 585.687 544.625C586.306 544.625 586.807 544.444 587.191 544.081C587.586 543.719 587.836 543.196 587.943 542.513H589.319ZM597.881 545.521H596.153L593.145 541.457L591.849 542.721V545.521H590.489V537.265H591.849V541.201L595.625 537.265H597.449L594.121 540.513L597.881 545.521Z" fill="white"/>
<defs>
<filter id="filter0_f" x="104" y="32" width="42.6" height="42.6" filterUnits="userSpaceOnUse" color-interpolation-filters="sRGB">
<feFlood flood-opacity="0" result="BackgroundImageFix"/>
<feBlend mode="normal" in="SourceGraphic" in2="BackgroundImageFix" result="shape"/>
<feGaussianBlur stdDeviation="6" result="effect1_foregroundBlur"/>
</filter>
<linearGradient id="paint0_linear" x1="100" y1="51" x2="667.359" y2="388.206" gradientUnits="userSpaceOnUse">
<stop stop-color="#4DB5FF"/>
<stop offset="1" stop-color="#0051BA"/>
</linearGradient>
</defs>
</svg>
