<svg width="739" height="391" viewBox="0 0 739 391" fill="none" xmlns="http://www.w3.org/2000/svg">
<path fill-rule="evenodd" clip-rule="evenodd" d="M333 191.5C333 160.296 358.296 135 389.5 135C420.704 135 446 160.296 446 191.5C446 222.705 420.704 248.001 389.5 248.001C358.296 248.001 333 222.705 333 191.5Z" fill="url(#paint0_radial)"/>
<path d="M389.67 195.791H396.365V198.653C394.965 199.697 393.112 200.2 391.372 200.2C386.569 200.2 383.089 197.299 383.089 192.001C383.089 186.896 386.115 183.802 390.918 183.802C393.641 183.802 395.835 184.846 397.348 186.587L401.395 182.874C399.542 179.935 395.23 178.001 390.691 178.001C382.522 178.001 377 184.266 377 192.001C377 200.393 383.014 206.001 391.334 206.001C395.57 206.001 399.428 204.222 402 201.321V190.377H389.67V195.791Z" fill="url(#paint1_radial)"/>
<path d="M672.575 193.425C672.425 189.6 669.825 187.85 666.05 187.85C662.85 187.85 659.6 189.275 659.6 192.925C659.6 196.675 662.925 197.15 665.8 197.8C668.725 198.475 670.975 198.925 670.975 201.225C670.975 203.75 668.625 204.475 666.55 204.475C663.7 204.475 661.35 203.35 661.25 200.125H658.975C658.975 204.425 662.1 206.4 666.35 206.4C669.75 206.4 673.275 204.95 673.275 201C673.275 197.25 669.575 196.35 666.675 195.75C663.925 195.175 661.85 194.75 661.85 192.75C661.85 190.875 663.325 189.8 665.875 189.8C668.5 189.8 670.025 190.85 670.3 193.425H672.575ZM675.711 188.2V206H677.961V191.15L683.636 206H685.686L691.261 191.15V206H693.486V188.2H690.211L684.686 203.275L678.961 188.2H675.711ZM696.988 188.2V206H699.238V191.15L704.913 206H706.963L712.538 191.15V206H714.763V188.2H711.488L705.963 203.275L700.238 188.2H696.988Z" fill="white"/>
<path d="M2 188.2V206H4.25V191.15L9.925 206H11.975L17.55 191.15V206H19.775V188.2H16.5L10.975 203.275L5.25 188.2H2ZM34.3023 204.3C34.0773 204.35 33.9773 204.375 33.7773 204.375C33.1273 204.375 32.9023 204.05 32.9023 203.1C32.9023 201.175 33.0023 199.275 33.0023 197.35C33.0023 196.2 33.0273 194.875 32.1273 194C31.2773 193.2 29.8023 192.75 28.0773 192.75C24.7523 192.75 22.7523 194.375 22.6773 197.125H24.7523C24.9523 195.225 25.9773 194.5 27.9523 194.5C29.8523 194.5 30.8773 195.25 30.8773 196.625C30.8773 198.375 29.8273 198.3 26.7523 198.675C23.7023 199.05 22.1773 200.4 22.1773 202.7C22.1773 204.95 23.7523 206.35 26.3023 206.35C28.3023 206.35 29.7023 205.725 30.9773 204.3C31.0023 205.525 31.6523 206.2 32.8523 206.2C33.3273 206.2 33.8523 206.125 34.3023 205.95V204.3ZM30.8773 199.3V201.65C30.8773 203.3 28.9523 204.675 26.9523 204.675C25.3523 204.675 24.3773 203.85 24.3773 202.525C24.3773 200.45 26.4773 200.275 28.0273 200.075C28.9773 199.95 30.0773 199.9 30.8773 199.3ZM37.8051 193.1H35.8051V210.975H37.9301V204.2C39.0301 205.7 40.3551 206.325 42.2551 206.325C45.7801 206.325 48.0301 203.65 48.0301 199.475C48.0301 195.3 45.7551 192.7 42.1551 192.7C40.2551 192.7 38.8051 193.325 37.8051 194.925V193.1ZM41.8301 194.475C44.3301 194.475 45.8301 196.375 45.8301 199.5C45.8301 202.6 44.3301 204.525 41.9051 204.525C39.4051 204.525 37.8551 202.625 37.8551 199.5C37.8551 196.375 39.3551 194.475 41.8301 194.475ZM61.6744 206L55.7994 198.175L60.9994 193.1H58.1494L52.2494 199.25V193.1H50.1244V206H52.2494V201.625L54.2744 199.65L58.9744 206H61.6744ZM73.6133 201.925H71.5383C70.9383 203.875 69.9133 204.675 68.0633 204.675C65.5633 204.675 64.0383 203.025 64.0383 200.275L64.0633 200.125H73.7633V199.825C73.7633 196.1 72.1633 192.725 67.9133 192.725C64.3383 192.725 61.9133 195.55 61.9133 199.725C61.9133 203.925 64.1883 206.425 67.9883 206.425C71.0383 206.425 72.9633 204.9 73.6133 201.925ZM71.5633 198.4H64.0633C64.3383 195.975 65.7883 194.475 67.8633 194.475C69.9883 194.475 71.3633 195.95 71.5633 198.4ZM84.9516 194.975V193.1H73.5766V194.975H78.2016V206H80.3266V194.975H84.9516ZM88.8738 206L94.6738 195.475H94.7238V206H96.8488V193.1H94.1238L88.3238 203.625H88.2738V193.1H86.1488V206H88.8738ZM101.665 206V200.1H108.115V206H110.24V193.1H108.115V198.225H101.665V193.1H99.5404V206H101.665ZM121.832 194.975V193.1H112.982V206H115.107V194.975H121.832Z" fill="white"/>
<path d="M586.65 40.025C586.65 35.5 583 33.075 578.875 33.075V31.2H576.525V33.075C572.475 33.075 568.75 35.525 568.75 40.025C568.75 44.55 572.475 46.85 576.525 46.85V49H578.875V46.85C582.925 46.85 586.65 44.675 586.65 40.025ZM584.275 40.025C584.275 43.325 581.925 44.7 578.875 44.925V35C581.925 35.15 584.275 36.725 584.275 40.025ZM576.525 44.925C573.475 44.7 571.125 43.325 571.125 40.025C571.125 36.725 573.475 35.15 576.525 35V44.925ZM591.283 49L597.083 38.475H597.133V49H599.258V36.1H596.533L590.733 46.625H590.683V36.1H588.558V49H591.283ZM603.95 36.1H601.95V53.975H604.075V47.2C605.175 48.7 606.5 49.325 608.4 49.325C611.925 49.325 614.175 46.65 614.175 42.475C614.175 38.3 611.9 35.7 608.3 35.7C606.4 35.7 604.95 36.325 603.95 37.925V36.1ZM607.975 37.475C610.475 37.475 611.975 39.375 611.975 42.5C611.975 45.6 610.475 47.525 608.05 47.525C605.55 47.525 604 45.625 604 42.5C604 39.375 605.5 37.475 607.975 37.475ZM630.244 49V36.1H627.194L623.269 46.55H623.219L619.294 36.1H616.244V49H618.369V38.825H618.444L622.269 49H624.219L628.044 38.825H628.119V49H630.244ZM643.908 44.925H641.833C641.233 46.875 640.208 47.675 638.358 47.675C635.858 47.675 634.333 46.025 634.333 43.275L634.358 43.125H644.058V42.825C644.058 39.1 642.458 35.725 638.208 35.725C634.633 35.725 632.208 38.55 632.208 42.725C632.208 46.925 634.483 49.425 638.283 49.425C641.333 49.425 643.258 47.9 643.908 44.925ZM641.858 41.4H634.358C634.633 38.975 636.083 37.475 638.158 37.475C640.283 37.475 641.658 38.95 641.858 41.4ZM647.936 49V43.1H654.386V49H656.511V36.1H654.386V41.225H647.936V36.1H645.811V49H647.936ZM661.328 49V43.1H667.778V49H669.903V36.1H667.778V41.225H661.328V36.1H659.203V49H661.328ZM684.894 36.1V49H687.019V36.1H684.894ZM682.844 44.975C682.844 42.525 681.169 41.025 678.644 41.025H674.644V36.1H672.519V49H678.744C681.269 49 682.844 47.4 682.844 44.975ZM677.969 42.85C679.744 42.85 680.644 43.6 680.644 44.975C680.644 46.35 679.719 47.125 677.969 47.125H674.644V42.85H677.969ZM698.822 31.2H697.547C697.147 32.4 696.347 33.15 695.047 33.15C693.772 33.15 692.897 32.4 692.547 31.2H691.272C691.522 33.2 692.997 34.65 695.072 34.65C697.247 34.65 698.497 33.2 698.822 31.2ZM692.422 49L698.222 38.475H698.272V49H700.397V36.1H697.672L691.872 46.625H691.822V36.1H689.697V49H692.422ZM580.7 69.3H578.55C578.225 71.425 576.95 72.6 575.025 72.6C572.625 72.6 571.175 70.7 571.175 67.55C571.175 64.45 572.725 62.5 575.175 62.5C576.925 62.5 578.05 63.475 578.425 65.3H580.625C580.275 62.375 578.3 60.725 575.15 60.725C571.35 60.725 568.95 63.425 568.95 67.725C568.95 71.65 571.075 74.375 575.075 74.375C578.275 74.375 580.325 72.375 580.7 69.3ZM592.403 62.975V61.1H581.028V62.975H585.653V74H587.778V62.975H592.403ZM596.325 74L602.125 63.475H602.175V74H604.3V61.1H601.575L595.775 71.625H595.725V61.1H593.6V74H596.325ZM617.742 61.1H608.967L608.742 68.9C608.667 71.7 607.717 72.45 606.867 72.45C606.592 72.45 606.017 72.425 605.742 72.275V74C606.017 74.125 606.642 74.275 607.267 74.275C609.067 74.275 610.717 72.9 610.842 68.675L611.017 62.975H615.617V74H617.742V61.1ZM631.233 69.975C631.233 67.525 629.558 66.025 627.033 66.025H622.433V61.1H620.308V74H627.133C629.658 74 631.233 72.4 631.233 69.975ZM626.358 67.85C628.133 67.85 629.033 68.6 629.033 69.975C629.033 71.35 628.108 72.125 626.358 72.125H622.433V67.85H626.358Z" fill="white"/>
<path d="M38.975 46.2V64H46.3C49.7 64 53.05 63.075 53.05 58.975C53.05 56.625 51.825 54.975 49.625 54.475C51.225 53.9 52.25 52.4 52.25 50.65C52.25 47.375 49.525 46.2 46.575 46.2H38.975ZM41.275 48.2H45.725C47.825 48.2 49.9 48.325 49.9 51C49.9 53.675 47.5 53.825 45.5 53.825H41.275V48.2ZM41.275 55.675H45.575C47.95 55.675 50.675 55.65 50.675 58.75C50.675 61.875 48.35 62.025 45.975 62.025H41.275V55.675ZM66.2393 59.925H64.1643C63.5643 61.875 62.5393 62.675 60.6893 62.675C58.1893 62.675 56.6643 61.025 56.6643 58.275L56.6893 58.125H66.3893V57.825C66.3893 54.1 64.7893 50.725 60.5393 50.725C56.9643 50.725 54.5393 53.55 54.5393 57.725C54.5393 61.925 56.8143 64.425 60.6143 64.425C63.6643 64.425 65.5893 62.9 66.2393 59.925ZM64.1893 56.4H56.6893C56.9643 53.975 58.4143 52.475 60.4893 52.475C62.6143 52.475 63.9893 53.95 64.1893 56.4ZM69.342 49.3C68.092 51.225 67.792 54.225 67.792 56.7C67.792 57.55 67.842 58.35 67.942 59.05C68.467 62.6 70.892 64.425 73.917 64.425C77.742 64.425 79.967 61.95 79.967 57.65C79.967 53.45 77.717 51.05 74.092 51.05C71.942 51.05 70.292 52.275 69.567 53.975H69.492C69.867 50.925 71.317 48.75 74.142 48.55C76.392 48.375 79.067 48.425 79.542 45.775H77.417C77.067 46.425 76.067 46.45 74.442 46.575C71.992 46.75 70.492 47.525 69.342 49.3ZM69.967 57.725C69.967 54.7 71.492 52.825 73.892 52.825C76.292 52.825 77.792 54.675 77.792 57.7C77.792 60.825 76.317 62.625 73.942 62.625C71.442 62.625 69.967 60.625 69.967 57.725ZM88.8975 56H81.6225V58.1H88.8975V56ZM93.2143 51.1H91.2143V68.975H93.3393V62.2C94.4393 63.7 95.7643 64.325 97.6643 64.325C101.189 64.325 103.439 61.65 103.439 57.475C103.439 53.3 101.164 50.7 97.5643 50.7C95.6643 50.7 94.2143 51.325 93.2143 52.925V51.1ZM97.2393 52.475C99.7393 52.475 101.239 54.375 101.239 57.5C101.239 60.6 99.7393 62.525 97.3143 62.525C94.8143 62.525 93.2643 60.625 93.2643 57.5C93.2643 54.375 94.7643 52.475 97.2393 52.475ZM116.959 62.3C116.734 62.35 116.634 62.375 116.434 62.375C115.784 62.375 115.559 62.05 115.559 61.1C115.559 59.175 115.659 57.275 115.659 55.35C115.659 54.2 115.684 52.875 114.784 52C113.934 51.2 112.459 50.75 110.734 50.75C107.409 50.75 105.409 52.375 105.334 55.125H107.409C107.609 53.225 108.634 52.5 110.609 52.5C112.509 52.5 113.534 53.25 113.534 54.625C113.534 56.375 112.484 56.3 109.409 56.675C106.359 57.05 104.834 58.4 104.834 60.7C104.834 62.95 106.409 64.35 108.959 64.35C110.959 64.35 112.359 63.725 113.634 62.3C113.659 63.525 114.309 64.2 115.509 64.2C115.984 64.2 116.509 64.125 116.959 63.95V62.3ZM113.534 57.3V59.65C113.534 61.3 111.609 62.675 109.609 62.675C108.009 62.675 107.034 61.85 107.034 60.525C107.034 58.45 109.134 58.275 110.684 58.075C111.634 57.95 112.734 57.9 113.534 57.3ZM117.736 54.825H119.886C120.061 53.075 121.636 52.45 123.161 52.45C124.911 52.45 125.886 53.35 125.886 54.3C125.886 55.825 124.661 56.4 123.161 56.4H121.736V58.125H123.511C125.486 58.125 126.261 58.925 126.261 60.225C126.261 61.55 125.111 62.675 123.086 62.675C121.186 62.675 119.786 61.825 119.661 59.975H117.511C117.661 62.775 119.736 64.4 123.111 64.4C125.836 64.4 128.461 62.975 128.461 60.175C128.461 58.175 127.161 57.2 125.961 56.975V56.925C127.011 56.7 128.036 55.675 128.036 54.2C128.036 51.8 125.836 50.725 123.186 50.725C120.586 50.725 117.936 51.65 117.736 54.825ZM132.461 51.1H130.461V68.975H132.586V62.2C133.686 63.7 135.011 64.325 136.911 64.325C140.436 64.325 142.686 61.65 142.686 57.475C142.686 53.3 140.411 50.7 136.811 50.7C134.911 50.7 133.461 51.325 132.461 52.925V51.1ZM136.486 52.475C138.986 52.475 140.486 54.375 140.486 57.5C140.486 60.6 138.986 62.525 136.561 62.525C134.061 62.525 132.511 60.625 132.511 57.5C132.511 54.375 134.011 52.475 136.486 52.475ZM156.206 62.3C155.981 62.35 155.881 62.375 155.681 62.375C155.031 62.375 154.806 62.05 154.806 61.1C154.806 59.175 154.906 57.275 154.906 55.35C154.906 54.2 154.931 52.875 154.031 52C153.181 51.2 151.706 50.75 149.981 50.75C146.656 50.75 144.656 52.375 144.581 55.125H146.656C146.856 53.225 147.881 52.5 149.856 52.5C151.756 52.5 152.781 53.25 152.781 54.625C152.781 56.375 151.731 56.3 148.656 56.675C145.606 57.05 144.081 58.4 144.081 60.7C144.081 62.95 145.656 64.35 148.206 64.35C150.206 64.35 151.606 63.725 152.881 62.3C152.906 63.525 153.556 64.2 154.756 64.2C155.231 64.2 155.756 64.125 156.206 63.95V62.3ZM152.781 57.3V59.65C152.781 61.3 150.856 62.675 148.856 62.675C147.256 62.675 146.281 61.85 146.281 60.525C146.281 58.45 148.381 58.275 149.931 58.075C150.881 57.95 151.981 57.9 152.781 57.3ZM158.908 49.3C157.658 51.225 157.358 54.225 157.358 56.7C157.358 57.55 157.408 58.35 157.508 59.05C158.033 62.6 160.458 64.425 163.483 64.425C167.308 64.425 169.533 61.95 169.533 57.65C169.533 53.45 167.283 51.05 163.658 51.05C161.508 51.05 159.858 52.275 159.133 53.975H159.058C159.433 50.925 160.883 48.75 163.708 48.55C165.958 48.375 168.633 48.425 169.108 45.775H166.983C166.633 46.425 165.633 46.45 164.008 46.575C161.558 46.75 160.058 47.525 158.908 49.3ZM159.533 57.725C159.533 54.7 161.058 52.825 163.458 52.825C165.858 52.825 167.358 54.675 167.358 57.7C167.358 60.825 165.883 62.625 163.508 62.625C161.008 62.625 159.533 60.625 159.533 57.725ZM177.214 50.725C173.314 50.725 170.889 53.35 170.889 57.6C170.889 61.85 173.239 64.4 177.189 64.4C181.114 64.4 183.389 61.85 183.389 57.475C183.389 53.2 181.114 50.725 177.214 50.725ZM177.164 52.5C179.664 52.5 181.214 54.45 181.214 57.525C181.214 60.7 179.714 62.6 177.214 62.6C174.614 62.6 173.089 60.725 173.089 57.55C173.089 54.475 174.664 52.5 177.164 52.5ZM194.855 52.975V51.1H183.48V52.975H188.105V64H190.23V52.975H194.855ZM207.602 64L201.727 56.175L206.927 51.1H204.077L198.177 57.25V51.1H196.052V64H198.177V59.625L200.202 57.65L204.902 64H207.602ZM219.941 62.3C219.716 62.35 219.616 62.375 219.416 62.375C218.766 62.375 218.541 62.05 218.541 61.1C218.541 59.175 218.641 57.275 218.641 55.35C218.641 54.2 218.666 52.875 217.766 52C216.916 51.2 215.441 50.75 213.716 50.75C210.391 50.75 208.391 52.375 208.316 55.125H210.391C210.591 53.225 211.616 52.5 213.591 52.5C215.491 52.5 216.516 53.25 216.516 54.625C216.516 56.375 215.466 56.3 212.391 56.675C209.341 57.05 207.816 58.4 207.816 60.7C207.816 62.95 209.391 64.35 211.941 64.35C213.941 64.35 215.341 63.725 216.616 62.3C216.641 63.525 217.291 64.2 218.491 64.2C218.966 64.2 219.491 64.125 219.941 63.95V62.3ZM216.516 57.3V59.65C216.516 61.3 214.591 62.675 212.591 62.675C210.991 62.675 210.016 61.85 210.016 60.525C210.016 58.45 212.116 58.275 213.666 58.075C214.616 57.95 215.716 57.9 216.516 57.3Z" fill="white"/>
<path d="M38.975 330.2V348H46.3C49.7 348 53.05 347.075 53.05 342.975C53.05 340.625 51.825 338.975 49.625 338.475C51.225 337.9 52.25 336.4 52.25 334.65C52.25 331.375 49.525 330.2 46.575 330.2H38.975ZM41.275 332.2H45.725C47.825 332.2 49.9 332.325 49.9 335C49.9 337.675 47.5 337.825 45.5 337.825H41.275V332.2ZM41.275 339.675H45.575C47.95 339.675 50.675 339.65 50.675 342.75C50.675 345.875 48.35 346.025 45.975 346.025H41.275V339.675ZM57.9393 348L63.7393 337.475H63.7893V348H65.9143V335.1H63.1893L57.3893 345.625H57.3393V335.1H55.2143V348H57.9393ZM81.1059 352.1V346.125H79.4309V335.1H70.2309V337.85C70.2309 341.1 69.3559 344.7 68.6059 346.125H67.2059V352.1H69.2309V348H79.0809V352.1H81.1059ZM77.3059 346.125H70.8059C71.5059 344.75 72.3059 341.275 72.3059 338.05V336.975H77.3059V346.125ZM93.4863 343.925H91.4113C90.8113 345.875 89.7863 346.675 87.9363 346.675C85.4363 346.675 83.9113 345.025 83.9113 342.275L83.9363 342.125H93.6363V341.825C93.6363 338.1 92.0363 334.725 87.7863 334.725C84.2113 334.725 81.7863 337.55 81.7863 341.725C81.7863 345.925 84.0613 348.425 87.8613 348.425C90.9113 348.425 92.8363 346.9 93.4863 343.925ZM91.4363 340.4H83.9363C84.2113 337.975 85.6613 336.475 87.7363 336.475C89.8613 336.475 91.2363 337.95 91.4363 340.4ZM101.039 334.725C97.1391 334.725 94.7141 337.35 94.7141 341.6C94.7141 345.85 97.0641 348.4 101.014 348.4C104.939 348.4 107.214 345.85 107.214 341.475C107.214 337.2 104.939 334.725 101.039 334.725ZM100.989 336.5C103.489 336.5 105.039 338.45 105.039 341.525C105.039 344.7 103.539 346.6 101.039 346.6C98.4391 346.6 96.9141 344.725 96.9141 341.55C96.9141 338.475 98.4891 336.5 100.989 336.5ZM111.37 348V336.975H117.82V348H119.945V335.1H109.245V348H111.37ZM124.636 335.1H122.636V352.975H124.761V346.2C125.861 347.7 127.186 348.325 129.086 348.325C132.611 348.325 134.861 345.65 134.861 341.475C134.861 337.3 132.586 334.7 128.986 334.7C127.086 334.7 125.636 335.325 124.636 336.925V335.1ZM128.661 336.475C131.161 336.475 132.661 338.375 132.661 341.5C132.661 344.6 131.161 346.525 128.736 346.525C126.236 346.525 124.686 344.625 124.686 341.5C124.686 338.375 126.186 336.475 128.661 336.475ZM142.605 334.725C138.705 334.725 136.28 337.35 136.28 341.6C136.28 345.85 138.63 348.4 142.58 348.4C146.505 348.4 148.78 345.85 148.78 341.475C148.78 337.2 146.505 334.725 142.605 334.725ZM142.555 336.5C145.055 336.5 146.605 338.45 146.605 341.525C146.605 344.7 145.105 346.6 142.605 346.6C140.005 346.6 138.48 344.725 138.48 341.55C138.48 338.475 140.055 336.5 142.555 336.5ZM162.871 352.1V346.125H161.196V335.1H151.996V337.85C151.996 341.1 151.121 344.7 150.371 346.125H148.971V352.1H150.996V348H160.846V352.1H162.871ZM159.071 346.125H152.571C153.271 344.75 154.071 341.275 154.071 338.05V336.975H159.071V346.125ZM175.652 346.3C175.427 346.35 175.327 346.375 175.127 346.375C174.477 346.375 174.252 346.05 174.252 345.1C174.252 343.175 174.352 341.275 174.352 339.35C174.352 338.2 174.377 336.875 173.477 336C172.627 335.2 171.152 334.75 169.427 334.75C166.102 334.75 164.102 336.375 164.027 339.125H166.102C166.302 337.225 167.327 336.5 169.302 336.5C171.202 336.5 172.227 337.25 172.227 338.625C172.227 340.375 171.177 340.3 168.102 340.675C165.052 341.05 163.527 342.4 163.527 344.7C163.527 346.95 165.102 348.35 167.652 348.35C169.652 348.35 171.052 347.725 172.327 346.3C172.352 347.525 173.002 348.2 174.202 348.2C174.677 348.2 175.202 348.125 175.652 347.95V346.3ZM172.227 341.3V343.65C172.227 345.3 170.302 346.675 168.302 346.675C166.702 346.675 165.727 345.85 165.727 344.525C165.727 342.45 167.827 342.275 169.377 342.075C170.327 341.95 171.427 341.9 172.227 341.3ZM188.705 348L182.83 340.175L188.03 335.1H185.18L179.28 341.25V335.1H177.155V348H179.28V343.625L181.305 341.65L186.005 348H188.705ZM189.619 348H206.644V335.1H204.519V346.125H199.194V335.1H197.069V346.125H191.744V335.1H189.619V348ZM211.458 348V342.1H217.908V348H220.033V335.1H217.908V340.225H211.458V335.1H209.333V348H211.458Z" fill="white"/>
<path d="M570.475 329.775C565.3 329.775 561.975 333.35 561.975 338.9C561.975 344.075 564.8 348.425 570.5 348.425C576.15 348.425 579.025 344.175 579.025 338.95C579.025 333.65 576 329.775 570.475 329.775ZM570.475 331.825C574.25 331.825 576.675 334.675 576.675 339.075C576.675 343.5 574.25 346.4 570.525 346.4C566.75 346.4 564.325 343.525 564.325 339.075C564.325 335.275 566.275 331.825 570.475 331.825ZM583.219 348V342.1H589.669V348H591.794V335.1H589.669V340.225H583.219V335.1H581.094V348H583.219ZM605.236 335.1H596.461L596.236 342.9C596.161 345.7 595.211 346.45 594.361 346.45C594.086 346.45 593.511 346.425 593.236 346.275V348C593.511 348.125 594.136 348.275 594.761 348.275C596.561 348.275 598.211 346.9 598.336 342.675L598.511 336.975H603.111V348H605.236V335.1ZM619.302 346.3C619.077 346.35 618.977 346.375 618.777 346.375C618.127 346.375 617.902 346.05 617.902 345.1C617.902 343.175 618.002 341.275 618.002 339.35C618.002 338.2 618.027 336.875 617.127 336C616.277 335.2 614.802 334.75 613.077 334.75C609.752 334.75 607.752 336.375 607.677 339.125H609.752C609.952 337.225 610.977 336.5 612.952 336.5C614.852 336.5 615.877 337.25 615.877 338.625C615.877 340.375 614.827 340.3 611.752 340.675C608.702 341.05 607.177 342.4 607.177 344.7C607.177 346.95 608.752 348.35 611.302 348.35C613.302 348.35 614.702 347.725 615.977 346.3C616.002 347.525 616.652 348.2 617.852 348.2C618.327 348.2 618.852 348.125 619.302 347.95V346.3ZM615.877 341.3V343.65C615.877 345.3 613.952 346.675 611.952 346.675C610.352 346.675 609.377 345.85 609.377 344.525C609.377 342.45 611.477 342.275 613.027 342.075C613.977 341.95 615.077 341.9 615.877 341.3ZM629.93 330.2H628.655C628.255 331.4 627.455 332.15 626.155 332.15C624.88 332.15 624.005 331.4 623.655 330.2H622.38C622.63 332.2 624.105 333.65 626.18 333.65C628.355 333.65 629.605 332.2 629.93 330.2ZM623.53 348L629.33 337.475H629.38V348H631.505V335.1H628.78L622.98 345.625H622.93V335.1H620.805V348H623.53ZM636.322 348V342.1H642.772V348H644.897V335.1H642.772V340.225H636.322V335.1H634.197V348H636.322ZM654.488 340H647.213V342.1H654.488V340ZM656.805 348H673.83V335.1H671.705V346.125H666.38V335.1H664.255V346.125H658.93V335.1H656.805V348ZM688.07 348L682.195 340.175L687.395 335.1H684.545L678.645 341.25V335.1H676.52V348H678.645V343.625L680.67 341.65L685.37 348H688.07ZM694.634 334.725C690.734 334.725 688.309 337.35 688.309 341.6C688.309 345.85 690.659 348.4 694.609 348.4C698.534 348.4 700.809 345.85 700.809 341.475C700.809 337.2 698.534 334.725 694.634 334.725ZM694.584 336.5C697.084 336.5 698.634 338.45 698.634 341.525C698.634 344.7 697.134 346.6 694.634 346.6C692.034 346.6 690.509 344.725 690.509 341.55C690.509 338.475 692.084 336.5 694.584 336.5ZM712.979 335.1H704.204L703.979 342.9C703.904 345.7 702.954 346.45 702.104 346.45C701.829 346.45 701.254 346.425 700.979 346.275V348C701.254 348.125 701.879 348.275 702.504 348.275C704.304 348.275 705.954 346.9 706.079 342.675L706.254 336.975H710.854V348H712.979V335.1ZM727.921 335.1V348H730.046V335.1H727.921ZM725.871 343.975C725.871 341.525 724.196 340.025 721.671 340.025H717.671V335.1H715.546V348H721.771C724.296 348 725.871 346.4 725.871 343.975ZM720.996 341.85C722.771 341.85 723.671 342.6 723.671 343.975C723.671 345.35 722.746 346.125 720.996 346.125H717.671V341.85H720.996Z" fill="white"/>
<g filter="url(#filter0_f)">
<circle cx="389.4" cy="192.36" r="68.5" stroke="#45A8FD"/>
</g>
<g opacity="0.7" filter="url(#filter1_f)">
<circle cx="590.023" cy="193.513" r="47" stroke="#45A8FD"/>
</g>
<g opacity="0.7" filter="url(#filter2_f)">
<circle cx="188.275" cy="193.513" r="47" stroke="#45A8FD"/>
</g>
<g opacity="0.7" filter="url(#filter3_f)">
<circle cx="285.713" cy="53.5" r="47" stroke="#45A8FD"/>
</g>
<g opacity="0.7" filter="url(#filter4_f)">
<circle cx="493.295" cy="53.5" r="47" stroke="#45A8FD"/>
</g>
<g opacity="0.7" filter="url(#filter5_f)">
<circle cx="285.713" cy="336.707" r="47" stroke="#45A8FD"/>
</g>
<g opacity="0.7" filter="url(#filter6_f)">
<circle cx="493.295" cy="336.707" r="47" stroke="#45A8FD"/>
</g>
<g filter="url(#filter7_f)">
<path d="M350.999 136.386L316.434 89.9478" stroke="#4DB5FF"/>
</g>
<g filter="url(#filter8_f)">
<path d="M428.062 136.386L463.193 89.9478" stroke="#4DB5FF"/>
</g>
<g filter="url(#filter9_f)">
<path d="M351.565 251.915L316.434 298.92" stroke="#4DB5FF"/>
</g>
<g filter="url(#filter10_f)">
<path d="M428.628 251.915L463.76 298.92" stroke="#4DB5FF"/>
</g>
<g filter="url(#filter11_f)">
<path d="M237.104 194.717H319.266" stroke="#4DB5FF"/>
</g>
<g filter="url(#filter12_f)">
<path d="M459.793 194.717H541.389" stroke="#4DB5FF"/>
</g>
<g filter="url(#filter13_f)">
<ellipse cx="463.193" cy="89.9479" rx="3.96648" ry="3.96447" fill="#57B9FF"/>
</g>
<g filter="url(#filter14_f)">
<ellipse cx="316.433" cy="89.9479" rx="3.96648" ry="3.96447" fill="#57B9FF"/>
</g>
<g filter="url(#filter15_f)">
<ellipse cx="351" cy="134.404" rx="3.96648" ry="4.24765" fill="#57B9FF"/>
</g>
<g filter="url(#filter16_f)">
<ellipse cx="428.629" cy="134.404" rx="3.96648" ry="4.24765" fill="#57B9FF"/>
</g>
<g filter="url(#filter17_f)">
<ellipse cx="459.226" cy="194.151" rx="3.96648" ry="3.96447" fill="#57B9FF"/>
</g>
<g filter="url(#filter18_f)">
<ellipse cx="541.957" cy="194.151" rx="3.96648" ry="3.96447" fill="#57B9FF"/>
</g>
<g filter="url(#filter19_f)">
<ellipse cx="428.629" cy="251.915" rx="3.96648" ry="3.96447" fill="#57B9FF"/>
</g>
<g filter="url(#filter20_f)">
<ellipse cx="463.759" cy="298.353" rx="3.96648" ry="3.96447" fill="#57B9FF"/>
</g>
<g filter="url(#filter21_f)">
<ellipse cx="317" cy="298.353" rx="3.96648" ry="3.96447" fill="#57B9FF"/>
</g>
<g filter="url(#filter22_f)">
<ellipse cx="351.566" cy="251.915" rx="3.96648" ry="3.96447" fill="#57B9FF"/>
</g>
<g filter="url(#filter23_f)">
<ellipse cx="319.267" cy="194.151" rx="3.96648" ry="3.96447" fill="#57B9FF"/>
</g>
<g filter="url(#filter24_f)">
<ellipse cx="237.672" cy="194.151" rx="3.96648" ry="3.96447" fill="#57B9FF"/>
</g>
<rect x="277.398" y="70.0986" width="15.3574" height="1.05856" stroke="white" stroke-width="1.05856"/>
<rect x="281.326" y="67.6733" width="8.03187" height="1.67568" stroke="white" stroke-width="1.5"/>
<rect x="266.498" y="41.8481" width="37.141" height="24.7197" rx="2.25" stroke="white" stroke-width="1.5"/>
<rect x="268.086" y="43.8579" width="33.9797" height="18.0822" rx="2.25" stroke="white" stroke-width="1.5"/>
<rect x="283.615" y="64.378" width="2.90806" height="0.58126" rx="0.29063" stroke="white" stroke-width="0.58126"/>
<path d="M290.703 54.8203L290.715 54.7887L292.37 50.6556L305.288 35.4081C305.647 34.9846 306.282 34.9343 306.703 35.2961L307.555 36.0281L308.414 36.7668C308.832 37.126 308.88 37.7556 308.522 38.1746L295.6 53.3034L291.723 55.6811C291.146 56.0351 290.451 55.4489 290.703 54.8203Z" fill="url(#paint2_linear)"/>
<path d="M292.37 50.6556L290.715 54.7887M292.37 50.6556L305.288 35.4081C305.647 34.9846 306.282 34.9343 306.703 35.2961L307.555 36.0281M292.37 50.6556L293.985 51.9795M295.6 53.3034L291.723 55.6811M295.6 53.3034L308.522 38.1746C308.88 37.7556 308.832 37.126 308.414 36.7668L307.555 36.0281M295.6 53.3034L293.985 51.9795M290.715 54.7887L290.703 54.8203C290.451 55.4489 291.146 56.0351 291.723 55.6811V55.6811M290.715 54.7887L291.723 55.6811M293.985 51.9795L307.555 36.0281" stroke="white" stroke-width="1.5"/>
<path d="M488.526 39.0044C488.526 39.8686 487.825 40.5699 486.959 40.5699C486.094 40.5699 485.393 39.8686 485.393 39.0044C485.393 38.1402 486.094 37.439 486.959 37.439C487.825 37.439 488.526 38.1402 488.526 39.0044Z" stroke="white" stroke-width="1.5"/>
<mask id="path-42-inside-1" fill="white">
<ellipse cx="486.959" cy="39.0044" rx="0.873484" ry="0.873042"/>
</mask>
<path d="M486.333 39.0044C486.333 38.6574 486.614 38.3774 486.959 38.3774V41.3774C488.27 41.3774 489.333 40.3157 489.333 39.0044H486.333ZM486.959 38.3774C487.305 38.3774 487.586 38.6574 487.586 39.0044H484.586C484.586 40.3157 485.649 41.3774 486.959 41.3774V38.3774ZM487.586 39.0044C487.586 39.3514 487.305 39.6313 486.959 39.6313V36.6313C485.649 36.6313 484.586 37.6931 484.586 39.0044H487.586ZM486.959 39.6313C486.614 39.6313 486.333 39.3514 486.333 39.0044H489.333C489.333 37.6931 488.27 36.6313 486.959 36.6313V39.6313Z" fill="white" mask="url(#path-42-inside-1)"/>
<path d="M504.201 67.0632H485.363C484.121 67.0632 483.113 66.0558 483.113 64.8132V37.6396C483.113 36.397 484.121 35.3896 485.363 35.3896H500.244L506.451 41.5927V64.8132C506.451 66.0558 505.443 67.0632 504.201 67.0632Z" stroke="white" stroke-width="1.5"/>
<rect x="499.613" y="46.0171" width="12.1547" height="6.39682" rx="1.25" fill="#100C20" stroke="white" stroke-width="1.5"/>
<path d="M504.354 49.1943C504.354 50.0951 503.623 50.826 502.721 50.826C501.819 50.826 501.088 50.0951 501.088 49.1943C501.088 48.2934 501.819 47.5625 502.721 47.5625C503.623 47.5625 504.354 48.2934 504.354 49.1943Z" stroke="white" stroke-width="1.5"/>
<mask id="path-47-inside-2" fill="white">
<ellipse cx="502.722" cy="49.1753" rx="0.794322" ry="0.79392"/>
</mask>
<path d="M502.016 49.1753C502.016 48.7846 502.333 48.4692 502.722 48.4692V51.4692C503.988 51.4692 505.016 50.4429 505.016 49.1753H502.016ZM502.722 48.4692C503.111 48.4692 503.428 48.7846 503.428 49.1753H500.428C500.428 50.4429 501.456 51.4692 502.722 51.4692V48.4692ZM503.428 49.1753C503.428 49.5659 503.111 49.8813 502.722 49.8813V46.8813C501.456 46.8813 500.428 47.9077 500.428 49.1753H503.428ZM502.722 49.8813C502.333 49.8813 502.016 49.5659 502.016 49.1753H505.016C505.016 47.9077 503.988 46.8813 502.722 46.8813V49.8813Z" fill="white" mask="url(#path-47-inside-2)"/>
<path d="M506.334 48.1865H510.499M506.334 50.032H510.499" stroke="white" stroke-width="1.5" stroke-linecap="round" stroke-linejoin="round"/>
<rect x="475.67" y="58.6948" width="25.2362" height="12.3919" rx="2.25" fill="#110D20" stroke="white" stroke-width="1.5"/>
<path d="M481.614 64.7388C481.614 65.603 480.913 66.3043 480.047 66.3043C479.182 66.3043 478.48 65.603 478.48 64.7388C478.48 63.8746 479.182 63.1733 480.047 63.1733C480.913 63.1733 481.614 63.8746 481.614 64.7388Z" stroke="white" stroke-width="1.5"/>
<mask id="path-52-inside-3" fill="white">
<ellipse cx="480.047" cy="64.7388" rx="0.873484" ry="0.873042"/>
</mask>
<path d="M479.421 64.7388C479.421 64.3918 479.702 64.1118 480.047 64.1118V67.1118C481.357 67.1118 482.421 66.0501 482.421 64.7388H479.421ZM480.047 64.1118C480.393 64.1118 480.674 64.3918 480.674 64.7388H477.674C477.674 66.0501 478.737 67.1118 480.047 67.1118V64.1118ZM480.674 64.7388C480.674 65.0857 480.393 65.3657 480.047 65.3657V62.3657C478.737 62.3657 477.674 63.4275 477.674 64.7388H480.674ZM480.047 65.3657C479.702 65.3657 479.421 65.0857 479.421 64.7388H482.421C482.421 63.4275 481.357 62.3657 480.047 62.3657V65.3657Z" fill="white" mask="url(#path-52-inside-3)"/>
<path d="M492.617 62.3853H498.352M492.617 64.9285H498.352M492.617 67.206H498.352" stroke="white" stroke-width="1.5" stroke-linecap="round" stroke-linejoin="round"/>
<path d="M169.711 191.634C169.711 192.836 168.737 193.811 167.533 193.811C166.33 193.811 165.355 192.836 165.355 191.634C165.355 190.433 166.33 189.458 167.533 189.458C168.737 189.458 169.711 190.433 169.711 191.634Z" stroke="white" stroke-width="1.5"/>
<path d="M183.375 180.741C183.375 181.942 182.401 182.917 181.197 182.917C179.994 182.917 179.02 181.942 179.02 180.741C179.02 179.539 179.994 178.564 181.197 178.564C182.401 178.564 183.375 179.539 183.375 180.741Z" stroke="white" stroke-width="1.5"/>
<path d="M198.502 185.78C198.502 186.982 197.528 187.957 196.324 187.957C195.121 187.957 194.146 186.982 194.146 185.78C194.146 184.579 195.121 183.604 196.324 183.604C197.528 183.604 198.502 184.579 198.502 185.78Z" stroke="white" stroke-width="1.5"/>
<path d="M211.516 177.815C211.516 179.016 210.541 179.991 209.338 179.991C208.135 179.991 207.16 179.016 207.16 177.815C207.16 176.613 208.135 175.638 209.338 175.638C210.541 175.638 211.516 176.613 211.516 177.815Z" stroke="white" stroke-width="1.5"/>
<path d="M169.729 189.846L178.756 182.042M184.124 180.904L193.64 185.213M199.089 185.213L207.222 179.685" stroke="white" stroke-width="1.5"/>
<path d="M173.226 211.304H167.045V198.949L173.226 194.397V211.304Z" stroke="white" stroke-width="1.5"/>
<path d="M174.609 192.934V211.304H180.79V187.325L174.609 192.934Z" stroke="white" stroke-width="1.5"/>
<path d="M182.66 211.304V186.106L188.841 188.707V211.304H182.66Z" stroke="white" stroke-width="1.5"/>
<path d="M190.143 211.304V189.439L196.324 192.609V211.304H190.143Z" stroke="white" stroke-width="1.5"/>
<path d="M197.462 211.304V192.609L203.237 187.813V211.304H197.462Z" stroke="white" stroke-width="1.5"/>
<path d="M210.15 183.099L204.457 186.919V211.304H210.15V183.099Z" stroke="white" stroke-width="1.5"/>
<path d="M571.709 178.258H607.796C608.487 178.258 609.046 178.817 609.046 179.508V204.274C609.046 204.964 608.487 205.524 607.796 205.524H588.639C587.932 205.524 587.252 205.796 586.74 206.284L581.168 211.601C580.373 212.36 579.055 211.796 579.055 210.696V208.274C579.055 206.755 577.824 205.524 576.305 205.524H571.709C571.019 205.524 570.459 204.964 570.459 204.274V179.508C570.459 178.817 571.019 178.258 571.709 178.258Z" stroke="white" stroke-width="1.5"/>
<path d="M610.378 195.635L610.371 195.671L610.368 195.708C610.321 196.237 610.096 197.069 609.588 197.77C609.098 198.446 608.353 198.997 607.197 199.067C604.41 199.234 597.669 199.137 594.623 199.066C594.432 199.06 594.1 199.024 593.773 198.937C593.422 198.843 593.2 198.721 593.109 198.623C592.996 198.503 592.893 198.391 592.799 198.29C592.244 197.688 591.286 197.913 591 198.597H586.092C585.401 198.597 584.842 198.038 584.842 197.347V185.611C584.842 184.92 585.401 184.361 586.092 184.361H590.922C590.991 185.157 591.76 185.811 592.635 185.538C593.915 185.139 595.927 184.215 596.984 182.519C597.516 181.666 597.791 180.376 597.94 179.102C598.094 177.795 598.128 176.379 598.108 175.185C598.096 174.455 598.567 174.038 598.995 174.056C599.7 174.087 600.336 174.243 600.777 174.548C601.173 174.823 601.471 175.255 601.471 176.04V180.718C601.471 182.236 602.702 183.468 604.221 183.468H608.635C609.269 183.488 610.181 183.693 610.864 184.2C611.499 184.67 611.986 185.428 611.818 186.748C611.412 189.925 610.689 193.996 610.378 195.635Z" fill="#100C20" stroke="white" stroke-width="1.5"/>
<rect x="584.842" y="184.344" width="6.07494" height="14.2367" rx="3.03747" fill="#100C20" stroke="white" stroke-width="1.5"/>
<path d="M267.338 329.917V328.676C267.338 325.811 270.73 325.143 271.829 324.856L303.55 318.315L304.936 324.856L280.093 329.917M267.338 329.917L280.093 329.917M267.338 329.917V336.029M280.093 329.917H304.936V336.029M267.338 336.029V351.26C267.433 352.979 268.723 356.417 273.119 356.417L299.155 356.417C303.55 356.417 304.84 352.979 304.936 351.26V336.029M267.338 336.029H304.936" stroke="white" stroke-width="1.5"/>
<path d="M289.827 345.267C289.994 345.363 289.994 345.604 289.827 345.7L284.587 348.724C284.42 348.82 284.212 348.7 284.212 348.507L284.212 342.459C284.212 342.267 284.42 342.147 284.587 342.243L289.827 345.267Z" stroke="white" stroke-width="1.5"/>
<path d="M273.112 330.258L269.142 334.226C268.512 334.856 268.958 335.934 269.849 335.934H271.224C271.489 335.934 271.743 335.828 271.931 335.641L275.901 331.672C276.531 331.042 276.085 329.965 275.194 329.965H273.819C273.554 329.965 273.3 330.07 273.112 330.258Z" stroke="white" stroke-width="1.5"/>
<path d="M281.248 329.577L273.454 324.557L277.575 323.73L285.37 328.751L281.248 329.577Z" stroke="white" stroke-width="1.5"/>
<path d="M290.87 327.61L283.075 322.59L287.197 321.763L294.991 326.783L290.87 327.61Z" stroke="white" stroke-width="1.5"/>
<path d="M300.183 325.463L294.632 321.956C293.869 321.474 294.084 320.308 294.969 320.13L296.256 319.872C296.503 319.823 296.761 319.868 296.976 320.001L302.655 323.488C303.432 323.965 303.218 325.147 302.324 325.322L300.909 325.599C300.659 325.648 300.399 325.599 300.183 325.463Z" stroke="white" stroke-width="1.5"/>
<path d="M282.481 329.965L276.51 335.934H280.714L286.686 329.965H282.481Z" stroke="white" stroke-width="1.5"/>
<path d="M291.655 329.965L285.684 335.934H289.888L295.859 329.965H291.655Z" stroke="white" stroke-width="1.5"/>
<path d="M300.731 329.965L294.76 335.934H298.964L304.936 329.965H300.731Z" stroke="white" stroke-width="1.5"/>
<rect x="489.88" y="354.964" width="12.4451" height="1.3232" stroke="white" stroke-width="1.3232"/>
<rect x="492.49" y="353.249" width="6.91853" height="1.22675" stroke="white" stroke-width="1.22675"/>
<rect x="479.906" y="330.973" width="31.8622" height="21.1377" rx="2.25" stroke="white" stroke-width="1.5"/>
<rect x="481.496" y="332.825" width="28.6842" height="14.3774" rx="2.25" stroke="white" stroke-width="1.5"/>
<rect x="494.583" y="350.323" width="2.51078" height="0.501852" rx="0.250926" stroke="white" stroke-width="0.501852"/>
<path d="M487.168 331.502C484.977 332.168 482.699 333.057 480.997 333.775C479.865 334.254 478.544 333.657 478.198 332.478L477.837 331.247C477.56 330.304 478.01 329.299 478.913 328.908C480.653 328.156 483.215 327.131 485.667 326.386C488.268 325.596 491.389 325.241 493.457 325.112C494.351 325.056 495.144 325.645 495.396 326.505L495.727 327.634C496.1 328.905 495.156 330.196 493.835 330.313C491.857 330.489 489.333 330.845 487.168 331.502Z" fill="#100C20"/>
<path d="M485.179 324.978C482.176 325.889 479.008 327.222 477.388 327.959C477.046 328.114 476.67 328.177 476.298 328.133L474.705 327.947L474.705 338.706L475.245 339.455C475.556 339.886 475.248 340.487 474.717 340.487C474.193 340.487 473.883 339.899 474.181 339.467L474.705 338.706L474.705 327.947C473.14 327.764 472.555 325.798 473.764 324.789L481.901 317.998C482.322 317.646 482.869 317.483 483.415 317.547L495.117 318.916C496.937 319.129 497.536 321.472 496.043 322.533L494.991 323.28C494.659 323.516 494.264 323.643 493.857 323.658C491.892 323.732 488.188 324.064 485.179 324.978Z" fill="#100C20"/>
<path d="M474.705 327.947L476.298 328.133C476.67 328.177 477.046 328.114 477.388 327.959C479.008 327.222 482.176 325.889 485.179 324.978C488.188 324.064 491.892 323.732 493.857 323.658C494.264 323.643 494.659 323.516 494.991 323.28L496.043 322.533C497.536 321.472 496.937 319.129 495.117 318.916L483.415 317.547C482.869 317.483 482.322 317.646 481.901 317.998L473.764 324.789C472.555 325.798 473.14 327.764 474.705 327.947V327.947ZM474.705 327.947L474.705 338.706M474.705 338.706L474.181 339.467C473.883 339.899 474.193 340.487 474.717 340.487V340.487C475.248 340.487 475.556 339.886 475.245 339.455L474.705 338.706ZM487.168 331.502C484.977 332.168 482.699 333.057 480.997 333.775C479.865 334.254 478.544 333.657 478.198 332.478L477.837 331.247C477.56 330.304 478.01 329.299 478.913 328.908C480.653 328.156 483.215 327.131 485.667 326.386C488.268 325.596 491.389 325.241 493.457 325.112C494.351 325.056 495.144 325.645 495.396 326.505L495.727 327.634C496.1 328.905 495.156 330.196 493.835 330.313C491.857 330.489 489.333 330.845 487.168 331.502Z" stroke="white" stroke-width="1.5"/>
<defs>
<filter id="filter0_f" x="314.4" y="117.36" width="150" height="150" filterUnits="userSpaceOnUse" color-interpolation-filters="sRGB">
<feFlood flood-opacity="0" result="BackgroundImageFix"/>
<feBlend mode="normal" in="SourceGraphic" in2="BackgroundImageFix" result="shape"/>
<feGaussianBlur stdDeviation="3" result="effect1_foregroundBlur"/>
</filter>
<filter id="filter1_f" x="536.523" y="140.013" width="107" height="107" filterUnits="userSpaceOnUse" color-interpolation-filters="sRGB">
<feFlood flood-opacity="0" result="BackgroundImageFix"/>
<feBlend mode="normal" in="SourceGraphic" in2="BackgroundImageFix" result="shape"/>
<feGaussianBlur stdDeviation="3" result="effect1_foregroundBlur"/>
</filter>
<filter id="filter2_f" x="134.775" y="140.013" width="107" height="107" filterUnits="userSpaceOnUse" color-interpolation-filters="sRGB">
<feFlood flood-opacity="0" result="BackgroundImageFix"/>
<feBlend mode="normal" in="SourceGraphic" in2="BackgroundImageFix" result="shape"/>
<feGaussianBlur stdDeviation="3" result="effect1_foregroundBlur"/>
</filter>
<filter id="filter3_f" x="232.213" y="0" width="107" height="107" filterUnits="userSpaceOnUse" color-interpolation-filters="sRGB">
<feFlood flood-opacity="0" result="BackgroundImageFix"/>
<feBlend mode="normal" in="SourceGraphic" in2="BackgroundImageFix" result="shape"/>
<feGaussianBlur stdDeviation="3" result="effect1_foregroundBlur"/>
</filter>
<filter id="filter4_f" x="439.795" y="0" width="107" height="107" filterUnits="userSpaceOnUse" color-interpolation-filters="sRGB">
<feFlood flood-opacity="0" result="BackgroundImageFix"/>
<feBlend mode="normal" in="SourceGraphic" in2="BackgroundImageFix" result="shape"/>
<feGaussianBlur stdDeviation="3" result="effect1_foregroundBlur"/>
</filter>
<filter id="filter5_f" x="232.213" y="283.207" width="107" height="107" filterUnits="userSpaceOnUse" color-interpolation-filters="sRGB">
<feFlood flood-opacity="0" result="BackgroundImageFix"/>
<feBlend mode="normal" in="SourceGraphic" in2="BackgroundImageFix" result="shape"/>
<feGaussianBlur stdDeviation="3" result="effect1_foregroundBlur"/>
</filter>
<filter id="filter6_f" x="439.795" y="283.207" width="107" height="107" filterUnits="userSpaceOnUse" color-interpolation-filters="sRGB">
<feFlood flood-opacity="0" result="BackgroundImageFix"/>
<feBlend mode="normal" in="SourceGraphic" in2="BackgroundImageFix" result="shape"/>
<feGaussianBlur stdDeviation="3" result="effect1_foregroundBlur"/>
</filter>
<filter id="filter7_f" x="310.033" y="83.6494" width="47.3672" height="59.0352" filterUnits="userSpaceOnUse" color-interpolation-filters="sRGB">
<feFlood flood-opacity="0" result="BackgroundImageFix"/>
<feBlend mode="normal" in="SourceGraphic" in2="BackgroundImageFix" result="shape"/>
<feGaussianBlur stdDeviation="3" result="effect1_foregroundBlur"/>
</filter>
<filter id="filter8_f" x="421.662" y="83.646" width="47.9292" height="59.0415" filterUnits="userSpaceOnUse" color-interpolation-filters="sRGB">
<feFlood flood-opacity="0" result="BackgroundImageFix"/>
<feBlend mode="normal" in="SourceGraphic" in2="BackgroundImageFix" result="shape"/>
<feGaussianBlur stdDeviation="3" result="effect1_foregroundBlur"/>
</filter>
<filter id="filter9_f" x="310.033" y="245.616" width="47.9327" height="59.6031" filterUnits="userSpaceOnUse" color-interpolation-filters="sRGB">
<feFlood flood-opacity="0" result="BackgroundImageFix"/>
<feBlend mode="normal" in="SourceGraphic" in2="BackgroundImageFix" result="shape"/>
<feGaussianBlur stdDeviation="3" result="effect1_foregroundBlur"/>
</filter>
<filter id="filter10_f" x="422.229" y="245.616" width="47.9327" height="59.6031" filterUnits="userSpaceOnUse" color-interpolation-filters="sRGB">
<feFlood flood-opacity="0" result="BackgroundImageFix"/>
<feBlend mode="normal" in="SourceGraphic" in2="BackgroundImageFix" result="shape"/>
<feGaussianBlur stdDeviation="3" result="effect1_foregroundBlur"/>
</filter>
<filter id="filter11_f" x="231.104" y="188.217" width="94.1628" height="13" filterUnits="userSpaceOnUse" color-interpolation-filters="sRGB">
<feFlood flood-opacity="0" result="BackgroundImageFix"/>
<feBlend mode="normal" in="SourceGraphic" in2="BackgroundImageFix" result="shape"/>
<feGaussianBlur stdDeviation="3" result="effect1_foregroundBlur"/>
</filter>
<filter id="filter12_f" x="453.793" y="188.217" width="93.5962" height="13" filterUnits="userSpaceOnUse" color-interpolation-filters="sRGB">
<feFlood flood-opacity="0" result="BackgroundImageFix"/>
<feBlend mode="normal" in="SourceGraphic" in2="BackgroundImageFix" result="shape"/>
<feGaussianBlur stdDeviation="3" result="effect1_foregroundBlur"/>
</filter>
<filter id="filter13_f" x="453.227" y="79.9834" width="19.933" height="19.9289" filterUnits="userSpaceOnUse" color-interpolation-filters="sRGB">
<feFlood flood-opacity="0" result="BackgroundImageFix"/>
<feBlend mode="normal" in="SourceGraphic" in2="BackgroundImageFix" result="shape"/>
<feGaussianBlur stdDeviation="3" result="effect1_foregroundBlur"/>
</filter>
<filter id="filter14_f" x="306.467" y="79.9834" width="19.933" height="19.9289" filterUnits="userSpaceOnUse" color-interpolation-filters="sRGB">
<feFlood flood-opacity="0" result="BackgroundImageFix"/>
<feBlend mode="normal" in="SourceGraphic" in2="BackgroundImageFix" result="shape"/>
<feGaussianBlur stdDeviation="3" result="effect1_foregroundBlur"/>
</filter>
<filter id="filter15_f" x="341.033" y="124.157" width="19.933" height="20.4953" filterUnits="userSpaceOnUse" color-interpolation-filters="sRGB">
<feFlood flood-opacity="0" result="BackgroundImageFix"/>
<feBlend mode="normal" in="SourceGraphic" in2="BackgroundImageFix" result="shape"/>
<feGaussianBlur stdDeviation="3" result="effect1_foregroundBlur"/>
</filter>
<filter id="filter16_f" x="418.662" y="124.157" width="19.933" height="20.4953" filterUnits="userSpaceOnUse" color-interpolation-filters="sRGB">
<feFlood flood-opacity="0" result="BackgroundImageFix"/>
<feBlend mode="normal" in="SourceGraphic" in2="BackgroundImageFix" result="shape"/>
<feGaussianBlur stdDeviation="3" result="effect1_foregroundBlur"/>
</filter>
<filter id="filter17_f" x="449.26" y="184.186" width="19.933" height="19.9289" filterUnits="userSpaceOnUse" color-interpolation-filters="sRGB">
<feFlood flood-opacity="0" result="BackgroundImageFix"/>
<feBlend mode="normal" in="SourceGraphic" in2="BackgroundImageFix" result="shape"/>
<feGaussianBlur stdDeviation="3" result="effect1_foregroundBlur"/>
</filter>
<filter id="filter18_f" x="531.99" y="184.186" width="19.933" height="19.9289" filterUnits="userSpaceOnUse" color-interpolation-filters="sRGB">
<feFlood flood-opacity="0" result="BackgroundImageFix"/>
<feBlend mode="normal" in="SourceGraphic" in2="BackgroundImageFix" result="shape"/>
<feGaussianBlur stdDeviation="3" result="effect1_foregroundBlur"/>
</filter>
<filter id="filter19_f" x="418.662" y="241.951" width="19.933" height="19.9289" filterUnits="userSpaceOnUse" color-interpolation-filters="sRGB">
<feFlood flood-opacity="0" result="BackgroundImageFix"/>
<feBlend mode="normal" in="SourceGraphic" in2="BackgroundImageFix" result="shape"/>
<feGaussianBlur stdDeviation="3" result="effect1_foregroundBlur"/>
</filter>
<filter id="filter20_f" x="453.793" y="288.388" width="19.933" height="19.9289" filterUnits="userSpaceOnUse" color-interpolation-filters="sRGB">
<feFlood flood-opacity="0" result="BackgroundImageFix"/>
<feBlend mode="normal" in="SourceGraphic" in2="BackgroundImageFix" result="shape"/>
<feGaussianBlur stdDeviation="3" result="effect1_foregroundBlur"/>
</filter>
<filter id="filter21_f" x="307.033" y="288.388" width="19.933" height="19.9289" filterUnits="userSpaceOnUse" color-interpolation-filters="sRGB">
<feFlood flood-opacity="0" result="BackgroundImageFix"/>
<feBlend mode="normal" in="SourceGraphic" in2="BackgroundImageFix" result="shape"/>
<feGaussianBlur stdDeviation="3" result="effect1_foregroundBlur"/>
</filter>
<filter id="filter22_f" x="341.6" y="241.951" width="19.933" height="19.9289" filterUnits="userSpaceOnUse" color-interpolation-filters="sRGB">
<feFlood flood-opacity="0" result="BackgroundImageFix"/>
<feBlend mode="normal" in="SourceGraphic" in2="BackgroundImageFix" result="shape"/>
<feGaussianBlur stdDeviation="3" result="effect1_foregroundBlur"/>
</filter>
<filter id="filter23_f" x="309.301" y="184.186" width="19.933" height="19.9289" filterUnits="userSpaceOnUse" color-interpolation-filters="sRGB">
<feFlood flood-opacity="0" result="BackgroundImageFix"/>
<feBlend mode="normal" in="SourceGraphic" in2="BackgroundImageFix" result="shape"/>
<feGaussianBlur stdDeviation="3" result="effect1_foregroundBlur"/>
</filter>
<filter id="filter24_f" x="227.705" y="184.186" width="19.933" height="19.9289" filterUnits="userSpaceOnUse" color-interpolation-filters="sRGB">
<feFlood flood-opacity="0" result="BackgroundImageFix"/>
<feBlend mode="normal" in="SourceGraphic" in2="BackgroundImageFix" result="shape"/>
<feGaussianBlur stdDeviation="3" result="effect1_foregroundBlur"/>
</filter>
<radialGradient id="paint0_radial" cx="0" cy="0" r="1" gradientUnits="userSpaceOnUse" gradientTransform="translate(389.5 191.5) rotate(90) scale(56.5005 56.5)">
<stop offset="0.0364583" stop-color="#BDEDFF" stop-opacity="0.74"/>
<stop offset="0.208333" stop-color="#EEFBFF" stop-opacity="0.88"/>
<stop offset="0.953125" stop-color="#59E2F4" stop-opacity="0"/>
</radialGradient>
<radialGradient id="paint1_radial" cx="0" cy="0" r="1" gradientUnits="userSpaceOnUse" gradientTransform="translate(389.5 192.001) rotate(90) scale(14 12.5)">
<stop stop-color="#3A1020" stop-opacity="0.78"/>
<stop offset="0.380208" stop-color="#15080D" stop-opacity="0.85"/>
</radialGradient>
<linearGradient id="paint2_linear" x1="289.885" y1="56.8721" x2="309.291" y2="56.8721" gradientUnits="userSpaceOnUse">
<stop stop-color="#3765E5"/>
<stop offset="1" stop-color="#975DB5"/>
</linearGradient>
</defs>
</svg>
