<svg width="2279" height="2156" viewBox="0 0 2279 2156" fill="none" xmlns="http://www.w3.org/2000/svg">
<g opacity="0.5" filter="url(#filter0_f)">
<path d="M1674.8 807.432C1674.8 1104.32 1391.05 1325.13 1128.85 1325.13C866.639 1325.13 654.078 1084.45 654.078 787.565C654.078 490.676 866.639 250 1128.85 250C1391.05 250 1674.8 510.544 1674.8 807.432Z" fill="url(#paint0_radial)"/>
</g>
<g filter="url(#filter1_f)">
<path d="M1475.27 1074.39C1475.27 1144.61 1408.65 1196.84 1347.09 1196.84C1285.53 1196.84 1235.63 1139.91 1235.63 1069.69C1235.63 999.462 1285.53 942.533 1347.09 942.533C1408.65 942.533 1475.27 1004.16 1475.27 1074.39Z" fill="url(#paint1_radial)"/>
</g>
<g opacity="0.4" filter="url(#filter2_f)">
<path d="M1401.07 1250.2C1401.07 1537.37 1106.14 1770.17 823.101 1770.17C540.061 1770.17 250 1537.37 250 1250.2C250 963.029 540.061 730.232 823.101 730.232C1106.14 730.232 1401.07 963.029 1401.07 1250.2Z" fill="url(#paint2_radial)"/>
</g>
<g opacity="0.33" filter="url(#filter3_f)">
<path d="M1265.98 1706.34C1026.85 1600.49 936.089 1325.02 1016.57 1143.2C1097.04 961.389 1356.13 899.805 1595.26 1005.65C1834.39 1111.5 1963 1344.69 1882.53 1526.5C1802.05 1708.32 1505.11 1812.18 1265.98 1706.34Z" fill="#14216A"/>
</g>
<defs>
<filter id="filter0_f" x="404.078" y="0" width="1520.72" height="1575.13" filterUnits="userSpaceOnUse" color-interpolation-filters="sRGB">
<feFlood flood-opacity="0" result="BackgroundImageFix"/>
<feBlend mode="normal" in="SourceGraphic" in2="BackgroundImageFix" result="shape"/>
<feGaussianBlur stdDeviation="125" result="effect1_foregroundBlur"/>
</filter>
<filter id="filter1_f" x="1135.63" y="842.533" width="439.64" height="454.307" filterUnits="userSpaceOnUse" color-interpolation-filters="sRGB">
<feFlood flood-opacity="0" result="BackgroundImageFix"/>
<feBlend mode="normal" in="SourceGraphic" in2="BackgroundImageFix" result="shape"/>
<feGaussianBlur stdDeviation="50" result="effect1_foregroundBlur"/>
</filter>
<filter id="filter2_f" x="0" y="480.232" width="1651.07" height="1539.93" filterUnits="userSpaceOnUse" color-interpolation-filters="sRGB">
<feFlood flood-opacity="0" result="BackgroundImageFix"/>
<feBlend mode="normal" in="SourceGraphic" in2="BackgroundImageFix" result="shape"/>
<feGaussianBlur stdDeviation="125" result="effect1_foregroundBlur"/>
</filter>
<filter id="filter3_f" x="599" y="564" width="1679.24" height="1591.07" filterUnits="userSpaceOnUse" color-interpolation-filters="sRGB">
<feFlood flood-opacity="0" result="BackgroundImageFix"/>
<feBlend mode="normal" in="SourceGraphic" in2="BackgroundImageFix" result="shape"/>
<feGaussianBlur stdDeviation="125" result="effect1_foregroundBlur"/>
</filter>
<radialGradient id="paint0_radial" cx="0" cy="0" r="1" gradientUnits="userSpaceOnUse" gradientTransform="translate(1164.44 787.564) rotate(133.247) scale(1222.72 1314.53)">
<stop stop-color="#0F9EE1"/>
<stop offset="1" stop-color="#089DE2" stop-opacity="0"/>
</radialGradient>
<radialGradient id="paint1_radial" cx="0" cy="0" r="1" gradientUnits="userSpaceOnUse" gradientTransform="translate(1355.45 1069.69) rotate(133.033) scale(288.208 309.7)">
<stop stop-color="#FBF7F1"/>
<stop offset="1" stop-color="#3C82A3" stop-opacity="0"/>
</radialGradient>
<radialGradient id="paint2_radial" cx="0" cy="0" r="1" gradientUnits="userSpaceOnUse" gradientTransform="translate(825.536 1250.2) rotate(-178.595) scale(1455.92 1658.85)">
<stop stop-color="#911148"/>
<stop offset="1" stop-color="#911148" stop-opacity="0"/>
</radialGradient>
</defs>
</svg>
