<svg width="13" height="13" viewBox="0 0 13 13" fill="none" xmlns="http://www.w3.org/2000/svg">
<path d="M6.5 3.73242C6.78046 3.73242 7.00781 3.50507 7.00781 3.22461C7.00781 2.94415 6.78046 2.7168 6.5 2.7168C6.21954 2.7168 5.99219 2.94415 5.99219 3.22461C5.99219 3.50507 6.21954 3.73242 6.5 3.73242Z" fill="#C4C4C4"/>
<path d="M11.0962 1.90379C9.8685 0.676127 8.23621 0 6.5 0C4.76379 0 3.1315 0.676127 1.90379 1.90379C0.676127 3.1315 0 4.76379 0 6.5C0 8.23621 0.676127 9.8685 1.90379 11.0962C3.1315 12.3239 4.76379 13 6.5 13C7.68861 13 8.85163 12.6761 9.86327 12.0633C10.1032 11.9179 10.1798 11.6057 10.0345 11.3658C9.88919 11.1259 9.57694 11.0493 9.33707 11.1946C8.48413 11.7113 7.50308 11.9844 6.5 11.9844C3.4759 11.9844 1.01562 9.5241 1.01562 6.5C1.01562 3.4759 3.4759 1.01562 6.5 1.01562C9.5241 1.01562 11.9844 3.4759 11.9844 6.5C11.9844 7.58136 11.6628 8.63393 11.0544 9.54393C10.8985 9.77707 10.9612 10.0924 11.1943 10.2483C11.4275 10.4042 11.7428 10.3416 11.8987 10.1084C12.6192 9.03078 13 7.78299 13 6.5C13 4.76379 12.3239 3.1315 11.0962 1.90379Z" fill="#C4C4C4"/>
<path d="M6.5 4.74805C6.21954 4.74805 5.99219 4.97539 5.99219 5.25586V9.77539C5.99219 10.0559 6.21954 10.2832 6.5 10.2832C6.78046 10.2832 7.00781 10.0559 7.00781 9.77539V5.25586C7.00781 4.97539 6.78046 4.74805 6.5 4.74805Z" fill="#C4C4C4"/>
</svg>
